G04*
G04 #@! TF.GenerationSoftware,Altium Limited,Altium Designer,22.3.1 (43)*
G04*
G04 Layer_Physical_Order=2*
G04 Layer_Color=14256728*
%FSLAX25Y25*%
%MOIN*%
G70*
G04*
G04 #@! TF.SameCoordinates,053DD5C4-2321-4C6E-A5A1-E9A81C9A727C*
G04*
G04*
G04 #@! TF.FilePolarity,Positive*
G04*
G01*
G75*
%ADD12C,0.01000*%
%ADD17C,0.00600*%
G04:AMPARAMS|DCode=31|XSize=62.99mil|YSize=106.3mil|CornerRadius=15.75mil|HoleSize=0mil|Usage=FLASHONLY|Rotation=270.000|XOffset=0mil|YOffset=0mil|HoleType=Round|Shape=RoundedRectangle|*
%AMROUNDEDRECTD31*
21,1,0.06299,0.07480,0,0,270.0*
21,1,0.03150,0.10630,0,0,270.0*
1,1,0.03150,-0.03740,-0.01575*
1,1,0.03150,-0.03740,0.01575*
1,1,0.03150,0.03740,0.01575*
1,1,0.03150,0.03740,-0.01575*
%
%ADD31ROUNDEDRECTD31*%
%ADD54C,0.02500*%
%ADD56C,0.04000*%
%ADD57C,0.02000*%
%ADD61C,0.02559*%
%ADD62O,0.06299X0.03937*%
%ADD63O,0.08268X0.03937*%
%ADD64C,0.02400*%
%ADD65C,0.04000*%
%ADD66C,0.05000*%
G36*
X109824Y52622D02*
X109880Y52591D01*
X109945Y52569D01*
X110019Y52555D01*
X110102Y52549D01*
X110193Y52552D01*
X110293Y52562D01*
X110401Y52582D01*
X110518Y52610D01*
X110644Y52646D01*
X109847Y51167D01*
X109800Y51323D01*
X109607Y51838D01*
X109557Y51940D01*
X109455Y52110D01*
X109404Y52179D01*
X109351Y52237D01*
X109776Y52662D01*
X109824Y52622D01*
D02*
G37*
G36*
X116000Y48500D02*
Y41500D01*
X114500Y40000D01*
X108000Y40000D01*
X106894Y38894D01*
X106260D01*
X105372Y38718D01*
X104620Y38215D01*
X104117Y37462D01*
X103940Y36575D01*
Y35941D01*
X101620Y33621D01*
X97933Y29933D01*
X96200D01*
X95537Y29801D01*
X94974Y29426D01*
X90282Y24733D01*
X72267D01*
X64500Y32500D01*
Y42500D01*
X63000Y44000D01*
X53500D01*
X42500Y33000D01*
Y29000D01*
X55636Y15864D01*
X55600Y15778D01*
Y15022D01*
X55889Y14324D01*
X56000Y14213D01*
Y9500D01*
X51500D01*
Y12500D01*
X36500Y27500D01*
Y35470D01*
X42765Y41735D01*
X42826Y41826D01*
X50000Y49000D01*
X67949D01*
X71000Y45949D01*
Y35500D01*
X75000Y31500D01*
X86500D01*
X88480Y33480D01*
X90967D01*
X90972Y33480D01*
X90974Y33460D01*
X92606Y33621D01*
X94176Y34097D01*
X95622Y34870D01*
X96890Y35910D01*
X97930Y37178D01*
X98703Y38624D01*
X99180Y40194D01*
X99340Y41826D01*
X99320D01*
Y44320D01*
X102944Y47944D01*
X102916Y47975D01*
X104508Y49919D01*
X104717Y49717D01*
X105000Y50000D01*
X109813D01*
X109924Y49889D01*
X110622Y49600D01*
X111378D01*
X112076Y49889D01*
X112187Y50000D01*
X114500D01*
X116000Y48500D01*
D02*
G37*
G36*
X5000Y58991D02*
X122500D01*
X122537Y58996D01*
X123022Y58964D01*
X123535Y58862D01*
X124030Y58694D01*
X124499Y58463D01*
X124934Y58172D01*
X125327Y57827D01*
X125672Y57434D01*
X125963Y56999D01*
X126194Y56530D01*
X126362Y56035D01*
X126464Y55522D01*
X126496Y55036D01*
X126491Y55000D01*
Y51009D01*
X117500D01*
X117239Y50974D01*
X116996Y50874D01*
X116787Y50713D01*
X116627Y50504D01*
X116526Y50261D01*
X116491Y50000D01*
Y49660D01*
X116029Y49469D01*
X114999Y50499D01*
X114853Y50612D01*
X114683Y50682D01*
X114500Y50706D01*
X114500Y50706D01*
X113222D01*
X112879Y51206D01*
X112900Y51313D01*
Y51687D01*
X112827Y52054D01*
X112684Y52400D01*
X112476Y52711D01*
X112211Y52976D01*
X111900Y53184D01*
X111554Y53327D01*
X111187Y53400D01*
X110813D01*
X110446Y53327D01*
X110419Y53316D01*
X110339Y53293D01*
X110257Y53273D01*
X110191Y53262D01*
X110153Y53257D01*
X110068Y53323D01*
X109998Y53352D01*
X109970Y53373D01*
X109727Y53474D01*
X109466Y53509D01*
X103600D01*
Y53510D01*
X102893Y53470D01*
X102196Y53352D01*
X101516Y53156D01*
X100862Y52885D01*
X100243Y52543D01*
X99666Y52133D01*
X99138Y51662D01*
X98667Y51134D01*
X98257Y50557D01*
X97915Y49938D01*
X97644Y49284D01*
X97448Y48604D01*
X97330Y47907D01*
X97290Y47200D01*
X97291D01*
Y41826D01*
X97297Y41780D01*
X97260Y41118D01*
X97141Y40418D01*
X96945Y39737D01*
X96674Y39081D01*
X96330Y38460D01*
X95920Y37882D01*
X95447Y37353D01*
X94918Y36880D01*
X94340Y36470D01*
X93719Y36127D01*
X93063Y35855D01*
X92382Y35659D01*
X91682Y35540D01*
X91021Y35503D01*
X90976Y35509D01*
X90971Y35509D01*
X90970Y35508D01*
X90969Y35509D01*
X83457D01*
X83430Y35513D01*
X83397Y35522D01*
X83355Y35537D01*
X83307Y35560D01*
X83250Y35593D01*
X83196Y35630D01*
X83034Y35763D01*
X82949Y35846D01*
X82916Y35871D01*
X82811Y35976D01*
X82500Y36184D01*
X82154Y36327D01*
X81787Y36400D01*
X81413D01*
X81046Y36327D01*
X80700Y36184D01*
X80389Y35976D01*
X80124Y35711D01*
X79916Y35400D01*
X79773Y35054D01*
X79700Y34687D01*
Y34313D01*
X79773Y33946D01*
X79916Y33600D01*
X80124Y33289D01*
X80389Y33024D01*
X80700Y32816D01*
X81046Y32673D01*
X80913Y32206D01*
X75292D01*
X71706Y35792D01*
Y44611D01*
X72168Y44802D01*
X78885Y38085D01*
X79208Y37809D01*
X79570Y37587D01*
X79963Y37424D01*
X80376Y37325D01*
X80800Y37292D01*
X89784D01*
X89823Y37263D01*
X90272Y37034D01*
X90751Y36879D01*
X91248Y36800D01*
X91752D01*
X92249Y36879D01*
X92728Y37034D01*
X93177Y37263D01*
X93585Y37559D01*
X93941Y37915D01*
X94237Y38323D01*
X94466Y38772D01*
X94621Y39251D01*
X94700Y39748D01*
Y40252D01*
X94621Y40749D01*
X94466Y41228D01*
X94237Y41677D01*
X93941Y42085D01*
X93585Y42441D01*
X93177Y42737D01*
X92728Y42966D01*
X92249Y43121D01*
X91752Y43200D01*
X91248D01*
X90751Y43121D01*
X90272Y42966D01*
X89823Y42737D01*
X89784Y42708D01*
X81922D01*
X70215Y54415D01*
X69892Y54691D01*
X69530Y54913D01*
X69137Y55076D01*
X68724Y55175D01*
X68300Y55208D01*
X33222D01*
X32015Y56415D01*
X31934Y56484D01*
X31859Y56559D01*
X31773Y56622D01*
X31692Y56691D01*
X31601Y56747D01*
X31515Y56809D01*
X31420Y56858D01*
X31330Y56913D01*
X31231Y56954D01*
X31136Y57002D01*
X31035Y57035D01*
X30937Y57076D01*
X30833Y57101D01*
X30732Y57134D01*
X30627Y57150D01*
X30524Y57175D01*
X30417Y57183D01*
X30312Y57200D01*
X30206D01*
X30100Y57208D01*
X29994Y57200D01*
X29888D01*
X29783Y57183D01*
X29676Y57175D01*
X29573Y57150D01*
X29468Y57134D01*
X29367Y57101D01*
X29263Y57076D01*
X29165Y57035D01*
X29064Y57002D01*
X28969Y56954D01*
X28870Y56913D01*
X28780Y56858D01*
X28685Y56809D01*
X28599Y56747D01*
X28508Y56691D01*
X28427Y56622D01*
X28341Y56559D01*
X28266Y56484D01*
X28185Y56415D01*
X28116Y56334D01*
X28041Y56259D01*
X27978Y56173D01*
X27909Y56092D01*
X27853Y56001D01*
X27791Y55915D01*
X27742Y55820D01*
X27687Y55730D01*
X27646Y55631D01*
X27598Y55536D01*
X27565Y55435D01*
X27524Y55337D01*
X27499Y55233D01*
X27466Y55132D01*
X27450Y55027D01*
X27425Y54924D01*
X27417Y54817D01*
X27400Y54712D01*
Y54606D01*
X27392Y54500D01*
X27400Y54394D01*
Y54287D01*
X27417Y54182D01*
X27425Y54076D01*
X27450Y53973D01*
X27466Y53868D01*
X27499Y53767D01*
X27524Y53663D01*
X27565Y53565D01*
X27598Y53464D01*
X27646Y53369D01*
X27687Y53270D01*
X27742Y53180D01*
X27791Y53085D01*
X27853Y52999D01*
X27909Y52908D01*
X27978Y52827D01*
X28041Y52741D01*
X28116Y52666D01*
X28185Y52585D01*
X30185Y50585D01*
X30508Y50309D01*
X30870Y50087D01*
X31263Y49924D01*
X31676Y49825D01*
X32100Y49792D01*
X39492D01*
X39900Y49570D01*
Y47678D01*
X40000Y47578D01*
X40016Y47470D01*
X40000Y47387D01*
Y47013D01*
X40073Y46646D01*
X40180Y46387D01*
X40677Y43107D01*
X40341Y42746D01*
X33647Y36053D01*
X33497Y35870D01*
X33386Y35661D01*
X33317Y35435D01*
X33294Y35200D01*
X33294Y35200D01*
Y20179D01*
X33294Y20179D01*
X33317Y19944D01*
X33386Y19718D01*
X33497Y19509D01*
X33647Y19327D01*
X47827Y5147D01*
X47827Y5147D01*
X48009Y4997D01*
X48218Y4886D01*
X48444Y4817D01*
X48679Y4794D01*
X48679Y4794D01*
X75271D01*
X75369Y4791D01*
X75441Y4785D01*
X75503Y4775D01*
X75556Y4763D01*
X75600Y4750D01*
X75637Y4735D01*
X75668Y4719D01*
X75694Y4702D01*
X75717Y4685D01*
X75762Y4643D01*
X75789Y4624D01*
X75889Y4524D01*
X76200Y4316D01*
X76546Y4173D01*
X76913Y4100D01*
X77287D01*
X77654Y4173D01*
X78000Y4316D01*
X78311Y4524D01*
X78576Y4789D01*
X78784Y5100D01*
X78927Y5446D01*
X79000Y5813D01*
Y6187D01*
X78927Y6554D01*
X78784Y6900D01*
X78576Y7211D01*
X78311Y7476D01*
X78000Y7684D01*
X77654Y7827D01*
X77287Y7900D01*
X76913D01*
X76546Y7827D01*
X76200Y7684D01*
X75889Y7476D01*
X75789Y7376D01*
X75762Y7357D01*
X75717Y7315D01*
X75694Y7298D01*
X75668Y7281D01*
X75637Y7265D01*
X75600Y7250D01*
X75556Y7237D01*
X75503Y7225D01*
X75441Y7215D01*
X75369Y7209D01*
X75271Y7206D01*
X49179D01*
X35706Y20679D01*
Y26589D01*
X36206Y26796D01*
X50794Y12207D01*
Y9500D01*
X50818Y9317D01*
X50889Y9147D01*
X51001Y9001D01*
X51147Y8889D01*
X51317Y8818D01*
X51500Y8794D01*
X56000D01*
X56183Y8818D01*
X56353Y8889D01*
X56499Y9001D01*
X56612Y9147D01*
X56682Y9317D01*
X56705Y9494D01*
X89801D01*
X93354Y5940D01*
X93422Y5869D01*
X93468Y5814D01*
X93505Y5764D01*
X93534Y5718D01*
X93555Y5676D01*
X93571Y5639D01*
X93582Y5607D01*
X93589Y5576D01*
X93592Y5548D01*
X93594Y5486D01*
X93600Y5454D01*
Y5313D01*
X93673Y4946D01*
X93816Y4600D01*
X94024Y4289D01*
X94289Y4024D01*
X94600Y3816D01*
X94946Y3673D01*
X95313Y3600D01*
X95687D01*
X96054Y3673D01*
X96400Y3816D01*
X96711Y4024D01*
X96976Y4289D01*
X97184Y4600D01*
X97327Y4946D01*
X97400Y5313D01*
Y5687D01*
X97327Y6054D01*
X97184Y6400D01*
X96976Y6711D01*
X96711Y6976D01*
X96501Y7116D01*
X96578Y7532D01*
X96621Y7616D01*
X108954D01*
X108979Y7612D01*
X109009Y7604D01*
X109046Y7589D01*
X109090Y7568D01*
X109142Y7536D01*
X109200Y7495D01*
X109264Y7442D01*
X109333Y7376D01*
X109419Y7285D01*
X109450Y7260D01*
X109612Y7099D01*
X109923Y6891D01*
X110269Y6748D01*
X110636Y6675D01*
X111010D01*
X111377Y6748D01*
X111723Y6891D01*
X112034Y7099D01*
X112299Y7363D01*
X112507Y7675D01*
X112650Y8020D01*
X112723Y8387D01*
Y8762D01*
X112650Y9129D01*
X112507Y9475D01*
X112299Y9786D01*
X112034Y10050D01*
X111723Y10258D01*
X111377Y10402D01*
X111010Y10475D01*
X110636D01*
X110269Y10402D01*
X109923Y10258D01*
X109612Y10050D01*
X109550Y9989D01*
X109531Y9975D01*
X109432Y9887D01*
X109351Y9821D01*
X109275Y9766D01*
X109206Y9722D01*
X109144Y9688D01*
X109091Y9664D01*
X109046Y9648D01*
X109009Y9638D01*
X108981Y9634D01*
X95293D01*
X91613Y13313D01*
X91404Y13474D01*
X91161Y13574D01*
X90900Y13609D01*
X75818D01*
X73526Y15901D01*
X73510Y15922D01*
X73493Y15952D01*
X73475Y15992D01*
X73457Y16043D01*
X73440Y16106D01*
X73427Y16171D01*
X73408Y16379D01*
X73406Y16498D01*
X73400Y16538D01*
Y16687D01*
X73327Y17054D01*
X73184Y17400D01*
X72976Y17711D01*
X72895Y17792D01*
X73102Y18292D01*
X92500D01*
X92833Y18325D01*
X93154Y18422D01*
X93449Y18580D01*
X93708Y18792D01*
X98208Y23292D01*
X102761D01*
X103038Y23285D01*
X103344Y23259D01*
X103596Y23219D01*
X103791Y23168D01*
X103928Y23114D01*
X104006Y23068D01*
X104090Y22720D01*
X104227Y22389D01*
X104414Y22084D01*
X104646Y21812D01*
X104919Y21579D01*
X105224Y21392D01*
X105555Y21255D01*
X105903Y21171D01*
X106260Y21143D01*
X113740D01*
X114097Y21171D01*
X114445Y21255D01*
X114776Y21392D01*
X115081Y21579D01*
X115354Y21812D01*
X115586Y22084D01*
X115773Y22389D01*
X115910Y22720D01*
X115994Y23068D01*
X116491Y23027D01*
Y10000D01*
X116526Y9739D01*
X116627Y9496D01*
X116787Y9287D01*
X116996Y9127D01*
X117239Y9026D01*
X117500Y8991D01*
X126491D01*
Y5000D01*
X126496Y4964D01*
X126464Y4478D01*
X126362Y3965D01*
X126194Y3470D01*
X125963Y3001D01*
X125672Y2566D01*
X125327Y2173D01*
X124934Y1828D01*
X124499Y1537D01*
X124030Y1306D01*
X123535Y1138D01*
X123022Y1036D01*
X122537Y1004D01*
X122500Y1009D01*
X5000D01*
X4964Y1004D01*
X4478Y1036D01*
X3965Y1138D01*
X3470Y1306D01*
X3001Y1537D01*
X2566Y1828D01*
X2173Y2173D01*
X1828Y2566D01*
X1537Y3001D01*
X1306Y3470D01*
X1138Y3965D01*
X1036Y4478D01*
X1004Y4964D01*
X1009Y5000D01*
Y55000D01*
X1004Y55036D01*
X1036Y55522D01*
X1138Y56035D01*
X1306Y56530D01*
X1537Y56999D01*
X1828Y57434D01*
X2173Y57827D01*
X2566Y58172D01*
X3001Y58463D01*
X3470Y58694D01*
X3965Y58862D01*
X4478Y58964D01*
X4964Y58996D01*
X5000Y58991D01*
D02*
G37*
G36*
X42675Y46273D02*
X42618Y46198D01*
X42567Y46117D01*
X42522Y46030D01*
X42485Y45938D01*
X42454Y45840D01*
X42431Y45736D01*
X42414Y45626D01*
X42403Y45510D01*
X42400Y45389D01*
X41400D01*
X41397Y45510D01*
X41386Y45626D01*
X41369Y45736D01*
X41346Y45840D01*
X41315Y45938D01*
X41278Y46030D01*
X41233Y46117D01*
X41182Y46198D01*
X41125Y46273D01*
X41060Y46343D01*
X42740D01*
X42675Y46273D01*
D02*
G37*
G36*
X82563Y35237D02*
X82771Y35065D01*
X82875Y34994D01*
X82978Y34935D01*
X83080Y34886D01*
X83182Y34849D01*
X83282Y34822D01*
X83382Y34805D01*
X83482Y34800D01*
Y34200D01*
X83382Y34195D01*
X83282Y34178D01*
X83182Y34151D01*
X83080Y34114D01*
X82978Y34065D01*
X82875Y34006D01*
X82771Y33935D01*
X82667Y33854D01*
X82563Y33763D01*
X82457Y33660D01*
Y35340D01*
X82563Y35237D01*
D02*
G37*
G36*
X107823Y31861D02*
X107655Y31959D01*
X107461Y32003D01*
X107241Y31995D01*
X106997Y31932D01*
X106727Y31816D01*
X106431Y31647D01*
X106110Y31424D01*
X105764Y31148D01*
X104995Y30435D01*
X103326Y31595D01*
X103727Y32009D01*
X104352Y32746D01*
X104576Y33069D01*
X104743Y33362D01*
X104850Y33623D01*
X104899Y33855D01*
X104890Y34056D01*
X104822Y34226D01*
X104696Y34366D01*
X107823Y31861D01*
D02*
G37*
G36*
X63794Y42208D02*
Y32500D01*
X63818Y32317D01*
X63889Y32147D01*
X64001Y32001D01*
X64001Y32001D01*
X70831Y25170D01*
X70640Y24708D01*
X57208D01*
X55303Y26613D01*
X55184Y26900D01*
X54976Y27211D01*
X54711Y27476D01*
X54400Y27684D01*
X54054Y27827D01*
X53687Y27900D01*
X53313D01*
X52946Y27827D01*
X52600Y27684D01*
X52289Y27476D01*
X52024Y27211D01*
X51816Y26900D01*
X51673Y26554D01*
X51600Y26187D01*
Y26023D01*
X51100Y25816D01*
X50302Y26613D01*
X50184Y26900D01*
X49976Y27211D01*
X49711Y27476D01*
X49400Y27684D01*
X49054Y27827D01*
X48687Y27900D01*
X48313D01*
X47946Y27827D01*
X47600Y27684D01*
X47289Y27476D01*
X47024Y27211D01*
X46816Y26900D01*
X46673Y26554D01*
X46669Y26536D01*
X46127Y26372D01*
X43206Y29293D01*
Y32708D01*
X53793Y43294D01*
X62708D01*
X63794Y42208D01*
D02*
G37*
G36*
X104755Y23005D02*
X104735Y23194D01*
X104673Y23363D01*
X104569Y23512D01*
X104424Y23642D01*
X104237Y23751D01*
X104010Y23841D01*
X103740Y23910D01*
X103429Y23960D01*
X103077Y23990D01*
X102683Y24000D01*
Y26000D01*
X103077Y26010D01*
X103429Y26040D01*
X103740Y26090D01*
X104010Y26159D01*
X104237Y26249D01*
X104424Y26358D01*
X104569Y26488D01*
X104673Y26637D01*
X104735Y26806D01*
X104755Y26995D01*
Y23005D01*
D02*
G37*
G36*
X72702Y16341D02*
X72728Y16071D01*
X72751Y15948D01*
X72782Y15833D01*
X72820Y15727D01*
X72865Y15628D01*
X72917Y15538D01*
X72976Y15456D01*
X73043Y15381D01*
X72619Y14957D01*
X72544Y15024D01*
X72462Y15083D01*
X72372Y15135D01*
X72273Y15180D01*
X72167Y15218D01*
X72052Y15249D01*
X71929Y15272D01*
X71798Y15289D01*
X71659Y15298D01*
X71512Y15300D01*
X72700Y16488D01*
X72702Y16341D01*
D02*
G37*
G36*
X70105Y17792D02*
X70024Y17711D01*
X69816Y17400D01*
X69673Y17054D01*
X69600Y16687D01*
Y16313D01*
X69673Y15946D01*
X69816Y15600D01*
X70024Y15289D01*
X70289Y15024D01*
X70600Y14816D01*
X70946Y14673D01*
X71313Y14600D01*
X71462D01*
X71502Y14594D01*
X71631Y14592D01*
X71731Y14586D01*
X71819Y14575D01*
X71894Y14560D01*
X71957Y14543D01*
X72008Y14525D01*
X72048Y14507D01*
X72078Y14490D01*
X72100Y14474D01*
X74206Y12368D01*
X74015Y11906D01*
X56706D01*
Y14213D01*
X56706Y14213D01*
X56682Y14396D01*
X56612Y14566D01*
X56499Y14712D01*
X56488Y14724D01*
X56306Y15163D01*
Y15653D01*
X56318Y15682D01*
X56324Y15728D01*
X56336Y15772D01*
Y15818D01*
X56342Y15864D01*
X56336Y15910D01*
Y15956D01*
X56324Y16001D01*
X56318Y16047D01*
X56300Y16090D01*
X56288Y16135D01*
X56265Y16175D01*
X56247Y16217D01*
X56219Y16254D01*
X56196Y16294D01*
X56163Y16327D01*
X56135Y16364D01*
X54707Y17792D01*
X54914Y18292D01*
X69898D01*
X70105Y17792D01*
D02*
G37*
G36*
X109932Y7771D02*
X109832Y7876D01*
X109732Y7971D01*
X109632Y8054D01*
X109532Y8126D01*
X109432Y8186D01*
X109331Y8236D01*
X109231Y8275D01*
X109131Y8303D01*
X109030Y8319D01*
X108929Y8325D01*
X108955Y8925D01*
X109054Y8930D01*
X109153Y8946D01*
X109254Y8972D01*
X109357Y9009D01*
X109461Y9056D01*
X109566Y9114D01*
X109673Y9182D01*
X109781Y9261D01*
X109891Y9350D01*
X110002Y9450D01*
X109932Y7771D01*
D02*
G37*
G36*
X94661Y7051D02*
X94750Y6976D01*
X94840Y6911D01*
X94930Y6854D01*
X95021Y6806D01*
X95113Y6767D01*
X95206Y6737D01*
X95299Y6716D01*
X95393Y6703D01*
X95488Y6700D01*
X94300Y5512D01*
X94297Y5607D01*
X94284Y5701D01*
X94263Y5794D01*
X94233Y5887D01*
X94194Y5979D01*
X94146Y6070D01*
X94089Y6160D01*
X94024Y6250D01*
X93949Y6339D01*
X93866Y6427D01*
X94573Y7134D01*
X94661Y7051D01*
D02*
G37*
G36*
X76243Y5160D02*
X76174Y5225D01*
X76098Y5282D01*
X76017Y5333D01*
X75930Y5378D01*
X75838Y5415D01*
X75740Y5446D01*
X75636Y5469D01*
X75526Y5486D01*
X75410Y5497D01*
X75289Y5500D01*
Y6500D01*
X75410Y6503D01*
X75526Y6514D01*
X75636Y6531D01*
X75740Y6554D01*
X75838Y6585D01*
X75930Y6622D01*
X76017Y6667D01*
X76098Y6718D01*
X76174Y6775D01*
X76243Y6840D01*
Y5160D01*
D02*
G37*
%LPC*%
G36*
X87041Y56513D02*
X86651D01*
X86269Y56437D01*
X85909Y56288D01*
X85585Y56071D01*
X85309Y55795D01*
X85092Y55471D01*
X84943Y55111D01*
X84867Y54728D01*
Y54339D01*
X84943Y53956D01*
X85092Y53596D01*
X85309Y53272D01*
X85585Y52996D01*
X85909Y52779D01*
X86269Y52630D01*
X86651Y52554D01*
X87041D01*
X87424Y52630D01*
X87784Y52779D01*
X88108Y52996D01*
X88384Y53272D01*
X88601Y53596D01*
X88750Y53956D01*
X88826Y54339D01*
Y54728D01*
X88750Y55111D01*
X88601Y55471D01*
X88384Y55795D01*
X88108Y56071D01*
X87784Y56288D01*
X87424Y56437D01*
X87041Y56513D01*
D02*
G37*
G36*
X80348D02*
X79959D01*
X79576Y56437D01*
X79216Y56288D01*
X78892Y56071D01*
X78616Y55795D01*
X78399Y55471D01*
X78250Y55111D01*
X78174Y54728D01*
Y54339D01*
X78250Y53956D01*
X78399Y53596D01*
X78616Y53272D01*
X78892Y52996D01*
X79216Y52779D01*
X79576Y52630D01*
X79959Y52554D01*
X80348D01*
X80731Y52630D01*
X81091Y52779D01*
X81415Y52996D01*
X81691Y53272D01*
X81908Y53596D01*
X82057Y53956D01*
X82133Y54339D01*
Y54728D01*
X82057Y55111D01*
X81908Y55471D01*
X81691Y55795D01*
X81415Y56071D01*
X81091Y56288D01*
X80731Y56437D01*
X80348Y56513D01*
D02*
G37*
G36*
X24000Y56706D02*
X13900D01*
X13717Y56682D01*
X13547Y56612D01*
X13401Y56499D01*
X13289Y56353D01*
X13218Y56183D01*
X13194Y56000D01*
Y48622D01*
X13200Y48576D01*
Y48530D01*
X13212Y48485D01*
X13218Y48439D01*
X13236Y48397D01*
X13248Y48352D01*
X13271Y48312D01*
X13289Y48269D01*
X13317Y48232D01*
X13340Y48192D01*
X13474Y48017D01*
X13672Y47540D01*
X13739Y47028D01*
X13672Y46515D01*
X13474Y46038D01*
X13340Y45863D01*
X13317Y45823D01*
X13289Y45786D01*
X13271Y45743D01*
X13248Y45703D01*
X13236Y45659D01*
X13218Y45616D01*
X13212Y45570D01*
X13200Y45525D01*
Y45479D01*
X13194Y45433D01*
Y20000D01*
X13218Y19817D01*
X13289Y19647D01*
X13401Y19501D01*
X13547Y19389D01*
X13717Y19318D01*
X13900Y19294D01*
X21964D01*
X22379Y18817D01*
Y18427D01*
X22455Y18045D01*
X22604Y17684D01*
X22821Y17360D01*
X23096Y17085D01*
X23421Y16868D01*
X23781Y16719D01*
X24163Y16643D01*
X24553D01*
X24936Y16719D01*
X25296Y16868D01*
X25620Y17085D01*
X25896Y17360D01*
X26112Y17684D01*
X26262Y18045D01*
X26338Y18427D01*
Y18817D01*
X26753Y19294D01*
X28000D01*
X28183Y19318D01*
X28353Y19389D01*
X28499Y19501D01*
X28611Y19647D01*
X28682Y19817D01*
X28706Y20000D01*
Y22200D01*
X28706Y22200D01*
X28682Y22383D01*
X28611Y22553D01*
X28499Y22699D01*
X28499Y22699D01*
X24706Y26493D01*
Y39398D01*
X24702Y39428D01*
X24936Y39474D01*
X25296Y39624D01*
X25620Y39840D01*
X25896Y40116D01*
X26112Y40440D01*
X26262Y40800D01*
X26338Y41183D01*
Y41573D01*
X26262Y41955D01*
X26112Y42316D01*
X25896Y42640D01*
X25620Y42916D01*
X25296Y43132D01*
X24936Y43281D01*
X24702Y43328D01*
X24706Y43358D01*
Y44357D01*
X24700Y44403D01*
Y44449D01*
X24688Y44494D01*
X24682Y44540D01*
X24664Y44583D01*
X24652Y44627D01*
X24629Y44668D01*
X24611Y44710D01*
X24583Y44747D01*
X24560Y44787D01*
X24527Y44820D01*
X24499Y44857D01*
X24463Y44885D01*
X24430Y44917D01*
X24390Y44941D01*
X24353Y44969D01*
X24310Y44987D01*
X24270Y45010D01*
X24226Y45022D01*
X24183Y45039D01*
X24137Y45045D01*
X24092Y45057D01*
X23649Y45116D01*
X23172Y45313D01*
X22762Y45628D01*
X22447Y46038D01*
X22250Y46515D01*
X22182Y47028D01*
X22250Y47540D01*
X22447Y48017D01*
X22762Y48427D01*
X23172Y48742D01*
X23649Y48939D01*
X24092Y48998D01*
X24137Y49010D01*
X24183Y49016D01*
X24226Y49034D01*
X24270Y49046D01*
X24310Y49069D01*
X24353Y49086D01*
X24390Y49115D01*
X24430Y49138D01*
X24463Y49170D01*
X24499Y49199D01*
X24527Y49235D01*
X24560Y49268D01*
X24583Y49308D01*
X24611Y49345D01*
X24629Y49387D01*
X24652Y49428D01*
X24664Y49472D01*
X24682Y49515D01*
X24688Y49561D01*
X24700Y49606D01*
Y49652D01*
X24706Y49698D01*
Y56000D01*
X24682Y56183D01*
X24611Y56353D01*
X24499Y56499D01*
X24353Y56612D01*
X24183Y56682D01*
X24000Y56706D01*
D02*
G37*
%LPD*%
G36*
Y49698D02*
X23465Y49627D01*
X22816Y49358D01*
X22258Y48931D01*
X21831Y48373D01*
X21562Y47724D01*
X21470Y47028D01*
X21562Y46331D01*
X21831Y45682D01*
X22258Y45124D01*
X22816Y44697D01*
X23465Y44428D01*
X24000Y44357D01*
Y43358D01*
X23965D01*
X23237Y43056D01*
X22680Y42499D01*
X22379Y41772D01*
Y40984D01*
X22680Y40257D01*
X23237Y39700D01*
X23965Y39398D01*
X24000D01*
Y26200D01*
X28000Y22200D01*
Y20000D01*
X25780D01*
X25480Y20300D01*
X24752Y20602D01*
X23965D01*
X23237Y20300D01*
X22937Y20000D01*
X13900D01*
Y45433D01*
X14091Y45682D01*
X14360Y46331D01*
X14451Y47028D01*
X14360Y47724D01*
X14091Y48373D01*
X13900Y48622D01*
Y56000D01*
X24000D01*
Y49698D01*
D02*
G37*
D12*
X53500Y13000D02*
X55800Y10700D01*
X90300D01*
X95500Y5500D01*
X34500Y20179D02*
X48679Y6000D01*
X77100D01*
X41900Y42600D02*
Y47200D01*
X34500Y35200D02*
X41900Y42600D01*
X34500Y20179D02*
Y35200D01*
D17*
X103600Y52500D02*
G03*
X98300Y47200I0J-5300D01*
G01*
X90974Y34500D02*
G03*
X98300Y41826I-0J7326D01*
G01*
X81600Y34500D02*
X90969D01*
X103600Y52500D02*
X109466D01*
X109564Y52449D02*
X110513Y51500D01*
X109516Y52449D02*
X109564D01*
X110513Y51500D02*
X111000D01*
X109466Y52500D02*
X109516Y52449D01*
X71500Y16500D02*
X75400Y12600D01*
X90900D01*
X94875Y8625D01*
X98300Y41826D02*
Y47200D01*
X90969Y34500D02*
X90974Y34500D01*
X94875Y8625D02*
X110773D01*
X110823Y8575D01*
D31*
X110000Y45000D02*
D03*
Y35000D02*
D03*
Y25000D02*
D03*
Y15000D02*
D03*
D54*
X102800Y49800D02*
X102859D01*
X107577Y45082D02*
X109918D01*
X102859Y49800D02*
X107577Y45082D01*
D56*
X80800Y40000D02*
X91500D01*
X68300Y52500D02*
X80800Y40000D01*
X32100Y52500D02*
X68300D01*
X30100Y54500D02*
X32100Y52500D01*
D57*
X53500Y26000D02*
X56500Y23000D01*
X91000D01*
X54500Y20000D02*
X92500D01*
X48500Y26000D02*
X54500Y20000D01*
X91000Y23000D02*
X96200Y28200D01*
X101346D02*
X108146Y35000D01*
X96200Y28200D02*
X101346D01*
X97500Y25000D02*
X110000D01*
X92500Y20000D02*
X97500Y25000D01*
X108146Y35000D02*
X110000D01*
D61*
X80154Y54533D02*
D03*
X86847D02*
D03*
X24358Y41378D02*
D03*
Y18622D02*
D03*
D62*
X10579Y12972D02*
D03*
Y47028D02*
D03*
D63*
X26327Y12972D02*
D03*
Y47028D02*
D03*
D64*
X81600Y34500D02*
D03*
X111000Y51500D02*
D03*
X53500Y26000D02*
D03*
X48500D02*
D03*
X83100Y16700D02*
D03*
X53500Y13000D02*
D03*
X62500Y15400D02*
D03*
X67500D02*
D03*
X57500D02*
D03*
X40406Y26094D02*
D03*
X38500Y35600D02*
D03*
X41900Y47200D02*
D03*
X20000Y44000D02*
D03*
X25800Y21600D02*
D03*
X23800Y23500D02*
D03*
X102800Y49800D02*
D03*
X30000Y5200D02*
D03*
X118000Y57500D02*
D03*
X104000D02*
D03*
X77100Y6000D02*
D03*
X97500Y20000D02*
D03*
X7500Y35000D02*
D03*
Y27500D02*
D03*
X20000Y36000D02*
D03*
X62500Y37500D02*
D03*
X52500D02*
D03*
X33000Y47000D02*
D03*
X65000Y57500D02*
D03*
X47500D02*
D03*
X37500D02*
D03*
X82500Y47500D02*
D03*
X86000D02*
D03*
X75000Y40000D02*
D03*
Y36500D02*
D03*
X102500Y20000D02*
D03*
X92500Y2500D02*
D03*
X82500D02*
D03*
X35000Y7500D02*
D03*
X42500Y17500D02*
D03*
X40000Y20000D02*
D03*
X7500D02*
D03*
Y55000D02*
D03*
X16000Y40000D02*
D03*
Y48000D02*
D03*
Y54500D02*
D03*
X95500Y5500D02*
D03*
X67500Y46700D02*
D03*
X110823Y8575D02*
D03*
X71500Y16500D02*
D03*
X61664Y47230D02*
D03*
D65*
X30100Y54500D02*
D03*
D66*
X91500Y40000D02*
D03*
M02*
