G04*
G04 #@! TF.GenerationSoftware,Altium Limited,Altium Designer,22.3.1 (43)*
G04*
G04 Layer_Physical_Order=1*
G04 Layer_Color=12548607*
%FSLAX25Y25*%
%MOIN*%
G70*
G04*
G04 #@! TF.SameCoordinates,053DD5C4-2321-4C6E-A5A1-E9A81C9A727C*
G04*
G04*
G04 #@! TF.FilePolarity,Positive*
G04*
G01*
G75*
%ADD12C,0.01000*%
%ADD17C,0.00600*%
%ADD21R,0.01968X0.05906*%
%ADD22O,0.01968X0.05906*%
G04:AMPARAMS|DCode=23|XSize=17.72mil|YSize=39.37mil|CornerRadius=4.43mil|HoleSize=0mil|Usage=FLASHONLY|Rotation=90.000|XOffset=0mil|YOffset=0mil|HoleType=Round|Shape=RoundedRectangle|*
%AMROUNDEDRECTD23*
21,1,0.01772,0.03051,0,0,90.0*
21,1,0.00886,0.03937,0,0,90.0*
1,1,0.00886,0.01526,0.00443*
1,1,0.00886,0.01526,-0.00443*
1,1,0.00886,-0.01526,-0.00443*
1,1,0.00886,-0.01526,0.00443*
%
%ADD23ROUNDEDRECTD23*%
G04:AMPARAMS|DCode=24|XSize=35mil|YSize=35mil|CornerRadius=8.75mil|HoleSize=0mil|Usage=FLASHONLY|Rotation=180.000|XOffset=0mil|YOffset=0mil|HoleType=Round|Shape=RoundedRectangle|*
%AMROUNDEDRECTD24*
21,1,0.03500,0.01750,0,0,180.0*
21,1,0.01750,0.03500,0,0,180.0*
1,1,0.01750,-0.00875,0.00875*
1,1,0.01750,0.00875,0.00875*
1,1,0.01750,0.00875,-0.00875*
1,1,0.01750,-0.00875,-0.00875*
%
%ADD24ROUNDEDRECTD24*%
G04:AMPARAMS|DCode=25|XSize=30mil|YSize=22mil|CornerRadius=5.5mil|HoleSize=0mil|Usage=FLASHONLY|Rotation=90.000|XOffset=0mil|YOffset=0mil|HoleType=Round|Shape=RoundedRectangle|*
%AMROUNDEDRECTD25*
21,1,0.03000,0.01100,0,0,90.0*
21,1,0.01900,0.02200,0,0,90.0*
1,1,0.01100,0.00550,0.00950*
1,1,0.01100,0.00550,-0.00950*
1,1,0.01100,-0.00550,-0.00950*
1,1,0.01100,-0.00550,0.00950*
%
%ADD25ROUNDEDRECTD25*%
G04:AMPARAMS|DCode=26|XSize=25.59mil|YSize=51.18mil|CornerRadius=6.4mil|HoleSize=0mil|Usage=FLASHONLY|Rotation=180.000|XOffset=0mil|YOffset=0mil|HoleType=Round|Shape=RoundedRectangle|*
%AMROUNDEDRECTD26*
21,1,0.02559,0.03839,0,0,180.0*
21,1,0.01280,0.05118,0,0,180.0*
1,1,0.01280,-0.00640,0.01919*
1,1,0.01280,0.00640,0.01919*
1,1,0.01280,0.00640,-0.01919*
1,1,0.01280,-0.00640,-0.01919*
%
%ADD26ROUNDEDRECTD26*%
G04:AMPARAMS|DCode=27|XSize=15.75mil|YSize=25.59mil|CornerRadius=3.94mil|HoleSize=0mil|Usage=FLASHONLY|Rotation=180.000|XOffset=0mil|YOffset=0mil|HoleType=Round|Shape=RoundedRectangle|*
%AMROUNDEDRECTD27*
21,1,0.01575,0.01772,0,0,180.0*
21,1,0.00787,0.02559,0,0,180.0*
1,1,0.00787,-0.00394,0.00886*
1,1,0.00787,0.00394,0.00886*
1,1,0.00787,0.00394,-0.00886*
1,1,0.00787,-0.00394,-0.00886*
%
%ADD27ROUNDEDRECTD27*%
G04:AMPARAMS|DCode=28|XSize=23.62mil|YSize=47.24mil|CornerRadius=5.91mil|HoleSize=0mil|Usage=FLASHONLY|Rotation=180.000|XOffset=0mil|YOffset=0mil|HoleType=Round|Shape=RoundedRectangle|*
%AMROUNDEDRECTD28*
21,1,0.02362,0.03543,0,0,180.0*
21,1,0.01181,0.04724,0,0,180.0*
1,1,0.01181,-0.00591,0.01772*
1,1,0.01181,0.00591,0.01772*
1,1,0.01181,0.00591,-0.01772*
1,1,0.01181,-0.00591,-0.01772*
%
%ADD28ROUNDEDRECTD28*%
G04:AMPARAMS|DCode=29|XSize=19.68mil|YSize=23.62mil|CornerRadius=4.92mil|HoleSize=0mil|Usage=FLASHONLY|Rotation=90.000|XOffset=0mil|YOffset=0mil|HoleType=Round|Shape=RoundedRectangle|*
%AMROUNDEDRECTD29*
21,1,0.01968,0.01378,0,0,90.0*
21,1,0.00984,0.02362,0,0,90.0*
1,1,0.00984,0.00689,0.00492*
1,1,0.00984,0.00689,-0.00492*
1,1,0.00984,-0.00689,-0.00492*
1,1,0.00984,-0.00689,0.00492*
%
%ADD29ROUNDEDRECTD29*%
G04:AMPARAMS|DCode=30|XSize=30mil|YSize=22mil|CornerRadius=5.5mil|HoleSize=0mil|Usage=FLASHONLY|Rotation=180.000|XOffset=0mil|YOffset=0mil|HoleType=Round|Shape=RoundedRectangle|*
%AMROUNDEDRECTD30*
21,1,0.03000,0.01100,0,0,180.0*
21,1,0.01900,0.02200,0,0,180.0*
1,1,0.01100,-0.00950,0.00550*
1,1,0.01100,0.00950,0.00550*
1,1,0.01100,0.00950,-0.00550*
1,1,0.01100,-0.00950,-0.00550*
%
%ADD30ROUNDEDRECTD30*%
G04:AMPARAMS|DCode=31|XSize=62.99mil|YSize=106.3mil|CornerRadius=15.75mil|HoleSize=0mil|Usage=FLASHONLY|Rotation=270.000|XOffset=0mil|YOffset=0mil|HoleType=Round|Shape=RoundedRectangle|*
%AMROUNDEDRECTD31*
21,1,0.06299,0.07480,0,0,270.0*
21,1,0.03150,0.10630,0,0,270.0*
1,1,0.03150,-0.03740,-0.01575*
1,1,0.03150,-0.03740,0.01575*
1,1,0.03150,0.03740,0.01575*
1,1,0.03150,0.03740,-0.01575*
%
%ADD31ROUNDEDRECTD31*%
G04:AMPARAMS|DCode=32|XSize=17.72mil|YSize=39.37mil|CornerRadius=4.43mil|HoleSize=0mil|Usage=FLASHONLY|Rotation=0.000|XOffset=0mil|YOffset=0mil|HoleType=Round|Shape=RoundedRectangle|*
%AMROUNDEDRECTD32*
21,1,0.01772,0.03051,0,0,0.0*
21,1,0.00886,0.03937,0,0,0.0*
1,1,0.00886,0.00443,-0.01526*
1,1,0.00886,-0.00443,-0.01526*
1,1,0.00886,-0.00443,0.01526*
1,1,0.00886,0.00443,0.01526*
%
%ADD32ROUNDEDRECTD32*%
G04:AMPARAMS|DCode=33|XSize=59.06mil|YSize=11.81mil|CornerRadius=2.95mil|HoleSize=0mil|Usage=FLASHONLY|Rotation=0.000|XOffset=0mil|YOffset=0mil|HoleType=Round|Shape=RoundedRectangle|*
%AMROUNDEDRECTD33*
21,1,0.05906,0.00591,0,0,0.0*
21,1,0.05315,0.01181,0,0,0.0*
1,1,0.00591,0.02657,-0.00295*
1,1,0.00591,-0.02657,-0.00295*
1,1,0.00591,-0.02657,0.00295*
1,1,0.00591,0.02657,0.00295*
%
%ADD33ROUNDEDRECTD33*%
%ADD34P,0.03247X8X22.5*%
G04:AMPARAMS|DCode=35|XSize=30mil|YSize=30mil|CornerRadius=7.5mil|HoleSize=0mil|Usage=FLASHONLY|Rotation=0.000|XOffset=0mil|YOffset=0mil|HoleType=Round|Shape=RoundedRectangle|*
%AMROUNDEDRECTD35*
21,1,0.03000,0.01500,0,0,0.0*
21,1,0.01500,0.03000,0,0,0.0*
1,1,0.01500,0.00750,-0.00750*
1,1,0.01500,-0.00750,-0.00750*
1,1,0.01500,-0.00750,0.00750*
1,1,0.01500,0.00750,0.00750*
%
%ADD35ROUNDEDRECTD35*%
%ADD54C,0.02500*%
%ADD55C,0.02200*%
%ADD56C,0.04000*%
%ADD57C,0.02000*%
%ADD58C,0.01500*%
%ADD59C,0.03000*%
%ADD60C,0.05000*%
%ADD61C,0.02559*%
%ADD62O,0.06299X0.03937*%
%ADD63O,0.08268X0.03937*%
%ADD64C,0.02400*%
%ADD65C,0.04000*%
%ADD66C,0.05000*%
G36*
X113659Y53218D02*
X113578Y53319D01*
X113476Y53410D01*
X113355Y53489D01*
X113213Y53559D01*
X113051Y53617D01*
X112869Y53665D01*
X112667Y53702D01*
X112444Y53729D01*
X112201Y53745D01*
X111939Y53750D01*
Y55250D01*
X112201Y55256D01*
X112667Y55298D01*
X112869Y55335D01*
X113051Y55383D01*
X113213Y55442D01*
X113355Y55511D01*
X113476Y55591D01*
X113578Y55681D01*
X113659Y55782D01*
Y53218D01*
D02*
G37*
G36*
X108225Y55726D02*
X108330Y55626D01*
X108452Y55538D01*
X108592Y55462D01*
X108749Y55397D01*
X108924Y55344D01*
X109116Y55303D01*
X109326Y55274D01*
X109554Y55256D01*
X109799Y55250D01*
Y53750D01*
X109554Y53744D01*
X109326Y53727D01*
X109117Y53697D01*
X108924Y53656D01*
X108749Y53603D01*
X108592Y53538D01*
X108452Y53462D01*
X108330Y53374D01*
X108225Y53274D01*
X108138Y53162D01*
Y55838D01*
X108225Y55726D01*
D02*
G37*
G36*
X120420Y53024D02*
X120376Y53058D01*
X120326Y53079D01*
X120271Y53086D01*
X120211Y53079D01*
X120144Y53058D01*
X120073Y53024D01*
X119996Y52975D01*
X119913Y52913D01*
X119825Y52837D01*
X119731Y52748D01*
X119307Y53172D01*
X119396Y53266D01*
X119472Y53354D01*
X119534Y53437D01*
X119582Y53514D01*
X119617Y53585D01*
X119638Y53652D01*
X119645Y53712D01*
X119638Y53767D01*
X119617Y53817D01*
X119583Y53861D01*
X120420Y53024D01*
D02*
G37*
G36*
X31465Y55984D02*
X31633Y55883D01*
X31807Y55793D01*
X31988Y55715D01*
X32174Y55649D01*
X32367Y55596D01*
X32566Y55554D01*
X32771Y55524D01*
X32982Y55506D01*
X33200Y55500D01*
Y53500D01*
X32982Y53494D01*
X32771Y53476D01*
X32566Y53446D01*
X32367Y53404D01*
X32174Y53351D01*
X31988Y53285D01*
X31807Y53207D01*
X31633Y53118D01*
X31465Y53016D01*
X31303Y52902D01*
Y56098D01*
X31465Y55984D01*
D02*
G37*
G36*
X101662Y53102D02*
X101594Y53030D01*
X101534Y52946D01*
X101483Y52849D01*
X101439Y52739D01*
X101403Y52616D01*
X101375Y52481D01*
X101355Y52334D01*
X101343Y52174D01*
X101339Y52001D01*
X100339D01*
X100334Y52165D01*
X100320Y52317D01*
X100296Y52460D01*
X100263Y52591D01*
X100220Y52713D01*
X100167Y52824D01*
X100105Y52924D01*
X100034Y53014D01*
X99953Y53093D01*
X99862Y53162D01*
X101738D01*
X101662Y53102D01*
D02*
G37*
G36*
X5000Y58991D02*
X122500D01*
X122537Y58996D01*
X123022Y58964D01*
X123535Y58862D01*
X124030Y58694D01*
X124499Y58463D01*
X124934Y58172D01*
X125327Y57827D01*
X125672Y57434D01*
X125963Y56999D01*
X126194Y56530D01*
X126362Y56035D01*
X126464Y55522D01*
X126496Y55036D01*
X126491Y55000D01*
Y51009D01*
X119647D01*
X119456Y51471D01*
X120285Y52300D01*
X122159D01*
X123259Y53400D01*
Y55600D01*
X122159Y56700D01*
X119959D01*
X118859Y55600D01*
Y53727D01*
X117530Y52398D01*
X117041Y52446D01*
X116854Y52882D01*
X116902Y52941D01*
X117037Y53193D01*
X117120Y53466D01*
X117148Y53750D01*
Y55250D01*
X117120Y55534D01*
X117037Y55808D01*
X116902Y56060D01*
X116721Y56280D01*
X116500Y56462D01*
X116249Y56596D01*
X115975Y56679D01*
X115691Y56707D01*
X114191D01*
X113907Y56679D01*
X113633Y56596D01*
X113382Y56462D01*
X113260Y56362D01*
X113242Y56352D01*
X113205Y56317D01*
X113195Y56309D01*
X113160Y56282D01*
X113136Y56251D01*
X113108Y56224D01*
X113064Y56169D01*
X113045Y56152D01*
X113005Y56126D01*
X112937Y56093D01*
X112841Y56058D01*
X112715Y56025D01*
X112570Y55998D01*
X112162Y55961D01*
X111975Y55957D01*
X109766D01*
X109590Y55961D01*
X109403Y55976D01*
X109239Y55999D01*
X109101Y56028D01*
X108986Y56063D01*
X108897Y56100D01*
X108829Y56137D01*
X108782Y56171D01*
X108752Y56199D01*
X108739Y56215D01*
X108694Y56273D01*
X108683Y56284D01*
X108638Y56338D01*
X108573Y56391D01*
X108563Y56402D01*
X108556Y56406D01*
X108448Y56494D01*
X108231Y56610D01*
X107995Y56682D01*
X107750Y56706D01*
X106650D01*
X106405Y56682D01*
X106169Y56610D01*
X105952Y56494D01*
X105762Y56338D01*
X105606Y56148D01*
X105490Y55931D01*
X105418Y55695D01*
X105394Y55450D01*
Y53550D01*
X105418Y53305D01*
X105490Y53069D01*
X105606Y52852D01*
X105762Y52662D01*
X105952Y52506D01*
X106169Y52390D01*
X106405Y52318D01*
X106650Y52294D01*
X107750D01*
X107995Y52318D01*
X108231Y52390D01*
X108448Y52506D01*
X108556Y52594D01*
X108563Y52598D01*
X108573Y52609D01*
X108638Y52662D01*
X108683Y52716D01*
X108694Y52727D01*
X108965Y52773D01*
X109172Y52576D01*
X109300Y52360D01*
X109173Y52054D01*
X109100Y51687D01*
Y51313D01*
X109173Y50946D01*
X109284Y50678D01*
X109183Y50424D01*
X108997Y50178D01*
X104700D01*
Y51761D01*
X102593D01*
X102583Y51766D01*
X102536Y51795D01*
X102486Y51832D01*
X102431Y51878D01*
X102360Y51946D01*
X102190Y52115D01*
X102186Y52238D01*
X102238Y52662D01*
X102293Y52729D01*
X102303Y52739D01*
X102306Y52745D01*
X102394Y52852D01*
X102510Y53069D01*
X102582Y53305D01*
X102606Y53550D01*
Y55450D01*
X102582Y55695D01*
X102510Y55931D01*
X102394Y56148D01*
X102238Y56338D01*
X102048Y56494D01*
X101831Y56610D01*
X101595Y56682D01*
X101350Y56706D01*
X100250D01*
X100005Y56682D01*
X99769Y56610D01*
X99552Y56494D01*
X99362Y56338D01*
X99206Y56148D01*
X99089Y55931D01*
X99018Y55695D01*
X98994Y55450D01*
Y53550D01*
X99018Y53305D01*
X99089Y53069D01*
X99206Y52852D01*
X99298Y52739D01*
X99304Y52730D01*
X99315Y52719D01*
X99362Y52662D01*
X99423Y52611D01*
X99435Y52600D01*
X99466Y52576D01*
X99499Y52549D01*
X99509Y52540D01*
X99527Y52517D01*
X99546Y52486D01*
X99566Y52443D01*
X99586Y52386D01*
X99604Y52314D01*
X99613Y52261D01*
X99610Y52213D01*
X99413Y51928D01*
X99227Y51761D01*
X91639D01*
X91504Y51872D01*
X91280Y51991D01*
X91036Y52065D01*
X90784Y52090D01*
X89602D01*
X89349Y52065D01*
X89106Y51991D01*
X88882Y51872D01*
X88685Y51710D01*
X88524Y51514D01*
X88404Y51290D01*
X88331Y51046D01*
X88306Y50793D01*
Y47250D01*
X88331Y46997D01*
X88404Y46754D01*
X88443Y46681D01*
Y45334D01*
X76473Y45114D01*
Y44426D01*
X71754D01*
X71695Y44918D01*
X71931Y44990D01*
X72148Y45106D01*
X72338Y45262D01*
X72494Y45452D01*
X72610Y45669D01*
X72682Y45905D01*
X72706Y46150D01*
Y47250D01*
X72682Y47495D01*
X72610Y47731D01*
X72494Y47948D01*
X72338Y48138D01*
X72148Y48294D01*
X71931Y48410D01*
X71695Y48482D01*
X71450Y48506D01*
X71258D01*
X71250Y48510D01*
X70882Y48622D01*
X70500Y48659D01*
X70143D01*
Y54250D01*
X70105Y54632D01*
X70006Y54959D01*
Y55450D01*
X69982Y55695D01*
X69911Y55931D01*
X69794Y56148D01*
X69638Y56338D01*
X69448Y56494D01*
X69231Y56611D01*
X68995Y56682D01*
X68750Y56706D01*
X67650D01*
X67405Y56682D01*
X67169Y56611D01*
X66952Y56494D01*
X66762Y56338D01*
X66606Y56148D01*
X66490Y55931D01*
X66418Y55695D01*
X66394Y55450D01*
Y55039D01*
X66373Y55000D01*
X66262Y54632D01*
X66224Y54250D01*
Y48659D01*
X62996D01*
X62753Y48859D01*
X62414Y49040D01*
X62047Y49151D01*
X61664Y49189D01*
X57416D01*
Y49218D01*
X48715D01*
X48659Y49273D01*
Y49273D01*
X48612Y49353D01*
X48612Y49353D01*
X48499Y49499D01*
X47999Y49999D01*
X47999Y49999D01*
X45706Y52293D01*
Y57000D01*
X45682Y57183D01*
X45612Y57353D01*
X45499Y57499D01*
X45353Y57612D01*
X45183Y57682D01*
X45000Y57706D01*
X41000D01*
X40817Y57682D01*
X40647Y57612D01*
X40501Y57499D01*
X40389Y57353D01*
X40318Y57183D01*
X40294Y57000D01*
X31141D01*
X31136Y57002D01*
X31035Y57035D01*
X30937Y57076D01*
X30834Y57101D01*
X30732Y57134D01*
X30627Y57150D01*
X30524Y57175D01*
X30417Y57183D01*
X30312Y57200D01*
X30206D01*
X30100Y57208D01*
X26500D01*
X26076Y57175D01*
X25663Y57076D01*
X25272Y56914D01*
X25019Y56837D01*
X24746Y56691D01*
X24600Y56571D01*
X24267Y56667D01*
X24100Y56788D01*
Y57214D01*
X21500D01*
Y57206D01*
X14500D01*
X14317Y57182D01*
X14147Y57112D01*
X14001Y56999D01*
X13889Y56853D01*
X13818Y56683D01*
X13794Y56500D01*
Y33076D01*
X13818Y32893D01*
X13889Y32723D01*
X14001Y32577D01*
X14147Y32465D01*
X14317Y32394D01*
X14500Y32370D01*
X20687D01*
X20879Y31908D01*
X15287Y26316D01*
X15126Y26107D01*
X15026Y25864D01*
X14991Y25603D01*
Y10605D01*
X12747Y8361D01*
X12595Y8219D01*
X12578Y8206D01*
X11650D01*
X11405Y8182D01*
X11169Y8111D01*
X10952Y7994D01*
X10762Y7838D01*
X10606Y7648D01*
X10490Y7431D01*
X10418Y7195D01*
X10394Y6950D01*
Y5050D01*
X10418Y4805D01*
X10490Y4569D01*
X10606Y4352D01*
X10762Y4162D01*
X10952Y4006D01*
X11169Y3890D01*
X11405Y3818D01*
X11650Y3794D01*
X12750D01*
X12995Y3818D01*
X13231Y3890D01*
X13448Y4006D01*
X13638Y4162D01*
X13794Y4352D01*
X13911Y4569D01*
X13982Y4805D01*
X14006Y5050D01*
Y6748D01*
X14111Y6872D01*
X16713Y9474D01*
X16873Y9683D01*
X16974Y9926D01*
X17009Y10187D01*
Y25185D01*
X24382Y32559D01*
X24842Y32362D01*
X24784Y30009D01*
X24000D01*
X23739Y29974D01*
X23496Y29873D01*
X23287Y29713D01*
X18865Y25291D01*
X18704Y25082D01*
X18604Y24839D01*
X18569Y24578D01*
Y4084D01*
X18604Y3822D01*
X18704Y3579D01*
X18865Y3370D01*
X20764Y1471D01*
X20573Y1009D01*
X5000D01*
X4964Y1004D01*
X4478Y1036D01*
X3965Y1138D01*
X3470Y1306D01*
X3001Y1537D01*
X2566Y1828D01*
X2173Y2173D01*
X1828Y2566D01*
X1537Y3001D01*
X1306Y3470D01*
X1138Y3965D01*
X1036Y4478D01*
X1004Y4964D01*
X1009Y5000D01*
Y55000D01*
X1004Y55036D01*
X1036Y55522D01*
X1138Y56035D01*
X1306Y56530D01*
X1537Y56999D01*
X1828Y57434D01*
X2173Y57827D01*
X2566Y58172D01*
X3001Y58463D01*
X3470Y58694D01*
X3965Y58862D01*
X4478Y58964D01*
X4964Y58996D01*
X5000Y58991D01*
D02*
G37*
G36*
X112032Y52136D02*
X112124Y52039D01*
X112218Y51953D01*
X112313Y51879D01*
X112409Y51816D01*
X112506Y51765D01*
X112604Y51724D01*
X112704Y51696D01*
X112805Y51679D01*
X112907Y51673D01*
X112841Y51073D01*
X112746Y51068D01*
X112647Y51053D01*
X112546Y51028D01*
X112442Y50993D01*
X112336Y50948D01*
X112226Y50893D01*
X112115Y50829D01*
X112000Y50754D01*
X111763Y50574D01*
X111941Y52245D01*
X112032Y52136D01*
D02*
G37*
G36*
X101961Y51351D02*
X102050Y51276D01*
X102140Y51211D01*
X102230Y51154D01*
X102321Y51106D01*
X102413Y51067D01*
X102506Y51037D01*
X102599Y51016D01*
X102693Y51003D01*
X102788Y51000D01*
X101600Y49812D01*
X101597Y49907D01*
X101584Y50001D01*
X101563Y50094D01*
X101533Y50187D01*
X101494Y50279D01*
X101446Y50370D01*
X101389Y50460D01*
X101324Y50550D01*
X101249Y50639D01*
X101166Y50727D01*
X101873Y51434D01*
X101961Y51351D01*
D02*
G37*
G36*
X91092Y46826D02*
X91009Y46791D01*
X90935Y46732D01*
X90870Y46649D01*
X90816Y46543D01*
X90772Y46414D01*
X90737Y46261D01*
X90713Y46084D01*
X90698Y45884D01*
X90693Y45660D01*
X89693D01*
X89688Y45884D01*
X89648Y46261D01*
X89614Y46414D01*
X89570Y46543D01*
X89515Y46649D01*
X89451Y46732D01*
X89377Y46791D01*
X89293Y46826D01*
X89200Y46838D01*
X91186D01*
X91092Y46826D01*
D02*
G37*
G36*
X45000Y52000D02*
X47500Y49500D01*
X48000Y49000D01*
Y47918D01*
X48015Y47911D01*
X48134Y47866D01*
X48258Y47827D01*
X48386Y47796D01*
X48518Y47771D01*
X48655Y47754D01*
X48796Y47744D01*
X48942Y47740D01*
Y46740D01*
X48796Y46737D01*
X48518Y46709D01*
X48386Y46684D01*
X48258Y46653D01*
X48134Y46615D01*
X48015Y46569D01*
X48000Y46563D01*
Y46000D01*
X40000D01*
X39500Y45500D01*
X37500D01*
X37000Y46000D01*
Y47500D01*
X41000Y51500D01*
Y53500D01*
Y57000D01*
X45000D01*
Y52000D01*
D02*
G37*
G36*
X88506Y42972D02*
X88308Y42766D01*
X87996Y42399D01*
X87882Y42236D01*
X87796Y42088D01*
X87738Y41954D01*
X87708Y41833D01*
X87706Y41727D01*
X87732Y41635D01*
X87787Y41557D01*
X86411Y42987D01*
X86487Y42930D01*
X86577Y42902D01*
X86682Y42902D01*
X86801Y42932D01*
X86935Y42989D01*
X87084Y43075D01*
X87248Y43190D01*
X87426Y43333D01*
X87826Y43706D01*
X88506Y42972D01*
D02*
G37*
G36*
X105472Y42060D02*
X105204Y42239D01*
X104891Y42399D01*
X104532Y42539D01*
X104127Y42662D01*
X103677Y42765D01*
X103182Y42850D01*
X102054Y42962D01*
X101422Y42991D01*
X100744Y43000D01*
Y47000D01*
X101422Y47009D01*
X103182Y47150D01*
X103677Y47235D01*
X104127Y47338D01*
X104532Y47461D01*
X104891Y47602D01*
X105204Y47761D01*
X105472Y47940D01*
Y42060D01*
D02*
G37*
G36*
X51770Y44530D02*
X51800Y44360D01*
X51850Y44210D01*
X51920Y44080D01*
X52010Y43970D01*
X52120Y43880D01*
X52250Y43810D01*
X52400Y43760D01*
X52570Y43730D01*
X52760Y43720D01*
Y42720D01*
X52570Y42710D01*
X52400Y42680D01*
X52250Y42630D01*
X52120Y42560D01*
X52010Y42470D01*
X51920Y42360D01*
X51850Y42230D01*
X51800Y42080D01*
X51770Y41910D01*
X51760Y41720D01*
X50760Y43220D01*
X51760Y44720D01*
X51770Y44530D01*
D02*
G37*
G36*
X79132Y43382D02*
X79483Y43087D01*
X79635Y42983D01*
X79771Y42910D01*
X79891Y42866D01*
X79996Y42852D01*
X80085Y42867D01*
X80158Y42912D01*
X80216Y42987D01*
X79214Y41184D01*
X79248Y41282D01*
X79253Y41395D01*
X79229Y41523D01*
X79175Y41668D01*
X79091Y41828D01*
X78977Y42004D01*
X78834Y42196D01*
X78661Y42404D01*
X78226Y42867D01*
X78933Y43574D01*
X79132Y43382D01*
D02*
G37*
G36*
X87555Y40098D02*
X87480Y40022D01*
X87414Y39935D01*
X87358Y39836D01*
X87309Y39726D01*
X87270Y39604D01*
X87239Y39470D01*
X87217Y39326D01*
X87204Y39169D01*
X87200Y39001D01*
X86200D01*
X86196Y39169D01*
X86182Y39326D01*
X86161Y39470D01*
X86130Y39604D01*
X86090Y39726D01*
X86042Y39836D01*
X85985Y39935D01*
X85920Y40022D01*
X85845Y40098D01*
X85762Y40162D01*
X87638D01*
X87555Y40098D01*
D02*
G37*
G36*
X47789Y40542D02*
X47899Y40483D01*
X48015Y40431D01*
X48134Y40385D01*
X48258Y40347D01*
X48386Y40316D01*
X48518Y40291D01*
X48655Y40274D01*
X48796Y40263D01*
X48942Y40260D01*
Y39260D01*
X48796Y39256D01*
X48518Y39228D01*
X48386Y39204D01*
X48258Y39173D01*
X48134Y39134D01*
X48015Y39089D01*
X47899Y39037D01*
X47789Y38977D01*
X47682Y38911D01*
Y40609D01*
X47789Y40542D01*
D02*
G37*
G36*
X80743Y33660D02*
X80638Y33763D01*
X80428Y33935D01*
X80325Y34006D01*
X80222Y34065D01*
X80120Y34114D01*
X80019Y34151D01*
X79918Y34178D01*
X79903Y34181D01*
X79856Y34173D01*
X79773Y34152D01*
X79704Y34126D01*
X79647Y34093D01*
X79602Y34054D01*
X79571Y34010D01*
X79552Y33959D01*
X79545Y33902D01*
Y35098D01*
X79552Y35041D01*
X79571Y34991D01*
X79602Y34946D01*
X79647Y34907D01*
X79704Y34874D01*
X79773Y34848D01*
X79856Y34827D01*
X79903Y34819D01*
X79918Y34822D01*
X80019Y34849D01*
X80120Y34886D01*
X80222Y34935D01*
X80325Y34994D01*
X80428Y35065D01*
X80533Y35146D01*
X80638Y35237D01*
X80743Y35340D01*
Y33660D01*
D02*
G37*
G36*
X27560Y34422D02*
X27529Y34460D01*
X27490Y34494D01*
X27442Y34523D01*
X27386Y34549D01*
X27322Y34571D01*
X27250Y34589D01*
X27169Y34603D01*
X27079Y34613D01*
X26876Y34621D01*
Y35221D01*
X26982Y35223D01*
X27169Y35239D01*
X27250Y35253D01*
X27322Y35271D01*
X27386Y35293D01*
X27442Y35319D01*
X27490Y35349D01*
X27529Y35383D01*
X27560Y35421D01*
Y34422D01*
D02*
G37*
G36*
X78740Y33530D02*
X78658Y33581D01*
X78564Y33605D01*
X78456Y33601D01*
X78334Y33570D01*
X78199Y33511D01*
X78051Y33426D01*
X77890Y33313D01*
X77715Y33173D01*
X77325Y32811D01*
X76514Y33414D01*
X76718Y33625D01*
X77038Y34001D01*
X77154Y34165D01*
X77240Y34314D01*
X77298Y34448D01*
X77326Y34566D01*
X77324Y34669D01*
X77293Y34756D01*
X77233Y34829D01*
X78740Y33530D01*
D02*
G37*
G36*
X24746Y52309D02*
X25019Y52163D01*
X25272Y52086D01*
X25663Y51924D01*
X26076Y51825D01*
X26500Y51792D01*
X29791D01*
X30245Y51389D01*
X30272Y51315D01*
X30271Y51300D01*
X39094D01*
X39301Y50800D01*
X36501Y47999D01*
X36388Y47853D01*
X36318Y47683D01*
X36294Y47500D01*
X36294Y47500D01*
Y47250D01*
X36294Y47250D01*
Y46150D01*
X36294Y46150D01*
Y46000D01*
X36294Y46000D01*
X36318Y45817D01*
X36388Y45647D01*
X36431Y45591D01*
X36506Y45452D01*
X36662Y45262D01*
X36852Y45106D01*
X36946Y45055D01*
X37001Y45001D01*
X37001Y45001D01*
X37147Y44888D01*
X37317Y44818D01*
X37500Y44794D01*
X37500Y44794D01*
X39500D01*
X39500Y44794D01*
X39683Y44818D01*
X39853Y44888D01*
X39999Y45001D01*
X39999Y45001D01*
X40054Y45055D01*
X40148Y45106D01*
X40338Y45262D01*
X40365Y45294D01*
X48000D01*
X48158Y45315D01*
X48189Y45314D01*
X48591Y45080D01*
X48658Y44993D01*
X48658Y41492D01*
X48656Y41485D01*
X48614Y41394D01*
X48578Y41345D01*
X48129Y41171D01*
X48090Y41201D01*
X47812Y41316D01*
X47514Y41355D01*
X44463D01*
X44164Y41316D01*
X43886Y41201D01*
X43648Y41018D01*
X43464Y40779D01*
X43349Y40501D01*
X43310Y40203D01*
Y39317D01*
X43349Y39019D01*
X43464Y38741D01*
X43648Y38502D01*
X43886Y38319D01*
X44164Y38203D01*
X44463Y38164D01*
X47514D01*
X47812Y38203D01*
X48090Y38319D01*
X48157Y38370D01*
X48229Y38359D01*
X48657Y38174D01*
X48657Y38174D01*
X48657Y38174D01*
X55411D01*
X55486Y38164D01*
X56936D01*
X57380Y38120D01*
X57400Y38100D01*
X57416Y38116D01*
X57896Y38164D01*
X58537D01*
X58836Y38203D01*
X59114Y38319D01*
X59352Y38502D01*
X59536Y38741D01*
X59651Y39019D01*
X59690Y39317D01*
Y40203D01*
X59651Y40501D01*
X59536Y40779D01*
X59352Y41018D01*
X59114Y41201D01*
X58836Y41316D01*
X58537Y41355D01*
X57416D01*
Y42014D01*
X76473D01*
Y34426D01*
X76195Y34100D01*
X76007Y33905D01*
X76006Y33904D01*
X75647Y33546D01*
X75497Y33363D01*
X75454Y33281D01*
X75028Y33221D01*
X74907Y33243D01*
X74697Y33500D01*
X74440Y33710D01*
X74148Y33867D01*
X73830Y33963D01*
X73500Y33996D01*
X73170Y33963D01*
X72852Y33867D01*
X72560Y33710D01*
X72303Y33500D01*
X72093Y33243D01*
X71936Y32951D01*
X71840Y32633D01*
X71808Y32303D01*
Y28366D01*
X71840Y28036D01*
X71936Y27718D01*
X72093Y27426D01*
X72303Y27169D01*
X72560Y26959D01*
X72852Y26803D01*
X73170Y26706D01*
X73500Y26674D01*
X73830Y26706D01*
X74148Y26803D01*
X74440Y26959D01*
X74612Y27100D01*
X74932Y27040D01*
X75142Y26924D01*
X75182Y26642D01*
X70945Y22406D01*
X52700D01*
X52700Y22406D01*
X52465Y22383D01*
X52239Y22314D01*
X52030Y22203D01*
X51847Y22053D01*
X42721Y12926D01*
X42571Y12743D01*
X42459Y12535D01*
X42391Y12309D01*
X42373Y12122D01*
X42368Y12092D01*
X42366Y12004D01*
X42361Y11947D01*
X42354Y11904D01*
X42348Y11874D01*
X42347Y11874D01*
X42335Y11861D01*
X42300Y11834D01*
X42271Y11796D01*
X42237Y11762D01*
X42215Y11723D01*
X42208Y11715D01*
X42093Y11574D01*
X41936Y11282D01*
X41840Y10964D01*
X41808Y10634D01*
Y6697D01*
X41840Y6367D01*
X41936Y6049D01*
X42093Y5757D01*
X42303Y5500D01*
X42560Y5290D01*
X42852Y5133D01*
X43170Y5037D01*
X43500Y5004D01*
X43830Y5037D01*
X44148Y5133D01*
X44440Y5290D01*
X44697Y5500D01*
X44907Y5757D01*
X45064Y6049D01*
X45160Y6367D01*
X45192Y6697D01*
Y10634D01*
X45160Y10964D01*
X45064Y11282D01*
X44907Y11574D01*
X44850Y11644D01*
X46832Y13627D01*
X47294Y13436D01*
Y12487D01*
X47291Y12341D01*
X47281Y12218D01*
X47265Y12101D01*
X47244Y11989D01*
X47217Y11882D01*
X47184Y11780D01*
X47146Y11682D01*
X47102Y11587D01*
X47100Y11583D01*
X47093Y11574D01*
X47038Y11472D01*
X46985Y11387D01*
X46980Y11376D01*
X46973Y11366D01*
X46942Y11292D01*
X46942Y11291D01*
X46936Y11282D01*
X46935Y11276D01*
X46909Y11219D01*
X46907Y11207D01*
X46902Y11196D01*
X46896Y11148D01*
X46840Y10964D01*
X46808Y10634D01*
Y6697D01*
X46840Y6367D01*
X46936Y6049D01*
X47093Y5757D01*
X47303Y5500D01*
X47560Y5290D01*
X47852Y5133D01*
X48170Y5037D01*
X48500Y5004D01*
X48830Y5037D01*
X49148Y5133D01*
X49440Y5290D01*
X49697Y5500D01*
X49907Y5757D01*
X50064Y6049D01*
X50160Y6367D01*
X50192Y6697D01*
Y10634D01*
X50160Y10964D01*
X50104Y11148D01*
X50098Y11196D01*
X50093Y11207D01*
X50091Y11219D01*
X50065Y11277D01*
X50064Y11282D01*
X50059Y11291D01*
X50058Y11292D01*
X50027Y11366D01*
X50020Y11376D01*
X50015Y11387D01*
X49962Y11472D01*
X49907Y11574D01*
X49900Y11583D01*
X49898Y11587D01*
X49854Y11682D01*
X49816Y11780D01*
X49783Y11883D01*
X49756Y11989D01*
X49735Y12101D01*
X49719Y12218D01*
X49709Y12341D01*
X49706Y12487D01*
Y14001D01*
X54000Y18294D01*
X69816D01*
X69981Y18065D01*
X70010Y17865D01*
X70024Y17711D01*
X69816Y17400D01*
X69673Y17054D01*
X69600Y16687D01*
Y16313D01*
X69673Y15946D01*
X69816Y15600D01*
X70024Y15289D01*
X70289Y15024D01*
X70600Y14816D01*
X70946Y14673D01*
X71313Y14600D01*
X71687D01*
X72054Y14673D01*
X72400Y14816D01*
X72711Y15024D01*
X72976Y15289D01*
X73184Y15600D01*
X73327Y15946D01*
X73400Y16313D01*
Y16687D01*
X73327Y17054D01*
X73184Y17400D01*
X72976Y17711D01*
X72876Y17811D01*
X72857Y17838D01*
X72815Y17883D01*
X72798Y17906D01*
X72787Y18041D01*
X72792Y18402D01*
X72970Y18497D01*
X73153Y18647D01*
X76073Y21567D01*
X76473Y21800D01*
Y21800D01*
X76473Y21800D01*
X85645D01*
Y19474D01*
X85684Y19176D01*
X85799Y18898D01*
X85982Y18659D01*
X86221Y18476D01*
X86499Y18361D01*
X86797Y18322D01*
X87683D01*
X87981Y18361D01*
X88260Y18476D01*
X88498Y18659D01*
X88681Y18898D01*
X88797Y19176D01*
X88836Y19474D01*
Y21800D01*
X104059D01*
X104557Y21353D01*
X104542Y18454D01*
X100911Y18210D01*
X100820Y18210D01*
X92287D01*
X91785Y18170D01*
X91295Y18053D01*
X90830Y17860D01*
X90401Y17597D01*
X90018Y17270D01*
X88029Y15281D01*
X83500D01*
X82998Y15241D01*
X82508Y15124D01*
X82043Y14931D01*
X81613Y14668D01*
X81230Y14341D01*
X80903Y13958D01*
X80640Y13528D01*
X80447Y13063D01*
X80330Y12573D01*
X80290Y12071D01*
X80330Y11569D01*
X80447Y11079D01*
X80640Y10614D01*
X80903Y10184D01*
X81230Y9801D01*
X81613Y9474D01*
X82043Y9211D01*
X82508Y9018D01*
X82998Y8901D01*
X83500Y8861D01*
X85142D01*
X85490Y8370D01*
X85481Y8257D01*
X85466Y8162D01*
X85449Y8084D01*
X85430Y8025D01*
X85411Y7982D01*
X85395Y7955D01*
X85383Y7940D01*
X85376Y7932D01*
X85374Y7931D01*
X85330Y7897D01*
X85319Y7885D01*
X85262Y7838D01*
X85212Y7777D01*
X85201Y7766D01*
X85196Y7758D01*
X85106Y7648D01*
X84990Y7431D01*
X84918Y7195D01*
X84894Y6950D01*
Y5050D01*
X84918Y4805D01*
X84990Y4569D01*
X85106Y4352D01*
X85262Y4162D01*
X85452Y4006D01*
X85669Y3889D01*
X85905Y3818D01*
X86150Y3794D01*
X87250D01*
X87495Y3818D01*
X87731Y3889D01*
X87948Y4006D01*
X88138Y4162D01*
X88294Y4352D01*
X88410Y4569D01*
X88482Y4805D01*
X88506Y5050D01*
Y6950D01*
X88482Y7195D01*
X88410Y7431D01*
X88294Y7648D01*
X88204Y7758D01*
X88199Y7766D01*
X88188Y7777D01*
X88138Y7838D01*
X88081Y7885D01*
X88069Y7897D01*
X88025Y7931D01*
X88024Y7932D01*
X88016Y7940D01*
X88005Y7955D01*
X87989Y7982D01*
X87971Y8025D01*
X87951Y8084D01*
X87933Y8162D01*
X87919Y8257D01*
X87910Y8370D01*
X88258Y8861D01*
X89358D01*
X89860Y8901D01*
X90350Y9018D01*
X90816Y9211D01*
X91245Y9474D01*
X91628Y9801D01*
X93617Y11790D01*
X100169D01*
X103191Y11724D01*
X104245Y11639D01*
X104508Y11603D01*
X104500Y10000D01*
X108889D01*
X109156Y9500D01*
X109139Y9475D01*
X108996Y9129D01*
X108923Y8762D01*
Y8387D01*
X108996Y8020D01*
X109075Y7829D01*
X109061Y7740D01*
X108896Y7454D01*
X108765Y7335D01*
X108717Y7337D01*
X108592Y7376D01*
X108573Y7391D01*
X108563Y7402D01*
X108556Y7406D01*
X108448Y7494D01*
X108231Y7610D01*
X107995Y7682D01*
X107750Y7706D01*
X106650D01*
X106405Y7682D01*
X106169Y7610D01*
X105952Y7494D01*
X105762Y7338D01*
X105606Y7148D01*
X105490Y6931D01*
X105418Y6695D01*
X105394Y6450D01*
Y4550D01*
X105418Y4305D01*
X105490Y4069D01*
X105606Y3852D01*
X105762Y3662D01*
X105952Y3506D01*
X106169Y3390D01*
X106405Y3318D01*
X106650Y3294D01*
X107750D01*
X107995Y3318D01*
X108231Y3390D01*
X108448Y3506D01*
X108556Y3594D01*
X108563Y3598D01*
X108573Y3609D01*
X108638Y3662D01*
X108683Y3716D01*
X108694Y3727D01*
X108739Y3785D01*
X108752Y3801D01*
X108782Y3829D01*
X108830Y3864D01*
X108897Y3900D01*
X108986Y3937D01*
X109101Y3972D01*
X109240Y4002D01*
X109403Y4024D01*
X109589Y4039D01*
X109766Y4043D01*
X111984D01*
X112171Y4039D01*
X112379Y4026D01*
X112560Y4004D01*
X112715Y3975D01*
X112841Y3942D01*
X112937Y3907D01*
X113005Y3875D01*
X113045Y3848D01*
X113064Y3831D01*
X113108Y3776D01*
X113136Y3749D01*
X113160Y3719D01*
X113195Y3691D01*
X113205Y3683D01*
X113242Y3649D01*
X113260Y3639D01*
X113382Y3539D01*
X113633Y3404D01*
X113907Y3321D01*
X114191Y3293D01*
X115691D01*
X115975Y3321D01*
X116249Y3404D01*
X116500Y3539D01*
X116721Y3720D01*
X116902Y3941D01*
X117037Y4193D01*
X117120Y4466D01*
X117148Y4750D01*
Y6250D01*
X117120Y6534D01*
X117096Y6615D01*
X117538Y6880D01*
X118827Y5591D01*
X118859Y5566D01*
Y4400D01*
X119959Y3300D01*
X122159D01*
X123259Y4400D01*
Y6600D01*
X122159Y7700D01*
X119959D01*
X119765Y7506D01*
X118741Y8529D01*
X118932Y8991D01*
X126491D01*
Y5000D01*
X126496Y4964D01*
X126464Y4478D01*
X126362Y3965D01*
X126194Y3470D01*
X125963Y3001D01*
X125672Y2566D01*
X125327Y2173D01*
X124934Y1828D01*
X124499Y1537D01*
X124030Y1306D01*
X123535Y1138D01*
X123022Y1036D01*
X122537Y1004D01*
X122500Y1009D01*
X61088D01*
X60897Y1471D01*
X63316Y3890D01*
X63332D01*
Y3906D01*
X64213Y4787D01*
X64373Y4996D01*
X64474Y5239D01*
X64486Y5327D01*
X64697Y5500D01*
X64907Y5757D01*
X65064Y6049D01*
X65160Y6367D01*
X65192Y6697D01*
Y10634D01*
X65160Y10964D01*
X65064Y11282D01*
X64907Y11574D01*
X64697Y11831D01*
X64440Y12041D01*
X64148Y12197D01*
X63923Y12266D01*
X63500Y12451D01*
X63500Y12451D01*
X58500D01*
Y12326D01*
X58170Y12294D01*
X57852Y12197D01*
X57560Y12041D01*
X57303Y11831D01*
X57093Y11574D01*
X56936Y11282D01*
X56840Y10964D01*
X56808Y10634D01*
Y6697D01*
X56840Y6367D01*
X56936Y6049D01*
X57093Y5757D01*
X57303Y5500D01*
X57222Y4949D01*
X56282Y4009D01*
X25376D01*
X25280Y4099D01*
X25095Y4509D01*
X25127Y4569D01*
X25199Y4805D01*
X25217Y4991D01*
X27500D01*
X27761Y5026D01*
X28004Y5127D01*
X28213Y5287D01*
X35713Y12787D01*
X35873Y12996D01*
X35974Y13239D01*
X36009Y13500D01*
Y22100D01*
X37200D01*
Y25876D01*
X37662Y26067D01*
X39020Y24709D01*
X39317Y24465D01*
X39656Y24284D01*
X40024Y24172D01*
X40406Y24135D01*
X40788Y24172D01*
X41156Y24284D01*
X41495Y24465D01*
X41791Y24709D01*
X42035Y25005D01*
X42216Y25344D01*
X42328Y25712D01*
X42365Y26094D01*
X42328Y26476D01*
X42310Y26535D01*
X42732Y26867D01*
X42852Y26803D01*
X43170Y26706D01*
X43500Y26674D01*
X43830Y26706D01*
X44148Y26803D01*
X44440Y26959D01*
X44697Y27169D01*
X44907Y27426D01*
X45064Y27718D01*
X45160Y28036D01*
X45192Y28366D01*
Y32303D01*
X45160Y32633D01*
X45064Y32951D01*
X44907Y33243D01*
X44697Y33500D01*
X44440Y33710D01*
X44148Y33867D01*
X43830Y33963D01*
X43500Y33996D01*
X43170Y33963D01*
X42852Y33867D01*
X42560Y33710D01*
X42303Y33500D01*
X42093Y33243D01*
X41936Y32951D01*
X41840Y32633D01*
X41808Y32303D01*
Y28366D01*
X41829Y28149D01*
X41550Y27958D01*
X41363Y27908D01*
X40459Y28812D01*
Y30335D01*
Y35600D01*
X40422Y35982D01*
X40310Y36350D01*
X40129Y36689D01*
X39886Y36985D01*
X39589Y37229D01*
X39250Y37410D01*
X38882Y37522D01*
X38500Y37559D01*
X38118Y37522D01*
X37750Y37410D01*
X37411Y37229D01*
X37115Y36985D01*
X36871Y36689D01*
X36690Y36350D01*
X36578Y35982D01*
X36566Y35863D01*
X34372D01*
X34054Y36327D01*
X34052Y36363D01*
X34083Y36595D01*
Y37185D01*
X34048Y37445D01*
X33948Y37687D01*
X33805Y37874D01*
X33948Y38061D01*
X34048Y38303D01*
X34083Y38563D01*
Y39154D01*
X34048Y39413D01*
X34034Y39449D01*
X34048Y39484D01*
X34083Y39744D01*
Y40335D01*
X34048Y40595D01*
X33948Y40837D01*
X33789Y41045D01*
X33581Y41204D01*
X33338Y41304D01*
X33079Y41339D01*
X27764D01*
X27504Y41304D01*
X27267Y41206D01*
X26338D01*
Y41573D01*
X26262Y41955D01*
X26112Y42316D01*
X25896Y42640D01*
X25620Y42916D01*
X25296Y43132D01*
X24936Y43281D01*
X24553Y43358D01*
X24163D01*
X23781Y43281D01*
X23421Y43132D01*
X23096Y42916D01*
X22821Y42640D01*
X22706Y42468D01*
X22206Y42620D01*
Y46799D01*
X22200Y46845D01*
Y46891D01*
X22182Y47028D01*
X22200Y47164D01*
Y47210D01*
X22206Y47256D01*
Y52050D01*
X24100D01*
Y52212D01*
X24267Y52333D01*
X24600Y52429D01*
X24746Y52309D01*
D02*
G37*
G36*
X21500Y51000D02*
Y47256D01*
X21470Y47028D01*
X21500Y46799D01*
Y40500D01*
X22579D01*
X22680Y40257D01*
X23237Y39700D01*
X23965Y39398D01*
X24752D01*
X25480Y39700D01*
X26036Y40257D01*
X26137Y40500D01*
X32500D01*
X33000Y40000D01*
Y38200D01*
X27764D01*
X27375Y38123D01*
X27046Y37903D01*
X26826Y37573D01*
X26749Y37185D01*
Y36595D01*
X26780Y36441D01*
X26477Y35985D01*
X26408Y35941D01*
X25318D01*
X24928Y35863D01*
X24597Y35642D01*
X21962Y33007D01*
X21500Y33198D01*
Y33076D01*
X14500D01*
Y56500D01*
X21500D01*
Y51000D01*
D02*
G37*
G36*
X104997Y32523D02*
X104961Y32712D01*
X104881Y32880D01*
X104758Y33029D01*
X104591Y33158D01*
X104381Y33268D01*
X104128Y33357D01*
X103832Y33426D01*
X103492Y33476D01*
X103110Y33506D01*
X102683Y33516D01*
Y35516D01*
X103079Y35526D01*
X103432Y35556D01*
X103741Y35606D01*
X104007Y35676D01*
X104230Y35766D01*
X104410Y35876D01*
X104546Y36006D01*
X104639Y36156D01*
X104689Y36326D01*
X104696Y36516D01*
X104997Y32523D01*
D02*
G37*
G36*
X27560Y32453D02*
X27529Y32491D01*
X27490Y32525D01*
X27442Y32555D01*
X27386Y32581D01*
X27322Y32603D01*
X27250Y32621D01*
X27169Y32635D01*
X27079Y32645D01*
X26876Y32653D01*
Y33253D01*
X26982Y33255D01*
X27169Y33271D01*
X27250Y33285D01*
X27322Y33303D01*
X27386Y33325D01*
X27442Y33351D01*
X27490Y33380D01*
X27529Y33414D01*
X27560Y33452D01*
Y32453D01*
D02*
G37*
G36*
X33314Y31446D02*
X33353Y31412D01*
X33400Y31382D01*
X33456Y31356D01*
X33520Y31334D01*
X33593Y31316D01*
X33674Y31302D01*
X33763Y31292D01*
X33967Y31284D01*
Y30684D01*
X33861Y30682D01*
X33674Y30666D01*
X33593Y30652D01*
X33520Y30634D01*
X33456Y30612D01*
X33400Y30586D01*
X33353Y30557D01*
X33314Y30523D01*
X33283Y30485D01*
Y31484D01*
X33314Y31446D01*
D02*
G37*
G36*
X26610Y29786D02*
X26628Y29684D01*
X26658Y29594D01*
X26700Y29516D01*
X26754Y29450D01*
X26820Y29396D01*
X26898Y29354D01*
X26988Y29324D01*
X27066Y29310D01*
X27164Y29319D01*
X27244Y29334D01*
X27316Y29354D01*
X27381Y29377D01*
X27437Y29406D01*
X27486Y29438D01*
X27527Y29474D01*
X27560Y29515D01*
Y28516D01*
X27531Y28551D01*
X27493Y28582D01*
X27447Y28610D01*
X27392Y28634D01*
X27328Y28654D01*
X27256Y28671D01*
X27174Y28684D01*
X27085Y28693D01*
X26879Y28700D01*
X26876Y29081D01*
X26304Y28700D01*
X25404Y29300D01*
X25518Y29306D01*
X25620Y29324D01*
X25710Y29354D01*
X25788Y29396D01*
X25854Y29450D01*
X25908Y29516D01*
X25950Y29594D01*
X25980Y29684D01*
X25998Y29786D01*
X26004Y29900D01*
X26604D01*
X26610Y29786D01*
D02*
G37*
G36*
X33314Y27509D02*
X33353Y27475D01*
X33400Y27445D01*
X33456Y27419D01*
X33520Y27397D01*
X33593Y27379D01*
X33674Y27365D01*
X33763Y27355D01*
X33967Y27347D01*
Y26747D01*
X33861Y26745D01*
X33674Y26729D01*
X33593Y26715D01*
X33520Y26697D01*
X33456Y26675D01*
X33400Y26649D01*
X33353Y26620D01*
X33314Y26586D01*
X33283Y26548D01*
Y27547D01*
X33314Y27509D01*
D02*
G37*
G36*
X27560Y26548D02*
X27529Y26586D01*
X27490Y26620D01*
X27442Y26649D01*
X27386Y26675D01*
X27322Y26697D01*
X27250Y26715D01*
X27169Y26729D01*
X27079Y26739D01*
X26876Y26747D01*
Y27347D01*
X26982Y27349D01*
X27169Y27365D01*
X27250Y27379D01*
X27322Y27397D01*
X27386Y27419D01*
X27442Y27445D01*
X27490Y27475D01*
X27529Y27509D01*
X27560Y27547D01*
Y26548D01*
D02*
G37*
G36*
X87606Y28870D02*
X87772Y28792D01*
X87957Y28724D01*
X88161Y28664D01*
X88384Y28614D01*
X88626Y28573D01*
X89169Y28518D01*
X89469Y28505D01*
X89789Y28500D01*
Y26500D01*
X89469Y26495D01*
X88626Y26427D01*
X88384Y26386D01*
X88161Y26336D01*
X87957Y26276D01*
X87772Y26208D01*
X87606Y26130D01*
X87460Y26043D01*
Y28957D01*
X87606Y28870D01*
D02*
G37*
G36*
X80216Y26013D02*
X80157Y26087D01*
X80081Y26129D01*
X79988Y26140D01*
X79877Y26119D01*
X79748Y26067D01*
X79602Y25983D01*
X79438Y25868D01*
X79257Y25722D01*
X78842Y25334D01*
X78494Y26401D01*
X78676Y26590D01*
X78965Y26935D01*
X79074Y27092D01*
X79158Y27239D01*
X79218Y27375D01*
X79253Y27501D01*
X79264Y27616D01*
X79251Y27721D01*
X79214Y27816D01*
X80216Y26013D01*
D02*
G37*
G36*
X103717Y28496D02*
X105862Y28355D01*
X106003Y28303D01*
X106049Y28242D01*
X105998Y28174D01*
X105852Y28097D01*
X104696Y25500D01*
X104756Y25690D01*
X104757Y25860D01*
X104701Y26010D01*
X104587Y26140D01*
X104415Y26250D01*
X104185Y26340D01*
X103897Y26410D01*
X103550Y26460D01*
X103146Y26490D01*
X102683Y26500D01*
X103000Y28500D01*
X103717Y28496D01*
D02*
G37*
G36*
X33314Y23572D02*
X33353Y23538D01*
X33400Y23508D01*
X33456Y23482D01*
X33520Y23460D01*
X33593Y23442D01*
X33674Y23428D01*
X33763Y23418D01*
X33967Y23410D01*
Y22810D01*
X33861Y22808D01*
X33674Y22792D01*
X33593Y22778D01*
X33520Y22760D01*
X33456Y22738D01*
X33400Y22713D01*
X33353Y22683D01*
X33314Y22649D01*
X33283Y22611D01*
Y23610D01*
X33314Y23572D01*
D02*
G37*
G36*
X86567Y23470D02*
X86941Y23151D01*
X87107Y23034D01*
X87258Y22946D01*
X87394Y22886D01*
X87515Y22854D01*
X87622Y22851D01*
X87714Y22877D01*
X87792Y22931D01*
X86370Y21551D01*
X86426Y21626D01*
X86454Y21717D01*
X86453Y21822D01*
X86424Y21941D01*
X86366Y22075D01*
X86280Y22224D01*
X86166Y22388D01*
X86023Y22565D01*
X85651Y22965D01*
X86358Y23672D01*
X86567Y23470D01*
D02*
G37*
G36*
X24674Y25525D02*
X24672Y25482D01*
X26749Y23405D01*
Y22815D01*
X26826Y22427D01*
X27046Y22097D01*
X27375Y21877D01*
X27764Y21800D01*
X33000D01*
Y19302D01*
X27764D01*
X27375Y19225D01*
X27046Y19005D01*
X27043Y19000D01*
X26338D01*
Y19016D01*
X26036Y19743D01*
X25480Y20300D01*
X24752Y20602D01*
X23965D01*
X23237Y20300D01*
X22822Y19885D01*
X22496Y19839D01*
X22044Y20241D01*
Y23603D01*
X24179Y25737D01*
X24674Y25525D01*
D02*
G37*
G36*
X33788Y18637D02*
X33991Y18481D01*
Y13918D01*
X27082Y7009D01*
X25217D01*
X25199Y7195D01*
X25127Y7431D01*
X25011Y7648D01*
X24855Y7838D01*
X24665Y7994D01*
X24447Y8111D01*
X24212Y8182D01*
X23967Y8206D01*
X22867D01*
X22622Y8182D01*
X22534Y8155D01*
X22162Y8351D01*
X22034Y8489D01*
Y17755D01*
X22534Y17855D01*
X22604Y17684D01*
X22821Y17360D01*
X23096Y17085D01*
X23421Y16868D01*
X23781Y16719D01*
X24163Y16643D01*
X24553D01*
X24936Y16719D01*
X25296Y16868D01*
X25620Y17085D01*
X25896Y17360D01*
X26112Y17684D01*
X26262Y18045D01*
X26312Y18297D01*
X26338Y18294D01*
X27043D01*
X27092Y18301D01*
X27092Y18300D01*
X27093Y18301D01*
X27111Y18303D01*
X27181Y18307D01*
X27203Y18315D01*
X27226Y18318D01*
X27267Y18335D01*
X27273Y18336D01*
X27290Y18345D01*
X27355Y18367D01*
X27375Y18380D01*
X27396Y18389D01*
X27426Y18412D01*
X27439Y18418D01*
X27651Y18560D01*
X27833Y18596D01*
X33000D01*
X33183Y18620D01*
X33353Y18691D01*
X33384Y18715D01*
X33491Y18759D01*
X33788Y18637D01*
D02*
G37*
G36*
X72300Y19000D02*
X72243Y18990D01*
X72192Y18960D01*
X72147Y18910D01*
X72108Y18840D01*
X72075Y18750D01*
X72048Y18640D01*
X72027Y18510D01*
X72003Y18194D01*
X72003Y18190D01*
X72014Y18074D01*
X72031Y17964D01*
X72054Y17860D01*
X72085Y17762D01*
X72122Y17670D01*
X72167Y17583D01*
X72218Y17502D01*
X72275Y17426D01*
X72340Y17357D01*
X70660D01*
X70725Y17426D01*
X70782Y17502D01*
X70833Y17583D01*
X70878Y17670D01*
X70915Y17762D01*
X70946Y17860D01*
X70969Y17964D01*
X70986Y18074D01*
X70992Y18143D01*
X70990Y18190D01*
X70960Y18360D01*
X70910Y18510D01*
X70840Y18640D01*
X70750Y18750D01*
X70640Y18840D01*
X70510Y18910D01*
X70360Y18960D01*
X70190Y18990D01*
X70000Y19000D01*
X71500Y20000D01*
X72300Y19000D01*
D02*
G37*
G36*
X105472Y12060D02*
X105314Y12144D01*
X105069Y12218D01*
X104738Y12284D01*
X104321Y12342D01*
X103227Y12430D01*
X100000Y12500D01*
Y17500D01*
X100936Y17504D01*
X105069Y17782D01*
X105314Y17856D01*
X105472Y17940D01*
Y12060D01*
D02*
G37*
G36*
X44075Y11948D02*
X44105Y11562D01*
X44119Y11494D01*
X44136Y11437D01*
X44155Y11392D01*
X44177Y11357D01*
X44201Y11335D01*
X42799D01*
X42851Y11375D01*
X42898Y11423D01*
X42939Y11478D01*
X42975Y11541D01*
X43005Y11611D01*
X43030Y11689D01*
X43049Y11774D01*
X43063Y11866D01*
X43071Y11966D01*
X43074Y12074D01*
X44074D01*
X44075Y11948D01*
D02*
G37*
G36*
X49004Y12304D02*
X49017Y12144D01*
X49037Y11988D01*
X49066Y11836D01*
X49104Y11688D01*
X49150Y11545D01*
X49204Y11406D01*
X49266Y11271D01*
X49337Y11140D01*
X49416Y11013D01*
X47584D01*
X47663Y11140D01*
X47734Y11271D01*
X47796Y11406D01*
X47850Y11545D01*
X47896Y11688D01*
X47934Y11836D01*
X47963Y11988D01*
X47983Y12144D01*
X47996Y12304D01*
X48000Y12469D01*
X49000D01*
X49004Y12304D01*
D02*
G37*
G36*
X111785Y9312D02*
X111995Y9139D01*
X112098Y9069D01*
X112201Y9010D01*
X112303Y8961D01*
X112405Y8923D01*
X112505Y8896D01*
X112606Y8880D01*
X112705Y8875D01*
Y8275D01*
X112606Y8269D01*
X112505Y8253D01*
X112405Y8226D01*
X112303Y8188D01*
X112201Y8140D01*
X112098Y8080D01*
X111995Y8010D01*
X111890Y7929D01*
X111785Y7837D01*
X111680Y7735D01*
Y9415D01*
X111785Y9312D01*
D02*
G37*
G36*
X13704Y7467D02*
X13588Y7347D01*
X13406Y7132D01*
X13340Y7036D01*
X13289Y6949D01*
X13256Y6870D01*
X13239Y6800D01*
X13238Y6737D01*
X13254Y6683D01*
X13286Y6637D01*
X12463Y7486D01*
X12508Y7453D01*
X12561Y7436D01*
X12622Y7436D01*
X12693Y7452D01*
X12771Y7485D01*
X12858Y7535D01*
X12953Y7601D01*
X13056Y7684D01*
X13289Y7900D01*
X13704Y7467D01*
D02*
G37*
G36*
X87204Y8331D02*
X87217Y8174D01*
X87239Y8029D01*
X87270Y7896D01*
X87309Y7774D01*
X87358Y7664D01*
X87414Y7565D01*
X87480Y7478D01*
X87555Y7402D01*
X87638Y7338D01*
X85762D01*
X85845Y7402D01*
X85920Y7478D01*
X85985Y7565D01*
X86042Y7664D01*
X86090Y7774D01*
X86130Y7896D01*
X86161Y8029D01*
X86182Y8174D01*
X86196Y8331D01*
X86200Y8499D01*
X87200D01*
X87204Y8331D01*
D02*
G37*
G36*
X119583Y5704D02*
X119612Y5761D01*
X119634Y5812D01*
X119649Y5857D01*
X119656Y5896D01*
X119655Y5929D01*
X119647Y5956D01*
X119631Y5977D01*
X119608Y5992D01*
X119578Y6001D01*
X119540Y6004D01*
Y6604D01*
X119644Y6607D01*
X119740Y6616D01*
X119829Y6630D01*
X119910Y6650D01*
X119984Y6677D01*
X120050Y6709D01*
X120109Y6747D01*
X120160Y6790D01*
X120203Y6840D01*
X120239Y6895D01*
X119583Y5704D01*
D02*
G37*
G36*
X64038Y5934D02*
X63988Y5921D01*
X63944Y5899D01*
X63906Y5868D01*
X63873Y5829D01*
X63847Y5781D01*
X63826Y5724D01*
X63812Y5658D01*
X63803Y5583D01*
X63800Y5500D01*
X63200D01*
X63197Y5583D01*
X63188Y5658D01*
X63174Y5724D01*
X63153Y5781D01*
X63127Y5829D01*
X63094Y5868D01*
X63056Y5899D01*
X63012Y5921D01*
X62962Y5934D01*
X62907Y5938D01*
X64093D01*
X64038Y5934D01*
D02*
G37*
G36*
X24509Y6543D02*
X24528Y6492D01*
X24558Y6447D01*
X24601Y6408D01*
X24656Y6375D01*
X24724Y6348D01*
X24803Y6327D01*
X24895Y6312D01*
X24999Y6303D01*
X25115Y6300D01*
Y5700D01*
X24999Y5697D01*
X24895Y5688D01*
X24803Y5673D01*
X24724Y5652D01*
X24656Y5625D01*
X24601Y5592D01*
X24558Y5553D01*
X24528Y5508D01*
X24509Y5457D01*
X24503Y5400D01*
Y6600D01*
X24509Y6543D01*
D02*
G37*
G36*
X59038Y5931D02*
X58988Y5908D01*
X58944Y5869D01*
X58906Y5815D01*
X58873Y5745D01*
X58847Y5660D01*
X58826Y5560D01*
X58812Y5444D01*
X58803Y5312D01*
X58800Y5165D01*
X58200D01*
X58197Y5312D01*
X58174Y5560D01*
X58153Y5660D01*
X58127Y5745D01*
X58094Y5815D01*
X58056Y5869D01*
X58012Y5908D01*
X57962Y5931D01*
X57907Y5938D01*
X59093D01*
X59038Y5931D01*
D02*
G37*
G36*
X113659Y4218D02*
X113578Y4319D01*
X113476Y4410D01*
X113355Y4490D01*
X113213Y4559D01*
X113051Y4617D01*
X112869Y4665D01*
X112667Y4702D01*
X112444Y4729D01*
X112201Y4745D01*
X111939Y4750D01*
Y6250D01*
X112201Y6256D01*
X112667Y6298D01*
X112869Y6335D01*
X113051Y6383D01*
X113213Y6442D01*
X113355Y6511D01*
X113476Y6591D01*
X113578Y6681D01*
X113659Y6782D01*
Y4218D01*
D02*
G37*
G36*
X108225Y6726D02*
X108330Y6626D01*
X108452Y6538D01*
X108592Y6462D01*
X108749Y6397D01*
X108924Y6344D01*
X109116Y6303D01*
X109326Y6274D01*
X109554Y6256D01*
X109799Y6250D01*
Y4750D01*
X109554Y4744D01*
X109326Y4727D01*
X109117Y4697D01*
X108924Y4656D01*
X108749Y4603D01*
X108592Y4538D01*
X108452Y4462D01*
X108330Y4374D01*
X108225Y4274D01*
X108138Y4162D01*
Y6838D01*
X108225Y6726D01*
D02*
G37*
%LPC*%
G36*
X87041Y56513D02*
X86651D01*
X86269Y56437D01*
X85909Y56288D01*
X85585Y56071D01*
X85309Y55795D01*
X85092Y55471D01*
X84943Y55111D01*
X84867Y54728D01*
Y54339D01*
X84943Y53956D01*
X85092Y53596D01*
X85309Y53272D01*
X85585Y52996D01*
X85909Y52779D01*
X86269Y52630D01*
X86651Y52554D01*
X87041D01*
X87424Y52630D01*
X87784Y52779D01*
X88108Y52996D01*
X88384Y53272D01*
X88601Y53596D01*
X88750Y53956D01*
X88826Y54339D01*
Y54728D01*
X88750Y55111D01*
X88601Y55471D01*
X88384Y55795D01*
X88108Y56071D01*
X87784Y56288D01*
X87424Y56437D01*
X87041Y56513D01*
D02*
G37*
G36*
X80348D02*
X79959D01*
X79576Y56437D01*
X79216Y56288D01*
X78892Y56071D01*
X78616Y55795D01*
X78399Y55471D01*
X78250Y55111D01*
X78174Y54728D01*
Y54339D01*
X78250Y53956D01*
X78399Y53596D01*
X78616Y53272D01*
X78892Y52996D01*
X79216Y52779D01*
X79576Y52630D01*
X79959Y52554D01*
X80348D01*
X80731Y52630D01*
X81091Y52779D01*
X81415Y52996D01*
X81691Y53272D01*
X81908Y53596D01*
X82057Y53956D01*
X82133Y54339D01*
Y54728D01*
X82057Y55111D01*
X81908Y55471D01*
X81691Y55795D01*
X81415Y56071D01*
X81091Y56288D01*
X80731Y56437D01*
X80348Y56513D01*
D02*
G37*
G36*
X57309Y56707D02*
X55809D01*
X55525Y56679D01*
X55251Y56596D01*
X55000Y56461D01*
X54779Y56280D01*
X54598Y56059D01*
X54463Y55807D01*
X54380Y55534D01*
X54352Y55250D01*
Y53750D01*
X54380Y53466D01*
X54463Y53192D01*
X54598Y52940D01*
X54779Y52720D01*
X55000Y52538D01*
X55251Y52404D01*
X55525Y52321D01*
X55809Y52293D01*
X57309D01*
X57593Y52321D01*
X57752Y52369D01*
X57780Y52373D01*
X57822Y52390D01*
X57867Y52404D01*
X57875Y52408D01*
X57893Y52414D01*
X57916Y52425D01*
X59586Y52523D01*
X60387Y52472D01*
X60555Y52451D01*
X60672Y52429D01*
X60709Y52419D01*
X60738Y52405D01*
X60744Y52403D01*
X60769Y52390D01*
X60843Y52367D01*
X60857Y52361D01*
X60867Y52360D01*
X61005Y52318D01*
X61250Y52294D01*
X62350D01*
X62595Y52318D01*
X62831Y52390D01*
X63048Y52506D01*
X63238Y52662D01*
X63394Y52852D01*
X63511Y53069D01*
X63582Y53305D01*
X63606Y53550D01*
Y53742D01*
X63610Y53750D01*
X63722Y54118D01*
X63759Y54500D01*
X63722Y54882D01*
X63610Y55250D01*
X63606Y55258D01*
Y55450D01*
X63582Y55695D01*
X63511Y55931D01*
X63394Y56148D01*
X63238Y56338D01*
X63048Y56494D01*
X62831Y56611D01*
X62595Y56682D01*
X62350Y56706D01*
X61250D01*
X61005Y56682D01*
X60867Y56640D01*
X60857Y56639D01*
X60843Y56633D01*
X60769Y56611D01*
X60744Y56597D01*
X60738Y56595D01*
X60711Y56582D01*
X59041Y56477D01*
X58243Y56524D01*
X58071Y56544D01*
X57953Y56565D01*
X57918Y56574D01*
X57893Y56586D01*
X57875Y56592D01*
X57867Y56596D01*
X57822Y56609D01*
X57780Y56627D01*
X57752Y56631D01*
X57593Y56679D01*
X57309Y56707D01*
D02*
G37*
%LPD*%
G36*
X61040Y53043D02*
X60957Y53083D01*
X60832Y53118D01*
X60664Y53149D01*
X60454Y53175D01*
X59588Y53230D01*
X57801Y53125D01*
X57677Y53092D01*
X57597Y53055D01*
Y55945D01*
X57677Y55908D01*
X57801Y55875D01*
X57968Y55845D01*
X58180Y55820D01*
X59043Y55769D01*
X60831Y55882D01*
X60957Y55918D01*
X61040Y55957D01*
Y53043D01*
D02*
G37*
%LPC*%
G36*
X68500Y33996D02*
X68170Y33963D01*
X67852Y33867D01*
X67560Y33710D01*
X67303Y33500D01*
X67093Y33243D01*
X66936Y32951D01*
X66840Y32633D01*
X66808Y32303D01*
Y28366D01*
X66840Y28036D01*
X66936Y27718D01*
X67093Y27426D01*
X67303Y27169D01*
X67560Y26959D01*
X67852Y26803D01*
X68170Y26706D01*
X68500Y26674D01*
X68830Y26706D01*
X69148Y26803D01*
X69440Y26959D01*
X69697Y27169D01*
X69907Y27426D01*
X70064Y27718D01*
X70160Y28036D01*
X70192Y28366D01*
Y32303D01*
X70160Y32633D01*
X70064Y32951D01*
X69907Y33243D01*
X69697Y33500D01*
X69440Y33710D01*
X69148Y33867D01*
X68830Y33963D01*
X68500Y33996D01*
D02*
G37*
G36*
X63500D02*
X63170Y33963D01*
X62852Y33867D01*
X62560Y33710D01*
X62303Y33500D01*
X62093Y33243D01*
X61936Y32951D01*
X61840Y32633D01*
X61808Y32303D01*
Y28366D01*
X61840Y28036D01*
X61936Y27718D01*
X62093Y27426D01*
X62303Y27169D01*
X62560Y26959D01*
X62852Y26803D01*
X63170Y26706D01*
X63500Y26674D01*
X63830Y26706D01*
X64148Y26803D01*
X64440Y26959D01*
X64697Y27169D01*
X64907Y27426D01*
X65064Y27718D01*
X65160Y28036D01*
X65192Y28366D01*
Y32303D01*
X65160Y32633D01*
X65064Y32951D01*
X64907Y33243D01*
X64697Y33500D01*
X64440Y33710D01*
X64148Y33867D01*
X63830Y33963D01*
X63500Y33996D01*
D02*
G37*
G36*
X58500D02*
X58170Y33963D01*
X57852Y33867D01*
X57560Y33710D01*
X57303Y33500D01*
X57093Y33243D01*
X56936Y32951D01*
X56840Y32633D01*
X56808Y32303D01*
Y28366D01*
X56840Y28036D01*
X56936Y27718D01*
X57093Y27426D01*
X57303Y27169D01*
X57560Y26959D01*
X57852Y26803D01*
X58170Y26706D01*
X58500Y26674D01*
X58830Y26706D01*
X59148Y26803D01*
X59440Y26959D01*
X59697Y27169D01*
X59907Y27426D01*
X60064Y27718D01*
X60160Y28036D01*
X60192Y28366D01*
Y32303D01*
X60160Y32633D01*
X60064Y32951D01*
X59907Y33243D01*
X59697Y33500D01*
X59440Y33710D01*
X59148Y33867D01*
X58830Y33963D01*
X58500Y33996D01*
D02*
G37*
G36*
X53500D02*
X53170Y33963D01*
X52852Y33867D01*
X52560Y33710D01*
X52303Y33500D01*
X52093Y33243D01*
X51936Y32951D01*
X51840Y32633D01*
X51808Y32303D01*
Y30988D01*
X51792Y30827D01*
Y26841D01*
X51673Y26554D01*
X51600Y26187D01*
Y25813D01*
X51673Y25446D01*
X51816Y25100D01*
X52024Y24789D01*
X52289Y24524D01*
X52600Y24316D01*
X52946Y24173D01*
X53313Y24100D01*
X53687D01*
X54054Y24173D01*
X54400Y24316D01*
X54711Y24524D01*
X54976Y24789D01*
X55184Y25100D01*
X55327Y25446D01*
X55400Y25813D01*
Y26187D01*
X55327Y26554D01*
X55208Y26841D01*
Y30827D01*
X55192Y30988D01*
Y32303D01*
X55160Y32633D01*
X55064Y32951D01*
X54907Y33243D01*
X54697Y33500D01*
X54440Y33710D01*
X54148Y33867D01*
X53830Y33963D01*
X53500Y33996D01*
D02*
G37*
G36*
X48500D02*
X48170Y33963D01*
X47852Y33867D01*
X47560Y33710D01*
X47303Y33500D01*
X47093Y33243D01*
X46936Y32951D01*
X46840Y32633D01*
X46808Y32303D01*
Y30988D01*
X46792Y30827D01*
Y26841D01*
X46673Y26554D01*
X46600Y26187D01*
Y25813D01*
X46673Y25446D01*
X46816Y25100D01*
X47024Y24789D01*
X47289Y24524D01*
X47600Y24316D01*
X47946Y24173D01*
X48313Y24100D01*
X48687D01*
X49054Y24173D01*
X49400Y24316D01*
X49711Y24524D01*
X49976Y24789D01*
X50184Y25100D01*
X50327Y25446D01*
X50400Y25813D01*
Y26187D01*
X50327Y26554D01*
X50208Y26841D01*
Y30827D01*
X50192Y30988D01*
Y32303D01*
X50160Y32633D01*
X50064Y32951D01*
X49907Y33243D01*
X49697Y33500D01*
X49440Y33710D01*
X49148Y33867D01*
X48830Y33963D01*
X48500Y33996D01*
D02*
G37*
G36*
X101350Y7706D02*
X100250D01*
X100005Y7682D01*
X99769Y7610D01*
X99552Y7494D01*
X99362Y7338D01*
X99206Y7148D01*
X99089Y6931D01*
X99028Y6729D01*
X98982Y6721D01*
X98856Y6710D01*
X98683Y6706D01*
X97329D01*
X97231Y6709D01*
X97159Y6715D01*
X97097Y6724D01*
X97044Y6737D01*
X97000Y6751D01*
X96963Y6765D01*
X96932Y6781D01*
X96906Y6798D01*
X96883Y6815D01*
X96838Y6857D01*
X96811Y6876D01*
X96711Y6976D01*
X96400Y7184D01*
X96054Y7327D01*
X95687Y7400D01*
X95313D01*
X94946Y7327D01*
X94600Y7184D01*
X94289Y6976D01*
X94024Y6711D01*
X93816Y6400D01*
X93673Y6054D01*
X93600Y5687D01*
Y5313D01*
X93673Y4946D01*
X93816Y4600D01*
X94024Y4289D01*
X94289Y4024D01*
X94600Y3816D01*
X94946Y3673D01*
X95313Y3600D01*
X95687D01*
X96054Y3673D01*
X96400Y3816D01*
X96711Y4024D01*
X96811Y4124D01*
X96838Y4143D01*
X96883Y4185D01*
X96906Y4202D01*
X96932Y4219D01*
X96963Y4234D01*
X97000Y4250D01*
X97044Y4263D01*
X97097Y4276D01*
X97159Y4285D01*
X97231Y4291D01*
X97329Y4294D01*
X98683D01*
X98856Y4290D01*
X98982Y4279D01*
X99028Y4272D01*
X99089Y4069D01*
X99206Y3852D01*
X99362Y3662D01*
X99552Y3506D01*
X99769Y3390D01*
X100005Y3318D01*
X100250Y3294D01*
X101350D01*
X101595Y3318D01*
X101831Y3390D01*
X102048Y3506D01*
X102238Y3662D01*
X102394Y3852D01*
X102510Y4069D01*
X102582Y4305D01*
X102606Y4550D01*
Y6450D01*
X102582Y6695D01*
X102510Y6931D01*
X102394Y7148D01*
X102238Y7338D01*
X102048Y7494D01*
X101831Y7610D01*
X101595Y7682D01*
X101350Y7706D01*
D02*
G37*
G36*
X68500Y12326D02*
X68170Y12294D01*
X67852Y12197D01*
X67560Y12041D01*
X67303Y11831D01*
X67093Y11574D01*
X66936Y11282D01*
X66840Y10964D01*
X66808Y10634D01*
Y6697D01*
X66840Y6367D01*
X66936Y6049D01*
X67093Y5757D01*
X67303Y5500D01*
X67560Y5290D01*
X67852Y5133D01*
X68170Y5037D01*
X68500Y5004D01*
X68830Y5037D01*
X69148Y5133D01*
X69440Y5290D01*
X69697Y5500D01*
X69907Y5757D01*
X70064Y6049D01*
X70160Y6367D01*
X70192Y6697D01*
Y10634D01*
X70160Y10964D01*
X70064Y11282D01*
X69907Y11574D01*
X69697Y11831D01*
X69440Y12041D01*
X69148Y12197D01*
X68830Y12294D01*
X68500Y12326D01*
D02*
G37*
G36*
X53687Y14900D02*
X53313D01*
X52946Y14827D01*
X52600Y14684D01*
X52289Y14476D01*
X52024Y14211D01*
X51816Y13900D01*
X51673Y13554D01*
X51600Y13187D01*
Y12813D01*
X51673Y12446D01*
X51691Y12402D01*
Y8665D01*
X51726Y8313D01*
X51808Y8044D01*
Y6697D01*
X51840Y6367D01*
X51936Y6049D01*
X52093Y5757D01*
X52303Y5500D01*
X52560Y5290D01*
X52852Y5133D01*
X53170Y5037D01*
X53500Y5004D01*
X53830Y5037D01*
X54148Y5133D01*
X54440Y5290D01*
X54697Y5500D01*
X54907Y5757D01*
X55064Y6049D01*
X55160Y6367D01*
X55192Y6697D01*
Y8044D01*
X55274Y8313D01*
X55309Y8665D01*
Y12402D01*
X55327Y12446D01*
X55400Y12813D01*
Y13187D01*
X55327Y13554D01*
X55184Y13900D01*
X54976Y14211D01*
X54711Y14476D01*
X54400Y14684D01*
X54054Y14827D01*
X53687Y14900D01*
D02*
G37*
G36*
X73500Y12326D02*
X73170Y12294D01*
X72852Y12197D01*
X72560Y12041D01*
X72303Y11831D01*
X72093Y11574D01*
X71936Y11282D01*
X71840Y10964D01*
X71808Y10634D01*
Y6697D01*
X71840Y6367D01*
X71936Y6049D01*
X72093Y5757D01*
X72303Y5500D01*
X72560Y5290D01*
X72852Y5133D01*
X73170Y5037D01*
X73500Y5004D01*
X73830Y5037D01*
X74148Y5133D01*
X74440Y5290D01*
X74697Y5500D01*
X74742Y5555D01*
X75273Y5446D01*
X75416Y5100D01*
X75624Y4789D01*
X75889Y4524D01*
X76200Y4316D01*
X76546Y4173D01*
X76913Y4100D01*
X77287D01*
X77654Y4173D01*
X78000Y4316D01*
X78129Y4402D01*
X78149Y4410D01*
X78611Y4362D01*
X78767Y4278D01*
X78770Y4274D01*
X78862Y4162D01*
X79052Y4006D01*
X79269Y3889D01*
X79505Y3818D01*
X79750Y3794D01*
X80850D01*
X81095Y3818D01*
X81331Y3889D01*
X81548Y4006D01*
X81738Y4162D01*
X81894Y4352D01*
X82010Y4569D01*
X82082Y4805D01*
X82106Y5050D01*
Y6950D01*
X82082Y7195D01*
X82010Y7431D01*
X81894Y7648D01*
X81738Y7838D01*
X81548Y7994D01*
X81331Y8110D01*
X81095Y8182D01*
X80850Y8206D01*
X79750D01*
X79505Y8182D01*
X79269Y8110D01*
X79052Y7994D01*
X78862Y7838D01*
X78770Y7726D01*
X78767Y7722D01*
X78611Y7638D01*
X78149Y7590D01*
X78129Y7598D01*
X78000Y7684D01*
X77654Y7827D01*
X77287Y7900D01*
X76913D01*
X76546Y7827D01*
X76200Y7684D01*
X75889Y7476D01*
X75692Y7279D01*
X75418Y7332D01*
X75192Y7465D01*
Y10634D01*
X75160Y10964D01*
X75064Y11282D01*
X74907Y11574D01*
X74697Y11831D01*
X74440Y12041D01*
X74148Y12197D01*
X73830Y12294D01*
X73500Y12326D01*
D02*
G37*
%LPD*%
G36*
X96426Y6275D02*
X96502Y6218D01*
X96583Y6167D01*
X96670Y6122D01*
X96762Y6085D01*
X96860Y6054D01*
X96964Y6031D01*
X97074Y6014D01*
X97190Y6003D01*
X97311Y6000D01*
Y5000D01*
X97190Y4997D01*
X97074Y4986D01*
X96964Y4969D01*
X96860Y4946D01*
X96762Y4915D01*
X96670Y4878D01*
X96583Y4833D01*
X96502Y4782D01*
X96426Y4725D01*
X96357Y4660D01*
Y6340D01*
X96426Y6275D01*
D02*
G37*
G36*
X99723Y4502D02*
X99713Y4597D01*
X99682Y4682D01*
X99631Y4756D01*
X99560Y4821D01*
X99468Y4876D01*
X99355Y4920D01*
X99222Y4955D01*
X99069Y4980D01*
X98896Y4995D01*
X98701Y5000D01*
Y6000D01*
X98896Y6005D01*
X99069Y6020D01*
X99222Y6045D01*
X99355Y6080D01*
X99468Y6124D01*
X99560Y6179D01*
X99631Y6244D01*
X99682Y6318D01*
X99713Y6403D01*
X99723Y6498D01*
X99723Y4502D01*
D02*
G37*
G36*
X79223Y5002D02*
X79213Y5097D01*
X79182Y5181D01*
X79131Y5256D01*
X79060Y5321D01*
X78968Y5376D01*
X78855Y5420D01*
X78723Y5455D01*
X78601Y5475D01*
X78564Y5469D01*
X78460Y5446D01*
X78362Y5415D01*
X78270Y5378D01*
X78183Y5333D01*
X78102Y5282D01*
X78026Y5225D01*
X77957Y5160D01*
Y6840D01*
X78026Y6775D01*
X78102Y6718D01*
X78183Y6667D01*
X78270Y6622D01*
X78362Y6585D01*
X78460Y6554D01*
X78564Y6531D01*
X78601Y6525D01*
X78723Y6545D01*
X78855Y6580D01*
X78968Y6624D01*
X79060Y6679D01*
X79131Y6744D01*
X79182Y6819D01*
X79213Y6903D01*
X79223Y6998D01*
X79223Y5002D01*
D02*
G37*
D12*
X43574Y8739D02*
Y12074D01*
X52700Y21200D01*
X71500Y19500D02*
X72300D01*
X53500D02*
X71500D01*
Y16500D02*
Y19500D01*
X100839Y51761D02*
X102800Y49800D01*
X77719Y34016D02*
X78400Y34697D01*
X84221Y35321D02*
X86700Y37800D01*
Y41500D01*
X84221Y25102D02*
Y35321D01*
X100839Y51761D02*
Y54461D01*
X100800Y54500D02*
X100839Y54461D01*
X80300Y6000D02*
X80300Y6000D01*
X77100Y6000D02*
X80300D01*
X51260Y40346D02*
Y43220D01*
X50674Y39760D02*
X51260Y40346D01*
X47095Y39760D02*
X50674D01*
X86700Y41873D02*
X90193Y45366D01*
Y49022D01*
X48500Y14500D02*
X53500Y19500D01*
X48500Y8173D02*
Y14500D01*
X52700Y21200D02*
X71445D01*
X84221Y25102D02*
X87240Y22083D01*
X78580Y43220D02*
X79331Y42469D01*
X51260Y43220D02*
Y46654D01*
Y43220D02*
X78580D01*
X79331Y42469D02*
X79704D01*
X80300Y41500D02*
Y41873D01*
X79704Y42469D02*
X80300Y41873D01*
X95500Y5500D02*
X100800D01*
X100800Y5500D01*
X72300Y19500D02*
X80300Y27500D01*
X71445Y21200D02*
X76500Y26255D01*
X86429Y12071D02*
X86700Y11800D01*
Y6000D02*
Y11800D01*
X83500Y10988D02*
Y12071D01*
X76500Y26255D02*
Y32693D01*
X77719Y33912D01*
Y34016D01*
X87240Y21000D02*
Y22083D01*
X50674Y47240D02*
X51260Y46654D01*
X47095Y47240D02*
X50674D01*
D17*
X78400Y34500D02*
X81600D01*
X111000Y51500D02*
X111127Y51373D01*
X117932D01*
X121059Y54500D01*
X26304Y29000D02*
X30406D01*
X30421Y29016D01*
X24000Y29000D02*
X26304D01*
Y32601D01*
X34016Y30984D02*
X34500Y30500D01*
X24047Y27047D02*
X34148D01*
X34500Y27399D02*
Y30500D01*
X34148Y27047D02*
X34500Y27399D01*
X30421Y30984D02*
X34016D01*
X21025Y23000D02*
Y24025D01*
Y4475D02*
Y23000D01*
X19578Y24578D02*
X24000Y29000D01*
X19578Y4084D02*
Y24578D01*
X21025Y24025D02*
X24047Y27047D01*
X19578Y4084D02*
X22162Y1500D01*
X59500D02*
X63500Y5500D01*
X22162Y1500D02*
X59500D01*
X23417Y6000D02*
X27500D01*
X21025Y4475D02*
X22500Y3000D01*
X35000Y13500D02*
Y22500D01*
X56700Y3000D02*
X58500Y4800D01*
X22500Y3000D02*
X56700D01*
X27500Y6000D02*
X35000Y13500D01*
X26656Y32953D02*
X30421D01*
X26304Y32601D02*
X26656Y32953D01*
X120485Y5500D02*
X121059D01*
X119540Y6304D02*
X119681D01*
X110823Y8575D02*
X117269D01*
X119681Y6304D02*
X120485Y5500D01*
X117269Y8575D02*
X119540Y6304D01*
X12200Y6000D02*
Y6387D01*
X16000Y10187D02*
Y25603D01*
X12200Y6387D02*
X16000Y10187D01*
Y25603D02*
X25318Y34921D01*
X30421D01*
X34390Y23110D02*
X35000Y22500D01*
X30421Y23110D02*
X34390D01*
X58500Y4800D02*
Y7673D01*
X63500Y5500D02*
Y7673D01*
D21*
X38500Y8665D02*
D03*
D22*
X43500D02*
D03*
X48500D02*
D03*
X53500D02*
D03*
X58500D02*
D03*
X63500D02*
D03*
X68500D02*
D03*
X73500D02*
D03*
X38500Y30335D02*
D03*
X43500D02*
D03*
X48500D02*
D03*
X53500D02*
D03*
X58500D02*
D03*
X63500D02*
D03*
X68500D02*
D03*
X73500D02*
D03*
D23*
X57012Y39760D02*
D03*
Y47240D02*
D03*
X45988Y43500D02*
D03*
Y47240D02*
D03*
Y39760D02*
D03*
D24*
X26500Y54500D02*
D03*
X19500D02*
D03*
D25*
X5800Y6000D02*
D03*
X12200D02*
D03*
X23417D02*
D03*
X17017D02*
D03*
X61800Y54500D02*
D03*
X68200D02*
D03*
X107200Y5500D02*
D03*
X100800D02*
D03*
X107200Y54500D02*
D03*
X100800D02*
D03*
X86700Y6000D02*
D03*
X80300D02*
D03*
X86700Y41500D02*
D03*
X80300D02*
D03*
X86700Y27500D02*
D03*
X80300D02*
D03*
D26*
X74347Y56699D02*
D03*
X92654D02*
D03*
D27*
X76413Y57978D02*
D03*
X90587D02*
D03*
D28*
X76807Y49022D02*
D03*
X90193D02*
D03*
D29*
X33200Y54500D02*
D03*
X43100D02*
D03*
X78400Y34500D02*
D03*
X88300D02*
D03*
D30*
X38500Y40300D02*
D03*
Y46700D02*
D03*
X64500Y40300D02*
D03*
Y46700D02*
D03*
X70500Y40300D02*
D03*
Y46700D02*
D03*
D31*
X110000Y45000D02*
D03*
Y35000D02*
D03*
Y25000D02*
D03*
Y15000D02*
D03*
D32*
X87240Y21000D02*
D03*
X79760D02*
D03*
X83500Y12071D02*
D03*
D33*
X30421Y16811D02*
D03*
Y17992D02*
D03*
Y19961D02*
D03*
Y21142D02*
D03*
Y23110D02*
D03*
Y25079D02*
D03*
Y27047D02*
D03*
Y29016D02*
D03*
Y30984D02*
D03*
Y32953D02*
D03*
Y34921D02*
D03*
Y36890D02*
D03*
Y38858D02*
D03*
Y40039D02*
D03*
Y42008D02*
D03*
Y43189D02*
D03*
D34*
X121059Y54500D02*
D03*
X50441Y54500D02*
D03*
X121059Y5500D02*
D03*
D35*
X114941Y54500D02*
D03*
X56559Y54500D02*
D03*
X114941Y5500D02*
D03*
D54*
X56100Y47230D02*
X61664D01*
X38500Y30335D02*
Y35600D01*
Y28000D02*
X40406Y26094D01*
X38500Y28000D02*
Y30335D01*
X67500Y46700D02*
X70500D01*
X64500D02*
X67500D01*
X62194D02*
X64500D01*
X61664Y47230D02*
X62194Y46700D01*
X68183Y46822D02*
Y54250D01*
X56559Y54500D02*
X61800D01*
X56559Y54500D02*
X56559Y54500D01*
X61800D02*
X61800Y54500D01*
D55*
X53500Y8665D02*
Y13000D01*
D56*
X109779Y45000D02*
X109889Y45110D01*
X26500Y54500D02*
X30100D01*
X91500Y40000D02*
X91771D01*
X96771Y45000D01*
X109779D01*
D57*
X30100Y54500D02*
X33200D01*
X53500Y26000D02*
Y30827D01*
X48500Y26000D02*
Y30827D01*
X86700Y27500D02*
X105024D01*
X107524Y25000D02*
X110000D01*
X105024Y27500D02*
X107524Y25000D01*
X109516Y34516D02*
X110000Y35000D01*
X88316Y34516D02*
X109516D01*
X88300Y34500D02*
X88316Y34516D01*
D58*
X107200Y54500D02*
X114941D01*
X114941Y54500D01*
X107200Y54500D02*
X107200Y54500D01*
X107200Y5000D02*
X107200Y5000D01*
Y5500D02*
X114441D01*
X107200Y5500D02*
X107200Y5500D01*
X114441D02*
X114941Y5000D01*
D59*
X109889Y45110D02*
X110000Y45000D01*
D60*
X86429Y12071D02*
X89358D01*
X83500D02*
X86429D01*
X92287Y15000D02*
X110000D01*
X89358Y12071D02*
X92287Y15000D01*
D61*
X80154Y54533D02*
D03*
X86847D02*
D03*
X24358Y41378D02*
D03*
Y18622D02*
D03*
D62*
X10579Y12972D02*
D03*
Y47028D02*
D03*
D63*
X26327Y12972D02*
D03*
Y47028D02*
D03*
D64*
X81600Y34500D02*
D03*
X111000Y51500D02*
D03*
X53500Y26000D02*
D03*
X48500D02*
D03*
X83100Y16700D02*
D03*
X53500Y13000D02*
D03*
X62500Y15400D02*
D03*
X67500D02*
D03*
X57500D02*
D03*
X40406Y26094D02*
D03*
X38500Y35600D02*
D03*
X41900Y47200D02*
D03*
X20000Y44000D02*
D03*
X25800Y21600D02*
D03*
X23800Y23500D02*
D03*
X102800Y49800D02*
D03*
X30000Y5200D02*
D03*
X118000Y57500D02*
D03*
X104000D02*
D03*
X77100Y6000D02*
D03*
X97500Y20000D02*
D03*
X7500Y35000D02*
D03*
Y27500D02*
D03*
X20000Y36000D02*
D03*
X62500Y37500D02*
D03*
X52500D02*
D03*
X33000Y47000D02*
D03*
X65000Y57500D02*
D03*
X47500D02*
D03*
X37500D02*
D03*
X82500Y47500D02*
D03*
X86000D02*
D03*
X75000Y40000D02*
D03*
Y36500D02*
D03*
X102500Y20000D02*
D03*
X92500Y2500D02*
D03*
X82500D02*
D03*
X35000Y7500D02*
D03*
X42500Y17500D02*
D03*
X40000Y20000D02*
D03*
X7500D02*
D03*
Y55000D02*
D03*
X16000Y40000D02*
D03*
Y48000D02*
D03*
Y54500D02*
D03*
X95500Y5500D02*
D03*
X67500Y46700D02*
D03*
X110823Y8575D02*
D03*
X71500Y16500D02*
D03*
X61664Y47230D02*
D03*
D65*
X30100Y54500D02*
D03*
D66*
X91500Y40000D02*
D03*
M02*
