G04*
G04 #@! TF.GenerationSoftware,Altium Limited,Altium Designer,22.3.1 (43)*
G04*
G04 Layer_Color=8388736*
%FSTAX25Y25*%
%MOIN*%
G70*
G04*
G04 #@! TF.SameCoordinates,AA438D0C-BAC3-434F-BC1F-4FEAB2FC06D2*
G04*
G04*
G04 #@! TF.FilePolarity,Negative*
G04*
G01*
G75*
G04:AMPARAMS|DCode=31|XSize=38mil|YSize=30mil|CornerRadius=9.5mil|HoleSize=0mil|Usage=FLASHONLY|Rotation=0.000|XOffset=0mil|YOffset=0mil|HoleType=Round|Shape=RoundedRectangle|*
%AMROUNDEDRECTD31*
21,1,0.03800,0.01100,0,0,0.0*
21,1,0.01900,0.03000,0,0,0.0*
1,1,0.01900,0.00950,-0.00550*
1,1,0.01900,-0.00950,-0.00550*
1,1,0.01900,-0.00950,0.00550*
1,1,0.01900,0.00950,0.00550*
%
%ADD31ROUNDEDRECTD31*%
%ADD32R,0.02572X0.04737*%
%ADD33R,0.03162X0.05524*%
%ADD34R,0.02375X0.03359*%
%ADD35R,0.03359X0.05918*%
G04:AMPARAMS|DCode=36|XSize=38mil|YSize=38mil|CornerRadius=11.5mil|HoleSize=0mil|Usage=FLASHONLY|Rotation=180.000|XOffset=0mil|YOffset=0mil|HoleType=Round|Shape=RoundedRectangle|*
%AMROUNDEDRECTD36*
21,1,0.03800,0.01500,0,0,180.0*
21,1,0.01500,0.03800,0,0,180.0*
1,1,0.02300,-0.00750,0.00750*
1,1,0.02300,0.00750,0.00750*
1,1,0.02300,0.00750,-0.00750*
1,1,0.02300,-0.00750,-0.00750*
%
%ADD36ROUNDEDRECTD36*%
%ADD37P,0.04113X8X202.5*%
G04:AMPARAMS|DCode=38|XSize=25.72mil|YSize=47.37mil|CornerRadius=8.43mil|HoleSize=0mil|Usage=FLASHONLY|Rotation=180.000|XOffset=0mil|YOffset=0mil|HoleType=Round|Shape=RoundedRectangle|*
%AMROUNDEDRECTD38*
21,1,0.02572,0.03051,0,0,180.0*
21,1,0.00886,0.04737,0,0,180.0*
1,1,0.01686,-0.00443,0.01526*
1,1,0.01686,0.00443,0.01526*
1,1,0.01686,0.00443,-0.01526*
1,1,0.01686,-0.00443,-0.01526*
%
%ADD38ROUNDEDRECTD38*%
G04:AMPARAMS|DCode=39|XSize=70.99mil|YSize=114.3mil|CornerRadius=19.75mil|HoleSize=0mil|Usage=FLASHONLY|Rotation=270.000|XOffset=0mil|YOffset=0mil|HoleType=Round|Shape=RoundedRectangle|*
%AMROUNDEDRECTD39*
21,1,0.07099,0.07480,0,0,270.0*
21,1,0.03150,0.11430,0,0,270.0*
1,1,0.03950,-0.03740,-0.01575*
1,1,0.03950,-0.03740,0.01575*
1,1,0.03950,0.03740,0.01575*
1,1,0.03950,0.03740,-0.01575*
%
%ADD39ROUNDEDRECTD39*%
G04:AMPARAMS|DCode=40|XSize=38mil|YSize=30mil|CornerRadius=9.5mil|HoleSize=0mil|Usage=FLASHONLY|Rotation=270.000|XOffset=0mil|YOffset=0mil|HoleType=Round|Shape=RoundedRectangle|*
%AMROUNDEDRECTD40*
21,1,0.03800,0.01100,0,0,270.0*
21,1,0.01900,0.03000,0,0,270.0*
1,1,0.01900,-0.00550,-0.00950*
1,1,0.01900,-0.00550,0.00950*
1,1,0.01900,0.00550,0.00950*
1,1,0.01900,0.00550,-0.00950*
%
%ADD40ROUNDEDRECTD40*%
G04:AMPARAMS|DCode=41|XSize=27.69mil|YSize=31.62mil|CornerRadius=8.92mil|HoleSize=0mil|Usage=FLASHONLY|Rotation=270.000|XOffset=0mil|YOffset=0mil|HoleType=Round|Shape=RoundedRectangle|*
%AMROUNDEDRECTD41*
21,1,0.02769,0.01378,0,0,270.0*
21,1,0.00984,0.03162,0,0,270.0*
1,1,0.01784,-0.00689,-0.00492*
1,1,0.01784,-0.00689,0.00492*
1,1,0.01784,0.00689,0.00492*
1,1,0.01784,0.00689,-0.00492*
%
%ADD41ROUNDEDRECTD41*%
%ADD42O,0.02965X0.07887*%
%ADD43C,0.03359*%
%ADD44O,0.08674X0.06706*%
%ADD45O,0.15800X0.06800*%
%ADD46C,0.05131*%
D31*
X005Y0012665D02*
D03*
Y0006265D02*
D03*
X0061Y0006265D02*
D03*
Y0012665D02*
D03*
X003Y0012665D02*
D03*
Y0006265D02*
D03*
X00555Y0012665D02*
D03*
Y0006265D02*
D03*
D32*
X003626Y0004488D02*
D03*
X004374D02*
D03*
X004Y0015512D02*
D03*
X004374D02*
D03*
X003626D02*
D03*
D33*
X0084407Y0010978D02*
D03*
X0097793D02*
D03*
D34*
X0084013Y0002022D02*
D03*
X0098187D02*
D03*
D35*
X0081946Y0003301D02*
D03*
X0100253D02*
D03*
D36*
X0077559Y0038464D02*
D03*
Y0028464D02*
D03*
X0051559Y0022964D02*
D03*
D37*
X0071441Y0038464D02*
D03*
Y0028464D02*
D03*
X0045441Y0022964D02*
D03*
D38*
X006726Y0005965D02*
D03*
X007474D02*
D03*
X0071Y0014894D02*
D03*
D39*
X0098335Y0048465D02*
D03*
Y0038465D02*
D03*
Y0028465D02*
D03*
Y0018465D02*
D03*
D40*
X00777Y0033465D02*
D03*
X00713D02*
D03*
X00777Y0043465D02*
D03*
X00713D02*
D03*
X00777Y0023365D02*
D03*
X00713D02*
D03*
X00583Y0026265D02*
D03*
X00647D02*
D03*
X00647Y0019665D02*
D03*
X00583D02*
D03*
D41*
X0069766Y0048465D02*
D03*
X0080234D02*
D03*
D42*
X00285Y0035638D02*
D03*
X00335D02*
D03*
X00385D02*
D03*
X00435D02*
D03*
X00485D02*
D03*
X00535D02*
D03*
X00585D02*
D03*
X00635D02*
D03*
X00285Y0058291D02*
D03*
X00335D02*
D03*
X00385D02*
D03*
X00435D02*
D03*
X00485D02*
D03*
X00535D02*
D03*
X00585D02*
D03*
X00635D02*
D03*
D43*
X0087753Y0005466D02*
D03*
X0094446D02*
D03*
D44*
X0019874Y0047517D02*
D03*
Y0037454D02*
D03*
Y0029579D02*
D03*
Y0019516D02*
D03*
D45*
X0012Y0056693D02*
D03*
Y0010236D02*
D03*
D46*
Y0042323D02*
D03*
Y0024606D02*
D03*
M02*
