G04*
G04 #@! TF.GenerationSoftware,Altium Limited,Altium Designer,22.3.1 (43)*
G04*
G04 Layer_Physical_Order=1*
G04 Layer_Color=204*
%FSTAX25Y25*%
%MOIN*%
G70*
G04*
G04 #@! TF.SameCoordinates,AA438D0C-BAC3-434F-BC1F-4FEAB2FC06D2*
G04*
G04*
G04 #@! TF.FilePolarity,Positive*
G04*
G01*
G75*
%ADD10C,0.01000*%
%ADD12C,0.01968*%
G04:AMPARAMS|DCode=19|XSize=30mil|YSize=22mil|CornerRadius=5.5mil|HoleSize=0mil|Usage=FLASHONLY|Rotation=0.000|XOffset=0mil|YOffset=0mil|HoleType=Round|Shape=RoundedRectangle|*
%AMROUNDEDRECTD19*
21,1,0.03000,0.01100,0,0,0.0*
21,1,0.01900,0.02200,0,0,0.0*
1,1,0.01100,0.00950,-0.00550*
1,1,0.01100,-0.00950,-0.00550*
1,1,0.01100,-0.00950,0.00550*
1,1,0.01100,0.00950,0.00550*
%
%ADD19ROUNDEDRECTD19*%
%ADD20R,0.01772X0.03937*%
%ADD21R,0.02362X0.04724*%
%ADD22R,0.01575X0.02559*%
%ADD23R,0.02559X0.05118*%
G04:AMPARAMS|DCode=24|XSize=30mil|YSize=30mil|CornerRadius=7.5mil|HoleSize=0mil|Usage=FLASHONLY|Rotation=180.000|XOffset=0mil|YOffset=0mil|HoleType=Round|Shape=RoundedRectangle|*
%AMROUNDEDRECTD24*
21,1,0.03000,0.01500,0,0,180.0*
21,1,0.01500,0.03000,0,0,180.0*
1,1,0.01500,-0.00750,0.00750*
1,1,0.01500,0.00750,0.00750*
1,1,0.01500,0.00750,-0.00750*
1,1,0.01500,-0.00750,-0.00750*
%
%ADD24ROUNDEDRECTD24*%
%ADD25P,0.03247X8X202.5*%
G04:AMPARAMS|DCode=26|XSize=17.72mil|YSize=39.37mil|CornerRadius=4.43mil|HoleSize=0mil|Usage=FLASHONLY|Rotation=180.000|XOffset=0mil|YOffset=0mil|HoleType=Round|Shape=RoundedRectangle|*
%AMROUNDEDRECTD26*
21,1,0.01772,0.03051,0,0,180.0*
21,1,0.00886,0.03937,0,0,180.0*
1,1,0.00886,-0.00443,0.01526*
1,1,0.00886,0.00443,0.01526*
1,1,0.00886,0.00443,-0.01526*
1,1,0.00886,-0.00443,-0.01526*
%
%ADD26ROUNDEDRECTD26*%
G04:AMPARAMS|DCode=27|XSize=62.99mil|YSize=106.3mil|CornerRadius=15.75mil|HoleSize=0mil|Usage=FLASHONLY|Rotation=270.000|XOffset=0mil|YOffset=0mil|HoleType=Round|Shape=RoundedRectangle|*
%AMROUNDEDRECTD27*
21,1,0.06299,0.07480,0,0,270.0*
21,1,0.03150,0.10630,0,0,270.0*
1,1,0.03150,-0.03740,-0.01575*
1,1,0.03150,-0.03740,0.01575*
1,1,0.03150,0.03740,0.01575*
1,1,0.03150,0.03740,-0.01575*
%
%ADD27ROUNDEDRECTD27*%
G04:AMPARAMS|DCode=28|XSize=30mil|YSize=22mil|CornerRadius=5.5mil|HoleSize=0mil|Usage=FLASHONLY|Rotation=270.000|XOffset=0mil|YOffset=0mil|HoleType=Round|Shape=RoundedRectangle|*
%AMROUNDEDRECTD28*
21,1,0.03000,0.01100,0,0,270.0*
21,1,0.01900,0.02200,0,0,270.0*
1,1,0.01100,-0.00550,-0.00950*
1,1,0.01100,-0.00550,0.00950*
1,1,0.01100,0.00550,0.00950*
1,1,0.01100,0.00550,-0.00950*
%
%ADD28ROUNDEDRECTD28*%
G04:AMPARAMS|DCode=29|XSize=19.68mil|YSize=23.62mil|CornerRadius=4.92mil|HoleSize=0mil|Usage=FLASHONLY|Rotation=270.000|XOffset=0mil|YOffset=0mil|HoleType=Round|Shape=RoundedRectangle|*
%AMROUNDEDRECTD29*
21,1,0.01968,0.01378,0,0,270.0*
21,1,0.00984,0.02362,0,0,270.0*
1,1,0.00984,-0.00689,-0.00492*
1,1,0.00984,-0.00689,0.00492*
1,1,0.00984,0.00689,0.00492*
1,1,0.00984,0.00689,-0.00492*
%
%ADD29ROUNDEDRECTD29*%
%ADD30O,0.02165X0.07087*%
%ADD47C,0.02362*%
%ADD48C,0.01575*%
%ADD49C,0.03150*%
%ADD50C,0.01181*%
%ADD51C,0.05906*%
%ADD52C,0.02756*%
%ADD53C,0.02559*%
%ADD54O,0.07874X0.05906*%
%ADD55O,0.15000X0.06000*%
%ADD56C,0.04331*%
%ADD57C,0.02400*%
%ADD58C,0.02362*%
G36*
X0110561Y0065002D02*
X0111554Y0064591D01*
X0112407Y0063936D01*
X0113062Y0063083D01*
X0113473Y006209D01*
X0113606Y0061084D01*
X0113594Y0061024D01*
Y0055271D01*
X01053D01*
X0104609Y0055133D01*
X0104023Y0054742D01*
X0103853Y0054489D01*
X0103743Y0054468D01*
X0103306Y0054569D01*
X0103191Y0054972D01*
X0103063Y0055572D01*
X010297Y0056197D01*
X0102913Y0056846D01*
X0102902Y0057251D01*
Y0059365D01*
X0102746Y0060546D01*
X010229Y0061648D01*
X0101565Y0062594D01*
X0100619Y0063319D01*
X0099517Y0063776D01*
X0098335Y0063931D01*
X00785D01*
X0077318Y0063776D01*
X0076217Y0063319D01*
X0075271Y0062594D01*
X0074545Y0061648D01*
X0074089Y0060546D01*
X0073933Y0059365D01*
X0074089Y0058183D01*
X0074545Y0057081D01*
X0075271Y0056135D01*
X0076217Y005541D01*
X0077318Y0054953D01*
X00785Y0054798D01*
X0093015D01*
X0093117Y0054662D01*
X009328Y0054298D01*
X0093116Y005384D01*
X009288Y0053305D01*
X0092609Y0052788D01*
X0092301Y0052289D01*
X0091924Y0051762D01*
X0091892Y005169D01*
X0091844Y0051628D01*
X00918Y0051522D01*
X0091747Y0051442D01*
X0091728Y0051347D01*
X0091527Y0050862D01*
X0091418Y0050039D01*
Y004689D01*
X0091527Y0046068D01*
X0091844Y0045301D01*
X0092349Y0044644D01*
X0093007Y0044139D01*
X0093773Y0043821D01*
X0094595Y0043713D01*
Y0043216D01*
X0093773Y0043108D01*
X0093007Y004279D01*
X0092349Y0042286D01*
X0091844Y0041628D01*
X0091785Y0041486D01*
X0091223Y0041406D01*
X0082871Y0049759D01*
X008287Y0049763D01*
X0082413Y0050447D01*
X0081729Y0050904D01*
X0081378Y0050973D01*
X0080953Y0051149D01*
X0080234Y0051244D01*
X0079514Y0051149D01*
X0079089Y0050973D01*
X0078738Y0050904D01*
X0078055Y0050447D01*
X0077598Y0049763D01*
X0077438Y0048957D01*
Y0047972D01*
X0077598Y0047166D01*
X0077694Y0047022D01*
X0077458Y0046581D01*
X007715D01*
X0076321Y0046416D01*
X0075618Y0045946D01*
X0075148Y0045244D01*
X0074984Y0044415D01*
Y0042515D01*
X0075048Y0042191D01*
X0075044Y0042156D01*
X0075076Y004205D01*
X0075148Y0041686D01*
X0075176Y0041644D01*
X0075212Y0041094D01*
X0075204Y004103D01*
X0075185Y004093D01*
X0075183Y0040924D01*
X0075133Y004089D01*
X0074946Y0040611D01*
X007487Y0040521D01*
X0074856Y0040477D01*
X0074813Y0040412D01*
X0074189Y0040328D01*
X0073443Y0041074D01*
X0073852Y0041686D01*
X0074016Y0042515D01*
Y0044415D01*
X0073966Y0044667D01*
X0074056Y0045002D01*
Y0045727D01*
X0073868Y0046428D01*
X0073505Y0047057D01*
X0072992Y004757D01*
X0072535Y0047834D01*
X0072562Y0047972D01*
Y0048957D01*
X0072402Y0049763D01*
X0071945Y0050447D01*
X0071262Y0050904D01*
X0070455Y0051064D01*
X0069077D01*
X0068271Y0050904D01*
X0067587Y0050447D01*
X006713Y0049763D01*
X0067048Y0049349D01*
X0064538Y0046839D01*
X0064026Y0046073D01*
X0055631D01*
X0055456Y0046302D01*
Y0047027D01*
X0055268Y0047728D01*
X0054905Y0048357D01*
X0054392Y004887D01*
X0053764Y0049233D01*
X0053432Y0049321D01*
X0049737Y0053017D01*
X0049793Y0053298D01*
X0049903Y0053558D01*
X0050395Y0053935D01*
X0050702Y0054335D01*
X0050821Y0054374D01*
X0051179D01*
X0051298Y0054335D01*
X0051605Y0053935D01*
X005216Y0053509D01*
X0052806Y0053242D01*
X00535Y005315D01*
X0054194Y0053242D01*
X005484Y0053509D01*
X0055395Y0053935D01*
X0055702Y0054335D01*
X0055821Y0054374D01*
X0056179D01*
X0056298Y0054335D01*
X0056605Y0053935D01*
X005716Y0053509D01*
X0057806Y0053242D01*
X00585Y005315D01*
X0059194Y0053242D01*
X005984Y0053509D01*
X0060395Y0053935D01*
X0060702Y0054335D01*
X0060821Y0054374D01*
X0061179D01*
X0061298Y0054335D01*
X0061605Y0053935D01*
X006216Y0053509D01*
X0062806Y0053242D01*
X00635Y005315D01*
X0064194Y0053242D01*
X006484Y0053509D01*
X0065395Y0053935D01*
X0065821Y0054491D01*
X0066089Y0055137D01*
X006618Y0055831D01*
Y0060752D01*
X0066089Y0061446D01*
X0065821Y0062092D01*
X0065395Y0062647D01*
X006484Y0063073D01*
X0064194Y0063341D01*
X00635Y0063432D01*
X0062806Y0063341D01*
X006216Y0063073D01*
X0061605Y0062647D01*
X0061298Y0062248D01*
X0061179Y0062209D01*
X0060821D01*
X0060702Y0062248D01*
X0060395Y0062647D01*
X005984Y0063073D01*
X0059194Y0063341D01*
X00585Y0063432D01*
X0057806Y0063341D01*
X005716Y0063073D01*
X0056605Y0062647D01*
X0056298Y0062248D01*
X0056179Y0062209D01*
X0055821D01*
X0055702Y0062248D01*
X0055395Y0062647D01*
X005484Y0063073D01*
X0054194Y0063341D01*
X00535Y0063432D01*
X0052806Y0063341D01*
X005216Y0063073D01*
X0051605Y0062647D01*
X0051298Y0062248D01*
X0051179Y0062209D01*
X0050821D01*
X0050702Y0062248D01*
X0050395Y0062647D01*
X004984Y0063073D01*
X0049194Y0063341D01*
X00485Y0063432D01*
X0047806Y0063341D01*
X004716Y0063073D01*
X0046605Y0062647D01*
X0046298Y0062248D01*
X0046179Y0062209D01*
X0045821D01*
X0045702Y0062248D01*
X0045395Y0062647D01*
X004484Y0063073D01*
X0044194Y0063341D01*
X00435Y0063432D01*
X0042806Y0063341D01*
X004216Y0063073D01*
X0041605Y0062647D01*
X0041298Y0062248D01*
X0041179Y0062209D01*
X0040821D01*
X0040702Y0062248D01*
X0040395Y0062647D01*
X003984Y0063073D01*
X0039194Y0063341D01*
X00385Y0063432D01*
X0037806Y0063341D01*
X003716Y0063073D01*
X0036605Y0062647D01*
X0036298Y0062248D01*
X0036179Y0062209D01*
X0035821D01*
X0035702Y0062248D01*
X0035395Y0062647D01*
X003484Y0063073D01*
X0034194Y0063341D01*
X00335Y0063432D01*
X0032806Y0063341D01*
X003216Y0063073D01*
X0031605Y0062647D01*
X0031298Y0062248D01*
X0031179Y0062209D01*
X0030821D01*
X0030702Y0062248D01*
X0030395Y0062647D01*
X002984Y0063073D01*
X0029194Y0063341D01*
X00285Y0063432D01*
X0027806Y0063341D01*
X002716Y0063073D01*
X0026605Y0062647D01*
X0026179Y0062092D01*
X0025911Y0061446D01*
X002582Y0060752D01*
Y0055831D01*
X0025854Y0055567D01*
X0025851Y0055551D01*
X0025856Y0055529D01*
X0025852Y0055506D01*
X0025911Y0053396D01*
X0025919Y005336D01*
Y0048965D01*
X0026007Y0048296D01*
X0026265Y0047674D01*
X0026675Y0047139D01*
X0027209Y0046729D01*
X0027832Y0046471D01*
X00285Y0046383D01*
X0034765D01*
X0035479Y0046088D01*
X003625Y0045986D01*
X0036362D01*
X00365Y0045959D01*
X0037348D01*
X00375Y0045459D01*
X0037363Y0045368D01*
X0032596Y00406D01*
X003216Y004042D01*
X0031605Y0039994D01*
X0031179Y0039439D01*
X0030911Y0038792D01*
X003082Y0038098D01*
Y0033177D01*
X0030845Y003298D01*
X0030407Y003248D01*
X0028536D01*
X0025116Y0035901D01*
X0025269Y0036272D01*
X0025425Y0037454D01*
X0025269Y0038636D01*
X0024813Y0039737D01*
X0024087Y0040683D01*
X0023142Y0041408D01*
X002204Y0041865D01*
X0020858Y004202D01*
X001889D01*
X0017708Y0041865D01*
X0016606Y0041408D01*
X0016025Y0040962D01*
X0015586Y0041256D01*
X001574Y004183D01*
Y0042815D01*
X0015485Y0043766D01*
X0014993Y0044619D01*
X0014297Y0045316D01*
X0013444Y0045808D01*
X0012492Y0046063D01*
X0011508D01*
X0010556Y0045808D01*
X0009703Y0045316D01*
X0009007Y0044619D01*
X0008515Y0043766D01*
X000826Y0042815D01*
Y004183D01*
X0008515Y0040879D01*
X0009007Y0040026D01*
X0009703Y003933D01*
X0010556Y0038838D01*
X0011508Y0038583D01*
X0012492D01*
X0013444Y0038838D01*
X0014203Y0039276D01*
X0014499Y0039095D01*
X0014614Y0038961D01*
X0014479Y0038636D01*
X0014323Y0037454D01*
X0014479Y0036272D01*
X0014935Y003517D01*
X0015661Y0034225D01*
X0016257Y0033766D01*
Y0033266D01*
X0015661Y0032809D01*
X0014935Y0031863D01*
X0014479Y0030762D01*
X0014323Y0029579D01*
X0014479Y0028398D01*
X0014614Y0028072D01*
X001431Y0027639D01*
X0014259Y0027621D01*
X0013444Y0028092D01*
X0012492Y0028346D01*
X0011508D01*
X0010556Y0028092D01*
X0009703Y0027599D01*
X0009007Y0026903D01*
X0008515Y002605D01*
X000826Y0025099D01*
Y0024114D01*
X0008515Y0023163D01*
X0009007Y002231D01*
X0009703Y0021613D01*
X0010556Y0021121D01*
X0011508Y0020866D01*
X0012492D01*
X0013444Y0021121D01*
X0014297Y0021613D01*
X0014331Y0021648D01*
X0014755Y0021364D01*
X0014479Y0020698D01*
X0014323Y0019516D01*
X0014479Y0018335D01*
X0014935Y0017233D01*
X0015661Y0016287D01*
X0016606Y0015562D01*
X0017708Y0015105D01*
X001889Y001495D01*
X0020858D01*
X002204Y0015105D01*
X0023142Y0015562D01*
X0024087Y0016287D01*
X0024813Y0017233D01*
X0024849Y001732D01*
X002722D01*
Y0014301D01*
X0027049Y0014044D01*
X0026884Y0013215D01*
Y0012115D01*
X0027049Y0011286D01*
X0027518Y0010583D01*
X0028221Y0010113D01*
X002905Y0009948D01*
X002952D01*
X003Y0009885D01*
X003048Y0009948D01*
X003095D01*
X0031779Y0010113D01*
X0032482Y0010583D01*
X0032952Y0011286D01*
X0033116Y0012115D01*
Y0013215D01*
X0032952Y0014044D01*
X003278Y0014301D01*
Y001732D01*
X003348D01*
Y0015512D01*
X0033575Y0014792D01*
X0033799Y0014251D01*
Y0011969D01*
X003872D01*
Y0014251D01*
X0038945Y0014792D01*
X0039039Y0015512D01*
Y001732D01*
X0040199D01*
X004128Y001624D01*
Y0011969D01*
X0046201D01*
Y001462D01*
X0056035D01*
X0056755Y0014715D01*
X0057425Y0014993D01*
X005772Y0015219D01*
X005822Y0014973D01*
Y0014301D01*
X0058048Y0014044D01*
X0057884Y0013215D01*
Y0012115D01*
X0058048Y0011286D01*
X0058518Y0010583D01*
X0059221Y0010113D01*
X006005Y0009948D01*
X006052D01*
X0061Y0009885D01*
X006148Y0009948D01*
X006195D01*
X0062779Y0010113D01*
X0063482Y0010583D01*
X0063951Y0011286D01*
X0064116Y0012115D01*
Y0013215D01*
X0063951Y0014044D01*
X006378Y0014301D01*
Y0015362D01*
X006428Y001574D01*
X00647Y0015685D01*
X0067014D01*
X0068082Y0015678D01*
X006822Y0015199D01*
Y0014894D01*
X0068315Y0014174D01*
X00685Y0013728D01*
Y0013368D01*
X0068598Y0012873D01*
X006824Y0012373D01*
X006726D01*
X0066338Y001219D01*
X0065557Y0011668D01*
X0065035Y0010886D01*
X0064851Y0009965D01*
Y0008673D01*
X0063475D01*
X0063356Y0008678D01*
X0063043Y0008711D01*
X0062963Y0008725D01*
X0062908Y0008737D01*
X0062901Y0008739D01*
X0062884Y0008746D01*
X0062779Y0008816D01*
X0062463Y0008879D01*
X0062351Y0008916D01*
X0062299Y0008912D01*
X006195Y0008981D01*
X006005D01*
X0059221Y0008816D01*
X0058518Y0008347D01*
X00585Y0008319D01*
X0058D01*
X0057982Y0008347D01*
X0057279Y0008816D01*
X005645Y0008981D01*
X005455D01*
X0054204Y0008912D01*
X005346Y000922D01*
X0052637Y0009329D01*
X0050113D01*
X005Y0009314D01*
X0049887Y0009329D01*
X004761D01*
X0046788Y000922D01*
X0046022Y0008903D01*
X0045364Y0008398D01*
X0045099Y0008054D01*
X0043839D01*
X0043671Y0008032D01*
X004128D01*
Y0006121D01*
X0041247Y0006042D01*
X0041159Y0005374D01*
Y0004488D01*
X0041247Y000382D01*
X004128Y0003742D01*
Y0001806D01*
X003872D01*
Y0008032D01*
X0033799D01*
Y0001806D01*
X0005906D01*
X0005845Y0001794D01*
X0004839Y0001927D01*
X0003846Y0002338D01*
X0002993Y0002993D01*
X0002338Y0003846D01*
X0001927Y0004839D01*
X000185Y000542D01*
X0001806Y0005906D01*
X0001806Y0005906D01*
X0001806Y0006397D01*
Y0061024D01*
X0001794Y0061084D01*
X0001927Y006209D01*
X0002338Y0063083D01*
X0002993Y0063936D01*
X0003846Y0064591D01*
X0004839Y0065002D01*
X000542Y0065079D01*
X0005906Y0065123D01*
X0005906Y0065123D01*
X0006397Y0065123D01*
X0109494D01*
X0109555Y0065135D01*
X0110561Y0065002D01*
D02*
G37*
G36*
X0039504Y0056833D02*
X0039479Y0056671D01*
X0039493Y0056491D01*
X0039547Y0056294D01*
X0039639Y005608D01*
X0039772Y0055849D01*
X0039943Y00556D01*
X0040154Y0055334D01*
X0040404Y0055051D01*
X0040694Y0054751D01*
X0039575Y0053642D01*
X0039361Y0053854D01*
X0038443Y0054671D01*
X0038352Y0054732D01*
X0038277Y005477D01*
X0038221Y0054788D01*
X0039568Y0056978D01*
X0039504Y0056833D01*
D02*
G37*
G36*
X0044504Y0056849D02*
X0044479Y0056687D01*
X0044494Y0056507D01*
X0044548Y005631D01*
X004464Y0056096D01*
X0044773Y0055865D01*
X0044944Y0055616D01*
X0045155Y0055351D01*
X0045404Y0055068D01*
X0045693Y0054768D01*
X0044594Y005364D01*
X004438Y0053852D01*
X0043453Y005467D01*
X0043359Y0054731D01*
X0043281Y005477D01*
X004322Y0054788D01*
X0044568Y0056995D01*
X0044504Y0056849D01*
D02*
G37*
G36*
X0029532Y0055505D02*
X0029522Y0055421D01*
X0029505Y0055145D01*
X0029484Y0053441D01*
X0027516D01*
X0027457Y0055551D01*
X0029543D01*
X0029532Y0055505D01*
D02*
G37*
G36*
X010131Y0056754D02*
X0101374Y0056009D01*
X0101482Y0055286D01*
X0101633Y0054584D01*
X0101826Y0053904D01*
X0102063Y0053245D01*
X0102343Y0052608D01*
X0102666Y0051993D01*
X0103032Y0051399D01*
X0103441Y0050827D01*
X009323D01*
X0093639Y0051399D01*
X0094005Y0051993D01*
X0094328Y0052608D01*
X0094608Y0053245D01*
X0094845Y0053904D01*
X0095038Y0054584D01*
X0095189Y0055286D01*
X0095297Y0056009D01*
X0095361Y0056754D01*
X0095383Y0057521D01*
X0101288D01*
X010131Y0056754D01*
D02*
G37*
G36*
X0039612Y0047565D02*
X00365D01*
Y0050365D01*
X0039612D01*
Y0047565D01*
D02*
G37*
G36*
X0052213Y0048249D02*
X005266Y004785D01*
X0052676Y0047845D01*
X0051519Y0046664D01*
X0051514Y0046679D01*
X0051499Y0046703D01*
X0051474Y0046735D01*
X0051394Y0046828D01*
X0051019Y0047215D01*
X0052117Y0048344D01*
X0052213Y0048249D01*
D02*
G37*
G36*
X0078692Y0042194D02*
X0078634Y0042067D01*
X0078583Y0041922D01*
X0078539Y004176D01*
X0078502Y004158D01*
X0078448Y004117D01*
X0078436Y0041014D01*
X0078455Y0040735D01*
X0078485Y0040521D01*
X0078523Y0040332D01*
X007857Y0040166D01*
X0078625Y0040025D01*
X0078688Y0039908D01*
X007876Y0039815D01*
X0078841Y0039746D01*
X0076277D01*
X0076384Y0039832D01*
X007648Y0039939D01*
X0076565Y0040067D01*
X0076639Y0040215D01*
X0076701Y0040384D01*
X0076752Y0040574D01*
X0076791Y0040785D01*
X0076819Y0041016D01*
X0076823Y0041062D01*
X0076771Y0041873D01*
X0076745Y0042017D01*
X0076715Y0042137D01*
X0076681Y0042233D01*
X0076643Y0042305D01*
X0078757D01*
X0078692Y0042194D01*
D02*
G37*
G36*
X002335Y0035951D02*
X002331Y0035871D01*
X0023294Y0035782D01*
X0023302Y0035683D01*
X0023333Y0035574D01*
X0023388Y0035456D01*
X0023467Y0035328D01*
X0023569Y0035191D01*
X0023695Y0035044D01*
X0023844Y0034888D01*
X002309Y0034227D01*
X0022933Y0034378D01*
X0022784Y0034506D01*
X0022644Y0034611D01*
X0022513Y0034693D01*
X002239Y0034753D01*
X0022276Y003479D01*
X0022171Y0034804D01*
X0022074Y0034796D01*
X0021986Y0034765D01*
X0021907Y0034711D01*
X0023413Y0036021D01*
X002335Y0035951D01*
D02*
G37*
G36*
X005378Y0032134D02*
X0053639Y003211D01*
X00535Y0032077D01*
X0053364Y0032033D01*
X005323Y0031979D01*
X0053099Y0031915D01*
X0052969Y0031841D01*
X0052842Y0031756D01*
X0052717Y0031662D01*
X0052594Y0031558D01*
X0052473Y0031444D01*
X0051766Y0032151D01*
X0051955Y0032346D01*
X005225Y0032697D01*
X0052357Y0032853D01*
X0052438Y0032996D01*
X0052491Y0033125D01*
X0052517Y0033241D01*
X0052515Y0033345D01*
X0052487Y0033435D01*
X0052432Y0033511D01*
X005378Y0032134D01*
D02*
G37*
G36*
X0048779D02*
X0048639Y003211D01*
X00485Y0032077D01*
X0048364Y0032033D01*
X004823Y0031979D01*
X0048099Y0031915D01*
X0047969Y0031841D01*
X0047842Y0031756D01*
X0047717Y0031662D01*
X0047594Y0031558D01*
X0047473Y0031444D01*
X0046766Y0032151D01*
X0046955Y0032346D01*
X004725Y0032697D01*
X0047357Y0032853D01*
X0047438Y0032996D01*
X0047491Y0033125D01*
X0047517Y0033241D01*
X0047515Y0033345D01*
X0047487Y0033435D01*
X0047432Y0033511D01*
X0048779Y0032134D01*
D02*
G37*
G36*
X0023628Y0030482D02*
X0023662Y0030397D01*
X002372Y0030323D01*
X00238Y0030258D01*
X0023903Y0030204D01*
X002403Y0030159D01*
X0024179Y0030124D01*
X0024351Y0030099D01*
X0024546Y0030084D01*
X0024764Y0030079D01*
Y0029079D01*
X0024546Y0029075D01*
X0024351Y002906D01*
X0024179Y0029035D01*
X002403Y0029D01*
X0023903Y0028955D01*
X00238Y0028901D01*
X002372Y0028836D01*
X0023662Y0028762D01*
X0023628Y0028677D01*
X0023617Y0028583D01*
Y0030576D01*
X0023628Y0030482D01*
D02*
G37*
G36*
X0093316Y002601D02*
X0093284Y0026233D01*
X00932Y0026432D01*
X0093064Y0026608D01*
X0092876Y0026761D01*
X0092637Y002689D01*
X0092345Y0026996D01*
X0092001Y0027078D01*
X0091605Y0027136D01*
X0091157Y0027172D01*
X0090657Y0027183D01*
Y0029546D01*
X0091145Y0029557D01*
X0091581Y0029593D01*
X0091966Y0029652D01*
X0092298Y0029734D01*
X0092578Y002984D01*
X0092807Y0029969D01*
X0092983Y0030122D01*
X0093107Y0030299D01*
X0093179Y0030499D01*
X0093199Y0030722D01*
X0093316Y002601D01*
D02*
G37*
G36*
X0025336Y0026869D02*
X0026022Y002641D01*
X0026832Y0026249D01*
X0048687D01*
X0049189Y0026349D01*
X0049229Y0026337D01*
X0049623Y002595D01*
X004958Y002569D01*
X0049133Y002539D01*
X0048619Y0024622D01*
X0048439Y0023714D01*
Y0022214D01*
X0048619Y0021307D01*
X0049038Y002068D01*
X0048838Y002018D01*
X0045202D01*
X0043316Y0022065D01*
X004274Y0022507D01*
X004207Y0022785D01*
X0041351Y002288D01*
X0023913D01*
X0023142Y0023471D01*
X002204Y0023928D01*
X0020858Y0024083D01*
X001889D01*
X0017708Y0023928D01*
X0016606Y0023471D01*
X0015923Y0022947D01*
X0015741Y0023037D01*
X0015512Y0023262D01*
X001574Y0024114D01*
Y0025099D01*
X0015551Y0025804D01*
X001599Y0026098D01*
X0016606Y0025625D01*
X0017708Y0025168D01*
X001889Y0025013D01*
X0020858D01*
X002204Y0025168D01*
X0023142Y0025625D01*
X0024087Y002635D01*
X0024547Y002695D01*
X002521Y0026994D01*
X0025336Y0026869D01*
D02*
G37*
G36*
X0078906Y0027267D02*
X0078818Y0027099D01*
X0078741Y0026921D01*
X0078673Y0026735D01*
X0078617Y0026539D01*
X007857Y0026334D01*
X0078534Y002612D01*
X0078509Y002584D01*
X0078555Y0025189D01*
X0078584Y0025014D01*
X0078619Y0024861D01*
X007866Y0024728D01*
X0078706Y0024616D01*
X0078757Y0024524D01*
X0076643D01*
X0076694Y0024616D01*
X007674Y0024728D01*
X0076781Y0024861D01*
X0076816Y0025014D01*
X0076845Y0025189D01*
X0076888Y0025602D01*
X0076896Y0025782D01*
X0076887Y0025897D01*
X0076855Y0026124D01*
X0076811Y0026332D01*
X0076754Y0026521D01*
X0076684Y0026691D01*
X0076601Y0026842D01*
X0076506Y0026975D01*
X0076398Y0027088D01*
X0076277Y0027182D01*
X0079004Y0027426D01*
X0078906Y0027267D01*
D02*
G37*
G36*
X006573Y0020597D02*
X0065772Y0020397D01*
X0065871Y0020221D01*
X0066027Y0020068D01*
X006624Y0019939D01*
X006651Y0019834D01*
X0066837Y0019751D01*
X0067221Y0019693D01*
X0067662Y0019657D01*
X0068161Y0019646D01*
X0068092Y0017284D01*
X0066754Y0017292D01*
X0063742Y0017504D01*
X0063575Y0017601D01*
X0063643Y0017716D01*
X0063944Y0017848D01*
X006448Y0017998D01*
X006525Y0018166D01*
X0065745Y002082D01*
X006573Y0020597D01*
D02*
G37*
G36*
X0093241Y0016106D02*
X0093215Y001633D01*
X0093138Y001653D01*
X0093009Y0016707D01*
X0092827Y001686D01*
X0092595Y0016989D01*
X0092311Y0017095D01*
X0091975Y0017177D01*
X0091587Y0017236D01*
X0091148Y0017272D01*
X0090657Y0017284D01*
Y0019646D01*
X0091148Y0019657D01*
X0091587Y0019693D01*
X0091974Y0019751D01*
X009231Y0019834D01*
X0092594Y0019939D01*
X0092827Y0020068D01*
X0093007Y0020221D01*
X0093137Y0020397D01*
X0093214Y0020597D01*
X009324Y002082D01*
X0093241Y0016106D01*
D02*
G37*
G36*
X0083238Y0008628D02*
X0083222Y0008732D01*
X0083175Y0008826D01*
X0083096Y0008908D01*
X0082986Y000898D01*
X0082844Y000904D01*
X0082671Y0009089D01*
X0082466Y0009128D01*
X008223Y0009155D01*
X0081962Y0009172D01*
X0081663Y0009177D01*
Y0010752D01*
X0081964Y001076D01*
X0082233Y0010784D01*
X0082471Y0010823D01*
X0082677Y0010878D01*
X0082852Y0010949D01*
X0082995Y0011035D01*
X0083106Y0011138D01*
X0083185Y0011256D01*
X0083233Y001139D01*
X008325Y0011539D01*
X0083238Y0008628D01*
D02*
G37*
G36*
X0090618Y0015678D02*
X0091064Y0015668D01*
X0091402Y001564D01*
X0091662Y0015601D01*
X0091727Y0015585D01*
X0091751Y0015526D01*
X0091758Y0015491D01*
X0091777Y0015462D01*
X0091844Y0015301D01*
X0092349Y0014643D01*
X0093007Y0014139D01*
X0093773Y0013821D01*
X0094595Y0013713D01*
X0102076D01*
X0102898Y0013821D01*
X0103078Y0013896D01*
X0103494Y0013618D01*
Y0013465D01*
X0103631Y0012773D01*
X0104023Y0012187D01*
X0104609Y0011796D01*
X01053Y0011658D01*
X0113594D01*
Y0005906D01*
X0113606Y0005845D01*
X0113473Y0004839D01*
X0113062Y0003846D01*
X0112407Y0002993D01*
X0111554Y0002338D01*
X0110561Y0001927D01*
X010998Y000185D01*
X0109494Y0001806D01*
X0109494Y0001806D01*
X0109003Y0001806D01*
X0046201D01*
Y0002891D01*
X0046931D01*
X0047589Y0002978D01*
X004761Y0002975D01*
X0049887D01*
X005Y000299D01*
X0050113Y0002975D01*
X0052637D01*
X005346Y0003083D01*
X0054226Y0003401D01*
X0054445Y0003569D01*
X005455Y0003548D01*
X005645D01*
X0057279Y0003713D01*
X0057982Y0004183D01*
X0058Y000421D01*
X00585D01*
X0058518Y0004183D01*
X0059221Y0003713D01*
X006005Y0003548D01*
X006195D01*
X0062299Y0003618D01*
X0062351Y0003613D01*
X0062463Y000365D01*
X0062779Y0003713D01*
X0062884Y0003783D01*
X0062901Y000379D01*
X0062908Y0003792D01*
X0062963Y0003805D01*
X0063016Y0003814D01*
X0063612Y0003856D01*
X0064876D01*
X0064916Y0003652D01*
X0065362Y0002984D01*
X006603Y0002538D01*
X0066817Y0002382D01*
X0067703D01*
X006849Y0002538D01*
X0069157Y0002984D01*
X0069603Y0003652D01*
X006976Y0004439D01*
Y000749D01*
X0069814Y0007556D01*
X0081651D01*
Y0007041D01*
X0083139D01*
X0083231Y0007023D01*
X0083328Y0007041D01*
X0083459D01*
X0083478Y000704D01*
X008348Y0007041D01*
X0087163D01*
Y0014915D01*
X0081651D01*
Y0012373D01*
X007376D01*
X0073402Y0012873D01*
X00735Y0013368D01*
Y0013728D01*
X0073685Y0014174D01*
X007378Y0014894D01*
Y0015685D01*
X0090589D01*
X0090618Y0015678D01*
D02*
G37*
G36*
X0062251Y000727D02*
X0062363Y0007224D01*
X0062496Y0007184D01*
X006265Y0007149D01*
X0062825Y0007119D01*
X0063237Y0007076D01*
X0063734Y0007055D01*
X0064013Y0007052D01*
X0064013Y0005477D01*
X0063734Y0005474D01*
X0062825Y000541D01*
X006265Y000538D01*
X0062496Y0005345D01*
X0062363Y0005305D01*
X0062251Y0005259D01*
X006216Y0005208D01*
Y0007321D01*
X0062251Y000727D01*
D02*
G37*
G36*
X0068109Y0007658D02*
X0066501D01*
X006639Y000469D01*
X0066379Y0004839D01*
X0066336Y0004973D01*
X0066259Y0005091D01*
X006615Y0005194D01*
X0066008Y000528D01*
X0065833Y0005351D01*
X0065624Y0005406D01*
X0065383Y0005446D01*
X006511Y0005469D01*
X0064803Y0005477D01*
Y0007052D01*
X0065036Y0007059D01*
X0065256Y0007082D01*
X0065461Y0007119D01*
X0065653Y0007172D01*
X006583Y0007239D01*
X0065993Y0007322D01*
X0066143Y0007419D01*
X0066278Y0007531D01*
X0066399Y0007659D01*
X0066422Y0007688D01*
X0066423Y0007692D01*
X0066433Y0007754D01*
X0066442Y0007847D01*
X0066463Y0008302D01*
X0066472Y0009325D01*
X0068047D01*
X0068109Y0007658D01*
D02*
G37*
D10*
X0020571Y0037454D02*
X002766Y0030365D01*
X0045687D01*
X00485Y0033177D01*
X0026832Y0028365D02*
X0048687D01*
X00535Y0033177D01*
X0025617Y0029579D02*
X0026832Y0028365D01*
X0019874Y0029579D02*
X0025617D01*
X0019874Y0037454D02*
X0020571D01*
X00485Y0033177D02*
Y0035638D01*
X00535Y0033177D02*
Y0035638D01*
D12*
X005275Y0006265D02*
X00555D01*
X0043839Y0005472D02*
X0046931D01*
X004761Y0006152D01*
X004374Y0004488D02*
Y0005374D01*
X0043839Y0005472D01*
X00672Y0023365D02*
X00713D01*
X00647Y0025865D02*
X00672Y0023365D01*
X00647Y0025865D02*
Y0026265D01*
X00285Y0048965D02*
X003625D01*
X00285D02*
Y0058291D01*
D19*
X005Y0012665D02*
D03*
Y0006265D02*
D03*
X0061Y0006265D02*
D03*
Y0012665D02*
D03*
X003Y0012665D02*
D03*
Y0006265D02*
D03*
X00555Y0012665D02*
D03*
Y0006265D02*
D03*
D20*
X003626Y0004488D02*
D03*
X004374D02*
D03*
X004Y0015512D02*
D03*
X004374D02*
D03*
X003626D02*
D03*
D21*
X0084407Y0010978D02*
D03*
X0097793D02*
D03*
D22*
X0084013Y0002022D02*
D03*
X0098187D02*
D03*
D23*
X0081946Y0003301D02*
D03*
X0100253D02*
D03*
D24*
X0077559Y0038464D02*
D03*
Y0028464D02*
D03*
X0051559Y0022964D02*
D03*
D25*
X0071441Y0038464D02*
D03*
Y0028464D02*
D03*
X0045441Y0022964D02*
D03*
D26*
X006726Y0005965D02*
D03*
X007474D02*
D03*
X0071Y0014894D02*
D03*
D27*
X0098335Y0048465D02*
D03*
Y0038465D02*
D03*
Y0028465D02*
D03*
Y0018465D02*
D03*
D28*
X00777Y0033465D02*
D03*
X00713D02*
D03*
X00777Y0043465D02*
D03*
X00713D02*
D03*
X00777Y0023365D02*
D03*
X00713D02*
D03*
X00583Y0026265D02*
D03*
X00647D02*
D03*
X00647Y0019665D02*
D03*
X00583D02*
D03*
D29*
X0069766Y0048465D02*
D03*
X0080234D02*
D03*
D30*
X00285Y0035638D02*
D03*
X00335D02*
D03*
X00385D02*
D03*
X00435D02*
D03*
X00485D02*
D03*
X00535D02*
D03*
X00585D02*
D03*
X00635D02*
D03*
X00285Y0058291D02*
D03*
X00335D02*
D03*
X00385D02*
D03*
X00435D02*
D03*
X00485D02*
D03*
X00535D02*
D03*
X00585D02*
D03*
X00635D02*
D03*
D47*
X0090234Y0038465D02*
X0098335D01*
X0080234Y0048465D02*
X0090234Y0038465D01*
X00848Y0028365D02*
X0098335D01*
X00777Y0033227D02*
X0077781Y0033146D01*
X0080019D02*
X00848Y0028365D01*
X00777Y0033227D02*
Y0033465D01*
X0077781Y0033146D02*
X0080019D01*
X00301Y00201D02*
X00362D01*
X0020458D02*
X00301D01*
X003Y002D02*
X00301Y00201D01*
X003Y0012665D02*
Y002D01*
X00362Y00201D02*
X0041351D01*
X00362D02*
X003626Y002004D01*
Y0015512D02*
Y002004D01*
X0041351Y00201D02*
X0044051Y00174D01*
X0019874Y0019516D02*
X0020458Y00201D01*
X0044051Y00174D02*
X0056035D01*
X0058381Y0019108D02*
X0061Y0016489D01*
X0058381Y0019108D02*
Y0019346D01*
X00583Y0019427D02*
X0058381Y0019346D01*
X0061Y0012665D02*
Y0016489D01*
X00583Y0019427D02*
Y0019665D01*
X0057981Y0019346D02*
X0058219D01*
X0056035Y00174D02*
X0057981Y0019346D01*
X0058219D02*
X00583Y0019427D01*
X00647Y0018465D02*
Y0019965D01*
Y0018465D02*
X0098335D01*
Y0028365D02*
Y0028465D01*
X0071Y0014894D02*
Y0017081D01*
D48*
X0039066Y0043665D02*
X0066241D01*
X00335Y0035638D02*
Y0038098D01*
X0039066Y0043665D01*
X004137Y0040968D02*
X0064689D01*
X00385Y0038098D02*
X004137Y0040968D01*
X00385Y0035638D02*
Y0038098D01*
X00713Y0028464D02*
Y0033865D01*
X0069823Y0034177D02*
X0070987D01*
X00713Y0033865D01*
X00673Y00367D02*
Y0038357D01*
Y00367D02*
X0069823Y0034177D01*
X0069569Y0048465D02*
X0069766D01*
X0066241Y0045136D02*
X0069569Y0048465D01*
X0066241Y0043665D02*
Y0045136D01*
Y0043665D02*
X0071441Y0038464D01*
X0064689Y0040968D02*
X00673Y0038357D01*
X0043517Y0055831D02*
X0052692Y0046656D01*
X00435Y0055831D02*
X0043517D01*
X00435D02*
Y0058291D01*
X00385Y0055831D02*
Y0058291D01*
Y0055831D02*
X0046299Y0048031D01*
Y0046865D02*
Y0048031D01*
Y0046865D02*
X004645Y0046715D01*
X006726Y0009965D02*
X0084407D01*
X0061Y0006265D02*
X006726D01*
Y0009965D01*
Y0005965D02*
Y0006265D01*
X0084407Y0009965D02*
Y0010978D01*
X00713Y0028464D02*
X0071441D01*
X00777Y0022965D02*
Y0028464D01*
X0077559D02*
X00777D01*
X007763Y0043394D02*
X00777Y0043465D01*
X007763Y0038535D02*
Y0043394D01*
X0077559Y0038464D02*
X007763Y0038535D01*
D49*
X0050113Y0006152D02*
X0052637D01*
X004761D02*
X0049887D01*
D50*
X00529Y0026265D02*
X00583D01*
X0051931Y0025296D02*
X00529Y0026265D01*
X0051931Y0023337D02*
Y0025296D01*
X0051559Y0022964D02*
X0051931Y0023337D01*
D51*
X00785Y0059365D02*
X00913D01*
X0098335D01*
Y0048465D02*
Y0059365D01*
D52*
X003625Y0048965D02*
X00366D01*
D53*
X0087753Y0005466D02*
D03*
X0094446D02*
D03*
D54*
X0019874Y0047517D02*
D03*
Y0037454D02*
D03*
Y0029579D02*
D03*
Y0019516D02*
D03*
D55*
X0012Y0056693D02*
D03*
Y0010236D02*
D03*
D56*
Y0042323D02*
D03*
Y0024606D02*
D03*
D57*
X0039612Y0048965D02*
D03*
X005275Y0006265D02*
D03*
X004761Y0006152D02*
D03*
X00672Y0023365D02*
D03*
D58*
X0037Y00245D02*
D03*
X0066Y0014465D02*
D03*
X0079D02*
D03*
X0075D02*
D03*
X0023Y0054465D02*
D03*
Y0058465D02*
D03*
Y0062465D02*
D03*
X0006Y0037465D02*
D03*
Y0033465D02*
D03*
Y0029465D02*
D03*
Y0025465D02*
D03*
Y0021465D02*
D03*
Y0017465D02*
D03*
X0072Y0053465D02*
D03*
X0067Y0052465D02*
D03*
X0082Y0053465D02*
D03*
X0086D02*
D03*
X009Y00445D02*
D03*
X009Y0053465D02*
D03*
X0104Y0062465D02*
D03*
X0107Y0057465D02*
D03*
X0111D02*
D03*
Y0061465D02*
D03*
X0091Y0008465D02*
D03*
X0078Y0004865D02*
D03*
X0072Y0003065D02*
D03*
Y0006365D02*
D03*
X0036Y0009465D02*
D03*
X0023Y0008465D02*
D03*
X0015Y0004465D02*
D03*
X0019D02*
D03*
X0023D02*
D03*
X0089Y0012465D02*
D03*
X0093D02*
D03*
X0102D02*
D03*
X0107Y0004465D02*
D03*
X0103Y0008465D02*
D03*
X0107D02*
D03*
X0111D02*
D03*
Y0004465D02*
D03*
X0043Y0037465D02*
D03*
X00713Y0045365D02*
D03*
X00366Y0048965D02*
D03*
X00885Y0057965D02*
D03*
Y0060965D02*
D03*
X0085D02*
D03*
Y0057965D02*
D03*
X00815D02*
D03*
Y0060965D02*
D03*
X00785Y0059365D02*
D03*
X00913D02*
D03*
X004645Y0046715D02*
D03*
X00527Y0046665D02*
D03*
M02*
