G04*
G04 #@! TF.GenerationSoftware,Altium Limited,Altium Designer,22.3.1 (43)*
G04*
G04 Layer_Color=65535*
%FSTAX25Y25*%
%MOIN*%
G70*
G04*
G04 #@! TF.SameCoordinates,AA438D0C-BAC3-434F-BC1F-4FEAB2FC06D2*
G04*
G04*
G04 #@! TF.FilePolarity,Positive*
G04*
G01*
G75*
%ADD10C,0.01000*%
%ADD11C,0.00984*%
%ADD12C,0.01968*%
%ADD13C,0.00800*%
%ADD14C,0.00100*%
%ADD15C,0.00700*%
%ADD16C,0.00787*%
%ADD17C,0.00500*%
%ADD18C,0.00394*%
G36*
X00757Y0046915D02*
X007415Y0048465D01*
X00757Y0050015D01*
Y0046915D01*
D02*
G37*
G36*
X0076Y0044539D02*
X0073Y0044539D01*
Y0045039D01*
X0076D01*
Y0044539D01*
D02*
G37*
G36*
X0075999Y0041889D02*
X0072999D01*
Y0042389D01*
X0075999D01*
Y0041889D01*
D02*
G37*
G36*
X0076Y0034539D02*
X0073Y0034539D01*
Y0035039D01*
X0076D01*
Y0034539D01*
D02*
G37*
G36*
X0075999Y0031889D02*
X0072999D01*
Y0032389D01*
X0075999D01*
Y0031889D01*
D02*
G37*
G36*
X0063001Y002734D02*
X0060001D01*
Y002784D01*
X0063001D01*
Y002734D01*
D02*
G37*
G36*
X0063Y002519D02*
Y002469D01*
X006Y002469D01*
Y002519D01*
X0063Y002519D01*
D02*
G37*
G36*
X0076Y0024439D02*
X0073Y0024439D01*
Y0024939D01*
X0076D01*
Y0024439D01*
D02*
G37*
G36*
X0075999Y0021789D02*
X0072999D01*
Y0022289D01*
X0075999D01*
Y0021789D01*
D02*
G37*
G36*
X0063Y0021239D02*
Y0020739D01*
X006Y0020739D01*
Y0021239D01*
X0063Y0021239D01*
D02*
G37*
G36*
X0062999Y0018089D02*
X0059999D01*
Y0018589D01*
X0062999D01*
Y0018089D01*
D02*
G37*
G36*
X0057Y0010415D02*
Y0009915D01*
X0054D01*
Y0010415D01*
X0057Y0010415D01*
D02*
G37*
G36*
X00515D02*
Y0009915D01*
X00485D01*
Y0010415D01*
X00515Y0010415D01*
D02*
G37*
G36*
X00315Y0009915D02*
X00285D01*
Y0010415D01*
X00315D01*
Y0009915D01*
D02*
G37*
G36*
X0057Y0008515D02*
X0054D01*
Y0009015D01*
X0057D01*
Y0008515D01*
D02*
G37*
G36*
X00515D02*
X00485D01*
Y0009015D01*
X00515D01*
Y0008515D01*
D02*
G37*
G36*
X00315D02*
X00285Y0008515D01*
Y0009015D01*
X00315D01*
Y0008515D01*
D02*
G37*
G36*
X0059925Y0007965D02*
X0059425D01*
Y0010965D01*
X0059925D01*
Y0007965D01*
D02*
G37*
G36*
X0062575Y0007965D02*
X0062075D01*
X0062075Y0010965D01*
X0062575D01*
X0062575Y0007965D01*
D02*
G37*
G36*
X008646Y0017833D02*
X0086485D01*
X0086552Y0017825D01*
X0086627Y0017812D01*
X0086711Y0017795D01*
X0086799Y001777D01*
X0086882Y0017737D01*
X0086887D01*
X0086891Y0017733D01*
X0086903Y0017729D01*
X008692Y001772D01*
X0086962Y0017699D01*
X0087012Y001767D01*
X0087066Y0017632D01*
X008712Y0017591D01*
X0087175Y001754D01*
X0087225Y0017486D01*
X0087229Y0017478D01*
X0087246Y0017461D01*
X0087263Y0017427D01*
X0087288Y0017386D01*
X0087317Y0017336D01*
X0087342Y0017277D01*
X0087367Y0017214D01*
X0087388Y0017143D01*
Y0017139D01*
X0087392Y0017135D01*
Y0017122D01*
X0087396Y001711D01*
X0087401Y0017089D01*
X0087405Y0017064D01*
X0087409Y0017035D01*
X0087413Y0017001D01*
X0087417Y0016964D01*
X0087422Y0016926D01*
X0087426Y001683D01*
X0087434Y0016717D01*
Y0016592D01*
Y0014665D01*
X0086615D01*
Y0016245D01*
Y0016249D01*
Y0016265D01*
Y0016291D01*
Y0016324D01*
Y0016366D01*
X0086611Y0016412D01*
Y0016462D01*
X0086606Y0016516D01*
X0086602Y0016625D01*
X0086594Y0016734D01*
X0086585Y0016784D01*
X0086577Y0016826D01*
X0086569Y0016867D01*
X008656Y0016897D01*
X0086556Y0016905D01*
X0086552Y0016922D01*
X0086535Y0016947D01*
X0086519Y001698D01*
X0086493Y0017018D01*
X0086464Y0017055D01*
X0086427Y0017093D01*
X0086385Y0017127D01*
X0086381Y0017131D01*
X0086364Y0017139D01*
X0086339Y0017152D01*
X0086305Y0017168D01*
X0086264Y0017185D01*
X0086218Y0017198D01*
X0086159Y0017206D01*
X0086101Y001721D01*
X0086063D01*
X0086025Y0017206D01*
X0085971Y0017198D01*
X0085913Y0017181D01*
X008585Y001716D01*
X0085783Y0017131D01*
X0085716Y0017093D01*
X0085708Y0017089D01*
X0085687Y0017072D01*
X0085658Y0017047D01*
X0085624Y0017009D01*
X0085582Y0016964D01*
X0085545Y0016913D01*
X0085511Y0016851D01*
X0085482Y001678D01*
Y0016775D01*
X0085478Y0016771D01*
Y0016759D01*
X0085474Y0016742D01*
X0085469Y0016721D01*
X0085461Y0016692D01*
X0085457Y0016658D01*
X0085453Y0016621D01*
X0085444Y0016575D01*
X008544Y0016521D01*
X0085436Y0016462D01*
X0085428Y0016399D01*
X0085423Y0016328D01*
Y0016249D01*
X0085419Y0016161D01*
Y0016069D01*
Y0014665D01*
X00846D01*
Y001777D01*
X0085365D01*
Y0017311D01*
X0085369Y0017315D01*
X0085382Y0017331D01*
X0085407Y0017361D01*
X008544Y0017394D01*
X0085478Y0017432D01*
X0085528Y0017478D01*
X0085582Y0017524D01*
X0085645Y0017574D01*
X0085716Y0017624D01*
X0085791Y001767D01*
X0085879Y0017716D01*
X0085967Y0017754D01*
X0086063Y0017787D01*
X0086168Y0017816D01*
X0086276Y0017833D01*
X0086389Y0017837D01*
X0086435D01*
X008646Y0017833D01*
D02*
G37*
G36*
X0088099Y002252D02*
X0088157D01*
X0088224Y0022516D01*
X0088299Y0022508D01*
X0088387Y0022495D01*
X0088479Y0022482D01*
X0088575Y0022466D01*
X008868Y0022441D01*
X0088784Y0022416D01*
X0088885Y0022382D01*
X0088989Y0022345D01*
X0089089Y0022299D01*
X0089181Y0022244D01*
X0089269Y0022186D01*
X0089273Y0022182D01*
X008929Y0022169D01*
X0089311Y0022152D01*
X008934Y0022123D01*
X0089378Y002209D01*
X008942Y0022048D01*
X0089465Y0022002D01*
X0089512Y0021943D01*
X0089562Y0021881D01*
X0089608Y0021814D01*
X0089658Y0021738D01*
X0089704Y0021655D01*
X008975Y0021567D01*
X0089787Y0021471D01*
X0089821Y0021371D01*
X008985Y0021262D01*
X0088989Y0021103D01*
Y0021107D01*
X0088985Y0021116D01*
X0088981Y0021132D01*
X0088972Y0021153D01*
X008896Y0021182D01*
X0088947Y0021212D01*
X0088914Y0021283D01*
X0088864Y0021362D01*
X0088805Y0021446D01*
X0088734Y0021525D01*
X0088646Y00216D01*
X0088642Y0021605D01*
X0088634Y0021609D01*
X0088621Y0021617D01*
X00886Y002163D01*
X0088575Y0021642D01*
X0088546Y0021659D01*
X0088512Y0021676D01*
X0088475Y0021692D01*
X0088433Y0021709D01*
X0088383Y0021726D01*
X0088278Y0021755D01*
X0088157Y0021776D01*
X008809Y0021784D01*
X0087998D01*
X0087969Y002178D01*
X0087932D01*
X0087881Y0021772D01*
X0087827Y0021764D01*
X0087764Y0021755D01*
X0087697Y0021738D01*
X0087626Y0021722D01*
X0087555Y0021697D01*
X008748Y0021667D01*
X0087405Y0021634D01*
X008733Y0021592D01*
X0087254Y0021542D01*
X0087187Y0021488D01*
X0087121Y0021425D01*
X0087116Y0021421D01*
X0087108Y0021408D01*
X0087091Y0021387D01*
X008707Y0021358D01*
X0087045Y002132D01*
X0087016Y0021274D01*
X0086987Y002122D01*
X0086958Y0021158D01*
X0086924Y0021086D01*
X0086895Y0021007D01*
X0086866Y0020919D01*
X008684Y0020823D01*
X008682Y0020719D01*
X0086803Y0020606D01*
X0086795Y0020484D01*
X008679Y0020355D01*
Y0020346D01*
Y0020321D01*
X0086795Y0020284D01*
Y002023D01*
X0086803Y0020167D01*
X0086807Y0020096D01*
X008682Y0020012D01*
X0086832Y0019929D01*
X0086849Y0019837D01*
X0086874Y001974D01*
X0086899Y0019648D01*
X0086932Y0019552D01*
X008697Y001946D01*
X0087016Y0019373D01*
X008707Y0019289D01*
X0087129Y0019214D01*
X0087133Y001921D01*
X0087146Y0019197D01*
X0087162Y001918D01*
X0087192Y0019155D01*
X0087225Y0019126D01*
X0087267Y0019093D01*
X0087313Y0019059D01*
X0087367Y0019026D01*
X0087426Y0018988D01*
X0087493Y0018955D01*
X0087568Y0018921D01*
X0087647Y0018892D01*
X0087731Y0018867D01*
X0087819Y001885D01*
X0087915Y0018837D01*
X0088015Y0018833D01*
X0088061D01*
X0088086Y0018837D01*
X0088115D01*
X0088187Y0018846D01*
X0088266Y0018858D01*
X0088358Y0018879D01*
X0088458Y0018904D01*
X0088559Y0018938D01*
X0088563D01*
X0088571Y0018942D01*
X0088584Y001895D01*
X0088604Y0018959D01*
X008863Y0018967D01*
X0088655Y001898D01*
X0088722Y0019009D01*
X0088797Y0019047D01*
X0088876Y0019093D01*
X0088956Y0019143D01*
X0089031Y0019197D01*
Y001974D01*
X008804D01*
Y0020464D01*
X0089904D01*
Y0018754D01*
X00899Y001875D01*
X0089892Y0018741D01*
X0089875Y0018729D01*
X0089854Y0018708D01*
X0089825Y0018687D01*
X0089792Y0018662D01*
X008975Y0018629D01*
X0089704Y0018599D01*
X0089649Y0018562D01*
X0089591Y0018524D01*
X0089528Y0018486D01*
X0089457Y0018449D01*
X0089382Y0018407D01*
X0089298Y0018369D01*
X0089211Y0018328D01*
X0089114Y001829D01*
X008911D01*
X0089089Y0018282D01*
X0089064Y0018273D01*
X0089027Y0018261D01*
X0088981Y0018244D01*
X0088922Y0018227D01*
X0088859Y0018211D01*
X0088793Y0018194D01*
X0088713Y0018173D01*
X0088634Y0018156D01*
X0088546Y0018139D01*
X0088458Y0018123D01*
X0088266Y0018102D01*
X008817Y0018098D01*
X0088069Y0018093D01*
X0088003D01*
X0087957Y0018098D01*
X0087898Y0018102D01*
X0087831Y001811D01*
X0087756Y0018119D01*
X0087672Y0018127D01*
X0087585Y0018144D01*
X0087488Y001816D01*
X0087392Y0018185D01*
X0087292Y0018211D01*
X0087192Y0018244D01*
X0087095Y0018282D01*
X0086995Y0018323D01*
X0086899Y0018374D01*
X0086895Y0018378D01*
X0086878Y0018386D01*
X0086853Y0018403D01*
X008682Y0018424D01*
X0086778Y0018453D01*
X0086728Y0018491D01*
X0086677Y0018532D01*
X0086619Y0018578D01*
X008656Y0018633D01*
X0086498Y0018691D01*
X0086435Y0018758D01*
X0086372Y0018829D01*
X0086314Y0018909D01*
X0086255Y0018992D01*
X0086201Y001908D01*
X0086151Y0019176D01*
X0086147Y001918D01*
X0086138Y0019201D01*
X0086126Y001923D01*
X0086113Y0019268D01*
X0086092Y0019318D01*
X0086071Y0019377D01*
X008605Y0019444D01*
X0086025Y0019519D01*
X0086Y0019598D01*
X0085979Y0019686D01*
X0085958Y0019782D01*
X0085938Y0019883D01*
X0085925Y0019987D01*
X0085913Y0020096D01*
X0085904Y0020209D01*
X00859Y0020321D01*
Y002033D01*
Y0020351D01*
Y0020388D01*
X0085904Y0020434D01*
X0085908Y0020493D01*
X0085917Y002056D01*
X0085925Y0020635D01*
X0085933Y0020723D01*
X008595Y002081D01*
X0085967Y0020907D01*
X0085992Y0021003D01*
X0086017Y0021103D01*
X008605Y0021208D01*
X0086088Y0021308D01*
X008613Y0021408D01*
X008618Y0021509D01*
X0086184Y0021513D01*
X0086193Y0021534D01*
X0086209Y0021559D01*
X0086234Y0021596D01*
X0086264Y0021638D01*
X0086297Y0021688D01*
X0086339Y0021743D01*
X0086389Y0021805D01*
X0086443Y0021868D01*
X0086502Y0021935D01*
X0086569Y0021998D01*
X0086644Y0022064D01*
X0086724Y0022131D01*
X0086811Y0022194D01*
X0086903Y0022253D01*
X0086999Y0022307D01*
X0087003Y0022311D01*
X008702Y0022315D01*
X0087041Y0022328D01*
X0087075Y002234D01*
X0087112Y0022357D01*
X0087162Y0022374D01*
X0087221Y0022395D01*
X0087284Y0022416D01*
X0087355Y0022436D01*
X008743Y0022457D01*
X0087518Y0022474D01*
X0087605Y0022491D01*
X0087702Y0022503D01*
X0087806Y0022516D01*
X0087911Y002252D01*
X0088023Y0022524D01*
X0088057D01*
X0088099Y002252D01*
D02*
G37*
G36*
X0091631Y0014665D02*
X0090865D01*
Y001512D01*
X0090861Y0015116D01*
X0090857Y0015108D01*
X0090845Y0015095D01*
X0090832Y0015078D01*
X009079Y0015028D01*
X0090736Y001497D01*
X0090669Y0014907D01*
X0090594Y001484D01*
X0090506Y0014777D01*
X0090414Y0014723D01*
X009041D01*
X0090402Y0014719D01*
X0090389Y0014711D01*
X0090368Y0014702D01*
X0090347Y0014694D01*
X0090318Y0014681D01*
X0090251Y001466D01*
X0090176Y0014635D01*
X0090088Y0014614D01*
X0089992Y0014598D01*
X0089896Y0014593D01*
X0089871D01*
X0089846Y0014598D01*
X0089808Y0014602D01*
X0089762Y0014606D01*
X0089708Y0014614D01*
X0089645Y0014631D01*
X0089582Y0014648D01*
X0089511Y0014669D01*
X0089436Y0014698D01*
X0089361Y0014736D01*
X0089285Y0014773D01*
X0089206Y0014823D01*
X0089131Y0014882D01*
X0089051Y0014949D01*
X008898Y0015024D01*
X0088976Y0015028D01*
X0088964Y0015045D01*
X0088947Y001507D01*
X0088922Y0015103D01*
X0088893Y0015149D01*
X0088859Y00152D01*
X0088826Y0015262D01*
X0088792Y0015337D01*
X0088755Y0015417D01*
X0088721Y0015505D01*
X0088688Y0015605D01*
X0088658Y0015714D01*
X0088633Y0015827D01*
X0088617Y0015952D01*
X0088604Y0016082D01*
X00886Y0016224D01*
Y0016228D01*
Y0016232D01*
Y0016245D01*
Y0016257D01*
X0088604Y0016299D01*
Y0016353D01*
X0088613Y001642D01*
X0088621Y0016495D01*
X0088629Y0016579D01*
X0088646Y0016671D01*
X0088667Y0016767D01*
X0088692Y0016863D01*
X0088721Y0016964D01*
X0088755Y0017064D01*
X0088797Y001716D01*
X0088847Y0017256D01*
X0088905Y0017344D01*
X0088968Y0017423D01*
X0088972Y0017427D01*
X0088985Y001744D01*
X0089005Y0017461D01*
X0089035Y001749D01*
X0089072Y0017519D01*
X0089114Y0017553D01*
X0089169Y0017591D01*
X0089227Y0017632D01*
X008929Y001767D01*
X0089361Y0017708D01*
X008944Y0017741D01*
X0089524Y0017774D01*
X0089612Y00178D01*
X0089704Y001782D01*
X0089804Y0017833D01*
X0089908Y0017837D01*
X0089933D01*
X0089959Y0017833D01*
X0089996Y0017829D01*
X0090042Y0017825D01*
X0090092Y0017816D01*
X0090151Y00178D01*
X0090218Y0017783D01*
X0090285Y0017762D01*
X009036Y0017733D01*
X0090435Y0017695D01*
X009051Y0017653D01*
X0090586Y0017603D01*
X0090665Y0017545D01*
X009074Y0017478D01*
X0090811Y0017402D01*
Y0018949D01*
X0091631D01*
Y0014665D01*
D02*
G37*
G36*
X0090503Y0027599D02*
X0091652Y0025965D01*
X0090645D01*
X0090013Y0026926D01*
X0089378Y0025965D01*
X0088417D01*
X0089537Y0027561D01*
X0088463Y002907D01*
X0089462D01*
X0090013Y0028213D01*
X0090594Y002907D01*
X0091556D01*
X0090503Y0027599D01*
D02*
G37*
G36*
X0086485Y0030245D02*
X0086552D01*
X0086623Y0030241D01*
X0086699Y0030237D01*
X0086862Y003022D01*
X0087029Y0030199D01*
X0087108Y0030186D01*
X0087184Y003017D01*
X008725Y0030153D01*
X0087313Y0030132D01*
X0087317D01*
X0087326Y0030128D01*
X0087342Y0030119D01*
X0087363Y0030111D01*
X0087393Y0030094D01*
X0087422Y0030078D01*
X0087493Y0030036D01*
X0087572Y0029981D01*
X0087656Y0029906D01*
X0087739Y0029823D01*
X0087777Y0029773D01*
X0087815Y0029718D01*
X0087819Y0029714D01*
X0087823Y0029706D01*
X0087831Y0029689D01*
X0087844Y0029668D01*
X0087857Y0029639D01*
X0087873Y0029605D01*
X008789Y0029568D01*
X0087911Y0029526D01*
X0087928Y0029476D01*
X0087944Y0029426D01*
X0087974Y0029313D01*
X0087994Y0029183D01*
X0088003Y0029116D01*
Y0029045D01*
Y0029041D01*
Y0029024D01*
Y0028999D01*
X0087999Y0028966D01*
X0087994Y0028924D01*
X0087986Y0028878D01*
X0087978Y0028824D01*
X0087969Y0028765D01*
X0087932Y002864D01*
X0087911Y0028573D01*
X0087882Y0028506D01*
X0087852Y0028439D01*
X0087811Y0028376D01*
X0087769Y0028314D01*
X0087719Y0028251D01*
X0087714Y0028247D01*
X0087706Y0028238D01*
X0087689Y0028222D01*
X0087664Y0028201D01*
X0087635Y0028176D01*
X0087597Y0028146D01*
X0087556Y0028117D01*
X0087505Y0028084D01*
X0087451Y002805D01*
X0087388Y0028017D01*
X0087317Y0027983D01*
X0087242Y002795D01*
X0087159Y0027921D01*
X0087071Y0027896D01*
X0086975Y0027871D01*
X008687Y0027854D01*
X0086874D01*
X0086883Y0027846D01*
X0086895Y0027837D01*
X0086916Y0027825D01*
X0086941Y0027812D01*
X0086966Y0027791D01*
X0087033Y0027749D01*
X0087104Y0027695D01*
X0087184Y0027632D01*
X0087259Y0027566D01*
X008733Y0027494D01*
X0087334Y002749D01*
X0087338Y0027486D01*
X0087351Y0027474D01*
X0087363Y0027457D01*
X008738Y0027432D01*
X0087405Y0027407D01*
X008743Y0027373D01*
X0087459Y0027336D01*
X0087493Y002729D01*
X008753Y002724D01*
X0087572Y0027181D01*
X0087614Y0027118D01*
X0087664Y0027051D01*
X0087714Y0026972D01*
X0087769Y0026893D01*
X0087823Y0026801D01*
X008835Y0025965D01*
X0087313D01*
X008669Y0026897D01*
X0086686Y0026901D01*
X0086678Y0026918D01*
X0086657Y0026943D01*
X0086636Y0026976D01*
X0086611Y0027018D01*
X0086577Y002706D01*
X0086506Y002716D01*
X0086431Y0027269D01*
X0086356Y0027373D01*
X0086322Y0027419D01*
X0086289Y0027461D01*
X008626Y0027494D01*
X0086235Y0027524D01*
X008623Y0027528D01*
X0086214Y0027545D01*
X0086189Y0027566D01*
X0086155Y0027595D01*
X0086118Y0027624D01*
X0086076Y0027653D01*
X0086026Y0027683D01*
X0085975Y0027703D01*
X0085967Y0027708D01*
X008595Y0027712D01*
X0085917Y002772D01*
X0085871Y0027729D01*
X0085808Y0027737D01*
X0085733Y0027745D01*
X0085641Y0027754D01*
X0085365D01*
Y0025965D01*
X00845D01*
Y0030249D01*
X0086431D01*
X0086485Y0030245D01*
D02*
G37*
G36*
X0090143Y0038099D02*
X0091293Y0036465D01*
X0090285D01*
X0089654Y0037426D01*
X0089019Y0036465D01*
X0088057D01*
X0089177Y0038061D01*
X0088103Y003957D01*
X0089102D01*
X0089654Y0038713D01*
X0090235Y003957D01*
X0091196D01*
X0090143Y0038099D01*
D02*
G37*
G36*
X0087902Y0040026D02*
X0086636D01*
Y0036465D01*
X0085771D01*
Y0040026D01*
X00845D01*
Y0040749D01*
X0087902D01*
Y0040026D01*
D02*
G37*
G36*
X0090018Y0046465D02*
X0089086D01*
X008756Y0050749D01*
X0088496D01*
X0089579Y0047576D01*
X0090632Y0050749D01*
X0091552D01*
X0090018Y0046465D01*
D02*
G37*
G36*
X0087192Y0049926D02*
X0085641D01*
X0085516Y0049194D01*
X008552D01*
X0085528Y0049198D01*
X0085541Y0049207D01*
X0085562Y0049215D01*
X0085587Y0049228D01*
X0085616Y004924D01*
X0085687Y0049265D01*
X0085771Y004929D01*
X0085867Y0049315D01*
X0085967Y0049332D01*
X0086076Y0049336D01*
X0086101D01*
X008613Y0049332D01*
X0086168D01*
X0086214Y0049324D01*
X0086268Y0049315D01*
X0086331Y0049303D01*
X0086393Y0049286D01*
X0086465Y0049265D01*
X008654Y004924D01*
X0086615Y0049207D01*
X0086695Y0049169D01*
X0086774Y0049123D01*
X0086849Y0049069D01*
X0086929Y0049006D01*
X0087Y0048935D01*
X0087004Y0048931D01*
X0087016Y0048918D01*
X0087033Y0048893D01*
X0087058Y0048864D01*
X0087087Y0048822D01*
X0087121Y0048776D01*
X0087154Y0048722D01*
X0087192Y0048659D01*
X0087225Y0048588D01*
X0087259Y0048509D01*
X0087292Y0048425D01*
X0087322Y0048333D01*
X0087347Y0048233D01*
X0087363Y0048128D01*
X0087376Y0048019D01*
X008738Y0047903D01*
Y0047898D01*
Y0047877D01*
Y0047852D01*
X0087376Y0047815D01*
X0087372Y0047769D01*
X0087363Y0047714D01*
X0087355Y0047652D01*
X0087342Y0047589D01*
X0087326Y0047514D01*
X0087305Y0047438D01*
X008728Y0047363D01*
X008725Y0047284D01*
X0087213Y00472D01*
X0087171Y0047117D01*
X0087125Y0047037D01*
X0087071Y0046958D01*
X0087067Y0046954D01*
X008705Y0046933D01*
X0087029Y0046908D01*
X0086996Y004687D01*
X0086949Y0046828D01*
X0086899Y0046778D01*
X0086841Y0046728D01*
X008677Y0046678D01*
X008669Y0046623D01*
X0086602Y0046573D01*
X0086511Y0046523D01*
X0086406Y0046481D01*
X0086293Y0046444D01*
X0086176Y0046419D01*
X0086047Y0046402D01*
X0085913Y0046393D01*
X0085888D01*
X0085854Y0046398D01*
X0085812D01*
X0085762Y0046402D01*
X0085704Y004641D01*
X0085641Y0046419D01*
X008557Y0046435D01*
X0085495Y0046452D01*
X0085415Y0046473D01*
X0085336Y0046498D01*
X0085252Y0046527D01*
X0085173Y0046565D01*
X0085094Y0046607D01*
X0085014Y0046657D01*
X0084943Y0046711D01*
X0084939Y0046715D01*
X0084926Y0046728D01*
X008491Y0046745D01*
X0084885Y004677D01*
X0084855Y0046803D01*
X0084822Y0046841D01*
X0084784Y0046887D01*
X0084747Y0046937D01*
X0084709Y0046995D01*
X0084671Y0047058D01*
X0084634Y0047129D01*
X00846Y0047204D01*
X0084567Y0047288D01*
X0084538Y0047376D01*
X0084517Y0047468D01*
X00845Y0047564D01*
X0085319Y0047652D01*
Y0047648D01*
Y0047639D01*
X0085324Y0047627D01*
X0085328Y0047606D01*
X0085332Y0047581D01*
X008534Y0047556D01*
X0085357Y0047493D01*
X0085386Y0047422D01*
X008542Y0047347D01*
X0085466Y0047276D01*
X0085524Y0047209D01*
X0085532Y00472D01*
X0085553Y0047183D01*
X0085591Y0047158D01*
X0085637Y0047129D01*
X0085695Y00471D01*
X0085762Y0047075D01*
X0085838Y0047058D01*
X0085921Y004705D01*
X0085946D01*
X0085963Y0047054D01*
X0086013Y0047062D01*
X0086072Y0047075D01*
X0086138Y00471D01*
X0086214Y0047137D01*
X0086247Y0047163D01*
X0086285Y0047192D01*
X0086322Y0047221D01*
X0086356Y0047259D01*
X008636Y0047263D01*
X0086364Y0047267D01*
X0086373Y004728D01*
X0086385Y0047296D01*
X0086398Y0047322D01*
X0086414Y0047347D01*
X0086431Y004738D01*
X0086448Y0047418D01*
X0086465Y0047455D01*
X0086477Y0047505D01*
X0086494Y0047556D01*
X0086506Y004761D01*
X0086519Y0047673D01*
X0086527Y0047739D01*
X0086536Y0047811D01*
Y0047886D01*
Y004789D01*
Y0047903D01*
Y0047923D01*
X0086532Y0047953D01*
Y0047982D01*
X0086527Y0048024D01*
X0086515Y0048107D01*
X0086494Y0048203D01*
X008646Y0048304D01*
X0086414Y0048396D01*
X0086389Y0048442D01*
X0086356Y0048479D01*
Y0048483D01*
X0086348Y0048488D01*
X0086322Y0048513D01*
X0086285Y0048542D01*
X0086235Y004858D01*
X0086168Y0048617D01*
X0086088Y0048651D01*
X0085996Y0048672D01*
X0085946Y0048676D01*
X0085896Y004868D01*
X0085863D01*
X0085838Y0048676D01*
X0085808Y0048672D01*
X0085771Y0048663D01*
X0085729Y0048655D01*
X0085687Y0048642D01*
X0085637Y0048626D01*
X0085587Y0048605D01*
X0085537Y004858D01*
X0085482Y0048546D01*
X0085428Y0048513D01*
X0085374Y0048471D01*
X0085319Y0048421D01*
X0085265Y0048366D01*
X00846Y0048463D01*
X0085022Y0050695D01*
X0087192D01*
Y0049926D01*
D02*
G37*
G36*
X00503Y0030133D02*
X0050326D01*
X0050359Y0030129D01*
X0050426Y0030116D01*
X0050509Y00301D01*
X0050601Y003007D01*
X0050697Y0030033D01*
X0050798Y0029978D01*
X0050543Y0029264D01*
X0050539D01*
X0050534Y0029268D01*
X0050522Y0029276D01*
X0050509Y0029285D01*
X0050468Y0029305D01*
X0050417Y0029335D01*
X0050355Y002936D01*
X0050292Y0029381D01*
X0050221Y0029397D01*
X0050154Y0029401D01*
X0050125D01*
X0050095Y0029397D01*
X0050054Y0029389D01*
X0050008Y0029376D01*
X0049958Y002936D01*
X0049907Y0029339D01*
X0049861Y0029305D01*
X0049857Y0029301D01*
X0049841Y0029289D01*
X004982Y0029264D01*
X0049795Y0029226D01*
X0049761Y002918D01*
X0049732Y0029117D01*
X0049703Y0029046D01*
X0049673Y0028958D01*
Y0028954D01*
X0049669Y0028946D01*
Y0028929D01*
X0049665Y0028908D01*
X0049657Y0028879D01*
X0049652Y0028837D01*
X0049648Y0028791D01*
X004964Y0028737D01*
X0049636Y002867D01*
X0049627Y0028599D01*
X0049623Y0028511D01*
X0049619Y0028419D01*
X0049615Y002831D01*
X0049611Y0028194D01*
X0049606Y0028064D01*
Y0027922D01*
Y0026965D01*
X0048787D01*
Y003007D01*
X0049552D01*
Y0029627D01*
X0049556Y0029631D01*
X004956Y002964D01*
X0049573Y0029656D01*
X0049586Y0029677D01*
X0049602Y0029702D01*
X0049623Y0029732D01*
X0049669Y0029794D01*
X0049724Y0029866D01*
X0049778Y0029932D01*
X0049841Y0029991D01*
X004987Y0030016D01*
X0049899Y0030037D01*
X0049907Y0030041D01*
X0049928Y0030054D01*
X0049962Y003007D01*
X0050004Y0030087D01*
X0050054Y0030104D01*
X0050116Y0030121D01*
X0050183Y0030133D01*
X0050254Y0030137D01*
X0050284D01*
X00503Y0030133D01*
D02*
G37*
G36*
X0044068Y0026965D02*
X0043278D01*
X0042743Y0028958D01*
X0042216Y0026965D01*
X0041418D01*
X0040436Y003007D01*
X0041234D01*
X0041815Y0028035D01*
X004235Y003007D01*
X0043144D01*
X0043663Y0028035D01*
X0044256Y003007D01*
X0045067D01*
X0044068Y0026965D01*
D02*
G37*
G36*
X0034847Y0031245D02*
X0034926D01*
X003501Y0031241D01*
X0035181Y0031232D01*
X0035269Y0031228D01*
X0035353Y003122D01*
X0035428Y0031212D01*
X0035499Y0031203D01*
X0035562Y0031195D01*
X0035612Y0031182D01*
X0035616D01*
X0035629Y0031178D01*
X0035649Y003117D01*
X0035675Y0031161D01*
X0035704Y0031149D01*
X0035741Y0031136D01*
X0035783Y0031115D01*
X0035825Y0031094D01*
X0035925Y003104D01*
X0035976Y0031002D01*
X0036026Y0030965D01*
X003608Y0030923D01*
X003613Y0030873D01*
X003618Y0030823D01*
X0036226Y0030764D01*
X003623Y003076D01*
X0036239Y0030748D01*
X0036251Y0030731D01*
X0036264Y0030706D01*
X0036285Y0030672D01*
X0036306Y0030635D01*
X0036327Y0030589D01*
X0036352Y0030538D01*
X0036377Y003048D01*
X0036398Y0030417D01*
X0036419Y003035D01*
X0036439Y0030275D01*
X0036452Y0030196D01*
X0036465Y0030112D01*
X0036473Y0030024D01*
X0036477Y0029928D01*
Y0029924D01*
Y0029912D01*
Y0029891D01*
X0036473Y0029861D01*
Y0029828D01*
X0036469Y002979D01*
X0036465Y0029744D01*
X003646Y0029698D01*
X0036439Y0029594D01*
X0036414Y0029481D01*
X0036381Y0029372D01*
X0036331Y0029264D01*
Y0029259D01*
X0036322Y0029251D01*
X0036318Y0029239D01*
X0036306Y0029218D01*
X0036272Y0029172D01*
X003623Y0029109D01*
X003618Y0029042D01*
X0036118Y0028971D01*
X0036047Y0028904D01*
X0035967Y0028841D01*
X0035963D01*
X0035959Y0028833D01*
X0035946Y0028829D01*
X003593Y0028816D01*
X0035888Y0028791D01*
X0035829Y0028762D01*
X0035762Y0028724D01*
X0035687Y0028695D01*
X0035603Y0028666D01*
X003552Y0028641D01*
X0035516D01*
X0035507Y0028637D01*
X0035487D01*
X0035461Y0028632D01*
X0035432Y0028628D01*
X003539Y0028624D01*
X0035344Y0028616D01*
X0035294Y0028611D01*
X0035232Y0028607D01*
X0035165Y0028599D01*
X0035094Y0028595D01*
X0035014Y0028591D01*
X0034926Y0028586D01*
X003483D01*
X0034734Y0028582D01*
X0034065D01*
Y0026965D01*
X00332D01*
Y0031249D01*
X0034776D01*
X0034847Y0031245D01*
D02*
G37*
G36*
X0046743Y0030133D02*
X0046789Y0030129D01*
X0046848Y0030125D01*
X0046919Y0030112D01*
X0046994Y00301D01*
X0047073Y0030079D01*
X0047161Y0030054D01*
X0047249Y0030024D01*
X0047341Y0029987D01*
X0047433Y0029945D01*
X0047521Y0029891D01*
X0047608Y0029828D01*
X0047692Y0029757D01*
X0047771Y0029677D01*
X0047776Y0029673D01*
X0047788Y0029656D01*
X0047809Y0029627D01*
X0047834Y002959D01*
X0047863Y0029544D01*
X0047897Y0029485D01*
X0047934Y0029414D01*
X0047972Y0029331D01*
X0048006Y0029239D01*
X0048043Y0029138D01*
X0048072Y0029021D01*
X0048102Y0028896D01*
X0048127Y0028758D01*
X0048144Y0028611D01*
X0048156Y0028453D01*
Y0028281D01*
X0046095D01*
Y0028277D01*
Y0028265D01*
X0046099Y0028248D01*
Y0028223D01*
X0046104Y0028189D01*
X0046108Y0028156D01*
X0046125Y0028072D01*
X0046145Y002798D01*
X0046183Y0027884D01*
X0046229Y0027792D01*
X0046258Y002775D01*
X0046292Y0027709D01*
X0046296Y0027704D01*
X00463Y00277D01*
X0046313Y0027692D01*
X0046325Y0027679D01*
X0046367Y0027646D01*
X0046426Y0027608D01*
X0046492Y0027571D01*
X0046576Y0027541D01*
X0046668Y0027516D01*
X0046718Y0027512D01*
X0046768Y0027508D01*
X0046802D01*
X0046835Y0027512D01*
X0046881Y002752D01*
X0046931Y0027533D01*
X0046986Y0027554D01*
X004704Y0027579D01*
X004709Y0027613D01*
X0047094Y0027617D01*
X0047111Y0027633D01*
X0047136Y0027658D01*
X0047165Y0027696D01*
X0047199Y0027742D01*
X0047232Y0027801D01*
X0047266Y0027867D01*
X0047295Y0027951D01*
X0048114Y0027813D01*
Y0027809D01*
X0048106Y0027792D01*
X0048098Y0027771D01*
X0048085Y0027738D01*
X0048068Y00277D01*
X0048047Y0027658D01*
X0048022Y0027608D01*
X0047993Y0027558D01*
X0047922Y002745D01*
X0047834Y0027332D01*
X0047788Y0027278D01*
X0047734Y0027224D01*
X0047675Y0027174D01*
X0047613Y0027128D01*
X0047608Y0027123D01*
X0047596Y0027119D01*
X0047579Y0027107D01*
X004755Y002709D01*
X0047517Y0027073D01*
X0047479Y0027052D01*
X0047433Y0027031D01*
X0047379Y0027011D01*
X004732Y002699D01*
X0047257Y0026969D01*
X0047186Y0026948D01*
X0047111Y0026931D01*
X0047032Y0026914D01*
X0046944Y0026902D01*
X0046856Y0026898D01*
X004676Y0026893D01*
X0046727D01*
X0046685Y0026898D01*
X0046626Y0026902D01*
X0046559Y002691D01*
X0046484Y0026923D01*
X0046396Y0026939D01*
X0046304Y002696D01*
X0046208Y0026985D01*
X0046112Y0027023D01*
X0046012Y0027065D01*
X0045911Y0027115D01*
X0045815Y0027178D01*
X0045723Y0027245D01*
X004564Y0027328D01*
X004556Y002742D01*
X0045556Y0027424D01*
X0045548Y0027441D01*
X0045531Y0027462D01*
X0045514Y0027495D01*
X0045489Y0027537D01*
X0045464Y0027587D01*
X0045435Y0027646D01*
X004541Y0027713D01*
X004538Y0027788D01*
X0045351Y0027867D01*
X0045326Y0027955D01*
X0045301Y0028051D01*
X0045284Y0028152D01*
X0045268Y002826D01*
X0045259Y0028373D01*
X0045255Y002849D01*
Y0028495D01*
Y0028499D01*
Y0028524D01*
X0045259Y0028565D01*
X0045263Y0028616D01*
X0045268Y0028683D01*
X0045276Y0028758D01*
X0045289Y0028841D01*
X0045305Y0028929D01*
X0045326Y0029025D01*
X0045351Y0029121D01*
X0045385Y0029222D01*
X0045426Y0029326D01*
X0045472Y0029422D01*
X0045523Y0029518D01*
X0045585Y002961D01*
X0045656Y0029698D01*
X0045661Y0029702D01*
X0045673Y0029719D01*
X0045698Y002974D01*
X0045727Y0029765D01*
X0045769Y0029799D01*
X0045815Y0029836D01*
X0045874Y0029878D01*
X0045937Y002992D01*
X0046007Y0029958D01*
X0046083Y0029999D01*
X0046166Y0030037D01*
X0046258Y003007D01*
X0046354Y0030095D01*
X0046455Y0030121D01*
X0046564Y0030133D01*
X0046676Y0030137D01*
X0046706D01*
X0046743Y0030133D01*
D02*
G37*
G36*
X0038655D02*
X0038705Y0030129D01*
X0038768Y0030125D01*
X0038835Y0030112D01*
X0038914Y00301D01*
X0038998Y0030079D01*
X003909Y0030054D01*
X0039182Y0030024D01*
X0039278Y0029987D01*
X0039374Y0029945D01*
X003947Y0029891D01*
X0039566Y0029828D01*
X0039658Y0029757D01*
X0039746Y0029677D01*
X003975Y0029673D01*
X0039767Y0029656D01*
X0039788Y0029631D01*
X0039817Y0029594D01*
X003985Y0029552D01*
X0039888Y0029498D01*
X003993Y0029435D01*
X0039972Y0029364D01*
X0040013Y0029285D01*
X0040055Y0029197D01*
X0040093Y00291D01*
X0040126Y0029D01*
X0040156Y0028892D01*
X0040176Y0028774D01*
X0040193Y0028653D01*
X0040197Y0028524D01*
Y0028515D01*
Y0028495D01*
X0040193Y0028457D01*
X0040189Y0028407D01*
X0040185Y0028344D01*
X0040172Y0028277D01*
X004016Y0028198D01*
X0040139Y0028114D01*
X0040118Y0028022D01*
X0040084Y0027926D01*
X0040051Y002783D01*
X0040005Y0027734D01*
X0039955Y0027633D01*
X0039892Y0027537D01*
X0039821Y0027441D01*
X0039742Y0027353D01*
X0039737Y0027349D01*
X0039721Y0027332D01*
X0039696Y0027312D01*
X0039658Y0027282D01*
X0039616Y0027249D01*
X0039562Y0027207D01*
X0039499Y0027165D01*
X0039428Y0027123D01*
X0039349Y0027082D01*
X0039261Y002704D01*
X0039169Y0027002D01*
X0039064Y0026965D01*
X003896Y0026935D01*
X0038843Y0026914D01*
X0038722Y0026898D01*
X0038596Y0026893D01*
X0038555D01*
X0038525Y0026898D01*
X0038488D01*
X0038442Y0026902D01*
X0038392Y002691D01*
X0038333Y0026919D01*
X0038274Y0026927D01*
X0038212Y0026939D01*
X0038074Y0026973D01*
X0037928Y0027023D01*
X0037857Y0027052D01*
X0037781Y0027086D01*
X0037777Y002709D01*
X0037765Y0027094D01*
X0037744Y0027107D01*
X0037719Y0027123D01*
X0037685Y002714D01*
X0037648Y0027165D01*
X0037606Y0027194D01*
X0037564Y0027228D01*
X0037514Y0027266D01*
X0037468Y0027307D01*
X0037418Y0027353D01*
X0037367Y0027404D01*
X0037321Y0027462D01*
X0037275Y002752D01*
X0037234Y0027583D01*
X0037192Y002765D01*
X0037188Y0027654D01*
X0037183Y0027667D01*
X0037175Y0027688D01*
X0037163Y0027717D01*
X0037146Y0027755D01*
X0037129Y0027796D01*
X0037113Y0027847D01*
X0037092Y0027905D01*
X0037075Y0027968D01*
X0037054Y0028035D01*
X0037037Y002811D01*
X0037025Y0028189D01*
X0037008Y0028273D01*
X0037Y0028365D01*
X0036995Y0028461D01*
X0036991Y0028557D01*
Y0028561D01*
Y0028574D01*
Y0028599D01*
X0036995Y0028628D01*
Y0028666D01*
X0037004Y0028708D01*
X0037008Y0028758D01*
X0037016Y0028808D01*
X0037029Y0028866D01*
X0037041Y0028929D01*
X0037075Y0029063D01*
X0037125Y0029205D01*
X0037158Y0029276D01*
X0037192Y0029347D01*
X0037196Y0029351D01*
X00372Y0029364D01*
X0037213Y0029385D01*
X0037229Y002941D01*
X003725Y0029443D01*
X0037275Y0029481D01*
X0037305Y0029518D01*
X0037338Y0029564D01*
X0037376Y002961D01*
X0037418Y0029661D01*
X0037464Y0029707D01*
X0037518Y0029757D01*
X0037631Y0029849D01*
X0037694Y0029895D01*
X003776Y0029932D01*
X0037765Y0029937D01*
X0037777Y0029941D01*
X0037798Y0029953D01*
X0037827Y0029966D01*
X0037861Y0029978D01*
X0037903Y0029999D01*
X0037949Y0030016D01*
X0038003Y0030037D01*
X0038061Y0030054D01*
X0038124Y0030075D01*
X0038195Y0030091D01*
X0038266Y0030104D01*
X0038421Y0030129D01*
X0038504Y0030133D01*
X0038588Y0030137D01*
X0038621D01*
X0038655Y0030133D01*
D02*
G37*
%LPC*%
G36*
X0090126Y001721D02*
X0090096D01*
X0090075Y0017206D01*
X0090051Y0017202D01*
X0090021Y0017198D01*
X0089954Y0017181D01*
X0089879Y0017152D01*
X0089796Y001711D01*
X0089754Y0017085D01*
X0089716Y0017055D01*
X0089674Y0017018D01*
X0089637Y0016976D01*
Y0016972D01*
X0089628Y0016964D01*
X008962Y0016951D01*
X0089607Y0016934D01*
X0089591Y0016909D01*
X0089574Y001688D01*
X0089557Y0016842D01*
X008954Y0016801D01*
X008952Y0016755D01*
X0089503Y0016704D01*
X0089486Y0016646D01*
X0089469Y0016583D01*
X0089457Y0016516D01*
X0089448Y0016445D01*
X0089444Y0016366D01*
X008944Y0016282D01*
Y0016278D01*
Y0016261D01*
Y0016236D01*
X0089444Y0016203D01*
Y0016161D01*
X0089448Y0016115D01*
X0089453Y0016061D01*
X0089457Y0016006D01*
X0089474Y0015889D01*
X0089499Y0015768D01*
X0089528Y0015655D01*
X0089549Y0015605D01*
X0089574Y0015559D01*
X0089578Y0015555D01*
X0089582Y0015547D01*
X0089595Y001553D01*
X0089612Y0015509D01*
X0089632Y0015484D01*
X0089657Y0015459D01*
X0089687Y0015429D01*
X008972Y00154D01*
X00898Y0015342D01*
X0089892Y0015292D01*
X0089946Y0015271D01*
X0090004Y0015254D01*
X0090067Y0015246D01*
X009013Y0015241D01*
X0090159D01*
X0090176Y0015246D01*
X0090201Y001525D01*
X009023Y0015254D01*
X0090297Y0015271D01*
X0090372Y00153D01*
X0090414Y0015321D01*
X0090456Y0015342D01*
X0090498Y0015371D01*
X0090535Y00154D01*
X0090577Y0015438D01*
X0090615Y001548D01*
X0090619Y0015484D01*
X0090623Y0015492D01*
X0090632Y0015505D01*
X0090648Y0015526D01*
X0090661Y0015551D01*
X0090677Y001558D01*
X0090698Y0015618D01*
X0090715Y0015659D01*
X0090736Y001571D01*
X0090753Y0015764D01*
X0090769Y0015822D01*
X0090786Y0015885D01*
X0090799Y0015956D01*
X0090807Y0016036D01*
X0090811Y0016115D01*
X0090815Y0016203D01*
Y0016207D01*
Y0016228D01*
Y0016253D01*
X0090811Y0016291D01*
Y0016332D01*
X0090807Y0016383D01*
X0090799Y0016441D01*
X009079Y00165D01*
X0090769Y0016625D01*
X0090732Y0016755D01*
X0090711Y0016813D01*
X0090686Y0016872D01*
X0090652Y0016926D01*
X0090619Y0016972D01*
X0090615Y0016976D01*
X0090611Y001698D01*
X0090598Y0016993D01*
X0090586Y0017009D01*
X0090544Y0017047D01*
X0090485Y0017093D01*
X0090414Y0017135D01*
X009033Y0017173D01*
X0090285Y0017189D01*
X0090234Y0017202D01*
X009018Y0017206D01*
X0090126Y001721D01*
D02*
G37*
G36*
X0086293Y0029526D02*
X0085365D01*
Y0028439D01*
X0086151D01*
X008621Y0028443D01*
X0086268D01*
X0086335Y0028447D01*
X0086465Y0028452D01*
X0086532Y0028456D01*
X0086594Y002846D01*
X0086648Y0028464D01*
X0086699Y0028473D01*
X0086745Y0028481D01*
X0086778Y0028489D01*
X0086787Y0028493D01*
X0086803Y0028502D01*
X0086832Y0028514D01*
X008687Y0028531D01*
X0086908Y0028556D01*
X0086949Y002859D01*
X0086987Y0028627D01*
X0087025Y0028669D01*
X0087029Y0028673D01*
X0087037Y0028694D01*
X0087054Y0028719D01*
X0087071Y0028757D01*
X0087083Y0028803D01*
X00871Y0028861D01*
X0087108Y0028924D01*
X0087112Y0028991D01*
Y0028995D01*
Y0028999D01*
Y0029012D01*
Y0029028D01*
X0087108Y0029066D01*
X00871Y0029116D01*
X0087083Y0029171D01*
X0087062Y0029229D01*
X0087033Y0029288D01*
X0086996Y0029342D01*
X0086991Y0029346D01*
X0086975Y0029363D01*
X0086949Y0029388D01*
X0086912Y0029413D01*
X0086866Y0029442D01*
X0086807Y0029467D01*
X0086745Y0029493D01*
X0086669Y0029509D01*
X0086657D01*
X0086644Y0029513D01*
X0086607D01*
X0086582Y0029518D01*
X0086515D01*
X0086469Y0029522D01*
X008636D01*
X0086293Y0029526D01*
D02*
G37*
G36*
X0034642Y0030526D02*
X0034065D01*
Y0029305D01*
X0034617D01*
X0034659Y002931D01*
X0034755D01*
X0034813Y0029314D01*
X0034926Y0029322D01*
X0035039Y0029335D01*
X0035094Y0029343D01*
X003514Y0029351D01*
X0035181Y002936D01*
X0035219Y0029372D01*
X0035227Y0029376D01*
X0035248Y0029385D01*
X0035277Y0029401D01*
X0035315Y0029422D01*
X0035361Y0029452D01*
X0035403Y0029489D01*
X0035449Y0029531D01*
X0035487Y0029581D01*
X0035491Y002959D01*
X0035503Y0029606D01*
X003552Y0029636D01*
X0035537Y0029677D01*
X0035553Y0029728D01*
X003557Y0029786D01*
X0035583Y0029849D01*
X0035587Y0029916D01*
Y002992D01*
Y0029928D01*
Y0029937D01*
Y0029953D01*
X0035578Y0029999D01*
X003557Y0030054D01*
X0035553Y0030112D01*
X0035528Y0030175D01*
X0035495Y0030242D01*
X0035449Y00303D01*
X0035445Y0030309D01*
X0035424Y0030325D01*
X0035394Y003035D01*
X0035353Y0030384D01*
X0035302Y0030417D01*
X0035244Y0030446D01*
X0035177Y0030472D01*
X0035102Y0030492D01*
X0035094D01*
X0035085Y0030497D01*
X0035073D01*
X0035052Y0030501D01*
X0035027Y0030505D01*
X0035002D01*
X0034968Y0030509D01*
X0034926Y0030513D01*
X003488Y0030518D01*
X003483D01*
X0034776Y0030522D01*
X0034709D01*
X0034642Y0030526D01*
D02*
G37*
G36*
X0046772Y002951D02*
X0046701D01*
X0046681Y0029506D01*
X004666D01*
X004663Y0029502D01*
X0046568Y0029485D01*
X0046497Y0029464D01*
X0046421Y0029427D01*
X004635Y0029381D01*
X0046313Y0029347D01*
X0046279Y0029314D01*
Y002931D01*
X0046271Y0029305D01*
X0046262Y0029293D01*
X004625Y0029276D01*
X0046237Y0029259D01*
X0046225Y0029234D01*
X0046191Y0029176D01*
X0046162Y0029096D01*
X0046133Y0029009D01*
X0046116Y00289D01*
X0046108Y0028846D01*
Y0028783D01*
X0047341D01*
Y0028787D01*
Y00288D01*
X0047337Y0028816D01*
Y0028841D01*
X0047333Y0028871D01*
X0047328Y0028904D01*
X0047312Y0028984D01*
X0047291Y0029071D01*
X0047257Y0029159D01*
X0047211Y0029247D01*
X0047153Y0029322D01*
Y0029326D01*
X0047144Y0029331D01*
X0047124Y0029351D01*
X0047086Y0029381D01*
X0047036Y0029418D01*
X0046973Y0029452D01*
X0046898Y0029481D01*
X0046818Y0029502D01*
X0046772Y002951D01*
D02*
G37*
G36*
X0038592Y0029468D02*
X0038563D01*
X0038538Y0029464D01*
X0038513Y002946D01*
X0038479Y0029456D01*
X0038404Y0029439D01*
X0038316Y002941D01*
X0038274Y0029389D01*
X0038228Y0029364D01*
X0038183Y0029335D01*
X0038137Y0029305D01*
X0038091Y0029264D01*
X0038049Y0029222D01*
X0038045Y0029218D01*
X003804Y0029209D01*
X0038028Y0029197D01*
X0038015Y0029176D01*
X0037999Y0029151D01*
X0037982Y0029121D01*
X0037961Y0029084D01*
X003794Y0029042D01*
X0037919Y0028992D01*
X0037898Y0028942D01*
X0037882Y0028883D01*
X0037865Y002882D01*
X0037852Y0028749D01*
X003784Y0028678D01*
X0037836Y0028599D01*
X0037831Y0028515D01*
Y0028511D01*
Y0028495D01*
Y0028469D01*
X0037836Y002844D01*
X003784Y0028398D01*
X0037844Y0028357D01*
X0037848Y0028306D01*
X0037861Y0028252D01*
X0037886Y0028139D01*
X0037923Y0028018D01*
X0037949Y0027964D01*
X0037978Y0027905D01*
X0038011Y0027855D01*
X0038049Y0027805D01*
X0038053Y0027801D01*
X0038057Y0027796D01*
X003807Y0027784D01*
X0038091Y0027767D01*
X0038111Y002775D01*
X0038137Y0027729D01*
X0038199Y0027683D01*
X0038279Y0027637D01*
X0038371Y00276D01*
X0038421Y0027583D01*
X0038475Y0027575D01*
X0038534Y0027566D01*
X0038592Y0027562D01*
X0038621D01*
X0038647Y0027566D01*
X0038672Y0027571D01*
X0038705Y0027575D01*
X003878Y0027592D01*
X0038864Y0027621D01*
X003891Y0027642D01*
X0038956Y0027667D01*
X0039002Y0027692D01*
X0039048Y0027725D01*
X003909Y0027763D01*
X0039131Y0027805D01*
X0039136Y0027809D01*
X003914Y0027817D01*
X0039152Y002783D01*
X0039165Y0027851D01*
X0039182Y0027876D01*
X0039202Y0027909D01*
X0039223Y0027943D01*
X0039244Y0027989D01*
X0039261Y0028035D01*
X0039282Y0028089D01*
X0039303Y0028148D01*
X003932Y002821D01*
X0039332Y0028281D01*
X0039345Y0028357D01*
X0039349Y0028436D01*
X0039353Y0028519D01*
Y0028524D01*
Y002854D01*
Y0028561D01*
X0039349Y0028595D01*
X0039345Y0028632D01*
X003934Y0028678D01*
X0039336Y0028724D01*
X0039324Y0028779D01*
X0039299Y0028892D01*
X0039261Y0029009D01*
X0039236Y0029067D01*
X0039207Y0029121D01*
X0039169Y0029172D01*
X0039131Y0029222D01*
X0039127Y0029226D01*
X0039123Y0029234D01*
X003911Y0029243D01*
X0039094Y0029259D01*
X0039073Y002928D01*
X0039048Y0029301D01*
X0038981Y0029347D01*
X0038906Y0029389D01*
X0038814Y0029431D01*
X0038764Y0029447D01*
X0038709Y0029456D01*
X0038651Y0029464D01*
X0038592Y0029468D01*
D02*
G37*
%LPD*%
D10*
X00463Y00165D02*
G03*
X00463Y00165I-00003J0D01*
G01*
X004404Y00111D02*
G03*
X004404Y00111I-00001J0D01*
G01*
X0136458Y0027087D02*
X0137835Y0028465D01*
X0135918Y0027087D02*
X0136458D01*
Y0029842D02*
X0137835Y0028465D01*
X0135918Y0029842D02*
X0136458D01*
X0105335Y0023465D02*
Y0025465D01*
X0107335D01*
Y0026465D01*
Y0031465D01*
X0105335D02*
X0107335D01*
X0105335D02*
Y0033465D01*
X0115335Y0023465D02*
Y0033465D01*
Y0029842D02*
X0135918D01*
X0115335Y0027087D02*
X0135918D01*
X0115335Y0037087D02*
X0135918D01*
X0115335Y0039843D02*
X0135918D01*
X0115335Y0033465D02*
Y0043465D01*
X0105335Y0041465D02*
Y0043465D01*
Y0041465D02*
X0107335D01*
Y0036465D02*
Y0041465D01*
Y0035465D02*
Y0036465D01*
X0105335Y0035465D02*
X0107335D01*
X0105335Y0033465D02*
Y0035465D01*
X0135918Y0039843D02*
X0136458D01*
X0137835Y0038465D01*
X0135918Y0037087D02*
X0136458D01*
X0137835Y0038465D01*
X0136458Y0047087D02*
X0137835Y0048465D01*
X0135918Y0047087D02*
X0136458D01*
Y0049843D02*
X0137835Y0048465D01*
X0135918Y0049843D02*
X0136458D01*
X0105335Y0043465D02*
Y0045465D01*
X0107335D01*
Y0046465D01*
Y0051465D01*
X0105335D02*
X0107335D01*
X0105335D02*
Y0053465D01*
X0115335Y0043465D02*
Y0053465D01*
X0105335D02*
X0115335D01*
Y0049843D02*
X0135918D01*
X0115335Y0047087D02*
X0135918D01*
X0115335Y0017087D02*
X0135918D01*
X0115335Y0019842D02*
X0135918D01*
X0115335Y0013465D02*
Y0023465D01*
X0105335Y0013465D02*
X0115335D01*
X0105335Y0021465D02*
Y0023465D01*
Y0021465D02*
X0107335D01*
Y0016465D02*
Y0021465D01*
Y0015465D02*
Y0016465D01*
X0105335Y0015465D02*
X0107335D01*
X0105335Y0013465D02*
Y0015465D01*
X0135918Y0019842D02*
X0136458D01*
X0137835Y0018465D01*
X0135918Y0017087D02*
X0136458D01*
X0137835Y0018465D01*
X00015Y0008071D02*
X0005307D01*
X00015D02*
Y0058858D01*
X000452D01*
X00825Y0013465D02*
Y0053465D01*
Y0013465D02*
X0105335D01*
X00828Y0023465D02*
X0105335D01*
X00827Y0033465D02*
X0105335D01*
X00825Y0053465D02*
X01053D01*
X00827Y0043465D02*
X0105335D01*
X0008498Y0039465D02*
X0004333D01*
X00035Y0038631D01*
Y0036965D01*
X0004333Y0036132D01*
X0008498D01*
X0007665Y0031134D02*
X0008498Y0031967D01*
Y0033633D01*
X0007665Y0034466D01*
X0006832D01*
X0005999Y0033633D01*
Y0031967D01*
X0005166Y0031134D01*
X0004333D01*
X00035Y0031967D01*
Y0033633D01*
X0004333Y0034466D01*
X0008498Y0029468D02*
X00035D01*
Y0026969D01*
X0004333Y0026136D01*
X0005166D01*
X0005999Y0026969D01*
Y0029468D01*
Y0026969D01*
X0006832Y0026136D01*
X0007665D01*
X0008498Y0026969D01*
Y0029468D01*
X0033999Y0048863D02*
X0032999Y0049863D01*
X0031D01*
X003Y0048863D01*
Y0044864D01*
X0031Y0043865D01*
X0032999D01*
X0033999Y0044864D01*
X0035998Y0049863D02*
Y0043865D01*
Y0046864D01*
X0039997D01*
Y0049863D01*
Y0043865D01*
X0041996Y0048863D02*
X0042996Y0049863D01*
X0044995D01*
X0045995Y0048863D01*
Y0047863D01*
X0044995Y0046864D01*
X0043995D01*
X0044995D01*
X0045995Y0045864D01*
Y0044864D01*
X0044995Y0043865D01*
X0042996D01*
X0041996Y0044864D01*
X0050993Y0043865D02*
Y0049863D01*
X0047994Y0046864D01*
X0051993D01*
X0053992Y0048863D02*
X0054992Y0049863D01*
X0056991D01*
X0057991Y0048863D01*
Y0044864D01*
X0056991Y0043865D01*
X0054992D01*
X0053992Y0044864D01*
Y0048863D01*
X0063989D02*
X0062989Y0049863D01*
X006099D01*
X005999Y0048863D01*
Y0044864D01*
X006099Y0043865D01*
X0062989D01*
X0063989Y0044864D01*
D11*
X0065193Y0004465D02*
G03*
X0065193Y0004465I-0000492J0D01*
G01*
D12*
X0025608Y0037465D02*
G03*
X0025608Y0037465I-0000608J0D01*
G01*
D13*
X0026315Y0044965D02*
G03*
X0028315Y0046965I0J0002D01*
G01*
X0028315Y0046965D02*
G03*
X0026315Y0048965I-0002J0D01*
G01*
X0069087Y0036102D02*
Y0040827D01*
X0076Y0036102D02*
X0079913D01*
X0076Y0040827D02*
X0079913D01*
Y0036102D02*
Y0040827D01*
X0068Y0036102D02*
Y0040827D01*
Y0036102D02*
X0073D01*
X0068Y0040827D02*
X0073D01*
X0068Y0030827D02*
X0073D01*
X0068Y0026102D02*
X0073D01*
X0068D02*
Y0030827D01*
X0079913Y0026102D02*
Y0030827D01*
X0076D02*
X0079913D01*
X0076Y0026102D02*
X0079913D01*
X0069087D02*
Y0030827D01*
X0042Y0025327D02*
X0047D01*
X0042Y0020602D02*
X0047D01*
X0042D02*
Y0025327D01*
X0053913Y0020602D02*
Y0025327D01*
X005D02*
X0053913D01*
X005Y0020602D02*
X0053913D01*
X0043087D02*
Y0025327D01*
X0026315Y0040965D02*
Y0044965D01*
Y0048965D02*
Y0052965D01*
D14*
X00485Y0009015D02*
X00515D01*
Y0008515D02*
Y0009015D01*
X00485Y0008515D02*
X00515D01*
X00485D02*
Y0009015D01*
X00515Y0009915D02*
Y0010415D01*
X00485Y0010415D02*
X00515Y0010415D01*
X00485Y0009915D02*
X00515D01*
X00485D02*
Y0010415D01*
X0073Y0035039D02*
X0076Y0035039D01*
X0073Y0034539D02*
Y0035039D01*
X0072999Y0031889D02*
X0075999D01*
X0072999D02*
Y0032389D01*
X0075999Y0031889D02*
Y0032389D01*
X0072999D02*
X0075999D01*
X0073Y0034539D02*
X0076Y0034539D01*
Y0035039D01*
X0062575Y0007965D02*
X0062575Y0010965D01*
X0062075D02*
X0062575D01*
X0059425Y0007965D02*
Y0010965D01*
X0059925D01*
X0059425Y0007965D02*
X0059925D01*
Y0010965D01*
X0062075Y0010965D02*
X0062075Y0007965D01*
X0062575D01*
X0073Y0045039D02*
X0076Y0045039D01*
X0073Y0044539D02*
Y0045039D01*
X0072999Y0041889D02*
X0075999D01*
X0072999D02*
Y0042389D01*
X0075999Y0041889D02*
Y0042389D01*
X0072999D02*
X0075999D01*
X0073Y0044539D02*
X0076Y0044539D01*
Y0045039D01*
X0073Y0024939D02*
X0076Y0024939D01*
X0073Y0024439D02*
Y0024939D01*
X0072999Y0021789D02*
X0075999D01*
X0072999D02*
Y0022289D01*
X0075999Y0021789D02*
Y0022289D01*
X0072999D02*
X0075999D01*
X0073Y0024439D02*
X0076Y0024439D01*
Y0024939D01*
X006Y002469D02*
X0063Y002469D01*
Y002519D01*
X0060001Y002784D02*
X0063001D01*
Y002734D02*
Y002784D01*
X0060001Y002734D02*
Y002784D01*
Y002734D02*
X0063001D01*
X006Y002519D02*
X0063Y002519D01*
X006Y002469D02*
Y002519D01*
X006Y0021239D02*
X0063Y0021239D01*
X006Y0020739D02*
Y0021239D01*
X0059999Y0018089D02*
X0062999D01*
X0059999D02*
Y0018589D01*
X0062999Y0018089D02*
Y0018589D01*
X0059999D02*
X0062999D01*
X006Y0020739D02*
X0063Y0020739D01*
Y0021239D01*
X00315Y0008515D02*
Y0009015D01*
X00285D02*
X00315D01*
X00285Y0008515D02*
X00315Y0008515D01*
X00285Y0008515D02*
Y0009015D01*
X00315Y0009915D02*
Y0010415D01*
X00285D02*
X00315D01*
X00285Y0009915D02*
Y0010415D01*
Y0009915D02*
X00315D01*
X0054Y0009015D02*
X0057D01*
Y0008515D02*
Y0009015D01*
X0054Y0008515D02*
X0057D01*
X0054D02*
Y0009015D01*
X0057Y0009915D02*
Y0010415D01*
X0054Y0010415D02*
X0057Y0010415D01*
X0054Y0009915D02*
X0057D01*
X0054D02*
Y0010415D01*
D15*
X0045906Y00074D02*
Y00126D01*
X0034095Y00074D02*
Y00126D01*
Y00074D02*
X0045906D01*
X0034095Y00126D02*
X0045906D01*
D16*
X0087163Y-0002309D02*
X0095037D01*
X0087163D02*
Y0000447D01*
X0085391D02*
X0087163D01*
X0095037Y-0002309D02*
Y0000447D01*
X009671D01*
X0065095Y0009284D02*
Y001322D01*
X0068244D01*
X0076906Y0009284D02*
Y001322D01*
X0073756D02*
X0076906D01*
X0026315Y0040965D02*
X0065685D01*
X0026315Y0052965D02*
X0065685D01*
Y0040965D02*
Y0052965D01*
D17*
X0068Y0045965D02*
X0082D01*
X0068D02*
Y0050965D01*
X0082D01*
Y0045965D02*
Y0050965D01*
X0072Y0045965D02*
Y0050965D01*
D18*
X0074Y0048465D02*
X00757Y0046915D01*
X0074Y0048465D02*
X00757Y0050015D01*
Y0046915D02*
Y0050015D01*
X0074Y0046865D02*
Y0050065D01*
M02*
