G04*
G04 #@! TF.GenerationSoftware,Altium Limited,Altium Designer,22.3.1 (43)*
G04*
G04 Layer_Color=128*
%FSTAX24Y24*%
%MOIN*%
G70*
G04*
G04 #@! TF.SameCoordinates,B4E513CA-2914-4934-AE3C-C1F4A0DDEA0C*
G04*
G04*
G04 #@! TF.FilePolarity,Positive*
G04*
G01*
G75*
D59*
X008647Y000547D02*
X008903D01*
X008775Y000419D02*
Y000675D01*
X009317Y000547D02*
X009573D01*
X009445Y000419D02*
Y000675D01*
X00181Y004752D02*
X002165D01*
X001987Y004574D02*
Y004929D01*
X00181Y003745D02*
X002165D01*
X001987Y003568D02*
Y003923D01*
X00181Y002958D02*
X002165D01*
X001987Y002781D02*
Y003135D01*
X00181Y001952D02*
X002165D01*
X001987Y001774D02*
Y002129D01*
X00105Y005669D02*
X00135D01*
X0012Y005519D02*
Y005819D01*
X00105Y001024D02*
X00135D01*
X0012Y000874D02*
Y001174D01*
X000983Y004232D02*
X001417D01*
X0012Y004016D02*
Y004449D01*
X000983Y002461D02*
X001417D01*
X0012Y002244D02*
Y002677D01*
X003901Y004896D02*
X004021D01*
X003961Y004836D02*
Y004956D01*
X005215Y000626D02*
X005335D01*
X005275Y000566D02*
Y000686D01*
X004701Y000615D02*
X004821D01*
X004761Y000555D02*
Y000675D01*
X003641Y00245D02*
X003759D01*
X0037Y002391D02*
Y002509D01*
X00666Y002336D02*
X00678D01*
X00672Y002276D02*
Y002396D01*
X006541Y001446D02*
X006659D01*
X0066Y001387D02*
Y001506D01*
X007841Y001446D02*
X007959D01*
X0079Y001387D02*
Y001506D01*
X007441Y001446D02*
X007559D01*
X0075Y001387D02*
Y001506D01*
X002241Y005446D02*
X002359D01*
X0023Y005387D02*
Y005506D01*
X002241Y005846D02*
X002359D01*
X0023Y005787D02*
Y005906D01*
X002241Y006246D02*
X002359D01*
X0023Y006187D02*
Y006306D01*
X000541Y003746D02*
X000659D01*
X0006Y003687D02*
Y003806D01*
X000541Y003346D02*
X000659D01*
X0006Y003287D02*
Y003406D01*
X000541Y002946D02*
X000659D01*
X0006Y002887D02*
Y003006D01*
X000541Y002546D02*
X000659D01*
X0006Y002487D02*
Y002606D01*
X000541Y002146D02*
X000659D01*
X0006Y002087D02*
Y002206D01*
X000541Y001746D02*
X000659D01*
X0006Y001687D02*
Y001806D01*
X007141Y005346D02*
X007259D01*
X0072Y005287D02*
Y005406D01*
X006641Y005246D02*
X006759D01*
X0067Y005187D02*
Y005306D01*
X008141Y005346D02*
X008259D01*
X0082Y005287D02*
Y005406D01*
X008541Y005346D02*
X008659D01*
X0086Y005287D02*
Y005406D01*
X008941Y00445D02*
X009059D01*
X009Y004391D02*
Y004509D01*
X008941Y005346D02*
X009059D01*
X009Y005287D02*
Y005406D01*
X010341Y006246D02*
X010459D01*
X0104Y006187D02*
Y006306D01*
X010641Y005746D02*
X010759D01*
X0107Y005687D02*
Y005806D01*
X011041Y005746D02*
X011159D01*
X0111Y005687D02*
Y005806D01*
X011041Y006146D02*
X011159D01*
X0111Y006087D02*
Y006206D01*
X009041Y000846D02*
X009159D01*
X0091Y000787D02*
Y000906D01*
X007741Y000486D02*
X007859D01*
X0078Y000427D02*
Y000546D01*
X007141Y000306D02*
X007259D01*
X0072Y000247D02*
Y000366D01*
X007141Y000636D02*
X007259D01*
X0072Y000577D02*
Y000696D01*
X003541Y000946D02*
X003659D01*
X0036Y000887D02*
Y001006D01*
X002241Y000846D02*
X002359D01*
X0023Y000787D02*
Y000906D01*
X001441Y000446D02*
X001559D01*
X0015Y000387D02*
Y000506D01*
X001841Y000446D02*
X001959D01*
X0019Y000387D02*
Y000506D01*
X002241Y000446D02*
X002359D01*
X0023Y000387D02*
Y000506D01*
X008841Y001246D02*
X008959D01*
X0089Y001187D02*
Y001306D01*
X009241Y001246D02*
X009359D01*
X0093Y001187D02*
Y001306D01*
X010141Y001246D02*
X010259D01*
X0102Y001187D02*
Y001306D01*
X010641Y000446D02*
X010759D01*
X0107Y000387D02*
Y000506D01*
X010241Y000846D02*
X010359D01*
X0103Y000787D02*
Y000906D01*
X010641Y000846D02*
X010759D01*
X0107Y000787D02*
Y000906D01*
X011041Y000846D02*
X011159D01*
X0111Y000787D02*
Y000906D01*
X011041Y000446D02*
X011159D01*
X0111Y000387D02*
Y000506D01*
X004241Y003746D02*
X004359D01*
X0043Y003687D02*
Y003806D01*
X007071Y004536D02*
X007189D01*
X00713Y004477D02*
Y004596D01*
X003591Y004896D02*
X003729D01*
X00366Y004828D02*
Y004965D01*
X008791Y005796D02*
X008909D01*
X00885Y005737D02*
Y005856D01*
X008791Y006096D02*
X008909D01*
X00885Y006037D02*
Y006156D01*
X008441Y006096D02*
X008559D01*
X0085Y006037D02*
Y006156D01*
X008441Y005796D02*
X008559D01*
X0085Y005737D02*
Y005856D01*
X008091Y005796D02*
X008209D01*
X00815Y005737D02*
Y005856D01*
X008091Y006096D02*
X008209D01*
X00815Y006037D02*
Y006156D01*
X007791Y005936D02*
X007909D01*
X00785Y005877D02*
Y005996D01*
X009071Y005936D02*
X009189D01*
X00913Y005877D02*
Y005996D01*
X004576Y004671D02*
X004714D01*
X004645Y004603D02*
Y00474D01*
X005201Y004666D02*
X005339D01*
X00527Y004598D02*
Y004735D01*
M02*
