G04*
G04 #@! TF.GenerationSoftware,Altium Limited,Altium Designer,22.3.1 (43)*
G04*
G04 Layer_Physical_Order=2*
G04 Layer_Color=15428901*
%FSTAX25Y25*%
%MOIN*%
G70*
G04*
G04 #@! TF.SameCoordinates,AA438D0C-BAC3-434F-BC1F-4FEAB2FC06D2*
G04*
G04*
G04 #@! TF.FilePolarity,Positive*
G04*
G01*
G75*
%ADD12C,0.01968*%
G04:AMPARAMS|DCode=27|XSize=62.99mil|YSize=106.3mil|CornerRadius=15.75mil|HoleSize=0mil|Usage=FLASHONLY|Rotation=270.000|XOffset=0mil|YOffset=0mil|HoleType=Round|Shape=RoundedRectangle|*
%AMROUNDEDRECTD27*
21,1,0.06299,0.07480,0,0,270.0*
21,1,0.03150,0.10630,0,0,270.0*
1,1,0.03150,-0.03740,-0.01575*
1,1,0.03150,-0.03740,0.01575*
1,1,0.03150,0.03740,0.01575*
1,1,0.03150,0.03740,-0.01575*
%
%ADD27ROUNDEDRECTD27*%
%ADD47C,0.02362*%
%ADD48C,0.01575*%
%ADD49C,0.03150*%
%ADD51C,0.05906*%
%ADD52C,0.02756*%
%ADD53C,0.02559*%
%ADD54O,0.07874X0.05906*%
%ADD55O,0.15000X0.06000*%
%ADD56C,0.04331*%
%ADD57C,0.02400*%
%ADD58C,0.02362*%
G36*
X0110299Y0065068D02*
X0111073Y0064833D01*
X0111785Y0064452D01*
X011241Y0063939D01*
X0112923Y0063315D01*
X0113304Y0062602D01*
X0113539Y0061828D01*
X0113616Y0061046D01*
X0113613Y0061024D01*
Y0055251D01*
X01053D01*
X0104838Y0055191D01*
X0104406Y0055012D01*
X0104036Y0054728D01*
X0103752Y0054358D01*
X0103574Y0053927D01*
X0103513Y0053465D01*
Y0053303D01*
X0103097Y0053025D01*
X0102898Y0053108D01*
X0102076Y0053216D01*
X0094595D01*
X0093773Y0053108D01*
X0093248Y0052891D01*
X0093243Y0052889D01*
X0093235Y0052885D01*
X0093007Y005279D01*
X0092883Y0052695D01*
X0092878Y0052693D01*
X0092558Y0052462D01*
X0092274Y0052283D01*
X009199Y0052127D01*
X0091703Y0051994D01*
X0091413Y0051882D01*
X0091118Y0051791D01*
X0090818Y0051721D01*
X0090511Y005167D01*
X0090219Y0051641D01*
X0061177D01*
Y0052265D01*
X0061068Y0053087D01*
X0060751Y0053853D01*
X0060397Y0054315D01*
X0060643Y0054815D01*
X00913D01*
X0092188Y0054902D01*
X0093041Y0055161D01*
X0093827Y0055582D01*
X0094517Y0056148D01*
X0095083Y0056837D01*
X0095503Y0057624D01*
X0095762Y0058477D01*
X009585Y0059365D01*
X0095762Y0060252D01*
X0095503Y0061106D01*
X0095083Y0061892D01*
X0094517Y0062581D01*
X0093827Y0063147D01*
X0093041Y0063568D01*
X0092188Y0063827D01*
X00913Y0063914D01*
X00303D01*
X0029412Y0063827D01*
X0028559Y0063568D01*
X0027772Y0063147D01*
X0027083Y0062581D01*
X0026517Y0061892D01*
X0026097Y0061106D01*
X0025838Y0060252D01*
X002575Y0059365D01*
Y0038645D01*
X0025251Y0038571D01*
X0025061Y0039195D01*
X0024641Y0039981D01*
X0024075Y004067D01*
X0023386Y0041236D01*
X0022599Y0041657D01*
X0021746Y0041916D01*
X0020858Y0042003D01*
X001889D01*
X0018002Y0041916D01*
X0017149Y0041657D01*
X0016362Y0041236D01*
X0016015Y0040951D01*
X001558Y0041241D01*
X0015686Y004159D01*
X0015758Y0042323D01*
X0015686Y0043056D01*
X0015472Y0043761D01*
X0015125Y0044411D01*
X0014658Y004498D01*
X0014088Y0045448D01*
X0013438Y0045795D01*
X0012733Y0046009D01*
X0012Y0046081D01*
X0011267Y0046009D01*
X0010562Y0045795D01*
X0009912Y0045448D01*
X0009342Y004498D01*
X0008875Y0044411D01*
X0008528Y0043761D01*
X0008314Y0043056D01*
X0008242Y0042323D01*
X0008314Y004159D01*
X0008528Y0040885D01*
X0008875Y0040235D01*
X0009342Y0039665D01*
X0009912Y0039198D01*
X0010562Y0038851D01*
X0011267Y0038637D01*
X0012Y0038565D01*
X0012733Y0038637D01*
X0013438Y0038851D01*
X0014088Y0039198D01*
X0014191Y0039282D01*
X0014625Y0038992D01*
X0014428Y0038341D01*
X001434Y0037454D01*
X0014428Y0036566D01*
X0014687Y0035713D01*
X0015107Y0034926D01*
X0015673Y0034237D01*
X0016172Y0033827D01*
X0016207Y003374D01*
Y0033293D01*
X0016172Y0033206D01*
X0015673Y0032796D01*
X0015107Y0032107D01*
X0014687Y0031321D01*
X0014428Y0030467D01*
X001434Y0029579D01*
X0014428Y0028692D01*
X0014534Y0028343D01*
X0014191Y0027755D01*
X0014088Y0027731D01*
X0013438Y0028078D01*
X0012733Y0028292D01*
X0012Y0028365D01*
X0011267Y0028292D01*
X0010562Y0028078D01*
X0009912Y0027731D01*
X0009342Y0027264D01*
X0008875Y0026694D01*
X0008528Y0026044D01*
X0008314Y0025339D01*
X0008242Y0024606D01*
X0008314Y0023873D01*
X0008528Y0023168D01*
X0008875Y0022518D01*
X0009342Y0021949D01*
X0009912Y0021481D01*
X0010562Y0021134D01*
X0011267Y002092D01*
X0012Y0020848D01*
X0012733Y002092D01*
X0013438Y0021134D01*
X0014088Y0021481D01*
X0014358Y0021703D01*
X0014752Y0021379D01*
X0014687Y0021258D01*
X0014428Y0020404D01*
X001434Y0019516D01*
X0014428Y0018629D01*
X0014687Y0017775D01*
X0015107Y0016989D01*
X0015673Y00163D01*
X0016362Y0015734D01*
X0017149Y0015313D01*
X0018002Y0015055D01*
X001889Y0014967D01*
X00303D01*
X0031187Y0015055D01*
X0032041Y0015313D01*
X0032827Y0015734D01*
X0033517Y00163D01*
X0034083Y0016989D01*
X0034503Y0017775D01*
X0034762Y0018629D01*
X003485Y0019516D01*
Y0045994D01*
X003535Y0046286D01*
X0035829Y0046088D01*
X00366Y0045986D01*
X0039323D01*
Y00234D01*
Y00115D01*
X0039432Y0010678D01*
X0039749Y0009912D01*
X0040254Y0009254D01*
X0044799Y0004708D01*
X0044859Y0004563D01*
X0045364Y0003906D01*
X0046022Y0003401D01*
X0046788Y0003083D01*
X004761Y0002975D01*
X0052637D01*
X005346Y0003083D01*
X0054226Y0003401D01*
X0054884Y0003906D01*
X0055388Y0004563D01*
X0055706Y000533D01*
X0055814Y0006152D01*
X0055706Y0006974D01*
X0055388Y000774D01*
X0054884Y0008398D01*
X0054226Y0008903D01*
X005346Y000922D01*
X0052637Y0009329D01*
X0049164D01*
X0045677Y0012816D01*
Y0020783D01*
X006618D01*
X0066476Y0020661D01*
X00672Y0020566D01*
X0067924Y0020661D01*
X0068599Y0020941D01*
X0069179Y0021386D01*
X0069624Y0021965D01*
X0069903Y002264D01*
X0069999Y0023365D01*
X0069903Y0024089D01*
X0069624Y0024764D01*
X0069179Y0025344D01*
X0068868Y0025582D01*
X0069038Y0026082D01*
X0091525D01*
X0091527Y0026068D01*
X0091844Y0025301D01*
X0092349Y0024644D01*
X0093007Y0024139D01*
X0093773Y0023821D01*
X0094595Y0023713D01*
X0102076D01*
X0102898Y0023821D01*
X0103097Y0023904D01*
X0103513Y0023626D01*
Y0013465D01*
X0103574Y0013002D01*
X0103752Y0012571D01*
X0104036Y0012201D01*
X0104406Y0011917D01*
X0104838Y0011738D01*
X01053Y0011678D01*
X0113613D01*
Y0005906D01*
X0113616Y0005883D01*
X0113539Y0005101D01*
X0113304Y0004327D01*
X0112923Y0003615D01*
X011241Y000299D01*
X0111785Y0002477D01*
X0111073Y0002096D01*
X0110299Y0001861D01*
X0109978Y0001829D01*
X0109494Y0001787D01*
X0109494Y0001787D01*
X0109005Y0001787D01*
X0005906D01*
X0005883Y0001784D01*
X0005101Y0001861D01*
X0004327Y0002096D01*
X0003615Y0002477D01*
X000299Y000299D01*
X0002477Y0003615D01*
X0002096Y0004327D01*
X0001861Y0005101D01*
X0001829Y0005422D01*
X0001787Y0005906D01*
X0001787Y0005906D01*
X0001787Y0006395D01*
Y0061024D01*
X0001784Y0061046D01*
X0001861Y0061828D01*
X0002096Y0062602D01*
X0002477Y0063315D01*
X000299Y0063939D01*
X0003615Y0064452D01*
X0004327Y0064833D01*
X0005101Y0065068D01*
X0005422Y00651D01*
X0005906Y0065142D01*
X0005906Y0065142D01*
X0006395Y0065142D01*
X0109494D01*
X0109517Y0065145D01*
X0110299Y0065068D01*
D02*
G37*
G36*
X0093807Y0045525D02*
X0093448Y0045784D01*
X009308Y0046016D01*
X0092706Y0046221D01*
X0092323Y0046398D01*
X0091933Y0046549D01*
X0091536Y0046671D01*
X009113Y0046767D01*
X0090718Y0046835D01*
X0090297Y0046876D01*
X0089869Y004689D01*
Y0050039D01*
X0090297Y0050053D01*
X0090718Y0050094D01*
X009113Y0050162D01*
X0091536Y0050258D01*
X0091933Y0050381D01*
X0092323Y0050531D01*
X0092706Y0050708D01*
X009308Y0050913D01*
X0093448Y0051145D01*
X0093807Y0051405D01*
Y0045525D01*
D02*
G37*
G36*
X0075631Y004689D02*
X0075032Y0046874D01*
X0074497Y0046829D01*
X0074024Y0046753D01*
X0073615Y0046646D01*
X0073269Y0046508D01*
X0072985Y0046341D01*
X0072764Y0046142D01*
X0072607Y0045914D01*
X0072513Y0045654D01*
X0072481Y0045365D01*
X0070119D01*
X0070087Y0045654D01*
X0069993Y0045914D01*
X0069835Y0046142D01*
X0069615Y0046341D01*
X0069332Y0046508D01*
X0068985Y0046646D01*
X0068576Y0046753D01*
X0068103Y0046829D01*
X0067568Y0046874D01*
X0066969Y004689D01*
X00713Y0050039D01*
X0075631Y004689D01*
D02*
G37*
G36*
X0047636Y0046687D02*
X0047651Y0046663D01*
X0047676Y004663D01*
X0047756Y0046536D01*
X0048035Y0046243D01*
X004813Y0046148D01*
X0047017Y0045034D01*
X0046462Y0045533D01*
X0047631Y0046703D01*
X0047636Y0046687D01*
D02*
G37*
G36*
X0053886Y0046637D02*
X0053901Y0046613D01*
X0053926Y004658D01*
X0054006Y0046486D01*
X0054285Y0046193D01*
X005438Y0046098D01*
X0053267Y0044984D01*
X0052712Y0045483D01*
X0053881Y0046653D01*
X0053886Y0046637D01*
D02*
G37*
G36*
X0090511Y0045259D02*
X0090818Y0045209D01*
X0091118Y0045138D01*
X0091413Y0045047D01*
X0091703Y0044935D01*
X009199Y0044802D01*
X0092274Y0044646D01*
X0092558Y0044467D01*
X0092878Y0044236D01*
X0092883Y0044234D01*
X0093007Y0044139D01*
X0093235Y0044044D01*
X0093243Y004404D01*
X0093248Y0044039D01*
X0093773Y0043821D01*
X0094595Y0043713D01*
Y0043216D01*
X0093773Y0043108D01*
X0093007Y004279D01*
X0092349Y0042286D01*
X0091844Y0041628D01*
X0091527Y0040862D01*
X0091525Y0040847D01*
X007358D01*
X0073379Y0041347D01*
X0073707Y0041775D01*
X0073985Y0042445D01*
X007408Y0043165D01*
Y0045121D01*
X007411Y0045133D01*
X0074352Y0045196D01*
X0074691Y0045251D01*
X007512Y0045288D01*
X0090219D01*
X0090511Y0045259D01*
D02*
G37*
G36*
X0093031Y003689D02*
X0093015Y0037039D01*
X0092967Y0037173D01*
X0092888Y0037291D01*
X0092777Y0037394D01*
X0092634Y003748D01*
X009246Y0037551D01*
X0092253Y0037606D01*
X0092015Y0037646D01*
X0091746Y0037669D01*
X0091444Y0037677D01*
Y0039252D01*
X0091746Y003926D01*
X0092015Y0039283D01*
X0092253Y0039323D01*
X009246Y0039378D01*
X0092634Y0039448D01*
X0092777Y0039535D01*
X0092888Y0039637D01*
X0092967Y0039755D01*
X0093015Y0039889D01*
X0093031Y0040038D01*
X0093031Y003689D01*
D02*
G37*
G36*
Y002689D02*
X0093015Y0027039D01*
X0092967Y0027173D01*
X0092888Y0027291D01*
X0092777Y0027394D01*
X0092634Y002748D01*
X009246Y0027551D01*
X0092253Y0027606D01*
X0092015Y0027646D01*
X0091746Y0027669D01*
X0091444Y0027677D01*
Y0029252D01*
X0091746Y002926D01*
X0092015Y0029283D01*
X0092253Y0029323D01*
X009246Y0029378D01*
X0092634Y0029448D01*
X0092777Y0029535D01*
X0092888Y0029637D01*
X0092967Y0029755D01*
X0093015Y0029888D01*
X0093031Y0030038D01*
X0093031Y002689D01*
D02*
G37*
D12*
X00425Y00234D02*
X0042535Y0023365D01*
X00672D01*
D27*
X0098335Y0048465D02*
D03*
Y0038465D02*
D03*
Y0028465D02*
D03*
Y0018465D02*
D03*
D47*
X00713Y0045365D02*
Y0048465D01*
Y0043165D02*
Y0045365D01*
D48*
X004645Y0046715D02*
X00647Y0028465D01*
X0098335D01*
X00609Y0038465D02*
X0098335D01*
X00527Y0046665D02*
X00527D01*
X00609Y0038465D01*
D49*
X00425Y00115D02*
X0047848Y0006152D01*
X0052637D01*
X004761D02*
X0047848D01*
X00425Y00234D02*
Y005042D01*
Y00115D02*
Y00234D01*
Y005042D02*
Y0052265D01*
X0058D01*
X00713Y0048465D02*
X0098335D01*
X0058D02*
X00713D01*
X0058D02*
Y0052265D01*
D51*
X00303Y0059365D02*
X00913D01*
X0019874Y0019516D02*
X00303D01*
Y0059365D01*
D52*
X00366Y0048965D02*
X0041045D01*
X00425Y005042D01*
D53*
X0087753Y0005466D02*
D03*
X0094446D02*
D03*
D54*
X0019874Y0047517D02*
D03*
Y0037454D02*
D03*
Y0029579D02*
D03*
Y0019516D02*
D03*
D55*
X0012Y0056693D02*
D03*
Y0010236D02*
D03*
D56*
Y0042323D02*
D03*
Y0024606D02*
D03*
D57*
X0039612Y0048965D02*
D03*
X005275Y0006265D02*
D03*
X004761Y0006152D02*
D03*
X00672Y0023365D02*
D03*
D58*
X0037Y00245D02*
D03*
X0066Y0014465D02*
D03*
X0079D02*
D03*
X0075D02*
D03*
X0023Y0054465D02*
D03*
Y0058465D02*
D03*
Y0062465D02*
D03*
X0006Y0037465D02*
D03*
Y0033465D02*
D03*
Y0029465D02*
D03*
Y0025465D02*
D03*
Y0021465D02*
D03*
Y0017465D02*
D03*
X0072Y0053465D02*
D03*
X0067Y0052465D02*
D03*
X0082Y0053465D02*
D03*
X0086D02*
D03*
X009Y00445D02*
D03*
X009Y0053465D02*
D03*
X0104Y0062465D02*
D03*
X0107Y0057465D02*
D03*
X0111D02*
D03*
Y0061465D02*
D03*
X0091Y0008465D02*
D03*
X0078Y0004865D02*
D03*
X0072Y0003065D02*
D03*
Y0006365D02*
D03*
X0036Y0009465D02*
D03*
X0023Y0008465D02*
D03*
X0015Y0004465D02*
D03*
X0019D02*
D03*
X0023D02*
D03*
X0089Y0012465D02*
D03*
X0093D02*
D03*
X0102D02*
D03*
X0107Y0004465D02*
D03*
X0103Y0008465D02*
D03*
X0107D02*
D03*
X0111D02*
D03*
Y0004465D02*
D03*
X0043Y0037465D02*
D03*
X00713Y0045365D02*
D03*
X00366Y0048965D02*
D03*
X00885Y0057965D02*
D03*
Y0060965D02*
D03*
X0085D02*
D03*
Y0057965D02*
D03*
X00815D02*
D03*
Y0060965D02*
D03*
X00785Y0059365D02*
D03*
X00913D02*
D03*
X004645Y0046715D02*
D03*
X00527Y0046665D02*
D03*
M02*
