G04*
G04 #@! TF.GenerationSoftware,Altium Limited,Altium Designer,22.3.1 (43)*
G04*
G04 Layer_Color=32896*
%FSTAX25Y25*%
%MOIN*%
G70*
G04*
G04 #@! TF.SameCoordinates,AA438D0C-BAC3-434F-BC1F-4FEAB2FC06D2*
G04*
G04*
G04 #@! TF.FilePolarity,Positive*
G04*
G01*
G75*
%ADD10C,0.01000*%
%ADD16C,0.00787*%
%ADD50C,0.01181*%
%ADD59C,0.00200*%
G36*
X0089489Y002082D02*
X0089594Y0020816D01*
X0089698Y0020803D01*
X0089795Y0020791D01*
X0089882Y0020774D01*
X008997Y0020757D01*
X0090045Y0020737D01*
X0090116Y0020716D01*
X0090179Y0020695D01*
X0090238Y0020674D01*
X0090288Y0020657D01*
X0090325Y002064D01*
X0090359Y0020628D01*
X009038Y0020615D01*
X0090396Y0020611D01*
X0090401Y0020607D01*
X0090497Y0020553D01*
X0090589Y0020494D01*
X0090676Y0020431D01*
X0090756Y0020365D01*
X0090831Y0020298D01*
X0090898Y0020235D01*
X0090957Y0020168D01*
X0091011Y0020105D01*
X0091061Y0020043D01*
X0091103Y0019988D01*
X0091136Y0019938D01*
X0091166Y0019896D01*
X0091191Y0019859D01*
X0091207Y0019834D01*
X0091216Y0019813D01*
X009122Y0019809D01*
X009127Y0019708D01*
X0091312Y0019608D01*
X009135Y0019508D01*
X0091383Y0019403D01*
X0091408Y0019303D01*
X0091433Y0019207D01*
X009145Y001911D01*
X0091466Y0019023D01*
X0091475Y0018935D01*
X0091483Y001886D01*
X0091492Y0018793D01*
X0091496Y0018734D01*
X00915Y0018688D01*
Y0018651D01*
Y001863D01*
Y0018621D01*
X0091496Y0018509D01*
X0091487Y0018396D01*
X0091475Y0018287D01*
X0091462Y0018183D01*
X0091442Y0018082D01*
X0091421Y0017986D01*
X00914Y0017898D01*
X0091375Y0017819D01*
X009135Y0017744D01*
X0091329Y0017677D01*
X0091308Y0017618D01*
X0091287Y0017568D01*
X0091274Y001753D01*
X0091262Y0017501D01*
X0091253Y001748D01*
X0091249Y0017476D01*
X0091199Y001738D01*
X0091145Y0017292D01*
X0091086Y0017209D01*
X0091028Y0017129D01*
X0090965Y0017058D01*
X0090902Y0016991D01*
X0090839Y0016933D01*
X0090781Y0016878D01*
X0090723Y0016832D01*
X0090672Y0016791D01*
X0090622Y0016753D01*
X009058Y0016724D01*
X0090547Y0016703D01*
X0090522Y0016686D01*
X0090505Y0016678D01*
X0090501Y0016674D01*
X0090405Y0016623D01*
X0090304Y0016582D01*
X0090208Y0016544D01*
X0090108Y0016511D01*
X0090008Y0016486D01*
X0089912Y001646D01*
X0089815Y0016444D01*
X0089728Y0016427D01*
X0089644Y0016419D01*
X0089569Y001641D01*
X0089502Y0016402D01*
X0089443Y0016398D01*
X0089398Y0016394D01*
X0089331D01*
X008923Y0016398D01*
X0089134Y0016402D01*
X0088942Y0016423D01*
X0088854Y001644D01*
X0088766Y0016456D01*
X0088687Y0016473D01*
X0088607Y0016494D01*
X0088541Y0016511D01*
X0088478Y0016527D01*
X0088419Y0016544D01*
X0088373Y0016561D01*
X0088336Y0016573D01*
X0088311Y0016582D01*
X008829Y001659D01*
X0088286D01*
X0088189Y0016628D01*
X0088102Y0016669D01*
X0088018Y0016707D01*
X0087943Y0016749D01*
X0087872Y0016786D01*
X0087809Y0016824D01*
X0087751Y0016862D01*
X0087696Y0016899D01*
X008765Y0016929D01*
X0087608Y0016962D01*
X0087575Y0016987D01*
X0087546Y0017008D01*
X0087525Y0017029D01*
X0087508Y0017041D01*
X00875Y001705D01*
X0087496Y0017054D01*
Y0018764D01*
X008936D01*
Y001804D01*
X0088369D01*
Y0017497D01*
X0088444Y0017443D01*
X0088524Y0017392D01*
X0088603Y0017346D01*
X0088678Y0017309D01*
X0088745Y001728D01*
X0088771Y0017267D01*
X0088796Y0017259D01*
X0088816Y001725D01*
X0088829Y0017242D01*
X0088837Y0017238D01*
X0088841D01*
X0088942Y0017204D01*
X0089042Y0017179D01*
X0089134Y0017158D01*
X0089214Y0017146D01*
X0089285Y0017138D01*
X0089314D01*
X0089339Y0017133D01*
X0089385D01*
X0089485Y0017138D01*
X0089581Y001715D01*
X0089669Y0017167D01*
X0089753Y0017192D01*
X0089832Y0017221D01*
X0089907Y0017255D01*
X0089974Y0017288D01*
X0090033Y0017326D01*
X0090087Y0017359D01*
X0090133Y0017392D01*
X0090175Y0017426D01*
X0090208Y0017455D01*
X0090238Y001748D01*
X0090254Y0017497D01*
X0090267Y001751D01*
X0090271Y0017514D01*
X009033Y0017589D01*
X0090384Y0017673D01*
X009043Y001776D01*
X0090468Y0017852D01*
X0090501Y0017948D01*
X0090526Y001804D01*
X0090551Y0018137D01*
X0090568Y0018228D01*
X009058Y0018312D01*
X0090593Y0018396D01*
X0090597Y0018467D01*
X0090605Y001853D01*
Y0018584D01*
X009061Y0018621D01*
Y0018646D01*
Y0018655D01*
X0090605Y0018785D01*
X0090597Y0018906D01*
X009058Y0019018D01*
X009056Y0019123D01*
X0090534Y0019219D01*
X0090505Y0019307D01*
X0090476Y0019386D01*
X0090442Y0019457D01*
X0090413Y001952D01*
X0090384Y0019575D01*
X0090355Y0019621D01*
X009033Y0019658D01*
X0090309Y0019687D01*
X0090292Y0019708D01*
X0090284Y0019721D01*
X0090279Y0019725D01*
X0090213Y0019788D01*
X0090146Y0019842D01*
X009007Y0019892D01*
X0089995Y0019934D01*
X008992Y0019967D01*
X0089845Y0019997D01*
X0089774Y0020022D01*
X0089703Y0020039D01*
X0089636Y0020055D01*
X0089573Y0020064D01*
X0089519Y0020072D01*
X0089468Y002008D01*
X0089431D01*
X0089402Y0020085D01*
X008931D01*
X0089243Y0020076D01*
X0089122Y0020055D01*
X0089017Y0020026D01*
X0088967Y0020009D01*
X0088925Y0019993D01*
X0088888Y0019976D01*
X0088854Y0019959D01*
X0088825Y0019942D01*
X00888Y001993D01*
X0088779Y0019917D01*
X0088766Y0019909D01*
X0088758Y0019905D01*
X0088754Y00199D01*
X0088666Y0019825D01*
X0088595Y0019746D01*
X0088536Y0019662D01*
X0088486Y0019583D01*
X0088453Y0019512D01*
X008844Y0019482D01*
X0088428Y0019453D01*
X0088419Y0019432D01*
X0088415Y0019416D01*
X0088411Y0019407D01*
Y0019403D01*
X008755Y0019562D01*
X0087579Y0019671D01*
X0087613Y0019771D01*
X008765Y0019867D01*
X0087696Y0019955D01*
X0087742Y0020039D01*
X0087792Y0020114D01*
X0087838Y0020181D01*
X0087888Y0020243D01*
X0087934Y0020302D01*
X008798Y0020348D01*
X0088022Y002039D01*
X008806Y0020423D01*
X0088089Y0020452D01*
X008811Y0020469D01*
X0088127Y0020482D01*
X0088131Y0020486D01*
X0088219Y0020544D01*
X0088311Y0020599D01*
X0088411Y0020645D01*
X0088516Y0020682D01*
X0088616Y0020716D01*
X008872Y0020741D01*
X0088825Y0020766D01*
X0088921Y0020783D01*
X0089013Y0020795D01*
X0089101Y0020808D01*
X0089176Y0020816D01*
X0089243Y002082D01*
X0089301D01*
X0089343Y0020824D01*
X0089376D01*
X0089489Y002082D01*
D02*
G37*
G36*
X0085034Y0019633D02*
X0085142Y0019616D01*
X0085247Y0019587D01*
X0085343Y0019554D01*
X0085431Y0019516D01*
X0085518Y001947D01*
X0085594Y0019424D01*
X0085665Y0019374D01*
X0085727Y0019324D01*
X0085782Y0019278D01*
X0085832Y0019232D01*
X0085869Y0019194D01*
X0085903Y0019161D01*
X0085928Y0019131D01*
X0085941Y0019115D01*
X0085945Y001911D01*
Y001957D01*
X008671D01*
Y0016465D01*
X008589D01*
Y0017869D01*
Y0017961D01*
X0085886Y0018049D01*
Y0018128D01*
X0085882Y0018199D01*
X0085874Y0018262D01*
X0085869Y001832D01*
X0085865Y0018375D01*
X0085857Y0018421D01*
X0085853Y0018458D01*
X0085849Y0018492D01*
X008584Y0018521D01*
X0085836Y0018542D01*
X0085832Y0018559D01*
Y0018571D01*
X0085828Y0018575D01*
Y001858D01*
X0085799Y0018651D01*
X0085765Y0018713D01*
X0085727Y0018764D01*
X0085686Y001881D01*
X0085652Y0018847D01*
X0085623Y0018872D01*
X0085602Y0018889D01*
X0085594Y0018893D01*
X0085527Y0018931D01*
X008546Y001896D01*
X0085397Y0018981D01*
X0085339Y0018998D01*
X0085284Y0019006D01*
X0085247Y001901D01*
X0085209D01*
X0085151Y0019006D01*
X0085092Y0018998D01*
X0085046Y0018985D01*
X0085004Y0018968D01*
X0084971Y0018952D01*
X0084946Y0018939D01*
X0084929Y0018931D01*
X0084925Y0018927D01*
X0084883Y0018893D01*
X0084845Y0018856D01*
X0084816Y0018818D01*
X0084791Y001878D01*
X0084774Y0018747D01*
X0084758Y0018722D01*
X0084754Y0018705D01*
X0084749Y0018697D01*
X0084741Y0018667D01*
X0084733Y0018626D01*
X0084724Y0018584D01*
X0084716Y0018534D01*
X0084707Y0018425D01*
X0084703Y0018316D01*
X0084699Y0018262D01*
Y0018212D01*
X0084695Y0018166D01*
Y0018124D01*
Y0018091D01*
Y0018066D01*
Y0018049D01*
Y0018045D01*
Y0016465D01*
X0083876D01*
Y0018392D01*
Y0018517D01*
X0083884Y001863D01*
X0083888Y0018726D01*
X0083892Y0018764D01*
X0083897Y0018801D01*
X0083901Y0018835D01*
X0083905Y0018864D01*
X0083909Y0018889D01*
X0083913Y001891D01*
X0083917Y0018922D01*
Y0018935D01*
X0083922Y0018939D01*
Y0018943D01*
X0083943Y0019014D01*
X0083968Y0019077D01*
X0083993Y0019136D01*
X0084022Y0019186D01*
X0084047Y0019228D01*
X0084064Y0019261D01*
X008408Y0019278D01*
X0084085Y0019286D01*
X0084135Y001934D01*
X0084189Y0019391D01*
X0084244Y0019432D01*
X0084298Y001947D01*
X0084348Y0019499D01*
X008439Y001952D01*
X0084407Y0019529D01*
X0084419Y0019533D01*
X0084423Y0019537D01*
X0084427D01*
X0084511Y001957D01*
X0084599Y0019595D01*
X0084682Y0019612D01*
X0084758Y0019625D01*
X0084825Y0019633D01*
X008485D01*
X0084875Y0019637D01*
X0084921D01*
X0085034Y0019633D01*
D02*
G37*
G36*
X0081016Y0019203D02*
X0081088Y0019278D01*
X0081163Y0019345D01*
X0081242Y0019403D01*
X0081318Y0019453D01*
X0081393Y0019495D01*
X0081468Y0019533D01*
X0081543Y0019562D01*
X008161Y0019583D01*
X0081677Y00196D01*
X0081735Y0019616D01*
X0081786Y0019625D01*
X0081832Y0019629D01*
X0081869Y0019633D01*
X0081894Y0019637D01*
X0081919D01*
X0082024Y0019633D01*
X0082124Y0019621D01*
X0082216Y00196D01*
X0082304Y0019575D01*
X0082388Y0019541D01*
X0082467Y0019508D01*
X0082538Y001947D01*
X0082601Y0019432D01*
X0082659Y0019391D01*
X0082714Y0019353D01*
X0082755Y001932D01*
X0082793Y001929D01*
X0082822Y0019261D01*
X0082843Y001924D01*
X0082856Y0019228D01*
X008286Y0019223D01*
X0082923Y0019144D01*
X0082981Y0019056D01*
X0083031Y001896D01*
X0083073Y0018864D01*
X0083107Y0018764D01*
X0083136Y0018663D01*
X0083161Y0018567D01*
X0083182Y0018471D01*
X0083198Y0018379D01*
X0083207Y0018295D01*
X0083215Y001822D01*
X0083224Y0018153D01*
Y0018099D01*
X0083228Y0018057D01*
Y0018045D01*
Y0018032D01*
Y0018028D01*
Y0018024D01*
X0083224Y0017882D01*
X0083211Y0017752D01*
X0083194Y0017627D01*
X0083169Y0017514D01*
X008314Y0017405D01*
X0083107Y0017305D01*
X0083073Y0017217D01*
X0083035Y0017138D01*
X0083002Y0017062D01*
X0082969Y0017D01*
X0082935Y0016949D01*
X0082906Y0016904D01*
X0082881Y001687D01*
X0082864Y0016845D01*
X0082852Y0016828D01*
X0082847Y0016824D01*
X0082776Y0016749D01*
X0082697Y0016682D01*
X0082622Y0016623D01*
X0082542Y0016573D01*
X0082467Y0016536D01*
X0082392Y0016498D01*
X0082316Y0016469D01*
X0082245Y0016448D01*
X0082183Y0016431D01*
X008212Y0016414D01*
X0082066Y0016406D01*
X008202Y0016402D01*
X0081982Y0016398D01*
X0081957Y0016394D01*
X0081932D01*
X0081836Y0016398D01*
X008174Y0016414D01*
X0081652Y0016435D01*
X0081577Y001646D01*
X008151Y0016481D01*
X008148Y0016494D01*
X008146Y0016502D01*
X0081439Y0016511D01*
X0081426Y0016519D01*
X0081418Y0016523D01*
X0081414D01*
X0081322Y0016577D01*
X0081234Y001664D01*
X0081159Y0016707D01*
X0081092Y001677D01*
X0081037Y0016828D01*
X0080996Y0016878D01*
X0080983Y0016895D01*
X0080971Y0016908D01*
X0080966Y0016916D01*
X0080962Y001692D01*
Y0016465D01*
X0080197D01*
Y0020749D01*
X0081016D01*
Y0019203D01*
D02*
G37*
G36*
X00915Y0025965D02*
X0090635D01*
Y0027754D01*
X0090359D01*
X0090267Y0027745D01*
X0090192Y0027737D01*
X0090129Y0027729D01*
X0090083Y002772D01*
X0090049Y0027712D01*
X0090033Y0027708D01*
X0090025Y0027703D01*
X0089974Y0027683D01*
X0089924Y0027653D01*
X0089882Y0027624D01*
X0089845Y0027595D01*
X0089811Y0027566D01*
X0089786Y0027545D01*
X008977Y0027528D01*
X0089765Y0027524D01*
X008974Y0027494D01*
X0089711Y0027461D01*
X0089678Y0027419D01*
X0089644Y0027373D01*
X0089569Y0027269D01*
X0089494Y002716D01*
X0089423Y002706D01*
X0089389Y0027018D01*
X0089364Y0026976D01*
X0089343Y0026943D01*
X0089322Y0026918D01*
X0089314Y0026901D01*
X008931Y0026897D01*
X0088687Y0025965D01*
X008765D01*
X0088177Y0026801D01*
X0088231Y0026893D01*
X0088286Y0026972D01*
X0088336Y0027051D01*
X0088386Y0027118D01*
X0088428Y0027181D01*
X0088469Y002724D01*
X0088507Y002729D01*
X0088541Y0027336D01*
X008857Y0027373D01*
X0088595Y0027407D01*
X008862Y0027432D01*
X0088637Y0027457D01*
X0088649Y0027474D01*
X0088662Y0027486D01*
X0088666Y002749D01*
X008867Y0027494D01*
X0088741Y0027566D01*
X0088816Y0027632D01*
X0088896Y0027695D01*
X0088967Y0027749D01*
X0089034Y0027791D01*
X0089059Y0027812D01*
X0089084Y0027825D01*
X0089105Y0027837D01*
X0089117Y0027846D01*
X0089126Y0027854D01*
X008913D01*
X0089025Y0027871D01*
X0088929Y0027896D01*
X0088841Y0027921D01*
X0088758Y002795D01*
X0088683Y0027983D01*
X0088612Y0028017D01*
X0088549Y002805D01*
X0088495Y0028084D01*
X0088444Y0028117D01*
X0088403Y0028146D01*
X0088365Y0028176D01*
X0088336Y0028201D01*
X0088311Y0028222D01*
X0088294Y0028238D01*
X0088286Y0028247D01*
X0088281Y0028251D01*
X0088231Y0028314D01*
X0088189Y0028376D01*
X0088148Y0028439D01*
X0088118Y0028506D01*
X0088089Y0028573D01*
X0088068Y002864D01*
X0088031Y0028765D01*
X0088022Y0028824D01*
X0088014Y0028878D01*
X0088006Y0028924D01*
X0088001Y0028966D01*
X0087997Y0028999D01*
Y0029024D01*
Y0029041D01*
Y0029045D01*
Y0029116D01*
X0088006Y0029183D01*
X0088026Y0029313D01*
X0088056Y0029426D01*
X0088072Y0029476D01*
X0088089Y0029526D01*
X008811Y0029568D01*
X0088127Y0029605D01*
X0088143Y0029639D01*
X0088156Y0029668D01*
X0088169Y0029689D01*
X0088177Y0029706D01*
X0088181Y0029714D01*
X0088185Y0029718D01*
X0088223Y0029773D01*
X0088261Y0029823D01*
X0088344Y0029906D01*
X0088428Y0029981D01*
X0088507Y0030036D01*
X0088578Y0030078D01*
X0088607Y0030094D01*
X0088637Y0030111D01*
X0088658Y0030119D01*
X0088674Y0030128D01*
X0088683Y0030132D01*
X0088687D01*
X0088749Y0030153D01*
X0088816Y003017D01*
X0088892Y0030186D01*
X0088971Y0030199D01*
X0089138Y003022D01*
X0089301Y0030237D01*
X0089376Y0030241D01*
X0089448Y0030245D01*
X0089514D01*
X0089569Y0030249D01*
X00915D01*
Y0025965D01*
D02*
G37*
G36*
X0087483Y0029526D02*
X0086212D01*
Y0025965D01*
X0085347D01*
Y0029526D01*
X008408D01*
Y0030249D01*
X0087483D01*
Y0029526D01*
D02*
G37*
G36*
X0082204Y0030316D02*
X0082287Y0030312D01*
X0082367Y0030299D01*
X0082442Y0030291D01*
X0082509Y0030278D01*
X0082576Y0030262D01*
X0082634Y0030249D01*
X0082688Y0030237D01*
X0082735Y003022D01*
X0082776Y0030207D01*
X008281Y0030199D01*
X0082835Y0030186D01*
X0082856Y0030182D01*
X0082868Y0030174D01*
X0082872D01*
X0082994Y0030111D01*
X0083102Y0030044D01*
X0083194Y0029969D01*
X008327Y0029902D01*
X0083328Y0029835D01*
X0083349Y002981D01*
X008337Y0029785D01*
X0083382Y0029768D01*
X0083395Y0029752D01*
X0083399Y0029743D01*
X0083403Y0029739D01*
X0083437Y0029685D01*
X0083462Y002963D01*
X0083508Y0029522D01*
X0083541Y0029421D01*
X0083562Y0029325D01*
X008357Y0029283D01*
X0083579Y0029246D01*
X0083583Y0029208D01*
Y0029179D01*
X0083587Y0029158D01*
Y0029141D01*
Y0029129D01*
Y0029125D01*
X0083583Y0029033D01*
X008357Y0028941D01*
X008355Y0028857D01*
X0083525Y0028773D01*
X0083495Y0028698D01*
X0083462Y0028627D01*
X0083428Y0028565D01*
X0083391Y0028502D01*
X0083353Y0028447D01*
X008332Y0028401D01*
X0083286Y002836D01*
X0083257Y0028326D01*
X0083232Y0028301D01*
X0083211Y002828D01*
X0083198Y0028268D01*
X0083194Y0028264D01*
X0083136Y0028218D01*
X0083073Y0028172D01*
X0083002Y002813D01*
X0082923Y0028088D01*
X0082764Y0028017D01*
X0082601Y0027954D01*
X0082525Y0027929D01*
X0082455Y0027904D01*
X0082392Y0027883D01*
X0082333Y0027867D01*
X0082287Y0027854D01*
X008225Y0027846D01*
X0082229Y0027841D01*
X008222Y0027837D01*
X0082124Y0027812D01*
X0082037Y0027791D01*
X0081957Y002777D01*
X0081886Y0027749D01*
X0081819Y0027733D01*
X0081765Y0027716D01*
X0081715Y0027703D01*
X0081673Y0027691D01*
X0081635Y0027683D01*
X0081602Y0027674D01*
X0081577Y0027666D01*
X008156Y0027657D01*
X0081543Y0027653D01*
X0081535D01*
X0081526Y0027649D01*
X0081451Y002762D01*
X0081384Y0027586D01*
X008133Y0027553D01*
X0081288Y0027524D01*
X0081255Y0027499D01*
X0081234Y0027478D01*
X0081221Y0027465D01*
X0081217Y0027461D01*
X0081188Y0027419D01*
X0081163Y0027377D01*
X0081146Y0027336D01*
X0081138Y0027294D01*
X0081129Y002726D01*
X0081125Y0027231D01*
Y0027214D01*
Y0027206D01*
X0081129Y0027164D01*
X0081134Y0027118D01*
X0081159Y0027043D01*
X0081192Y0026972D01*
X008123Y0026909D01*
X0081271Y0026859D01*
X0081305Y0026822D01*
X008133Y0026801D01*
X0081334Y0026796D01*
X0081338Y0026792D01*
X008138Y0026763D01*
X0081426Y0026734D01*
X0081526Y0026692D01*
X0081631Y0026658D01*
X0081735Y0026638D01*
X0081782Y0026633D01*
X0081827Y0026625D01*
X0081865Y0026621D01*
X0081903D01*
X0081928Y0026617D01*
X008197D01*
X0082041Y0026621D01*
X0082108Y0026625D01*
X0082233Y0026646D01*
X0082287Y0026663D01*
X0082342Y0026679D01*
X0082388Y0026696D01*
X0082429Y0026717D01*
X0082467Y0026734D01*
X00825Y002675D01*
X008253Y0026767D01*
X0082555Y0026784D01*
X0082572Y0026796D01*
X0082584Y0026805D01*
X0082592Y0026813D01*
X0082597D01*
X0082638Y0026851D01*
X0082676Y0026897D01*
X0082743Y0026993D01*
X0082793Y0027097D01*
X0082835Y0027198D01*
X0082852Y0027248D01*
X0082864Y002729D01*
X0082877Y0027331D01*
X0082885Y0027365D01*
X0082893Y0027394D01*
X0082898Y0027419D01*
X0082902Y0027432D01*
Y0027436D01*
X0083742Y0027352D01*
X0083721Y0027223D01*
X0083696Y0027097D01*
X0083662Y0026985D01*
X0083625Y002688D01*
X0083583Y002678D01*
X0083541Y0026692D01*
X0083495Y0026608D01*
X0083449Y0026537D01*
X0083407Y002647D01*
X0083366Y0026416D01*
X0083328Y0026366D01*
X0083295Y0026328D01*
X0083265Y0026295D01*
X008324Y0026274D01*
X0083228Y0026261D01*
X0083224Y0026257D01*
X0083136Y002619D01*
X0083044Y0026136D01*
X0082948Y0026086D01*
X0082847Y0026044D01*
X0082743Y0026006D01*
X0082638Y0025977D01*
X0082538Y0025952D01*
X0082438Y0025931D01*
X0082346Y0025914D01*
X0082258Y0025906D01*
X0082179Y0025898D01*
X0082112Y0025889D01*
X0082057D01*
X0082016Y0025885D01*
X0081874D01*
X0081777Y0025894D01*
X0081685Y0025898D01*
X0081598Y002591D01*
X0081514Y0025923D01*
X0081439Y0025935D01*
X0081368Y0025948D01*
X0081301Y0025965D01*
X0081242Y0025977D01*
X0081192Y002599D01*
X008115Y0026002D01*
X0081113Y0026015D01*
X0081083Y0026027D01*
X0081063Y0026032D01*
X008105Y002604D01*
X0081046D01*
X0080912Y0026107D01*
X0080853Y002614D01*
X0080795Y0026178D01*
X0080745Y0026219D01*
X0080695Y0026257D01*
X0080653Y0026299D01*
X0080615Y0026337D01*
X0080578Y0026374D01*
X0080548Y0026408D01*
X0080523Y0026437D01*
X0080502Y0026462D01*
X0080486Y0026487D01*
X0080473Y0026504D01*
X0080469Y0026512D01*
X0080465Y0026516D01*
X0080427Y0026579D01*
X0080398Y0026642D01*
X0080369Y00267D01*
X0080348Y0026763D01*
X008031Y002688D01*
X0080285Y0026985D01*
X0080277Y0027035D01*
X0080273Y0027076D01*
X0080264Y0027114D01*
Y0027147D01*
X008026Y0027173D01*
Y0027193D01*
Y0027206D01*
Y002721D01*
X0080268Y0027356D01*
X0080285Y0027486D01*
X0080298Y0027549D01*
X0080314Y0027603D01*
X0080331Y0027657D01*
X0080344Y0027703D01*
X008036Y0027745D01*
X0080377Y0027783D01*
X0080389Y0027816D01*
X0080406Y0027841D01*
X0080415Y0027862D01*
X0080423Y0027879D01*
X0080431Y0027887D01*
Y0027892D01*
X0080502Y0027992D01*
X0080578Y002808D01*
X0080657Y0028155D01*
X0080732Y0028218D01*
X0080803Y0028264D01*
X0080833Y0028284D01*
X0080858Y0028301D01*
X0080879Y0028314D01*
X0080895Y0028322D01*
X0080904Y002833D01*
X0080908D01*
X0080966Y002836D01*
X0081033Y0028389D01*
X0081104Y0028418D01*
X008118Y0028447D01*
X0081334Y0028498D01*
X0081485Y0028544D01*
X008156Y0028565D01*
X0081623Y0028585D01*
X0081685Y0028602D01*
X0081735Y0028615D01*
X0081782Y0028623D01*
X0081811Y0028631D01*
X0081832Y002864D01*
X008184D01*
X0081953Y0028669D01*
X0082053Y0028694D01*
X0082149Y0028723D01*
X0082229Y0028749D01*
X0082304Y0028773D01*
X0082367Y0028799D01*
X0082425Y002882D01*
X0082475Y002884D01*
X0082513Y0028861D01*
X0082551Y0028878D01*
X0082576Y0028891D01*
X0082601Y0028903D01*
X0082613Y0028916D01*
X0082626Y0028924D01*
X008263Y0028928D01*
X0082634D01*
X0082676Y002897D01*
X0082705Y0029012D01*
X008273Y0029058D01*
X0082743Y0029095D01*
X0082751Y0029133D01*
X0082755Y0029162D01*
X008276Y0029179D01*
Y0029187D01*
X0082755Y0029246D01*
X0082739Y00293D01*
X0082718Y0029346D01*
X0082693Y0029384D01*
X0082668Y0029413D01*
X0082647Y0029434D01*
X008263Y0029447D01*
X0082626Y0029451D01*
X0082538Y0029505D01*
X0082442Y0029543D01*
X0082346Y0029572D01*
X008225Y0029589D01*
X0082162Y0029601D01*
X0082128Y0029605D01*
X0082095D01*
X008207Y002961D01*
X0081965D01*
X0081903Y0029605D01*
X0081848Y0029597D01*
X0081794Y0029589D01*
X0081744Y0029576D01*
X0081702Y0029564D01*
X008166Y0029551D01*
X0081623Y0029539D01*
X0081593Y0029522D01*
X0081564Y0029509D01*
X0081543Y0029497D01*
X0081522Y0029488D01*
X008151Y0029476D01*
X0081497Y0029472D01*
X0081489Y0029463D01*
X0081455Y0029434D01*
X0081426Y0029401D01*
X0081372Y0029329D01*
X008133Y002925D01*
X0081297Y0029171D01*
X0081276Y0029104D01*
X0081267Y002907D01*
X0081259Y0029045D01*
X0081255Y002902D01*
X0081251Y0029003D01*
X0081247Y0028995D01*
Y0028991D01*
X0080381Y0029028D01*
X0080389Y0029137D01*
X0080406Y0029237D01*
X0080427Y0029334D01*
X0080456Y0029426D01*
X008049Y0029509D01*
X0080528Y0029584D01*
X0080565Y0029656D01*
X0080603Y0029718D01*
X0080645Y0029777D01*
X0080682Y0029827D01*
X0080716Y0029869D01*
X0080749Y0029906D01*
X0080774Y0029931D01*
X0080795Y0029952D01*
X0080808Y0029965D01*
X0080812Y0029969D01*
X0080891Y0030032D01*
X0080979Y0030086D01*
X0081075Y0030132D01*
X0081171Y0030174D01*
X0081271Y0030207D01*
X0081372Y0030237D01*
X0081472Y0030262D01*
X0081568Y0030278D01*
X008166Y0030295D01*
X0081748Y0030308D01*
X0081823Y0030312D01*
X008189Y003032D01*
X0081949D01*
X0081986Y0030324D01*
X0082024D01*
X0082204Y0030316D01*
D02*
G37*
G36*
X00915Y0036465D02*
X0089786D01*
X0089703Y0036469D01*
X0089623Y0036473D01*
X0089552Y0036477D01*
X0089481Y0036485D01*
X0089418Y0036494D01*
X008936Y0036502D01*
X008931Y0036511D01*
X0089264Y0036515D01*
X0089222Y0036523D01*
X0089184Y0036531D01*
X0089159Y003654D01*
X0089134Y0036544D01*
X0089117Y0036548D01*
X0089109Y0036552D01*
X0089105D01*
X0088971Y0036603D01*
X008885Y0036661D01*
X0088796Y0036686D01*
X0088745Y0036715D01*
X0088699Y0036745D01*
X0088658Y003677D01*
X0088624Y0036795D01*
X0088591Y003682D01*
X0088561Y0036841D01*
X0088541Y0036858D01*
X0088524Y0036874D01*
X0088507Y0036887D01*
X0088503Y0036891D01*
X0088499Y0036895D01*
X0088444Y003695D01*
X0088394Y0037012D01*
X0088298Y0037133D01*
X0088223Y0037263D01*
X0088156Y003738D01*
X0088127Y0037438D01*
X0088106Y0037489D01*
X0088085Y0037535D01*
X0088068Y0037572D01*
X0088056Y0037606D01*
X0088047Y0037631D01*
X0088039Y0037648D01*
Y0037652D01*
X0087993Y0037802D01*
X0087959Y0037957D01*
X0087939Y0038107D01*
X008793Y0038183D01*
X0087922Y0038254D01*
X0087918Y0038316D01*
X0087914Y0038375D01*
X0087909Y0038429D01*
X0087905Y0038475D01*
Y0038513D01*
Y0038538D01*
Y0038559D01*
Y0038563D01*
Y0038672D01*
X0087909Y003878D01*
X0087918Y0038881D01*
X0087926Y0038977D01*
X0087939Y0039064D01*
X0087951Y0039148D01*
X0087964Y0039223D01*
X0087976Y0039294D01*
X0087989Y0039357D01*
X0088001Y0039412D01*
X0088014Y0039462D01*
X0088026Y0039499D01*
X0088035Y0039533D01*
X0088043Y0039558D01*
X0088047Y003957D01*
Y0039575D01*
X0088106Y0039725D01*
X0088173Y0039859D01*
X0088206Y0039917D01*
X008824Y0039976D01*
X0088273Y004003D01*
X0088306Y0040076D01*
X0088336Y0040118D01*
X0088365Y004016D01*
X008839Y0040189D01*
X0088411Y0040218D01*
X0088432Y0040239D01*
X0088444Y0040256D01*
X0088453Y0040264D01*
X0088457Y0040268D01*
X0088561Y0040369D01*
X008867Y0040452D01*
X0088779Y0040519D01*
X0088879Y0040573D01*
X0088929Y0040594D01*
X0088971Y0040615D01*
X0089009Y0040632D01*
X0089042Y0040645D01*
X0089067Y0040653D01*
X0089088Y0040661D01*
X0089101Y0040666D01*
X0089105D01*
X0089159Y0040682D01*
X0089222Y0040695D01*
X0089351Y0040716D01*
X0089485Y0040728D01*
X0089619Y0040741D01*
X0089678D01*
X0089736Y0040745D01*
X0089786D01*
X0089832Y0040749D01*
X00915D01*
Y0036465D01*
D02*
G37*
G36*
X0087475Y0040026D02*
X0086204D01*
Y0036465D01*
X0085339D01*
Y0040026D01*
X0084072D01*
Y0040749D01*
X0087475D01*
Y0040026D01*
D02*
G37*
G36*
X0083512Y0036465D02*
X0082647D01*
Y0038254D01*
X0082371D01*
X0082279Y0038245D01*
X0082204Y0038237D01*
X0082141Y0038228D01*
X0082095Y003822D01*
X0082061Y0038212D01*
X0082045Y0038208D01*
X0082037Y0038203D01*
X0081986Y0038183D01*
X0081936Y0038153D01*
X0081894Y0038124D01*
X0081857Y0038095D01*
X0081823Y0038065D01*
X0081798Y0038045D01*
X0081782Y0038028D01*
X0081777Y0038024D01*
X0081752Y0037995D01*
X0081723Y0037961D01*
X008169Y0037919D01*
X0081656Y0037873D01*
X0081581Y0037769D01*
X0081506Y003766D01*
X0081435Y003756D01*
X0081401Y0037518D01*
X0081376Y0037476D01*
X0081355Y0037443D01*
X0081334Y0037418D01*
X0081326Y0037401D01*
X0081322Y0037397D01*
X0080699Y0036465D01*
X0079662D01*
X0080189Y0037301D01*
X0080243Y0037393D01*
X0080298Y0037472D01*
X0080348Y0037551D01*
X0080398Y0037618D01*
X008044Y0037681D01*
X0080481Y003774D01*
X0080519Y003779D01*
X0080553Y0037836D01*
X0080582Y0037873D01*
X0080607Y0037907D01*
X0080632Y0037932D01*
X0080649Y0037957D01*
X0080661Y0037974D01*
X0080674Y0037986D01*
X0080678Y003799D01*
X0080682Y0037995D01*
X0080753Y0038065D01*
X0080828Y0038132D01*
X0080908Y0038195D01*
X0080979Y0038249D01*
X0081046Y0038291D01*
X0081071Y0038312D01*
X0081096Y0038325D01*
X0081117Y0038337D01*
X0081129Y0038346D01*
X0081138Y0038354D01*
X0081142D01*
X0081037Y0038371D01*
X0080941Y0038396D01*
X0080853Y0038421D01*
X008077Y003845D01*
X0080695Y0038484D01*
X0080624Y0038517D01*
X0080561Y003855D01*
X0080507Y0038584D01*
X0080456Y0038617D01*
X0080415Y0038647D01*
X0080377Y0038676D01*
X0080348Y0038701D01*
X0080323Y0038722D01*
X0080306Y0038739D01*
X0080298Y0038747D01*
X0080293Y0038751D01*
X0080243Y0038814D01*
X0080201Y0038876D01*
X008016Y0038939D01*
X008013Y0039006D01*
X0080101Y0039073D01*
X008008Y003914D01*
X0080043Y0039265D01*
X0080034Y0039324D01*
X0080026Y0039378D01*
X0080018Y0039424D01*
X0080013Y0039466D01*
X0080009Y0039499D01*
Y0039524D01*
Y0039541D01*
Y0039545D01*
Y0039616D01*
X0080018Y0039683D01*
X0080038Y0039813D01*
X0080068Y0039926D01*
X0080084Y0039976D01*
X0080101Y0040026D01*
X0080122Y0040068D01*
X0080139Y0040105D01*
X0080155Y0040139D01*
X0080168Y0040168D01*
X0080181Y0040189D01*
X0080189Y0040206D01*
X0080193Y0040214D01*
X0080197Y0040218D01*
X0080235Y0040273D01*
X0080273Y0040323D01*
X0080356Y0040406D01*
X008044Y0040481D01*
X0080519Y0040536D01*
X008059Y0040578D01*
X0080619Y0040594D01*
X0080649Y0040611D01*
X008067Y004062D01*
X0080686Y0040628D01*
X0080695Y0040632D01*
X0080699D01*
X0080762Y0040653D01*
X0080828Y004067D01*
X0080904Y0040686D01*
X0080983Y0040699D01*
X008115Y004072D01*
X0081313Y0040736D01*
X0081389Y0040741D01*
X008146Y0040745D01*
X0081526D01*
X0081581Y0040749D01*
X0083512D01*
Y0036465D01*
D02*
G37*
G36*
X009025Y0050762D02*
X0090367Y0050745D01*
X0090476Y0050724D01*
X0090568Y0050699D01*
X009061Y0050686D01*
X0090647Y0050674D01*
X0090681Y0050661D01*
X0090706Y0050653D01*
X0090727Y0050645D01*
X0090743Y0050636D01*
X0090752Y0050632D01*
X0090756D01*
X0090856Y0050578D01*
X0090944Y0050519D01*
X0091023Y0050457D01*
X0091086Y0050398D01*
X0091136Y0050344D01*
X0091174Y0050302D01*
X0091186Y0050285D01*
X0091195Y0050277D01*
X0091203Y0050268D01*
Y0050264D01*
X0091258Y0050172D01*
X0091308Y0050068D01*
X0091345Y0049963D01*
X0091379Y0049867D01*
X0091391Y0049821D01*
X0091404Y0049775D01*
X0091416Y0049738D01*
X0091425Y0049704D01*
X0091429Y0049679D01*
X0091433Y0049658D01*
X0091437Y0049646D01*
Y0049641D01*
X0090681Y0049516D01*
X0090664Y0049616D01*
X0090639Y00497D01*
X009061Y0049775D01*
X009058Y0049834D01*
X0090551Y004988D01*
X0090526Y0049917D01*
X0090509Y0049934D01*
X0090501Y0049942D01*
X0090442Y0049992D01*
X009038Y0050026D01*
X0090321Y0050051D01*
X0090263Y0050072D01*
X0090217Y005008D01*
X0090175Y0050084D01*
X009015Y0050089D01*
X0090141D01*
X0090066Y0050084D01*
X0089999Y0050068D01*
X0089941Y0050047D01*
X0089891Y0050026D01*
X0089849Y0050001D01*
X0089824Y004998D01*
X0089803Y0049963D01*
X0089799Y0049959D01*
X0089757Y0049909D01*
X0089723Y004985D01*
X0089703Y0049792D01*
X0089686Y0049738D01*
X0089678Y0049687D01*
X0089669Y004965D01*
Y0049633D01*
Y0049621D01*
Y0049616D01*
Y0049612D01*
X0089678Y0049524D01*
X0089698Y0049445D01*
X0089723Y0049374D01*
X0089757Y0049315D01*
X008979Y0049269D01*
X0089815Y0049236D01*
X0089836Y0049215D01*
X0089845Y0049207D01*
X0089916Y0049156D01*
X0089999Y0049119D01*
X0090083Y0049094D01*
X0090167Y0049077D01*
X0090238Y0049069D01*
X0090271Y0049064D01*
X0090355D01*
X0090442Y0048396D01*
X0090363Y0048417D01*
X0090292Y0048433D01*
X0090229Y0048442D01*
X0090175Y004845D01*
X0090129Y0048454D01*
X00901Y0048458D01*
X0090025D01*
X0089983Y004845D01*
X0089907Y0048429D01*
X0089836Y00484D01*
X0089778Y0048366D01*
X0089732Y0048333D01*
X0089694Y0048304D01*
X0089673Y0048283D01*
X0089665Y0048279D01*
Y0048274D01*
X0089611Y0048203D01*
X0089569Y0048124D01*
X008954Y004804D01*
X0089519Y0047961D01*
X0089506Y0047894D01*
X0089502Y0047865D01*
Y0047836D01*
X0089498Y0047815D01*
Y0047798D01*
Y004779D01*
Y0047785D01*
X0089506Y0047668D01*
X0089527Y0047568D01*
X0089552Y004748D01*
X0089586Y0047405D01*
X0089619Y0047347D01*
X0089644Y0047301D01*
X0089657Y0047288D01*
X0089665Y0047276D01*
X0089669Y0047271D01*
X0089673Y0047267D01*
X0089707Y0047234D01*
X008974Y0047204D01*
X0089815Y0047154D01*
X0089886Y0047121D01*
X0089953Y00471D01*
X0090012Y0047083D01*
X0090058Y0047079D01*
X0090075Y0047075D01*
X00901D01*
X0090188Y0047083D01*
X0090263Y00471D01*
X0090334Y0047125D01*
X0090392Y0047154D01*
X0090438Y0047183D01*
X0090476Y0047209D01*
X0090497Y0047225D01*
X0090505Y0047234D01*
X009056Y0047301D01*
X0090605Y0047376D01*
X0090639Y0047455D01*
X0090668Y004753D01*
X0090685Y0047597D01*
X0090693Y0047627D01*
X0090697Y0047652D01*
X0090702Y0047673D01*
X0090706Y0047689D01*
Y0047698D01*
Y0047702D01*
X00915Y0047602D01*
X0091483Y0047501D01*
X0091462Y0047409D01*
X0091437Y0047322D01*
X0091408Y0047238D01*
X009137Y0047158D01*
X0091337Y0047087D01*
X0091295Y0047021D01*
X0091258Y0046962D01*
X009122Y0046908D01*
X0091182Y0046862D01*
X0091153Y0046824D01*
X009112Y0046791D01*
X0091094Y0046761D01*
X0091078Y0046745D01*
X0091065Y0046732D01*
X0091061Y0046728D01*
X0090986Y0046669D01*
X0090911Y0046619D01*
X0090827Y0046573D01*
X0090748Y0046536D01*
X0090668Y0046502D01*
X0090585Y0046477D01*
X0090509Y0046452D01*
X0090434Y0046435D01*
X0090363Y0046423D01*
X00903Y004641D01*
X0090242Y0046402D01*
X0090192Y0046398D01*
X009015D01*
X0090121Y0046393D01*
X0090096D01*
X0089983Y0046398D01*
X0089874Y004641D01*
X0089774Y0046431D01*
X0089678Y0046456D01*
X0089586Y0046485D01*
X0089502Y0046519D01*
X0089423Y0046556D01*
X0089351Y0046594D01*
X0089289Y0046628D01*
X0089234Y0046665D01*
X0089184Y0046699D01*
X0089147Y0046728D01*
X0089113Y0046753D01*
X0089088Y0046774D01*
X0089076Y0046786D01*
X0089071Y0046791D01*
X0089Y0046866D01*
X0088933Y0046945D01*
X0088879Y0047025D01*
X0088833Y0047108D01*
X0088791Y0047188D01*
X0088758Y0047267D01*
X0088733Y0047347D01*
X0088708Y0047418D01*
X0088691Y0047489D01*
X0088678Y0047551D01*
X008867Y0047606D01*
X0088666Y0047656D01*
X0088662Y0047693D01*
X0088658Y0047723D01*
Y0047744D01*
Y0047748D01*
X0088662Y0047819D01*
X0088666Y004789D01*
X0088691Y0048015D01*
X0088729Y0048128D01*
X0088749Y0048178D01*
X0088766Y0048224D01*
X0088787Y0048266D01*
X0088808Y0048304D01*
X0088829Y0048337D01*
X0088846Y0048362D01*
X0088858Y0048383D01*
X0088871Y00484D01*
X0088875Y0048408D01*
X0088879Y0048412D01*
X0088921Y0048463D01*
X0088967Y0048509D01*
X0089013Y0048546D01*
X0089063Y0048584D01*
X0089159Y0048647D01*
X0089251Y0048693D01*
X0089335Y0048726D01*
X0089372Y0048739D01*
X0089402Y0048747D01*
X0089431Y0048755D01*
X0089448Y0048759D01*
X008946Y0048764D01*
X0089464D01*
X0089356Y0048831D01*
X0089259Y0048902D01*
X0089176Y0048973D01*
X0089105Y0049048D01*
X0089046Y0049123D01*
X0088996Y0049198D01*
X0088954Y0049273D01*
X0088921Y004934D01*
X0088896Y0049407D01*
X0088879Y004947D01*
X0088862Y0049524D01*
X0088854Y0049575D01*
X008885Y0049612D01*
X0088846Y0049641D01*
Y0049658D01*
Y0049666D01*
X008885Y0049742D01*
X0088858Y0049813D01*
X0088875Y004988D01*
X0088892Y0049946D01*
X0088942Y0050068D01*
X0088967Y0050122D01*
X0088996Y0050172D01*
X0089025Y0050218D01*
X0089051Y0050256D01*
X0089076Y0050293D01*
X0089101Y0050323D01*
X0089117Y0050344D01*
X0089134Y0050365D01*
X0089143Y0050373D01*
X0089147Y0050377D01*
X0089218Y0050444D01*
X0089293Y0050507D01*
X0089372Y0050557D01*
X0089452Y0050603D01*
X0089535Y005064D01*
X0089615Y005067D01*
X0089694Y0050695D01*
X008977Y0050716D01*
X0089845Y0050732D01*
X0089907Y0050745D01*
X008997Y0050753D01*
X009002Y0050762D01*
X0090062D01*
X0090096Y0050766D01*
X0090121D01*
X009025Y0050762D01*
D02*
G37*
G36*
X0085259D02*
X0085376Y0050745D01*
X0085485Y0050724D01*
X0085577Y0050699D01*
X0085619Y0050686D01*
X0085656Y0050674D01*
X008569Y0050661D01*
X0085715Y0050653D01*
X0085736Y0050645D01*
X0085752Y0050636D01*
X0085761Y0050632D01*
X0085765D01*
X0085865Y0050578D01*
X0085953Y0050519D01*
X0086033Y0050457D01*
X0086095Y0050398D01*
X0086145Y0050344D01*
X0086183Y0050302D01*
X0086196Y0050285D01*
X0086204Y0050277D01*
X0086212Y0050268D01*
Y0050264D01*
X0086267Y0050172D01*
X0086317Y0050068D01*
X0086354Y0049963D01*
X0086388Y0049867D01*
X00864Y0049821D01*
X0086413Y0049775D01*
X0086426Y0049738D01*
X0086434Y0049704D01*
X0086438Y0049679D01*
X0086442Y0049658D01*
X0086446Y0049646D01*
Y0049641D01*
X008569Y0049516D01*
X0085673Y0049616D01*
X0085648Y00497D01*
X0085619Y0049775D01*
X0085589Y0049834D01*
X008556Y004988D01*
X0085535Y0049917D01*
X0085518Y0049934D01*
X008551Y0049942D01*
X0085452Y0049992D01*
X0085389Y0050026D01*
X008533Y0050051D01*
X0085272Y0050072D01*
X0085226Y005008D01*
X0085184Y0050084D01*
X0085159Y0050089D01*
X0085151D01*
X0085075Y0050084D01*
X0085009Y0050068D01*
X008495Y0050047D01*
X00849Y0050026D01*
X0084858Y0050001D01*
X0084833Y004998D01*
X0084812Y0049963D01*
X0084808Y0049959D01*
X0084766Y0049909D01*
X0084733Y004985D01*
X0084712Y0049792D01*
X0084695Y0049738D01*
X0084687Y0049687D01*
X0084678Y004965D01*
Y0049633D01*
Y0049621D01*
Y0049616D01*
Y0049612D01*
X0084687Y0049524D01*
X0084707Y0049445D01*
X0084733Y0049374D01*
X0084766Y0049315D01*
X0084799Y0049269D01*
X0084825Y0049236D01*
X0084845Y0049215D01*
X0084854Y0049207D01*
X0084925Y0049156D01*
X0085009Y0049119D01*
X0085092Y0049094D01*
X0085176Y0049077D01*
X0085247Y0049069D01*
X008528Y0049064D01*
X0085364D01*
X0085452Y0048396D01*
X0085372Y0048417D01*
X0085301Y0048433D01*
X0085238Y0048442D01*
X0085184Y004845D01*
X0085138Y0048454D01*
X0085109Y0048458D01*
X0085034D01*
X0084992Y004845D01*
X0084917Y0048429D01*
X0084845Y00484D01*
X0084787Y0048366D01*
X0084741Y0048333D01*
X0084703Y0048304D01*
X0084682Y0048283D01*
X0084674Y0048279D01*
Y0048274D01*
X008462Y0048203D01*
X0084578Y0048124D01*
X0084549Y004804D01*
X0084528Y0047961D01*
X0084515Y0047894D01*
X0084511Y0047865D01*
Y0047836D01*
X0084507Y0047815D01*
Y0047798D01*
Y004779D01*
Y0047785D01*
X0084515Y0047668D01*
X0084536Y0047568D01*
X0084561Y004748D01*
X0084595Y0047405D01*
X0084628Y0047347D01*
X0084653Y0047301D01*
X0084666Y0047288D01*
X0084674Y0047276D01*
X0084678Y0047271D01*
X0084682Y0047267D01*
X0084716Y0047234D01*
X0084749Y0047204D01*
X0084825Y0047154D01*
X0084896Y0047121D01*
X0084962Y00471D01*
X0085021Y0047083D01*
X0085067Y0047079D01*
X0085084Y0047075D01*
X0085109D01*
X0085197Y0047083D01*
X0085272Y00471D01*
X0085343Y0047125D01*
X0085401Y0047154D01*
X0085447Y0047183D01*
X0085485Y0047209D01*
X0085506Y0047225D01*
X0085514Y0047234D01*
X0085569Y0047301D01*
X0085615Y0047376D01*
X0085648Y0047455D01*
X0085677Y004753D01*
X0085694Y0047597D01*
X0085702Y0047627D01*
X0085707Y0047652D01*
X0085711Y0047673D01*
X0085715Y0047689D01*
Y0047698D01*
Y0047702D01*
X0086509Y0047602D01*
X0086492Y0047501D01*
X0086471Y0047409D01*
X0086446Y0047322D01*
X0086417Y0047238D01*
X0086379Y0047158D01*
X0086346Y0047087D01*
X0086304Y0047021D01*
X0086267Y0046962D01*
X0086229Y0046908D01*
X0086191Y0046862D01*
X0086162Y0046824D01*
X0086129Y0046791D01*
X0086104Y0046761D01*
X0086087Y0046745D01*
X0086074Y0046732D01*
X008607Y0046728D01*
X0085995Y0046669D01*
X008592Y0046619D01*
X0085836Y0046573D01*
X0085757Y0046536D01*
X0085677Y0046502D01*
X0085594Y0046477D01*
X0085518Y0046452D01*
X0085443Y0046435D01*
X0085372Y0046423D01*
X0085309Y004641D01*
X0085251Y0046402D01*
X0085201Y0046398D01*
X0085159D01*
X008513Y0046393D01*
X0085105D01*
X0084992Y0046398D01*
X0084883Y004641D01*
X0084783Y0046431D01*
X0084687Y0046456D01*
X0084595Y0046485D01*
X0084511Y0046519D01*
X0084432Y0046556D01*
X0084361Y0046594D01*
X0084298Y0046628D01*
X0084244Y0046665D01*
X0084193Y0046699D01*
X0084156Y0046728D01*
X0084122Y0046753D01*
X0084097Y0046774D01*
X0084085Y0046786D01*
X008408Y0046791D01*
X0084009Y0046866D01*
X0083943Y0046945D01*
X0083888Y0047025D01*
X0083842Y0047108D01*
X00838Y0047188D01*
X0083767Y0047267D01*
X0083742Y0047347D01*
X0083717Y0047418D01*
X00837Y0047489D01*
X0083688Y0047551D01*
X0083679Y0047606D01*
X0083675Y0047656D01*
X0083671Y0047693D01*
X0083667Y0047723D01*
Y0047744D01*
Y0047748D01*
X0083671Y0047819D01*
X0083675Y004789D01*
X00837Y0048015D01*
X0083738Y0048128D01*
X0083759Y0048178D01*
X0083775Y0048224D01*
X0083796Y0048266D01*
X0083817Y0048304D01*
X0083838Y0048337D01*
X0083855Y0048362D01*
X0083867Y0048383D01*
X008388Y00484D01*
X0083884Y0048408D01*
X0083888Y0048412D01*
X008393Y0048463D01*
X0083976Y0048509D01*
X0084022Y0048546D01*
X0084072Y0048584D01*
X0084168Y0048647D01*
X008426Y0048693D01*
X0084344Y0048726D01*
X0084381Y0048739D01*
X0084411Y0048747D01*
X008444Y0048755D01*
X0084457Y0048759D01*
X0084469Y0048764D01*
X0084473D01*
X0084365Y0048831D01*
X0084269Y0048902D01*
X0084185Y0048973D01*
X0084114Y0049048D01*
X0084055Y0049123D01*
X0084005Y0049198D01*
X0083964Y0049273D01*
X008393Y004934D01*
X0083905Y0049407D01*
X0083888Y004947D01*
X0083872Y0049524D01*
X0083863Y0049575D01*
X0083859Y0049612D01*
X0083855Y0049641D01*
Y0049658D01*
Y0049666D01*
X0083859Y0049742D01*
X0083867Y0049813D01*
X0083884Y004988D01*
X0083901Y0049946D01*
X0083951Y0050068D01*
X0083976Y0050122D01*
X0084005Y0050172D01*
X0084035Y0050218D01*
X008406Y0050256D01*
X0084085Y0050293D01*
X008411Y0050323D01*
X0084127Y0050344D01*
X0084143Y0050365D01*
X0084152Y0050373D01*
X0084156Y0050377D01*
X0084227Y0050444D01*
X0084302Y0050507D01*
X0084381Y0050557D01*
X0084461Y0050603D01*
X0084544Y005064D01*
X0084624Y005067D01*
X0084703Y0050695D01*
X0084778Y0050716D01*
X0084854Y0050732D01*
X0084917Y0050745D01*
X0084979Y0050753D01*
X0085029Y0050762D01*
X0085071D01*
X0085105Y0050766D01*
X008513D01*
X0085259Y0050762D01*
D02*
G37*
G36*
X0081882Y0046465D02*
X008095D01*
X0079416Y0050749D01*
X0080335D01*
X0081389Y0047576D01*
X0082471Y0050749D01*
X0083407D01*
X0081882Y0046465D01*
D02*
G37*
G36*
X0087972D02*
X0087153D01*
Y0047284D01*
X0087972D01*
Y0046465D01*
D02*
G37*
%LPC*%
G36*
X0081731Y001901D02*
X0081702D01*
X0081648Y0019006D01*
X0081593Y0019002D01*
X0081543Y0018989D01*
X0081497Y0018973D01*
X0081414Y0018935D01*
X0081343Y0018893D01*
X0081284Y0018847D01*
X0081242Y001881D01*
X008123Y0018793D01*
X0081217Y001878D01*
X0081213Y0018776D01*
X0081209Y0018772D01*
X0081175Y0018726D01*
X0081142Y0018672D01*
X0081117Y0018613D01*
X0081096Y0018555D01*
X0081058Y0018425D01*
X0081037Y00183D01*
X0081029Y0018241D01*
X0081021Y0018183D01*
X0081016Y0018132D01*
Y0018091D01*
X0081012Y0018053D01*
Y0018028D01*
Y0018007D01*
Y0018003D01*
X0081016Y0017915D01*
X0081021Y0017836D01*
X0081029Y0017756D01*
X0081042Y0017685D01*
X0081058Y0017622D01*
X0081075Y0017564D01*
X0081092Y001751D01*
X0081113Y0017459D01*
X0081129Y0017418D01*
X008115Y001738D01*
X0081167Y0017351D01*
X008118Y0017326D01*
X0081196Y0017305D01*
X0081205Y0017292D01*
X0081209Y0017284D01*
X0081213Y001728D01*
X0081251Y0017238D01*
X0081292Y00172D01*
X008133Y0017171D01*
X0081372Y0017142D01*
X0081414Y0017121D01*
X0081455Y00171D01*
X0081531Y0017071D01*
X0081598Y0017054D01*
X0081627Y001705D01*
X0081652Y0017046D01*
X0081669Y0017041D01*
X0081698D01*
X0081761Y0017046D01*
X0081823Y0017054D01*
X0081882Y0017071D01*
X0081936Y0017092D01*
X0082028Y0017142D01*
X0082108Y00172D01*
X0082141Y001723D01*
X008217Y0017259D01*
X0082195Y0017284D01*
X0082216Y0017309D01*
X0082233Y001733D01*
X0082245Y0017346D01*
X008225Y0017355D01*
X0082254Y0017359D01*
X0082279Y0017405D01*
X00823Y0017455D01*
X0082329Y0017568D01*
X0082354Y0017689D01*
X0082371Y0017806D01*
X0082375Y0017861D01*
X0082379Y0017915D01*
X0082383Y0017961D01*
Y0018003D01*
X0082388Y0018036D01*
Y0018061D01*
Y0018078D01*
Y0018082D01*
X0082383Y0018166D01*
X0082379Y0018245D01*
X0082371Y0018316D01*
X0082358Y0018383D01*
X0082342Y0018446D01*
X0082325Y0018504D01*
X0082308Y0018555D01*
X0082287Y0018601D01*
X0082271Y0018642D01*
X0082254Y001868D01*
X0082237Y0018709D01*
X008222Y0018734D01*
X0082208Y0018751D01*
X00822Y0018764D01*
X0082191Y0018772D01*
Y0018776D01*
X0082153Y0018818D01*
X0082112Y0018856D01*
X0082074Y0018885D01*
X0082032Y001891D01*
X0081949Y0018952D01*
X0081874Y0018981D01*
X0081807Y0018998D01*
X0081777Y0019002D01*
X0081752Y0019006D01*
X0081731Y001901D01*
D02*
G37*
G36*
X0090635Y0029526D02*
X0089707D01*
X008964Y0029522D01*
X0089531D01*
X0089485Y0029518D01*
X0089418D01*
X0089393Y0029513D01*
X0089356D01*
X0089343Y0029509D01*
X0089331D01*
X0089255Y0029493D01*
X0089193Y0029467D01*
X0089134Y0029442D01*
X0089088Y0029413D01*
X0089051Y0029388D01*
X0089025Y0029363D01*
X0089009Y0029346D01*
X0089004Y0029342D01*
X0088967Y0029288D01*
X0088938Y0029229D01*
X0088917Y0029171D01*
X00889Y0029116D01*
X0088892Y0029066D01*
X0088888Y0029028D01*
Y0029012D01*
Y0028999D01*
Y0028995D01*
Y0028991D01*
X0088892Y0028924D01*
X00889Y0028861D01*
X0088917Y0028803D01*
X0088929Y0028757D01*
X0088946Y0028719D01*
X0088963Y0028694D01*
X0088971Y0028673D01*
X0088975Y0028669D01*
X0089013Y0028627D01*
X0089051Y002859D01*
X0089092Y0028556D01*
X008913Y0028531D01*
X0089168Y0028514D01*
X0089197Y0028502D01*
X0089214Y0028493D01*
X0089222Y0028489D01*
X0089255Y0028481D01*
X0089301Y0028473D01*
X0089351Y0028464D01*
X0089406Y002846D01*
X0089468Y0028456D01*
X0089535Y0028452D01*
X0089665Y0028447D01*
X0089732Y0028443D01*
X008979D01*
X0089849Y0028439D01*
X0090635D01*
Y0029526D01*
D02*
G37*
G36*
Y0040026D02*
X0090062D01*
X0089983Y0040022D01*
X0089912Y0040018D01*
X0089845D01*
X0089786Y0040013D01*
X0089736Y0040009D01*
X008969Y0040005D01*
X0089652Y0040001D01*
X0089619Y0039997D01*
X0089594Y0039992D01*
X0089573D01*
X0089556Y0039988D01*
X0089544Y0039984D01*
X0089535D01*
X0089448Y0039959D01*
X0089368Y003993D01*
X0089301Y0039896D01*
X0089243Y0039863D01*
X0089197Y0039829D01*
X0089163Y0039804D01*
X0089143Y0039788D01*
X0089134Y0039779D01*
X008908Y0039721D01*
X008903Y0039654D01*
X0088988Y0039583D01*
X008895Y0039516D01*
X0088925Y0039457D01*
X0088904Y0039412D01*
X0088896Y0039391D01*
X0088892Y0039378D01*
X0088888Y003937D01*
Y0039366D01*
X0088871Y0039315D01*
X0088858Y0039257D01*
X0088833Y0039136D01*
X0088816Y003901D01*
X0088808Y0038885D01*
X0088804Y0038831D01*
X00888Y0038776D01*
Y003873D01*
X0088796Y0038688D01*
Y0038651D01*
Y0038626D01*
Y0038609D01*
Y0038605D01*
Y0038513D01*
X00888Y0038429D01*
X0088804Y0038346D01*
X0088808Y003827D01*
X0088816Y0038203D01*
X0088825Y0038137D01*
X0088833Y0038078D01*
X0088841Y0038024D01*
X008885Y0037978D01*
X0088858Y0037936D01*
X0088867Y0037903D01*
X0088875Y0037873D01*
X0088879Y0037848D01*
X0088883Y0037831D01*
X0088888Y0037823D01*
Y0037819D01*
X0088921Y0037719D01*
X0088959Y0037631D01*
X0088996Y003756D01*
X0089034Y0037505D01*
X0089063Y0037459D01*
X0089088Y003743D01*
X0089109Y0037409D01*
X0089113Y0037405D01*
X0089168Y0037363D01*
X0089226Y0037326D01*
X0089285Y0037292D01*
X0089339Y0037267D01*
X0089389Y003725D01*
X0089427Y0037238D01*
X0089456Y0037229D01*
X008946Y0037225D01*
X0089464D01*
X0089498Y0037217D01*
X0089531Y0037213D01*
X0089615Y0037204D01*
X0089698Y0037196D01*
X0089786Y0037192D01*
X0089861D01*
X0089899Y0037188D01*
X0090635D01*
Y0040026D01*
D02*
G37*
G36*
X0082647D02*
X0081719D01*
X0081652Y0040022D01*
X0081543D01*
X0081497Y0040018D01*
X008143D01*
X0081405Y0040013D01*
X0081368D01*
X0081355Y0040009D01*
X0081343D01*
X0081267Y0039992D01*
X0081205Y0039967D01*
X0081146Y0039942D01*
X00811Y0039913D01*
X0081063Y0039888D01*
X0081037Y0039863D01*
X0081021Y0039846D01*
X0081016Y0039842D01*
X0080979Y0039788D01*
X008095Y0039729D01*
X0080929Y0039671D01*
X0080912Y0039616D01*
X0080904Y0039566D01*
X00809Y0039529D01*
Y0039512D01*
Y0039499D01*
Y0039495D01*
Y0039491D01*
X0080904Y0039424D01*
X0080912Y0039361D01*
X0080929Y0039303D01*
X0080941Y0039257D01*
X0080958Y0039219D01*
X0080975Y0039194D01*
X0080983Y0039173D01*
X0080987Y0039169D01*
X0081025Y0039127D01*
X0081063Y003909D01*
X0081104Y0039056D01*
X0081142Y0039031D01*
X008118Y0039014D01*
X0081209Y0039002D01*
X0081226Y0038993D01*
X0081234Y0038989D01*
X0081267Y0038981D01*
X0081313Y0038973D01*
X0081363Y0038964D01*
X0081418Y003896D01*
X008148Y0038956D01*
X0081547Y0038952D01*
X0081677Y0038947D01*
X0081744Y0038943D01*
X0081802D01*
X0081861Y0038939D01*
X0082647D01*
Y0040026D01*
D02*
G37*
%LPD*%
D10*
X0136458Y0049843D02*
X0137835Y0048465D01*
X0135918Y0049843D02*
X0136458D01*
Y0047087D02*
X0137835Y0048465D01*
X0135918Y0047087D02*
X0136458D01*
X0105335Y0051465D02*
Y0053465D01*
Y0051465D02*
X0107335D01*
Y0050465D02*
Y0051465D01*
Y0045465D02*
Y0050465D01*
X0105335Y0045465D02*
X0107335D01*
X0105335Y0043465D02*
Y0045465D01*
Y0053465D02*
X0115335D01*
Y0043465D02*
Y0053465D01*
Y0047087D02*
X0135918D01*
X0115335Y0049843D02*
X0135918D01*
X0115335Y0019842D02*
X0135918D01*
X0115335Y0017087D02*
X0135918D01*
X0105335Y0013465D02*
X0115335D01*
Y0023465D01*
X0105335Y0013465D02*
Y0015465D01*
X0107335D01*
Y0020465D01*
Y0021465D01*
X0105335D02*
X0107335D01*
X0105335D02*
Y0023465D01*
X0135918Y0017087D02*
X0136458D01*
X0137835Y0018465D01*
X0135918Y0019842D02*
X0136458D01*
X0137835Y0018465D01*
X0136458Y0029842D02*
X0137835Y0028465D01*
X0135918Y0029842D02*
X0136458D01*
Y0027087D02*
X0137835Y0028465D01*
X0135918Y0027087D02*
X0136458D01*
X0105335Y0031465D02*
Y0033465D01*
Y0031465D02*
X0107335D01*
Y0030465D02*
Y0031465D01*
Y0025465D02*
Y0030465D01*
X0105335Y0025465D02*
X0107335D01*
X0105335Y0023465D02*
Y0025465D01*
X0115335Y0023465D02*
Y0033465D01*
Y0027087D02*
X0135918D01*
X0115335Y0029842D02*
X0135918D01*
X0115335Y0039843D02*
X0135918D01*
X0115335Y0037087D02*
X0135918D01*
X0115335Y0033465D02*
Y0043465D01*
X0105335Y0033465D02*
Y0035465D01*
X0107335D01*
Y0040465D01*
Y0041465D01*
X0105335D02*
X0107335D01*
X0105335D02*
Y0043465D01*
X0135918Y0037087D02*
X0136458D01*
X0137835Y0038465D01*
X0135918Y0039843D02*
X0136458D01*
X0137835Y0038465D01*
X0078Y0043465D02*
X0105335D01*
X0078Y0033465D02*
X0105335D01*
X0078Y0023465D02*
X0105335D01*
X0078Y0013465D02*
X0105335D01*
X0078D02*
Y0053465D01*
X0105335D01*
D16*
X0054813Y0005651D02*
X0054625Y0005464D01*
X0054813Y0005276D01*
X0055Y0005464D01*
Y0005651D01*
X0054813Y0006026D01*
X0054625Y0006213D01*
X0054063Y0006401D01*
X0053313D01*
X0052751Y0006213D01*
X0052563Y0006026D01*
X0052376Y0005651D01*
Y0005276D01*
X0052563Y0004901D01*
X0053126Y0004526D01*
X0054063Y0004152D01*
X0054438Y0003964D01*
X0054813Y0003589D01*
X0055Y0003027D01*
Y0002465D01*
X0053313Y0006401D02*
X0052938Y0006213D01*
X0052751Y0006026D01*
X0052563Y0005651D01*
Y0005276D01*
X0052751Y0004901D01*
X0053313Y0004526D01*
X0054063Y0004152D01*
X0055Y0002839D02*
X0054813Y0003027D01*
X0054438D01*
X00535Y0002652D01*
X0052938D01*
X0052563Y0002839D01*
X0052376Y0003027D01*
Y0003402D01*
X0054438Y0003027D02*
X00535Y0002465D01*
X0052751D01*
X0052563Y0002652D01*
X0052376Y0003027D01*
X005067Y0006401D02*
X0051232Y0006213D01*
X0051607Y0005651D01*
X0051795Y0004714D01*
Y0004152D01*
X0051607Y0003214D01*
X0051232Y0002652D01*
X005067Y0002465D01*
X0050295D01*
X0049733Y0002652D01*
X0049358Y0003214D01*
X0049171Y0004152D01*
Y0004714D01*
X0049358Y0005651D01*
X0049733Y0006213D01*
X0050295Y0006401D01*
X005067D01*
X0051045Y0006213D01*
X0051232Y0006026D01*
X005142Y0005651D01*
X0051607Y0004714D01*
Y0004152D01*
X005142Y0003214D01*
X0051232Y0002839D01*
X0051045Y0002652D01*
X005067Y0002465D01*
X0050295D02*
X004992Y0002652D01*
X0049733Y0002839D01*
X0049546Y0003214D01*
X0049358Y0004152D01*
Y0004714D01*
X0049546Y0005651D01*
X0049733Y0006026D01*
X004992Y0006213D01*
X0050295Y0006401D01*
X0048402Y0005651D02*
X0048215Y0005464D01*
X0048402Y0005276D01*
X004859Y0005464D01*
Y0005651D01*
X0048402Y0006026D01*
X0048215Y0006213D01*
X0047653Y0006401D01*
X0046903D01*
X004634Y0006213D01*
X0046153Y0006026D01*
X0045966Y0005651D01*
Y0005276D01*
X0046153Y0004901D01*
X0046715Y0004526D01*
X0047653Y0004152D01*
X0048027Y0003964D01*
X0048402Y0003589D01*
X004859Y0003027D01*
Y0002465D01*
X0046903Y0006401D02*
X0046528Y0006213D01*
X004634Y0006026D01*
X0046153Y0005651D01*
Y0005276D01*
X004634Y0004901D01*
X0046903Y0004526D01*
X0047653Y0004152D01*
X004859Y0002839D02*
X0048402Y0003027D01*
X0048027D01*
X004709Y0002652D01*
X0046528D01*
X0046153Y0002839D01*
X0045966Y0003027D01*
Y0003402D01*
X0048027Y0003027D02*
X004709Y0002465D01*
X004634D01*
X0046153Y0002652D01*
X0045966Y0003027D01*
X0045197Y0005651D02*
X004501Y0005464D01*
X0045197Y0005276D01*
X0045384Y0005464D01*
Y0005651D01*
X0045197Y0006026D01*
X004501Y0006213D01*
X0044447Y0006401D01*
X0043698D01*
X0043135Y0006213D01*
X0042948Y0006026D01*
X004276Y0005651D01*
Y0005276D01*
X0042948Y0004901D01*
X004351Y0004526D01*
X0044447Y0004152D01*
X0044822Y0003964D01*
X0045197Y0003589D01*
X0045384Y0003027D01*
Y0002465D01*
X0043698Y0006401D02*
X0043323Y0006213D01*
X0043135Y0006026D01*
X0042948Y0005651D01*
Y0005276D01*
X0043135Y0004901D01*
X0043698Y0004526D01*
X0044447Y0004152D01*
X0045384Y0002839D02*
X0045197Y0003027D01*
X0044822D01*
X0043885Y0002652D01*
X0043323D01*
X0042948Y0002839D01*
X004276Y0003027D01*
Y0003402D01*
X0044822Y0003027D02*
X0043885Y0002465D01*
X0043135D01*
X0042948Y0002652D01*
X004276Y0003027D01*
X0042179Y0004152D02*
X0038805D01*
X0037175Y0006401D02*
X0037737Y0006213D01*
X0038112Y0005651D01*
X0038299Y0004714D01*
Y0004152D01*
X0038112Y0003214D01*
X0037737Y0002652D01*
X0037175Y0002465D01*
X00368D01*
X0036238Y0002652D01*
X0035863Y0003214D01*
X0035675Y0004152D01*
Y0004714D01*
X0035863Y0005651D01*
X0036238Y0006213D01*
X00368Y0006401D01*
X0037175D01*
X003755Y0006213D01*
X0037737Y0006026D01*
X0037925Y0005651D01*
X0038112Y0004714D01*
Y0004152D01*
X0037925Y0003214D01*
X0037737Y0002839D01*
X003755Y0002652D01*
X0037175Y0002465D01*
X00368D02*
X0036425Y0002652D01*
X0036238Y0002839D01*
X003605Y0003214D01*
X0035863Y0004152D01*
Y0004714D01*
X003605Y0005651D01*
X0036238Y0006026D01*
X0036425Y0006213D01*
X00368Y0006401D01*
X003322Y0006026D02*
Y0002465D01*
X0032095Y0003589D02*
X0035094D01*
X0033033Y0006401D01*
Y0002465D01*
X0033782D02*
X003247D01*
X0031552Y0004152D02*
X0028178D01*
X0025797Y0006026D02*
Y0002465D01*
X0024673Y0003589D02*
X0027672D01*
X002561Y0006401D01*
Y0002465D01*
X002636D02*
X0025048D01*
X0074325Y0030188D02*
Y0025465D01*
X00741Y0030188D02*
Y0025465D01*
Y0027939D02*
X007365Y0028389D01*
X0073201Y0028613D01*
X0072751D01*
X0072076Y0028389D01*
X0071626Y0027939D01*
X0071401Y0027264D01*
Y0026814D01*
X0071626Y0026139D01*
X0072076Y002569D01*
X0072751Y0025465D01*
X0073201D01*
X007365Y002569D01*
X00741Y0026139D01*
X0072751Y0028613D02*
X0072301Y0028389D01*
X0071851Y0027939D01*
X0071626Y0027264D01*
Y0026814D01*
X0071851Y0026139D01*
X0072301Y002569D01*
X0072751Y0025465D01*
X0075Y0030188D02*
X00741D01*
X0070299Y0028613D02*
X006895Y0025465D01*
X0070074Y0028613D02*
X006895Y0025914D01*
X00676Y0028613D02*
X006895Y0025465D01*
X0069399Y0024565D01*
X0069849Y0024115D01*
X0070299Y002389D01*
X0070524D01*
X0070749Y0024115D01*
X0070524Y002434D01*
X0070299Y0024115D01*
X0070749Y0028613D02*
X0069399D01*
X00685D02*
X006715D01*
X0055313Y0033465D02*
X0055594Y0033746D01*
X0055875Y0034589D01*
Y0039369D01*
X0056156D01*
Y0034589D01*
X0055875Y0033746D01*
X0055313Y0033465D01*
X0054751D01*
X0054188Y0033746D01*
X0053907Y0034308D01*
X0057Y0037401D02*
X0054751D01*
X0051264D02*
X0052108Y003712D01*
X005267Y0036557D01*
X0052951Y0035714D01*
Y0035151D01*
X005267Y0034308D01*
X0052108Y0033746D01*
X0051264Y0033465D01*
X0050702D01*
X0049859Y0033746D01*
X0049296Y0034308D01*
X0049015Y0035151D01*
Y0035714D01*
X0049296Y0036557D01*
X0049859Y003712D01*
X0050702Y0037401D01*
X0051264D01*
X0051827Y003712D01*
X0052389Y0036557D01*
X005267Y0035714D01*
Y0035151D01*
X0052389Y0034308D01*
X0051827Y0033746D01*
X0051264Y0033465D01*
X0050702D02*
X005014Y0033746D01*
X0049578Y0034308D01*
X0049296Y0035151D01*
Y0035714D01*
X0049578Y0036557D01*
X005014Y003712D01*
X0050702Y0037401D01*
X0040862Y0039369D02*
Y0033465D01*
X0040581Y0039369D02*
Y0033465D01*
X0042549Y0039369D02*
X004283Y0037682D01*
Y0039369D01*
X0038612D01*
Y0037682D01*
X0038894Y0039369D01*
X0041705Y0033465D02*
X0039737D01*
X0035801Y0039369D02*
Y0033465D01*
X003552Y0039369D02*
Y0033465D01*
X0037488Y0039369D02*
X0037769Y0037682D01*
Y0039369D01*
X0033552D01*
Y0037682D01*
X0033833Y0039369D01*
X0036644Y0033465D02*
X0034676D01*
X0031865Y0039369D02*
Y0033465D01*
X0031584Y0039369D02*
Y0033465D01*
X0032708Y0039369D02*
X003074D01*
X0032708Y0033465D02*
X0028491D01*
Y0035151D01*
X0028772Y0033465D01*
D50*
X0074656Y0048369D02*
Y0044151D01*
X0074375Y0043308D01*
X0073813Y0042746D01*
X007297Y0042465D01*
X0072407D01*
X0071564Y0042746D01*
X0071001Y0043308D01*
X007072Y0044151D01*
Y0048369D01*
X0074375D02*
Y0044151D01*
X0074094Y0043308D01*
X0073532Y0042746D01*
X007297Y0042465D01*
X00755Y0048369D02*
X0073532D01*
X0071564D02*
X0069877D01*
X0065519Y0047525D02*
X0065238Y0048369D01*
Y0046682D01*
X0065519Y0047525D01*
X0066081Y0048088D01*
X0066925Y0048369D01*
X0067768D01*
X0068612Y0048088D01*
X0069174Y0047525D01*
Y0046963D01*
X0068893Y0046401D01*
X0068612Y004612D01*
X0068049Y0045838D01*
X0066363Y0045276D01*
X00658Y0044995D01*
X0065238Y0044433D01*
X0069174Y0046963D02*
X0068612Y0046401D01*
X0068049Y004612D01*
X0066363Y0045557D01*
X00658Y0045276D01*
X0065519Y0044995D01*
X0065238Y0044433D01*
Y0043308D01*
X00658Y0042746D01*
X0066644Y0042465D01*
X0067487D01*
X0068331Y0042746D01*
X0068893Y0043308D01*
X0069174Y0044151D01*
Y0042465D01*
X0068893Y0043308D01*
X0063523Y0048369D02*
Y0042465D01*
X0063242Y0048369D02*
Y0042465D01*
X0064366Y0048369D02*
X0060992D01*
X0060149Y0048088D01*
X0059868Y0047807D01*
X0059587Y0047244D01*
Y0046682D01*
X0059868Y004612D01*
X0060149Y0045838D01*
X0060992Y0045557D01*
Y0048369D02*
X006043Y0048088D01*
X0060149Y0047807D01*
X0059868Y0047244D01*
Y0046682D01*
X0060149Y004612D01*
X006043Y0045838D01*
X0060992Y0045557D01*
X0063242D02*
X0060992D01*
X0060149Y0045276D01*
X0059868Y0044995D01*
X0059587Y0044433D01*
Y0043589D01*
X0059868Y0043027D01*
X0060149Y0042746D01*
X0060992Y0042465D01*
X0064366D01*
X0060992Y0045557D02*
X006043Y0045276D01*
X0060149Y0044995D01*
X0059868Y0044433D01*
Y0043589D01*
X0060149Y0043027D01*
X006043Y0042746D01*
X0060992Y0042465D01*
D59*
X00666Y0021865D02*
X00668D01*
X0073Y0021665D02*
X00732D01*
X00666D02*
X00672D01*
X0073Y0021465D02*
X00734D01*
X00666D02*
X00676D01*
X00552D02*
X0057D01*
X00484D02*
X00502D01*
X0073Y0021265D02*
X00736D01*
X00666D02*
X0068D01*
X00552D02*
X0057D01*
X00484D02*
X00502D01*
X0073Y0021065D02*
X00738D01*
X00666D02*
X00682D01*
X00552D02*
X0057D01*
X00484D02*
X00502D01*
X0073Y0020865D02*
X0074D01*
X00626D02*
X00718D01*
X00552D02*
X0057D01*
X00484D02*
X00502D01*
X0073Y0020665D02*
X00742D01*
X00626D02*
X00718D01*
X0053D02*
X00588D01*
X0046D02*
X00518D01*
X0073Y0020465D02*
X00744D01*
X00626D02*
X00718D01*
X0053D02*
X0059D01*
X0046D02*
X0052D01*
X0073Y0020265D02*
X00748D01*
X00626D02*
X00718D01*
X0053D02*
X0059D01*
X0046D02*
X00522D01*
X0073Y0020065D02*
X00748D01*
X00626D02*
X00718D01*
X0053D02*
X00592D01*
X0046D02*
X00522D01*
X0073Y0019865D02*
X00748D01*
X00626D02*
X00718D01*
X0053D02*
X00592D01*
X0046D02*
X00524D01*
X0073Y0019665D02*
X00748D01*
X00626D02*
X00718D01*
X0053D02*
X00594D01*
X0046D02*
X00524D01*
X0073Y0019465D02*
X00748D01*
X00626D02*
X00718D01*
X0053D02*
X00596D01*
X0046D02*
X00526D01*
X0073Y0019265D02*
X00748D01*
X007D02*
X00718D01*
X00626D02*
X00644D01*
X0053D02*
X00596D01*
X0046D02*
X00528D01*
X0073Y0019065D02*
X00748D01*
X007D02*
X00718D01*
X00626D02*
X00644D01*
X00552D02*
X0057D01*
X00484D02*
X00502D01*
X0073Y0018865D02*
X00748D01*
X007D02*
X00718D01*
X00626D02*
X00644D01*
X00552D02*
X0057D01*
X00484D02*
X00502D01*
X0073Y0018665D02*
X00748D01*
X007D02*
X00718D01*
X00626D02*
X00644D01*
X00576D02*
X00594D01*
X00552D02*
X0057D01*
X0053D02*
X00548D01*
X00506D02*
X00524D01*
X00484D02*
X00502D01*
X0046D02*
X00478D01*
X0073Y0018465D02*
X00748D01*
X007D02*
X00718D01*
X00626D02*
X00644D01*
X00576D02*
X00594D01*
X00552D02*
X0057D01*
X0053D02*
X00548D01*
X00506D02*
X00524D01*
X00484D02*
X00502D01*
X0046D02*
X00478D01*
X0073Y0018265D02*
X00748D01*
X007D02*
X00718D01*
X00626D02*
X00644D01*
X00576D02*
X00594D01*
X00552D02*
X0057D01*
X0053D02*
X00548D01*
X00506D02*
X00524D01*
X00484D02*
X00502D01*
X0046D02*
X00478D01*
X007Y0018065D02*
X00718D01*
X00626D02*
X00644D01*
X00576D02*
X00594D01*
X00552D02*
X0057D01*
X0053D02*
X00548D01*
X00506D02*
X00524D01*
X00484D02*
X00502D01*
X0046D02*
X00478D01*
X007Y0017865D02*
X00718D01*
X00626D02*
X00644D01*
X00576D02*
X00594D01*
X00552D02*
X0057D01*
X0053D02*
X00548D01*
X00506D02*
X00524D01*
X00484D02*
X00502D01*
X0046D02*
X00478D01*
X00626Y0017665D02*
X00718D01*
X00576D02*
X00594D01*
X00552D02*
X0057D01*
X0053D02*
X00548D01*
X00506D02*
X00524D01*
X00484D02*
X00502D01*
X0046D02*
X00478D01*
X0073Y0017465D02*
X00754D01*
X00626D02*
X00718D01*
X00576D02*
X00594D01*
X00552D02*
X0057D01*
X0053D02*
X00548D01*
X00506D02*
X00524D01*
X00484D02*
X00502D01*
X0046D02*
X00478D01*
X0073Y0017265D02*
X00756D01*
X00628D02*
X00718D01*
X00576D02*
X00594D01*
X00552D02*
X0057D01*
X0053D02*
X00548D01*
X00506D02*
X00524D01*
X00484D02*
X00502D01*
X0046D02*
X00478D01*
X0073Y0017065D02*
X00756D01*
X0063D02*
X00718D01*
X00576D02*
X00594D01*
X00552D02*
X0057D01*
X0053D02*
X00548D01*
X00506D02*
X00524D01*
X00484D02*
X00502D01*
X0046D02*
X00478D01*
X0073Y0016865D02*
X00758D01*
X00632D02*
X00718D01*
X00576D02*
X00594D01*
X00552D02*
X0057D01*
X0053D02*
X00548D01*
X00506D02*
X00524D01*
X00484D02*
X00502D01*
X0046D02*
X00478D01*
X0073Y0016665D02*
X00758D01*
X00576D02*
X00594D01*
X00552D02*
X0057D01*
X0053D02*
X00548D01*
X00506D02*
X00524D01*
X00484D02*
X00502D01*
X0046D02*
X00478D01*
X0073Y0016465D02*
X0076D01*
X00636D02*
X00718D01*
X00576D02*
X00594D01*
X00552D02*
X0057D01*
X0053D02*
X00548D01*
X00506D02*
X00524D01*
X00484D02*
X00502D01*
X0046D02*
X00478D01*
X0073Y0016265D02*
X00762D01*
X00638D02*
X00718D01*
X00576D02*
X00594D01*
X00552D02*
X0057D01*
X0053D02*
X00548D01*
X00506D02*
X00524D01*
X00484D02*
X00502D01*
X0046D02*
X00478D01*
X0073Y0016065D02*
X00762D01*
X007D02*
X00718D01*
X00576D02*
X00594D01*
X00552D02*
X0057D01*
X0053D02*
X00548D01*
X00508D02*
X00524D01*
X00484D02*
X00502D01*
X00462D02*
X00478D01*
X0073Y0015865D02*
X00762D01*
X007D02*
X00718D01*
X0058D02*
X00594D01*
X00552D02*
X0057D01*
X00534D02*
X00548D01*
X0051D02*
X00524D01*
X00484D02*
X00502D01*
X00464D02*
X00478D01*
X0073Y0015665D02*
X00748D01*
X007D02*
X00718D01*
X00582D02*
X00594D01*
X00552D02*
X0057D01*
X00536D02*
X00548D01*
X00514D02*
X00524D01*
X00484D02*
X00502D01*
X00468D02*
X00478D01*
X0073Y0015465D02*
X00748D01*
X007D02*
X00718D01*
X00586D02*
X00594D01*
X00552D02*
X0057D01*
X0054D02*
X00548D01*
X00516D02*
X00524D01*
X00484D02*
X00502D01*
X0047D02*
X00478D01*
X0073Y0015265D02*
X00748D01*
X007D02*
X00718D01*
X00588D02*
X00594D01*
X00552D02*
X0057D01*
X00542D02*
X00548D01*
X0052D02*
X00524D01*
X00484D02*
X00502D01*
X00474D02*
X00478D01*
X0073Y0015065D02*
X00748D01*
X007D02*
X00718D01*
X00592D02*
X00594D01*
X00546D02*
X00548D01*
X00522D02*
X00524D01*
X00476D02*
X00478D01*
X0073Y0014865D02*
X00748D01*
X00622D02*
X00718D01*
X00568D02*
X00588D01*
X0073Y0014665D02*
X00748D01*
X00622D02*
X00718D01*
X00568D02*
X00588D01*
X0073Y0014465D02*
X00748D01*
X00622D02*
X00718D01*
X00568D02*
X00588D01*
X0073Y0014265D02*
X00748D01*
X00622D02*
X00718D01*
X00464D02*
X00588D01*
X0073Y0014065D02*
X00748D01*
X00622D02*
X00718D01*
X00464D02*
X00588D01*
X0073Y0013865D02*
X00748D01*
X00622D02*
X00718D01*
X00464D02*
X00588D01*
X0073Y0013665D02*
X00748D01*
X00622D02*
X00718D01*
X00464D02*
X00588D01*
X0073Y0013465D02*
X00748D01*
X00622D02*
X00718D01*
X00464D02*
X00588D01*
X0073Y0013265D02*
X00748D01*
X007D02*
X00718D01*
X00622D02*
X0064D01*
X00464D02*
X00588D01*
X0073Y0013065D02*
X00748D01*
X007D02*
X00718D01*
X00622D02*
X0064D01*
X00464D02*
X00588D01*
X0073Y0012865D02*
X00748D01*
X007D02*
X00718D01*
X00622D02*
X0064D01*
X00464D02*
X00588D01*
X0073Y0012665D02*
X00748D01*
X007D02*
X00718D01*
X00622D02*
X0064D01*
X00568D02*
X00588D01*
X00464D02*
X00482D01*
X0073Y0012465D02*
X00748D01*
X007D02*
X00718D01*
X00622D02*
X0064D01*
X00568D02*
X00588D01*
X00518D02*
X00538D01*
X00464D02*
X00482D01*
X0073Y0012265D02*
X00748D01*
X007D02*
X00718D01*
X00622D02*
X0064D01*
X00568D02*
X00588D01*
X00518D02*
X00538D01*
X00464D02*
X00482D01*
X0073Y0012065D02*
X00748D01*
X007D02*
X00718D01*
X00622D02*
X0064D01*
X00568D02*
X00588D01*
X00518D02*
X00538D01*
X00464D02*
X00482D01*
X0073Y0011865D02*
X00748D01*
X007D02*
X00718D01*
X00622D02*
X0064D01*
X00568D02*
X00588D01*
X00518D02*
X00538D01*
X00464D02*
X00482D01*
X0073Y0011665D02*
X00748D01*
X00622D02*
X00718D01*
X00568D02*
X00588D01*
X00518D02*
X00538D01*
X00464D02*
X00482D01*
X0073Y0011465D02*
X00748D01*
X00624D02*
X00718D01*
X00574D02*
X00588D01*
X00518D02*
X00538D01*
X00464D02*
X00492D01*
X0073Y0011265D02*
X00748D01*
X00626D02*
X00718D01*
X00578D02*
X00588D01*
X00518D02*
X00538D01*
X00464D02*
X00504D01*
X0073Y0011065D02*
X00748D01*
X00628D02*
X00718D01*
X00584D02*
X00588D01*
X00528D02*
X00538D01*
X00464D02*
X00514D01*
X0073Y0010865D02*
X00748D01*
X0063D02*
X00718D01*
X00464D02*
X00526D01*
X0073Y0010665D02*
X00748D01*
X00632D02*
X00718D01*
X00464D02*
X00538D01*
X0073Y0010465D02*
X00748D01*
X00634D02*
X00718D01*
X00464D02*
X00548D01*
X0073Y0010265D02*
X00748D01*
X00636D02*
X00718D01*
X00464D02*
X0056D01*
X0073Y0010065D02*
X00748D01*
X00472D02*
X0057D01*
X0073Y0009865D02*
X00748D01*
X00482D02*
X00582D01*
X0073Y0009665D02*
X0075D01*
X00494D02*
X0059D01*
X0073Y0009465D02*
X0075D01*
X00504D02*
X0059D01*
X00616Y0009265D02*
X00752D01*
X00516D02*
X0059D01*
X00618Y0009065D02*
X00754D01*
X00526D02*
X0059D01*
X0062Y0008865D02*
X00754D01*
X00538D02*
X0059D01*
X0062Y0008665D02*
X00756D01*
X00548D02*
X0059D01*
X00622Y0008465D02*
X00756D01*
X0056D02*
X0059D01*
X00624Y0008265D02*
X00758D01*
X0057D02*
X0059D01*
X00624Y0008065D02*
X00758D01*
X00582D02*
X0059D01*
X00626Y0007865D02*
X00758D01*
X00634Y0016665D02*
X00718D01*
M02*
