M48
;Layer_Color=9474304
;FILE_FORMAT=2:5
INCH,LZ
;TYPE=PLATED
T1F00S00C0.01181
T2F00S00C0.01200
T3F00S00C0.01378
T4F00S00C0.02559
T6F00S00C0.03543
T7F00S00C0.04331
%
T01
X0015Y0004465
X0019
X0023
Y0008465
X0036Y0009465
X0037Y00245
X0043Y0037465
X00713Y0045365
X0072Y0053465
X0067Y0052465
X0082Y0053465
X0086
X009
X00885Y0057965
Y0060965
X0085
Y0057965
X00815
Y0060965
X00785Y0059365
X00913
X0104Y0062465
X0107Y0057465
X0111
Y0061465
X009Y00445
X0089Y0012465
X0093
X0091Y0008465
X0103
X0107
Y0004465
X0111
Y0008465
X0102Y0012465
X0079Y0014465
X0075
X0066
X0072Y0006365
Y0003065
X0078Y0004865
X0006Y0017465
Y0021465
Y0025465
Y0029465
Y0033465
Y0037465
X0023Y0054465
Y0058465
Y0062465
T02
X004761Y0006152
X005275Y0006265
X00672Y0023365
X0039612Y0048965
T03
X00366Y0048965
X004645Y0046715
X00527Y0046665
T04
X0087753Y0005466
X0094446
T06
X0019874Y0019516
Y0029579
Y0037454
Y0047517
T07
X0012Y0024606
Y0042323
M30
