M48
;Layer_Color=9474304
;FILE_FORMAT=2:5
INCH,LZ
;TYPE=PLATED
T1F00S00C0.01200
T3F00S00C0.02500
T4F00S00C0.02559
T5F00S00C0.02800
%
T01
X00075Y002
Y00275
Y0035
X002Y0036
Y0044
X0016Y004
Y0048
Y00545
X00075Y0055
X0033Y0047
X00258Y00216
X00238Y00235
X003Y00052
X0035Y00075
X00425Y00175
X004Y002
X0040406Y0026094
X00485Y0026
X00535
X00525Y00375
X00625
X0061664Y004723
X00675Y00467
X0075Y004
Y00365
X0081Y00345
X00825Y00475
X0086
X01028Y00498
X0119029Y00525
X01025Y002
X00975
X00955Y00055
X00925Y00025
X00825
X00771Y0006
X00715Y00165
X00675Y00154
X00625
X00575
X00535Y0013
X00831Y00167
X0110823Y0008575
X00385Y00356
X00419Y00472
X00375Y00575
X00475
X0065
X0104
X0118
T03
X00301Y00545
T04
X0024358Y0018622
Y0041378
X0080154Y0054533
X0086847
T05
X00915Y004
M30
