G04*
G04 #@! TF.GenerationSoftware,Altium Limited,Altium Designer,22.3.1 (43)*
G04*
G04 Layer_Color=32896*
%FSLAX25Y25*%
%MOIN*%
G70*
G04*
G04 #@! TF.SameCoordinates,ABD1A1CB-370B-4326-B327-FACD84D75C70*
G04*
G04*
G04 #@! TF.FilePolarity,Positive*
G04*
G01*
G75*
%ADD17C,0.00600*%
%ADD20C,0.00598*%
%ADD65C,0.00200*%
G36*
X98687Y13064D02*
X97967D01*
Y15580D01*
X96415Y13064D01*
X95635D01*
Y16907D01*
X96355D01*
Y14335D01*
X97934Y16907D01*
X98687D01*
Y13064D01*
D02*
G37*
G36*
X101196Y16971D02*
X101290Y16967D01*
X101384Y16956D01*
X101470Y16945D01*
X101549Y16930D01*
X101628Y16915D01*
X101695Y16896D01*
X101759Y16878D01*
X101815Y16859D01*
X101867Y16840D01*
X101912Y16825D01*
X101946Y16810D01*
X101976Y16799D01*
X101995Y16788D01*
X102010Y16784D01*
X102014Y16780D01*
X102100Y16731D01*
X102182Y16679D01*
X102261Y16623D01*
X102332Y16563D01*
X102400Y16502D01*
X102460Y16446D01*
X102513Y16386D01*
X102561Y16330D01*
X102606Y16274D01*
X102644Y16225D01*
X102674Y16180D01*
X102700Y16142D01*
X102723Y16109D01*
X102737Y16086D01*
X102745Y16068D01*
X102749Y16064D01*
X102794Y15974D01*
X102831Y15884D01*
X102865Y15794D01*
X102895Y15700D01*
X102918Y15610D01*
X102940Y15524D01*
X102955Y15438D01*
X102970Y15359D01*
X102978Y15280D01*
X102985Y15213D01*
X102992Y15153D01*
X102996Y15100D01*
X103000Y15059D01*
Y15025D01*
Y15006D01*
Y14999D01*
X102996Y14897D01*
X102989Y14796D01*
X102978Y14699D01*
X102966Y14605D01*
X102947Y14515D01*
X102929Y14429D01*
X102910Y14350D01*
X102887Y14279D01*
X102865Y14211D01*
X102846Y14151D01*
X102828Y14099D01*
X102809Y14054D01*
X102797Y14020D01*
X102786Y13994D01*
X102779Y13975D01*
X102775Y13971D01*
X102730Y13885D01*
X102681Y13806D01*
X102629Y13731D01*
X102576Y13660D01*
X102520Y13596D01*
X102464Y13536D01*
X102408Y13484D01*
X102355Y13435D01*
X102303Y13394D01*
X102258Y13356D01*
X102213Y13322D01*
X102175Y13296D01*
X102145Y13277D01*
X102122Y13262D01*
X102108Y13255D01*
X102104Y13251D01*
X102017Y13206D01*
X101927Y13169D01*
X101841Y13135D01*
X101751Y13105D01*
X101661Y13082D01*
X101575Y13060D01*
X101489Y13045D01*
X101410Y13030D01*
X101335Y13023D01*
X101268Y13015D01*
X101207Y13007D01*
X101155Y13004D01*
X101114Y13000D01*
X101054D01*
X100964Y13004D01*
X100877Y13007D01*
X100705Y13026D01*
X100626Y13041D01*
X100548Y13056D01*
X100476Y13071D01*
X100405Y13090D01*
X100345Y13105D01*
X100289Y13120D01*
X100236Y13135D01*
X100195Y13150D01*
X100161Y13161D01*
X100139Y13169D01*
X100120Y13176D01*
X100116D01*
X100030Y13210D01*
X99951Y13248D01*
X99876Y13281D01*
X99809Y13319D01*
X99745Y13352D01*
X99689Y13386D01*
X99636Y13420D01*
X99588Y13454D01*
X99546Y13480D01*
X99509Y13510D01*
X99479Y13532D01*
X99453Y13551D01*
X99434Y13570D01*
X99419Y13581D01*
X99411Y13589D01*
X99408Y13592D01*
Y15126D01*
X101080D01*
Y14478D01*
X100191D01*
Y13990D01*
X100259Y13941D01*
X100330Y13896D01*
X100401Y13855D01*
X100469Y13821D01*
X100529Y13795D01*
X100551Y13784D01*
X100574Y13776D01*
X100593Y13769D01*
X100604Y13761D01*
X100611Y13758D01*
X100615D01*
X100705Y13727D01*
X100795Y13705D01*
X100877Y13686D01*
X100949Y13675D01*
X101013Y13668D01*
X101039D01*
X101061Y13664D01*
X101102D01*
X101192Y13668D01*
X101279Y13679D01*
X101357Y13694D01*
X101433Y13716D01*
X101504Y13743D01*
X101571Y13772D01*
X101631Y13803D01*
X101684Y13836D01*
X101733Y13866D01*
X101774Y13896D01*
X101811Y13926D01*
X101841Y13952D01*
X101867Y13975D01*
X101883Y13990D01*
X101894Y14001D01*
X101898Y14005D01*
X101950Y14073D01*
X101999Y14148D01*
X102040Y14226D01*
X102074Y14309D01*
X102104Y14395D01*
X102126Y14478D01*
X102149Y14564D01*
X102164Y14646D01*
X102175Y14721D01*
X102186Y14796D01*
X102190Y14860D01*
X102198Y14916D01*
Y14965D01*
X102201Y14999D01*
Y15021D01*
Y15029D01*
X102198Y15145D01*
X102190Y15254D01*
X102175Y15355D01*
X102156Y15449D01*
X102134Y15535D01*
X102108Y15614D01*
X102081Y15685D01*
X102051Y15749D01*
X102025Y15805D01*
X101999Y15854D01*
X101972Y15895D01*
X101950Y15929D01*
X101931Y15955D01*
X101916Y15974D01*
X101909Y15985D01*
X101905Y15989D01*
X101845Y16045D01*
X101785Y16094D01*
X101717Y16139D01*
X101650Y16176D01*
X101583Y16206D01*
X101515Y16232D01*
X101451Y16255D01*
X101388Y16270D01*
X101328Y16285D01*
X101271Y16293D01*
X101223Y16300D01*
X101178Y16308D01*
X101144D01*
X101118Y16311D01*
X101035D01*
X100975Y16304D01*
X100866Y16285D01*
X100773Y16259D01*
X100727Y16244D01*
X100690Y16229D01*
X100656Y16214D01*
X100626Y16199D01*
X100600Y16184D01*
X100577Y16172D01*
X100559Y16161D01*
X100548Y16154D01*
X100540Y16150D01*
X100536Y16146D01*
X100458Y16079D01*
X100394Y16007D01*
X100341Y15933D01*
X100296Y15861D01*
X100266Y15798D01*
X100255Y15771D01*
X100244Y15745D01*
X100236Y15726D01*
X100233Y15711D01*
X100229Y15704D01*
Y15700D01*
X99456Y15843D01*
X99483Y15940D01*
X99512Y16030D01*
X99546Y16116D01*
X99588Y16195D01*
X99629Y16270D01*
X99674Y16338D01*
X99715Y16398D01*
X99760Y16454D01*
X99801Y16506D01*
X99843Y16547D01*
X99880Y16585D01*
X99914Y16615D01*
X99940Y16641D01*
X99959Y16656D01*
X99974Y16668D01*
X99977Y16671D01*
X100056Y16724D01*
X100139Y16772D01*
X100229Y16814D01*
X100322Y16848D01*
X100412Y16878D01*
X100506Y16900D01*
X100600Y16923D01*
X100686Y16938D01*
X100769Y16949D01*
X100847Y16960D01*
X100915Y16967D01*
X100975Y16971D01*
X101028D01*
X101065Y16975D01*
X101095D01*
X101196Y16971D01*
D02*
G37*
G36*
X94818Y13064D02*
X93280D01*
X93205Y13068D01*
X93134Y13071D01*
X93070Y13075D01*
X93006Y13082D01*
X92950Y13090D01*
X92897Y13097D01*
X92852Y13105D01*
X92811Y13109D01*
X92774Y13116D01*
X92740Y13124D01*
X92717Y13131D01*
X92695Y13135D01*
X92680Y13139D01*
X92672Y13142D01*
X92669D01*
X92549Y13187D01*
X92440Y13240D01*
X92391Y13262D01*
X92346Y13289D01*
X92305Y13315D01*
X92268Y13338D01*
X92238Y13360D01*
X92207Y13383D01*
X92181Y13401D01*
X92163Y13416D01*
X92147Y13431D01*
X92133Y13442D01*
X92129Y13446D01*
X92125Y13450D01*
X92076Y13499D01*
X92031Y13555D01*
X91945Y13664D01*
X91878Y13780D01*
X91817Y13885D01*
X91791Y13938D01*
X91773Y13983D01*
X91754Y14024D01*
X91739Y14058D01*
X91728Y14087D01*
X91720Y14110D01*
X91712Y14125D01*
Y14129D01*
X91671Y14264D01*
X91641Y14402D01*
X91623Y14537D01*
X91615Y14605D01*
X91607Y14669D01*
X91604Y14725D01*
X91600Y14777D01*
X91596Y14826D01*
X91593Y14867D01*
Y14901D01*
Y14924D01*
Y14942D01*
Y14946D01*
Y15044D01*
X91596Y15141D01*
X91604Y15231D01*
X91611Y15317D01*
X91623Y15396D01*
X91634Y15471D01*
X91645Y15539D01*
X91656Y15603D01*
X91667Y15659D01*
X91679Y15708D01*
X91690Y15753D01*
X91701Y15786D01*
X91709Y15816D01*
X91716Y15839D01*
X91720Y15850D01*
Y15854D01*
X91773Y15989D01*
X91833Y16109D01*
X91862Y16161D01*
X91892Y16214D01*
X91922Y16262D01*
X91953Y16304D01*
X91979Y16341D01*
X92005Y16379D01*
X92027Y16405D01*
X92046Y16431D01*
X92065Y16450D01*
X92076Y16465D01*
X92084Y16473D01*
X92088Y16476D01*
X92181Y16566D01*
X92279Y16641D01*
X92376Y16701D01*
X92466Y16750D01*
X92511Y16769D01*
X92549Y16788D01*
X92582Y16803D01*
X92612Y16814D01*
X92635Y16821D01*
X92654Y16829D01*
X92665Y16833D01*
X92669D01*
X92717Y16848D01*
X92774Y16859D01*
X92890Y16878D01*
X93010Y16889D01*
X93130Y16900D01*
X93182D01*
X93235Y16904D01*
X93280D01*
X93321Y16907D01*
X94818D01*
Y13064D01*
D02*
G37*
G36*
X102000Y23071D02*
X101224D01*
Y24676D01*
X100976D01*
X100894Y24669D01*
X100826Y24661D01*
X100770Y24654D01*
X100729Y24646D01*
X100699Y24639D01*
X100684Y24635D01*
X100676Y24631D01*
X100631Y24612D01*
X100586Y24586D01*
X100549Y24560D01*
X100515Y24534D01*
X100485Y24508D01*
X100462Y24489D01*
X100447Y24474D01*
X100444Y24470D01*
X100421Y24444D01*
X100395Y24414D01*
X100365Y24376D01*
X100335Y24335D01*
X100268Y24241D01*
X100200Y24144D01*
X100136Y24054D01*
X100106Y24016D01*
X100084Y23979D01*
X100065Y23949D01*
X100046Y23926D01*
X100039Y23911D01*
X100035Y23908D01*
X99476Y23071D01*
X98546D01*
X99019Y23821D01*
X99067Y23904D01*
X99116Y23975D01*
X99161Y24046D01*
X99206Y24106D01*
X99244Y24162D01*
X99281Y24215D01*
X99315Y24260D01*
X99345Y24301D01*
X99371Y24335D01*
X99394Y24365D01*
X99416Y24387D01*
X99431Y24410D01*
X99442Y24425D01*
X99454Y24436D01*
X99458Y24440D01*
X99461Y24444D01*
X99525Y24508D01*
X99593Y24567D01*
X99664Y24624D01*
X99727Y24672D01*
X99787Y24710D01*
X99810Y24729D01*
X99832Y24740D01*
X99851Y24751D01*
X99862Y24759D01*
X99870Y24766D01*
X99874D01*
X99780Y24781D01*
X99694Y24804D01*
X99615Y24826D01*
X99540Y24852D01*
X99472Y24882D01*
X99409Y24913D01*
X99353Y24942D01*
X99304Y24972D01*
X99259Y25003D01*
X99221Y25029D01*
X99187Y25055D01*
X99161Y25078D01*
X99139Y25096D01*
X99124Y25111D01*
X99116Y25119D01*
X99112Y25122D01*
X99067Y25179D01*
X99030Y25235D01*
X98993Y25291D01*
X98966Y25351D01*
X98940Y25411D01*
X98921Y25471D01*
X98887Y25584D01*
X98880Y25636D01*
X98873Y25685D01*
X98865Y25726D01*
X98861Y25764D01*
X98857Y25794D01*
Y25816D01*
Y25831D01*
Y25835D01*
Y25899D01*
X98865Y25959D01*
X98884Y26075D01*
X98910Y26176D01*
X98925Y26221D01*
X98940Y26266D01*
X98959Y26304D01*
X98974Y26338D01*
X98989Y26368D01*
X99000Y26394D01*
X99011Y26412D01*
X99019Y26428D01*
X99023Y26435D01*
X99026Y26439D01*
X99060Y26487D01*
X99094Y26533D01*
X99169Y26607D01*
X99244Y26675D01*
X99315Y26724D01*
X99379Y26761D01*
X99405Y26776D01*
X99431Y26791D01*
X99450Y26799D01*
X99465Y26806D01*
X99472Y26810D01*
X99476D01*
X99533Y26829D01*
X99593Y26844D01*
X99660Y26859D01*
X99731Y26870D01*
X99881Y26889D01*
X100028Y26904D01*
X100095Y26908D01*
X100159Y26911D01*
X100219D01*
X100268Y26915D01*
X102000D01*
Y23071D01*
D02*
G37*
G36*
X98396Y26266D02*
X97256D01*
Y23071D01*
X96480D01*
Y26266D01*
X95344D01*
Y26915D01*
X98396D01*
Y26266D01*
D02*
G37*
G36*
X93660Y26975D02*
X93735Y26971D01*
X93806Y26960D01*
X93874Y26952D01*
X93934Y26941D01*
X93994Y26926D01*
X94046Y26915D01*
X94095Y26904D01*
X94136Y26889D01*
X94174Y26877D01*
X94204Y26870D01*
X94226Y26859D01*
X94245Y26855D01*
X94256Y26847D01*
X94260D01*
X94369Y26791D01*
X94466Y26731D01*
X94549Y26664D01*
X94616Y26604D01*
X94669Y26544D01*
X94687Y26521D01*
X94706Y26499D01*
X94718Y26484D01*
X94729Y26469D01*
X94732Y26461D01*
X94736Y26458D01*
X94766Y26409D01*
X94789Y26360D01*
X94830Y26263D01*
X94860Y26173D01*
X94879Y26086D01*
X94886Y26049D01*
X94894Y26015D01*
X94898Y25981D01*
Y25955D01*
X94901Y25936D01*
Y25921D01*
Y25910D01*
Y25906D01*
X94898Y25824D01*
X94886Y25741D01*
X94867Y25666D01*
X94845Y25591D01*
X94819Y25524D01*
X94789Y25460D01*
X94759Y25404D01*
X94725Y25348D01*
X94691Y25299D01*
X94661Y25258D01*
X94631Y25220D01*
X94605Y25190D01*
X94582Y25168D01*
X94564Y25149D01*
X94552Y25137D01*
X94549Y25134D01*
X94496Y25093D01*
X94440Y25051D01*
X94376Y25014D01*
X94305Y24976D01*
X94162Y24913D01*
X94016Y24856D01*
X93949Y24834D01*
X93885Y24811D01*
X93829Y24792D01*
X93776Y24778D01*
X93735Y24766D01*
X93701Y24759D01*
X93682Y24755D01*
X93675Y24751D01*
X93589Y24729D01*
X93510Y24710D01*
X93439Y24691D01*
X93375Y24672D01*
X93315Y24657D01*
X93266Y24643D01*
X93221Y24631D01*
X93184Y24620D01*
X93150Y24612D01*
X93120Y24605D01*
X93098Y24598D01*
X93082Y24590D01*
X93068Y24586D01*
X93060D01*
X93053Y24582D01*
X92985Y24556D01*
X92925Y24526D01*
X92876Y24496D01*
X92839Y24470D01*
X92809Y24448D01*
X92790Y24429D01*
X92779Y24418D01*
X92775Y24414D01*
X92749Y24376D01*
X92726Y24339D01*
X92711Y24301D01*
X92704Y24264D01*
X92696Y24234D01*
X92693Y24207D01*
Y24193D01*
Y24185D01*
X92696Y24148D01*
X92700Y24106D01*
X92722Y24039D01*
X92752Y23975D01*
X92786Y23919D01*
X92824Y23874D01*
X92854Y23840D01*
X92876Y23821D01*
X92880Y23818D01*
X92884Y23814D01*
X92921Y23787D01*
X92962Y23761D01*
X93053Y23724D01*
X93146Y23694D01*
X93240Y23675D01*
X93281Y23671D01*
X93322Y23664D01*
X93356Y23660D01*
X93390D01*
X93413Y23656D01*
X93450D01*
X93514Y23660D01*
X93574Y23664D01*
X93686Y23683D01*
X93735Y23697D01*
X93784Y23712D01*
X93825Y23728D01*
X93862Y23746D01*
X93896Y23761D01*
X93926Y23776D01*
X93953Y23791D01*
X93975Y23806D01*
X93990Y23818D01*
X94001Y23825D01*
X94009Y23832D01*
X94012D01*
X94050Y23866D01*
X94084Y23908D01*
X94144Y23994D01*
X94189Y24088D01*
X94226Y24178D01*
X94241Y24223D01*
X94253Y24260D01*
X94264Y24297D01*
X94271Y24328D01*
X94279Y24354D01*
X94283Y24376D01*
X94286Y24387D01*
Y24391D01*
X95040Y24316D01*
X95021Y24200D01*
X94999Y24088D01*
X94969Y23986D01*
X94935Y23892D01*
X94898Y23802D01*
X94860Y23724D01*
X94819Y23649D01*
X94778Y23585D01*
X94740Y23525D01*
X94703Y23476D01*
X94669Y23431D01*
X94639Y23397D01*
X94612Y23368D01*
X94590Y23349D01*
X94579Y23337D01*
X94575Y23334D01*
X94496Y23274D01*
X94414Y23225D01*
X94327Y23180D01*
X94238Y23143D01*
X94144Y23109D01*
X94050Y23083D01*
X93960Y23060D01*
X93870Y23041D01*
X93787Y23026D01*
X93709Y23019D01*
X93638Y23011D01*
X93577Y23004D01*
X93529D01*
X93491Y23000D01*
X93364D01*
X93278Y23008D01*
X93195Y23011D01*
X93116Y23022D01*
X93041Y23034D01*
X92974Y23045D01*
X92910Y23056D01*
X92850Y23071D01*
X92797Y23083D01*
X92752Y23094D01*
X92715Y23105D01*
X92681Y23116D01*
X92655Y23128D01*
X92636Y23131D01*
X92625Y23139D01*
X92621D01*
X92501Y23199D01*
X92449Y23229D01*
X92396Y23262D01*
X92351Y23300D01*
X92306Y23334D01*
X92269Y23371D01*
X92235Y23405D01*
X92201Y23439D01*
X92175Y23469D01*
X92153Y23495D01*
X92134Y23517D01*
X92119Y23540D01*
X92107Y23555D01*
X92104Y23562D01*
X92100Y23566D01*
X92066Y23622D01*
X92040Y23679D01*
X92014Y23731D01*
X91995Y23787D01*
X91961Y23892D01*
X91939Y23986D01*
X91931Y24031D01*
X91927Y24069D01*
X91920Y24103D01*
Y24133D01*
X91916Y24155D01*
Y24174D01*
Y24185D01*
Y24189D01*
X91924Y24320D01*
X91939Y24436D01*
X91950Y24493D01*
X91965Y24541D01*
X91980Y24590D01*
X91991Y24631D01*
X92006Y24669D01*
X92021Y24702D01*
X92032Y24733D01*
X92048Y24755D01*
X92055Y24774D01*
X92062Y24789D01*
X92070Y24796D01*
Y24800D01*
X92134Y24890D01*
X92201Y24969D01*
X92273Y25036D01*
X92340Y25093D01*
X92404Y25134D01*
X92430Y25153D01*
X92453Y25168D01*
X92471Y25179D01*
X92486Y25186D01*
X92494Y25194D01*
X92497D01*
X92550Y25220D01*
X92610Y25246D01*
X92674Y25273D01*
X92741Y25299D01*
X92880Y25344D01*
X93015Y25385D01*
X93082Y25404D01*
X93139Y25422D01*
X93195Y25438D01*
X93240Y25449D01*
X93281Y25456D01*
X93308Y25464D01*
X93326Y25471D01*
X93334D01*
X93435Y25497D01*
X93525Y25520D01*
X93611Y25546D01*
X93682Y25569D01*
X93750Y25591D01*
X93806Y25614D01*
X93859Y25633D01*
X93904Y25651D01*
X93937Y25670D01*
X93971Y25685D01*
X93994Y25696D01*
X94016Y25708D01*
X94028Y25719D01*
X94039Y25726D01*
X94042Y25730D01*
X94046D01*
X94084Y25767D01*
X94110Y25805D01*
X94133Y25846D01*
X94144Y25880D01*
X94151Y25914D01*
X94155Y25940D01*
X94159Y25955D01*
Y25962D01*
X94155Y26015D01*
X94140Y26064D01*
X94121Y26105D01*
X94099Y26139D01*
X94076Y26165D01*
X94058Y26184D01*
X94042Y26195D01*
X94039Y26199D01*
X93960Y26248D01*
X93874Y26281D01*
X93787Y26307D01*
X93701Y26322D01*
X93622Y26334D01*
X93593Y26338D01*
X93563D01*
X93540Y26341D01*
X93446D01*
X93390Y26338D01*
X93341Y26330D01*
X93292Y26322D01*
X93247Y26311D01*
X93210Y26300D01*
X93173Y26289D01*
X93139Y26278D01*
X93112Y26263D01*
X93086Y26251D01*
X93068Y26240D01*
X93049Y26232D01*
X93037Y26221D01*
X93026Y26217D01*
X93019Y26210D01*
X92989Y26184D01*
X92962Y26154D01*
X92914Y26090D01*
X92876Y26019D01*
X92846Y25947D01*
X92827Y25888D01*
X92820Y25857D01*
X92813Y25835D01*
X92809Y25813D01*
X92805Y25798D01*
X92801Y25790D01*
Y25786D01*
X92025Y25820D01*
X92032Y25918D01*
X92048Y26008D01*
X92066Y26094D01*
X92093Y26176D01*
X92123Y26251D01*
X92156Y26319D01*
X92190Y26382D01*
X92224Y26439D01*
X92261Y26491D01*
X92295Y26536D01*
X92325Y26574D01*
X92355Y26607D01*
X92378Y26630D01*
X92396Y26649D01*
X92408Y26660D01*
X92411Y26664D01*
X92483Y26720D01*
X92561Y26769D01*
X92647Y26810D01*
X92734Y26847D01*
X92824Y26877D01*
X92914Y26904D01*
X93004Y26926D01*
X93090Y26941D01*
X93173Y26956D01*
X93251Y26967D01*
X93319Y26971D01*
X93379Y26979D01*
X93431D01*
X93465Y26983D01*
X93499D01*
X93660Y26975D01*
D02*
G37*
G36*
X102000Y33000D02*
X100462D01*
X100388Y33004D01*
X100316Y33007D01*
X100252Y33011D01*
X100189Y33019D01*
X100133Y33026D01*
X100080Y33034D01*
X100035Y33041D01*
X99994Y33045D01*
X99956Y33053D01*
X99923Y33060D01*
X99900Y33068D01*
X99878Y33071D01*
X99862Y33075D01*
X99855Y33079D01*
X99851D01*
X99731Y33124D01*
X99622Y33176D01*
X99574Y33199D01*
X99529Y33225D01*
X99488Y33251D01*
X99450Y33274D01*
X99420Y33296D01*
X99390Y33319D01*
X99364Y33338D01*
X99345Y33353D01*
X99330Y33367D01*
X99315Y33379D01*
X99311Y33382D01*
X99308Y33386D01*
X99259Y33435D01*
X99214Y33491D01*
X99128Y33600D01*
X99060Y33716D01*
X99000Y33821D01*
X98974Y33874D01*
X98955Y33919D01*
X98936Y33960D01*
X98921Y33994D01*
X98910Y34024D01*
X98902Y34046D01*
X98895Y34061D01*
Y34065D01*
X98854Y34200D01*
X98824Y34339D01*
X98805Y34474D01*
X98798Y34541D01*
X98790Y34605D01*
X98786Y34661D01*
X98782Y34714D01*
X98779Y34762D01*
X98775Y34804D01*
Y34837D01*
Y34860D01*
Y34879D01*
Y34883D01*
Y34980D01*
X98779Y35078D01*
X98786Y35168D01*
X98794Y35254D01*
X98805Y35333D01*
X98816Y35408D01*
X98827Y35475D01*
X98839Y35539D01*
X98850Y35595D01*
X98861Y35644D01*
X98873Y35689D01*
X98884Y35723D01*
X98891Y35752D01*
X98899Y35775D01*
X98902Y35786D01*
Y35790D01*
X98955Y35925D01*
X99015Y36045D01*
X99045Y36097D01*
X99075Y36150D01*
X99105Y36199D01*
X99135Y36240D01*
X99161Y36277D01*
X99187Y36315D01*
X99210Y36341D01*
X99229Y36367D01*
X99247Y36386D01*
X99259Y36401D01*
X99266Y36409D01*
X99270Y36413D01*
X99364Y36503D01*
X99461Y36577D01*
X99559Y36637D01*
X99649Y36686D01*
X99694Y36705D01*
X99731Y36724D01*
X99765Y36739D01*
X99795Y36750D01*
X99818Y36757D01*
X99836Y36765D01*
X99848Y36769D01*
X99851D01*
X99900Y36784D01*
X99956Y36795D01*
X100073Y36814D01*
X100192Y36825D01*
X100312Y36836D01*
X100365D01*
X100417Y36840D01*
X100462D01*
X100504Y36844D01*
X102000D01*
Y33000D01*
D02*
G37*
G36*
X98389Y36195D02*
X97249D01*
Y33000D01*
X96473D01*
Y36195D01*
X95336D01*
Y36844D01*
X98389D01*
Y36195D01*
D02*
G37*
G36*
X94834Y33000D02*
X94058D01*
Y34605D01*
X93810D01*
X93727Y34598D01*
X93660Y34590D01*
X93604Y34582D01*
X93563Y34575D01*
X93533Y34567D01*
X93518Y34564D01*
X93510Y34560D01*
X93465Y34541D01*
X93420Y34515D01*
X93383Y34489D01*
X93349Y34462D01*
X93319Y34436D01*
X93296Y34418D01*
X93281Y34402D01*
X93278Y34399D01*
X93255Y34372D01*
X93229Y34343D01*
X93199Y34305D01*
X93169Y34264D01*
X93101Y34170D01*
X93034Y34073D01*
X92970Y33983D01*
X92940Y33945D01*
X92918Y33907D01*
X92899Y33878D01*
X92880Y33855D01*
X92873Y33840D01*
X92869Y33836D01*
X92310Y33000D01*
X91380D01*
X91852Y33750D01*
X91901Y33832D01*
X91950Y33904D01*
X91995Y33975D01*
X92040Y34035D01*
X92077Y34091D01*
X92115Y34144D01*
X92149Y34189D01*
X92179Y34230D01*
X92205Y34264D01*
X92228Y34294D01*
X92250Y34316D01*
X92265Y34339D01*
X92276Y34354D01*
X92287Y34365D01*
X92291Y34369D01*
X92295Y34372D01*
X92359Y34436D01*
X92426Y34496D01*
X92497Y34552D01*
X92561Y34601D01*
X92621Y34639D01*
X92644Y34657D01*
X92666Y34669D01*
X92685Y34680D01*
X92696Y34688D01*
X92704Y34695D01*
X92708D01*
X92614Y34710D01*
X92528Y34732D01*
X92449Y34755D01*
X92374Y34781D01*
X92306Y34811D01*
X92242Y34841D01*
X92186Y34871D01*
X92137Y34901D01*
X92093Y34931D01*
X92055Y34958D01*
X92021Y34984D01*
X91995Y35006D01*
X91973Y35025D01*
X91957Y35040D01*
X91950Y35048D01*
X91946Y35051D01*
X91901Y35107D01*
X91864Y35164D01*
X91826Y35220D01*
X91800Y35280D01*
X91774Y35340D01*
X91755Y35400D01*
X91721Y35513D01*
X91714Y35565D01*
X91706Y35614D01*
X91699Y35655D01*
X91695Y35693D01*
X91691Y35723D01*
Y35745D01*
Y35760D01*
Y35764D01*
Y35827D01*
X91699Y35888D01*
X91717Y36004D01*
X91744Y36105D01*
X91759Y36150D01*
X91774Y36195D01*
X91793Y36233D01*
X91808Y36266D01*
X91822Y36296D01*
X91834Y36323D01*
X91845Y36341D01*
X91852Y36356D01*
X91856Y36364D01*
X91860Y36367D01*
X91894Y36416D01*
X91927Y36461D01*
X92002Y36536D01*
X92077Y36604D01*
X92149Y36652D01*
X92212Y36690D01*
X92239Y36705D01*
X92265Y36720D01*
X92284Y36727D01*
X92299Y36735D01*
X92306Y36739D01*
X92310D01*
X92366Y36757D01*
X92426Y36773D01*
X92494Y36788D01*
X92565Y36799D01*
X92715Y36817D01*
X92861Y36832D01*
X92929Y36836D01*
X92993Y36840D01*
X93053D01*
X93101Y36844D01*
X94834D01*
Y33000D01*
D02*
G37*
G36*
X100879Y46919D02*
X100984Y46904D01*
X101081Y46885D01*
X101164Y46863D01*
X101201Y46851D01*
X101235Y46840D01*
X101265Y46829D01*
X101287Y46821D01*
X101306Y46814D01*
X101321Y46806D01*
X101329Y46802D01*
X101332D01*
X101423Y46754D01*
X101501Y46701D01*
X101573Y46645D01*
X101629Y46593D01*
X101674Y46544D01*
X101707Y46506D01*
X101719Y46491D01*
X101726Y46484D01*
X101734Y46476D01*
Y46472D01*
X101783Y46390D01*
X101828Y46296D01*
X101861Y46202D01*
X101891Y46116D01*
X101902Y46075D01*
X101914Y46034D01*
X101925Y46000D01*
X101933Y45970D01*
X101936Y45948D01*
X101940Y45929D01*
X101944Y45917D01*
Y45914D01*
X101265Y45801D01*
X101250Y45891D01*
X101227Y45966D01*
X101201Y46034D01*
X101175Y46086D01*
X101149Y46128D01*
X101126Y46161D01*
X101111Y46176D01*
X101104Y46184D01*
X101051Y46229D01*
X100995Y46259D01*
X100943Y46281D01*
X100890Y46300D01*
X100849Y46308D01*
X100811Y46311D01*
X100789Y46315D01*
X100781D01*
X100714Y46311D01*
X100654Y46296D01*
X100601Y46277D01*
X100556Y46259D01*
X100519Y46236D01*
X100496Y46218D01*
X100478Y46202D01*
X100474Y46199D01*
X100436Y46154D01*
X100406Y46101D01*
X100388Y46049D01*
X100373Y46000D01*
X100365Y45955D01*
X100357Y45921D01*
Y45906D01*
Y45895D01*
Y45891D01*
Y45888D01*
X100365Y45809D01*
X100384Y45737D01*
X100406Y45674D01*
X100436Y45621D01*
X100466Y45580D01*
X100489Y45550D01*
X100507Y45531D01*
X100515Y45524D01*
X100579Y45479D01*
X100654Y45445D01*
X100729Y45423D01*
X100804Y45408D01*
X100867Y45400D01*
X100898Y45396D01*
X100972D01*
X101051Y44796D01*
X100980Y44815D01*
X100916Y44830D01*
X100860Y44837D01*
X100811Y44845D01*
X100770Y44849D01*
X100744Y44853D01*
X100676D01*
X100639Y44845D01*
X100571Y44826D01*
X100507Y44800D01*
X100455Y44770D01*
X100414Y44740D01*
X100380Y44714D01*
X100361Y44695D01*
X100354Y44691D01*
Y44688D01*
X100305Y44624D01*
X100268Y44552D01*
X100241Y44477D01*
X100223Y44406D01*
X100211Y44346D01*
X100207Y44320D01*
Y44294D01*
X100204Y44275D01*
Y44260D01*
Y44252D01*
Y44249D01*
X100211Y44144D01*
X100230Y44054D01*
X100252Y43975D01*
X100283Y43907D01*
X100312Y43855D01*
X100335Y43814D01*
X100346Y43802D01*
X100354Y43791D01*
X100357Y43788D01*
X100361Y43784D01*
X100391Y43754D01*
X100421Y43727D01*
X100489Y43683D01*
X100552Y43652D01*
X100612Y43634D01*
X100665Y43619D01*
X100706Y43615D01*
X100721Y43611D01*
X100744D01*
X100822Y43619D01*
X100890Y43634D01*
X100954Y43656D01*
X101006Y43683D01*
X101048Y43709D01*
X101081Y43731D01*
X101100Y43746D01*
X101108Y43754D01*
X101156Y43814D01*
X101198Y43881D01*
X101227Y43953D01*
X101254Y44020D01*
X101269Y44080D01*
X101276Y44106D01*
X101280Y44129D01*
X101284Y44148D01*
X101287Y44162D01*
Y44170D01*
Y44174D01*
X102000Y44084D01*
X101985Y43994D01*
X101966Y43911D01*
X101944Y43832D01*
X101918Y43758D01*
X101884Y43686D01*
X101854Y43622D01*
X101816Y43562D01*
X101783Y43510D01*
X101749Y43461D01*
X101715Y43420D01*
X101689Y43386D01*
X101659Y43356D01*
X101636Y43330D01*
X101621Y43315D01*
X101610Y43304D01*
X101606Y43300D01*
X101539Y43248D01*
X101471Y43202D01*
X101396Y43161D01*
X101325Y43128D01*
X101254Y43097D01*
X101179Y43075D01*
X101111Y43053D01*
X101044Y43038D01*
X100980Y43026D01*
X100924Y43015D01*
X100871Y43007D01*
X100826Y43004D01*
X100789D01*
X100762Y43000D01*
X100740D01*
X100639Y43004D01*
X100541Y43015D01*
X100451Y43034D01*
X100365Y43056D01*
X100283Y43082D01*
X100207Y43112D01*
X100136Y43146D01*
X100073Y43180D01*
X100016Y43210D01*
X99967Y43244D01*
X99923Y43274D01*
X99889Y43300D01*
X99859Y43323D01*
X99836Y43341D01*
X99825Y43352D01*
X99821Y43356D01*
X99757Y43424D01*
X99698Y43495D01*
X99649Y43566D01*
X99607Y43641D01*
X99570Y43712D01*
X99540Y43784D01*
X99518Y43855D01*
X99495Y43919D01*
X99480Y43982D01*
X99469Y44039D01*
X99461Y44087D01*
X99458Y44133D01*
X99454Y44166D01*
X99450Y44192D01*
Y44211D01*
Y44215D01*
X99454Y44279D01*
X99458Y44342D01*
X99480Y44455D01*
X99514Y44556D01*
X99533Y44601D01*
X99547Y44642D01*
X99566Y44680D01*
X99585Y44714D01*
X99604Y44744D01*
X99619Y44766D01*
X99630Y44785D01*
X99641Y44800D01*
X99645Y44807D01*
X99649Y44811D01*
X99686Y44856D01*
X99727Y44897D01*
X99769Y44931D01*
X99814Y44965D01*
X99900Y45021D01*
X99983Y45063D01*
X100057Y45092D01*
X100091Y45104D01*
X100118Y45111D01*
X100144Y45119D01*
X100159Y45123D01*
X100170Y45126D01*
X100174D01*
X100076Y45186D01*
X99990Y45250D01*
X99915Y45314D01*
X99851Y45381D01*
X99799Y45449D01*
X99754Y45516D01*
X99716Y45584D01*
X99686Y45644D01*
X99664Y45704D01*
X99649Y45760D01*
X99634Y45809D01*
X99626Y45854D01*
X99622Y45888D01*
X99619Y45914D01*
Y45929D01*
Y45936D01*
X99622Y46004D01*
X99630Y46068D01*
X99645Y46128D01*
X99660Y46187D01*
X99705Y46296D01*
X99727Y46345D01*
X99754Y46390D01*
X99780Y46431D01*
X99803Y46465D01*
X99825Y46499D01*
X99848Y46525D01*
X99862Y46544D01*
X99878Y46562D01*
X99885Y46570D01*
X99889Y46574D01*
X99953Y46634D01*
X100020Y46690D01*
X100091Y46735D01*
X100162Y46776D01*
X100238Y46810D01*
X100309Y46836D01*
X100380Y46859D01*
X100447Y46878D01*
X100515Y46892D01*
X100571Y46904D01*
X100628Y46911D01*
X100672Y46919D01*
X100710D01*
X100740Y46922D01*
X100762D01*
X100879Y46919D01*
D02*
G37*
G36*
X96401D02*
X96506Y46904D01*
X96604Y46885D01*
X96686Y46863D01*
X96724Y46851D01*
X96758Y46840D01*
X96788Y46829D01*
X96810Y46821D01*
X96829Y46814D01*
X96844Y46806D01*
X96851Y46802D01*
X96855D01*
X96945Y46754D01*
X97024Y46701D01*
X97095Y46645D01*
X97151Y46593D01*
X97196Y46544D01*
X97230Y46506D01*
X97241Y46491D01*
X97249Y46484D01*
X97256Y46476D01*
Y46472D01*
X97305Y46390D01*
X97350Y46296D01*
X97384Y46202D01*
X97414Y46116D01*
X97425Y46075D01*
X97436Y46034D01*
X97448Y46000D01*
X97455Y45970D01*
X97459Y45948D01*
X97462Y45929D01*
X97466Y45917D01*
Y45914D01*
X96788Y45801D01*
X96772Y45891D01*
X96750Y45966D01*
X96724Y46034D01*
X96697Y46086D01*
X96671Y46128D01*
X96649Y46161D01*
X96634Y46176D01*
X96626Y46184D01*
X96574Y46229D01*
X96517Y46259D01*
X96465Y46281D01*
X96412Y46300D01*
X96371Y46308D01*
X96334Y46311D01*
X96311Y46315D01*
X96304D01*
X96236Y46311D01*
X96176Y46296D01*
X96124Y46277D01*
X96079Y46259D01*
X96041Y46236D01*
X96019Y46218D01*
X96000Y46202D01*
X95996Y46199D01*
X95959Y46154D01*
X95929Y46101D01*
X95910Y46049D01*
X95895Y46000D01*
X95888Y45955D01*
X95880Y45921D01*
Y45906D01*
Y45895D01*
Y45891D01*
Y45888D01*
X95888Y45809D01*
X95906Y45737D01*
X95929Y45674D01*
X95959Y45621D01*
X95989Y45580D01*
X96011Y45550D01*
X96030Y45531D01*
X96038Y45524D01*
X96101Y45479D01*
X96176Y45445D01*
X96251Y45423D01*
X96326Y45408D01*
X96390Y45400D01*
X96420Y45396D01*
X96495D01*
X96574Y44796D01*
X96503Y44815D01*
X96439Y44830D01*
X96382Y44837D01*
X96334Y44845D01*
X96293Y44849D01*
X96266Y44853D01*
X96199D01*
X96161Y44845D01*
X96094Y44826D01*
X96030Y44800D01*
X95977Y44770D01*
X95936Y44740D01*
X95903Y44714D01*
X95884Y44695D01*
X95876Y44691D01*
Y44688D01*
X95828Y44624D01*
X95790Y44552D01*
X95764Y44477D01*
X95745Y44406D01*
X95734Y44346D01*
X95730Y44320D01*
Y44294D01*
X95726Y44275D01*
Y44260D01*
Y44252D01*
Y44249D01*
X95734Y44144D01*
X95753Y44054D01*
X95775Y43975D01*
X95805Y43907D01*
X95835Y43855D01*
X95858Y43814D01*
X95869Y43802D01*
X95876Y43791D01*
X95880Y43788D01*
X95884Y43784D01*
X95914Y43754D01*
X95944Y43727D01*
X96011Y43683D01*
X96075Y43652D01*
X96135Y43634D01*
X96188Y43619D01*
X96229Y43615D01*
X96244Y43611D01*
X96266D01*
X96345Y43619D01*
X96412Y43634D01*
X96476Y43656D01*
X96529Y43683D01*
X96570Y43709D01*
X96604Y43731D01*
X96623Y43746D01*
X96630Y43754D01*
X96679Y43814D01*
X96720Y43881D01*
X96750Y43953D01*
X96776Y44020D01*
X96791Y44080D01*
X96799Y44106D01*
X96803Y44129D01*
X96806Y44148D01*
X96810Y44162D01*
Y44170D01*
Y44174D01*
X97522Y44084D01*
X97508Y43994D01*
X97489Y43911D01*
X97466Y43832D01*
X97440Y43758D01*
X97406Y43686D01*
X97376Y43622D01*
X97339Y43562D01*
X97305Y43510D01*
X97271Y43461D01*
X97237Y43420D01*
X97211Y43386D01*
X97181Y43356D01*
X97159Y43330D01*
X97144Y43315D01*
X97132Y43304D01*
X97129Y43300D01*
X97061Y43248D01*
X96994Y43202D01*
X96919Y43161D01*
X96847Y43128D01*
X96776Y43097D01*
X96701Y43075D01*
X96634Y43053D01*
X96566Y43038D01*
X96503Y43026D01*
X96446Y43015D01*
X96394Y43007D01*
X96349Y43004D01*
X96311D01*
X96285Y43000D01*
X96263D01*
X96161Y43004D01*
X96064Y43015D01*
X95974Y43034D01*
X95888Y43056D01*
X95805Y43082D01*
X95730Y43112D01*
X95659Y43146D01*
X95595Y43180D01*
X95539Y43210D01*
X95490Y43244D01*
X95445Y43274D01*
X95411Y43300D01*
X95381Y43323D01*
X95359Y43341D01*
X95347Y43352D01*
X95344Y43356D01*
X95280Y43424D01*
X95220Y43495D01*
X95171Y43566D01*
X95130Y43641D01*
X95092Y43712D01*
X95063Y43784D01*
X95040Y43855D01*
X95017Y43919D01*
X95003Y43982D01*
X94991Y44039D01*
X94984Y44087D01*
X94980Y44133D01*
X94976Y44166D01*
X94972Y44192D01*
Y44211D01*
Y44215D01*
X94976Y44279D01*
X94980Y44342D01*
X95003Y44455D01*
X95036Y44556D01*
X95055Y44601D01*
X95070Y44642D01*
X95089Y44680D01*
X95108Y44714D01*
X95126Y44744D01*
X95141Y44766D01*
X95152Y44785D01*
X95164Y44800D01*
X95167Y44807D01*
X95171Y44811D01*
X95209Y44856D01*
X95250Y44897D01*
X95291Y44931D01*
X95336Y44965D01*
X95423Y45021D01*
X95505Y45063D01*
X95580Y45092D01*
X95614Y45104D01*
X95640Y45111D01*
X95666Y45119D01*
X95681Y45123D01*
X95692Y45126D01*
X95696D01*
X95599Y45186D01*
X95512Y45250D01*
X95438Y45314D01*
X95374Y45381D01*
X95321Y45449D01*
X95276Y45516D01*
X95239Y45584D01*
X95209Y45644D01*
X95186Y45704D01*
X95171Y45760D01*
X95156Y45809D01*
X95149Y45854D01*
X95145Y45888D01*
X95141Y45914D01*
Y45929D01*
Y45936D01*
X95145Y46004D01*
X95152Y46068D01*
X95167Y46128D01*
X95183Y46187D01*
X95227Y46296D01*
X95250Y46345D01*
X95276Y46390D01*
X95302Y46431D01*
X95325Y46465D01*
X95347Y46499D01*
X95370Y46525D01*
X95385Y46544D01*
X95400Y46562D01*
X95407Y46570D01*
X95411Y46574D01*
X95475Y46634D01*
X95543Y46690D01*
X95614Y46735D01*
X95685Y46776D01*
X95760Y46810D01*
X95831Y46836D01*
X95903Y46859D01*
X95970Y46878D01*
X96038Y46892D01*
X96094Y46904D01*
X96150Y46911D01*
X96195Y46919D01*
X96232D01*
X96263Y46922D01*
X96285D01*
X96401Y46919D01*
D02*
G37*
G36*
X93371Y43064D02*
X92535D01*
X91159Y46907D01*
X91984D01*
X92929Y44061D01*
X93900Y46907D01*
X94740D01*
X93371Y43064D01*
D02*
G37*
G36*
X98835D02*
X98100D01*
Y43799D01*
X98835D01*
Y43064D01*
D02*
G37*
%LPC*%
G36*
X94041Y16259D02*
X93528D01*
X93456Y16255D01*
X93392Y16251D01*
X93332D01*
X93280Y16248D01*
X93235Y16244D01*
X93194Y16240D01*
X93160Y16236D01*
X93130Y16232D01*
X93107Y16229D01*
X93089D01*
X93074Y16225D01*
X93063Y16221D01*
X93055D01*
X92976Y16199D01*
X92905Y16172D01*
X92845Y16142D01*
X92792Y16113D01*
X92751Y16082D01*
X92721Y16060D01*
X92703Y16045D01*
X92695Y16037D01*
X92646Y15985D01*
X92601Y15925D01*
X92564Y15861D01*
X92530Y15801D01*
X92507Y15749D01*
X92489Y15708D01*
X92481Y15689D01*
X92478Y15677D01*
X92474Y15670D01*
Y15666D01*
X92459Y15621D01*
X92448Y15569D01*
X92425Y15460D01*
X92410Y15348D01*
X92402Y15235D01*
X92399Y15186D01*
X92395Y15137D01*
Y15096D01*
X92391Y15059D01*
Y15025D01*
Y15002D01*
Y14988D01*
Y14984D01*
Y14901D01*
X92395Y14826D01*
X92399Y14751D01*
X92402Y14684D01*
X92410Y14624D01*
X92418Y14564D01*
X92425Y14511D01*
X92432Y14462D01*
X92440Y14421D01*
X92448Y14384D01*
X92455Y14354D01*
X92462Y14327D01*
X92466Y14305D01*
X92470Y14290D01*
X92474Y14283D01*
Y14279D01*
X92504Y14189D01*
X92537Y14110D01*
X92571Y14046D01*
X92605Y13997D01*
X92631Y13956D01*
X92654Y13930D01*
X92672Y13911D01*
X92676Y13907D01*
X92725Y13870D01*
X92778Y13836D01*
X92830Y13806D01*
X92879Y13784D01*
X92924Y13769D01*
X92958Y13758D01*
X92984Y13750D01*
X92988Y13746D01*
X92991D01*
X93021Y13739D01*
X93051Y13735D01*
X93126Y13727D01*
X93201Y13720D01*
X93280Y13716D01*
X93348D01*
X93381Y13713D01*
X94041D01*
Y16259D01*
D02*
G37*
G36*
X101224Y26266D02*
X100391D01*
X100331Y26263D01*
X100234D01*
X100192Y26259D01*
X100133D01*
X100110Y26255D01*
X100076D01*
X100065Y26251D01*
X100054D01*
X99986Y26236D01*
X99930Y26214D01*
X99878Y26191D01*
X99836Y26165D01*
X99803Y26142D01*
X99780Y26120D01*
X99765Y26105D01*
X99761Y26101D01*
X99727Y26052D01*
X99701Y26000D01*
X99682Y25947D01*
X99668Y25899D01*
X99660Y25854D01*
X99656Y25820D01*
Y25805D01*
Y25794D01*
Y25790D01*
Y25786D01*
X99660Y25726D01*
X99668Y25670D01*
X99682Y25618D01*
X99694Y25576D01*
X99709Y25543D01*
X99724Y25520D01*
X99731Y25501D01*
X99735Y25497D01*
X99769Y25460D01*
X99803Y25426D01*
X99840Y25396D01*
X99874Y25374D01*
X99907Y25359D01*
X99934Y25348D01*
X99949Y25340D01*
X99956Y25336D01*
X99986Y25329D01*
X100028Y25321D01*
X100073Y25314D01*
X100121Y25310D01*
X100178Y25306D01*
X100238Y25302D01*
X100354Y25299D01*
X100414Y25295D01*
X100466D01*
X100519Y25291D01*
X101224D01*
Y26266D01*
D02*
G37*
G36*
Y36195D02*
X100710D01*
X100639Y36191D01*
X100575Y36187D01*
X100515D01*
X100462Y36184D01*
X100417Y36180D01*
X100376Y36176D01*
X100343Y36173D01*
X100312Y36169D01*
X100290Y36165D01*
X100271D01*
X100256Y36161D01*
X100245Y36158D01*
X100238D01*
X100159Y36135D01*
X100087Y36109D01*
X100028Y36079D01*
X99975Y36049D01*
X99934Y36019D01*
X99904Y35996D01*
X99885Y35981D01*
X99878Y35974D01*
X99829Y35921D01*
X99784Y35861D01*
X99746Y35798D01*
X99713Y35737D01*
X99690Y35685D01*
X99671Y35644D01*
X99664Y35625D01*
X99660Y35614D01*
X99656Y35606D01*
Y35603D01*
X99641Y35557D01*
X99630Y35505D01*
X99607Y35396D01*
X99593Y35284D01*
X99585Y35171D01*
X99581Y35122D01*
X99577Y35074D01*
Y35032D01*
X99574Y34995D01*
Y34961D01*
Y34939D01*
Y34924D01*
Y34920D01*
Y34837D01*
X99577Y34762D01*
X99581Y34688D01*
X99585Y34620D01*
X99593Y34560D01*
X99600Y34500D01*
X99607Y34448D01*
X99615Y34399D01*
X99622Y34358D01*
X99630Y34320D01*
X99638Y34290D01*
X99645Y34264D01*
X99649Y34241D01*
X99652Y34226D01*
X99656Y34219D01*
Y34215D01*
X99686Y34125D01*
X99720Y34046D01*
X99754Y33983D01*
X99787Y33934D01*
X99814Y33893D01*
X99836Y33866D01*
X99855Y33847D01*
X99859Y33844D01*
X99907Y33806D01*
X99960Y33773D01*
X100013Y33742D01*
X100061Y33720D01*
X100106Y33705D01*
X100140Y33694D01*
X100166Y33686D01*
X100170Y33683D01*
X100174D01*
X100204Y33675D01*
X100234Y33671D01*
X100309Y33664D01*
X100384Y33656D01*
X100462Y33652D01*
X100530D01*
X100564Y33649D01*
X101224D01*
Y36195D01*
D02*
G37*
G36*
X94058D02*
X93225D01*
X93165Y36191D01*
X93068D01*
X93026Y36187D01*
X92966D01*
X92944Y36184D01*
X92910D01*
X92899Y36180D01*
X92888D01*
X92820Y36165D01*
X92764Y36143D01*
X92711Y36120D01*
X92670Y36094D01*
X92636Y36071D01*
X92614Y36049D01*
X92599Y36034D01*
X92595Y36030D01*
X92561Y35981D01*
X92535Y35929D01*
X92516Y35876D01*
X92501Y35827D01*
X92494Y35783D01*
X92490Y35749D01*
Y35734D01*
Y35723D01*
Y35719D01*
Y35715D01*
X92494Y35655D01*
X92501Y35599D01*
X92516Y35546D01*
X92528Y35505D01*
X92542Y35471D01*
X92558Y35449D01*
X92565Y35430D01*
X92569Y35426D01*
X92602Y35389D01*
X92636Y35355D01*
X92674Y35325D01*
X92708Y35302D01*
X92741Y35287D01*
X92768Y35276D01*
X92782Y35269D01*
X92790Y35265D01*
X92820Y35258D01*
X92861Y35250D01*
X92906Y35243D01*
X92955Y35239D01*
X93011Y35235D01*
X93071Y35231D01*
X93187Y35228D01*
X93247Y35224D01*
X93300D01*
X93353Y35220D01*
X94058D01*
Y36195D01*
D02*
G37*
%LPD*%
D17*
X90000Y40000D02*
X105500D01*
X90000Y30000D02*
X105500D01*
X90000Y20000D02*
X105500D01*
X90000Y10000D02*
X105500D01*
X90000D02*
Y50000D01*
X105500D01*
Y10000D02*
X117500D01*
X105500Y20000D02*
X117500D01*
X105500Y50000D02*
X117500D01*
X105500Y30000D02*
X117500D01*
X105500Y40000D02*
X117500D01*
X127500Y10000D02*
Y50000D01*
D20*
X117500Y28000D02*
Y30000D01*
Y32000D01*
Y40000D02*
Y42000D01*
Y38000D02*
Y40000D01*
Y20000D02*
Y22000D01*
Y18000D02*
Y20000D01*
Y10000D02*
Y12000D01*
Y48000D02*
Y50000D01*
X149122Y46378D02*
X150500Y45000D01*
X148583Y46378D02*
X149122D01*
Y43622D02*
X150500Y45000D01*
X148583Y43622D02*
X149122D01*
X117000Y50000D02*
X127500D01*
Y43622D02*
X148083D01*
X127500Y16378D02*
X148083D01*
X127500Y13622D02*
X148083D01*
X117000Y10000D02*
X127500D01*
X148583Y13622D02*
X149122D01*
X150500Y15000D01*
X148583Y16378D02*
X149122D01*
X150500Y15000D01*
X149122Y26378D02*
X150500Y25000D01*
X148583Y26378D02*
X149122D01*
Y23622D02*
X150500Y25000D01*
X148583Y23622D02*
X149122D01*
X127500D02*
X148083D01*
X127500Y26378D02*
X148083D01*
X127500Y36378D02*
X148083D01*
X127500Y33622D02*
X148083D01*
X148583D02*
X149122D01*
X150500Y35000D01*
X148583Y36378D02*
X149122D01*
X150500Y35000D01*
X127500Y46378D02*
X148083D01*
D65*
X58500Y17265D02*
X58700D01*
X64900Y17065D02*
X65100D01*
X58500D02*
X59100D01*
X64900Y16865D02*
X65300D01*
X58500D02*
X59500D01*
X47100D02*
X48900D01*
X40300D02*
X42100D01*
X64900Y16665D02*
X65500D01*
X58500D02*
X59900D01*
X47100D02*
X48900D01*
X40300D02*
X42100D01*
X64900Y16465D02*
X65700D01*
X58500D02*
X60100D01*
X47100D02*
X48900D01*
X40300D02*
X42100D01*
X64900Y16265D02*
X65900D01*
X54500D02*
X63700D01*
X47100D02*
X48900D01*
X40300D02*
X42100D01*
X64900Y16065D02*
X66100D01*
X54500D02*
X63700D01*
X44900D02*
X50700D01*
X37900D02*
X43700D01*
X64900Y15865D02*
X66300D01*
X54500D02*
X63700D01*
X44900D02*
X50900D01*
X37900D02*
X43900D01*
X64900Y15665D02*
X66700D01*
X54500D02*
X63700D01*
X44900D02*
X50900D01*
X37900D02*
X44100D01*
X64900Y15465D02*
X66700D01*
X54500D02*
X63700D01*
X44900D02*
X51100D01*
X37900D02*
X44100D01*
X64900Y15265D02*
X66700D01*
X54500D02*
X63700D01*
X44900D02*
X51100D01*
X37900D02*
X44300D01*
X64900Y15065D02*
X66700D01*
X54500D02*
X63700D01*
X44900D02*
X51300D01*
X37900D02*
X44300D01*
X64900Y14865D02*
X66700D01*
X54500D02*
X63700D01*
X44900D02*
X51500D01*
X37900D02*
X44500D01*
X64900Y14665D02*
X66700D01*
X61900D02*
X63700D01*
X54500D02*
X56300D01*
X44900D02*
X51500D01*
X37900D02*
X44700D01*
X64900Y14465D02*
X66700D01*
X61900D02*
X63700D01*
X54500D02*
X56300D01*
X47100D02*
X48900D01*
X40300D02*
X42100D01*
X64900Y14265D02*
X66700D01*
X61900D02*
X63700D01*
X54500D02*
X56300D01*
X47100D02*
X48900D01*
X40300D02*
X42100D01*
X64900Y14065D02*
X66700D01*
X61900D02*
X63700D01*
X54500D02*
X56300D01*
X49500D02*
X51300D01*
X47100D02*
X48900D01*
X44900D02*
X46700D01*
X42500D02*
X44300D01*
X40300D02*
X42100D01*
X37900D02*
X39700D01*
X64900Y13865D02*
X66700D01*
X61900D02*
X63700D01*
X54500D02*
X56300D01*
X49500D02*
X51300D01*
X47100D02*
X48900D01*
X44900D02*
X46700D01*
X42500D02*
X44300D01*
X40300D02*
X42100D01*
X37900D02*
X39700D01*
X64900Y13665D02*
X66700D01*
X61900D02*
X63700D01*
X54500D02*
X56300D01*
X49500D02*
X51300D01*
X47100D02*
X48900D01*
X44900D02*
X46700D01*
X42500D02*
X44300D01*
X40300D02*
X42100D01*
X37900D02*
X39700D01*
X61900Y13465D02*
X63700D01*
X54500D02*
X56300D01*
X49500D02*
X51300D01*
X47100D02*
X48900D01*
X44900D02*
X46700D01*
X42500D02*
X44300D01*
X40300D02*
X42100D01*
X37900D02*
X39700D01*
X61900Y13265D02*
X63700D01*
X54500D02*
X56300D01*
X49500D02*
X51300D01*
X47100D02*
X48900D01*
X44900D02*
X46700D01*
X42500D02*
X44300D01*
X40300D02*
X42100D01*
X37900D02*
X39700D01*
X54500Y13065D02*
X63700D01*
X49500D02*
X51300D01*
X47100D02*
X48900D01*
X44900D02*
X46700D01*
X42500D02*
X44300D01*
X40300D02*
X42100D01*
X37900D02*
X39700D01*
X64900Y12865D02*
X67300D01*
X54500D02*
X63700D01*
X49500D02*
X51300D01*
X47100D02*
X48900D01*
X44900D02*
X46700D01*
X42500D02*
X44300D01*
X40300D02*
X42100D01*
X37900D02*
X39700D01*
X64900Y12665D02*
X67500D01*
X54700D02*
X63700D01*
X49500D02*
X51300D01*
X47100D02*
X48900D01*
X44900D02*
X46700D01*
X42500D02*
X44300D01*
X40300D02*
X42100D01*
X37900D02*
X39700D01*
X64900Y12465D02*
X67500D01*
X54900D02*
X63700D01*
X49500D02*
X51300D01*
X47100D02*
X48900D01*
X44900D02*
X46700D01*
X42500D02*
X44300D01*
X40300D02*
X42100D01*
X37900D02*
X39700D01*
X64900Y12265D02*
X67700D01*
X55100D02*
X63700D01*
X49500D02*
X51300D01*
X47100D02*
X48900D01*
X44900D02*
X46700D01*
X42500D02*
X44300D01*
X40300D02*
X42100D01*
X37900D02*
X39700D01*
X64900Y12065D02*
X67700D01*
X49500D02*
X51300D01*
X47100D02*
X48900D01*
X44900D02*
X46700D01*
X42500D02*
X44300D01*
X40300D02*
X42100D01*
X37900D02*
X39700D01*
X64900Y11865D02*
X67900D01*
X55500D02*
X63700D01*
X49500D02*
X51300D01*
X47100D02*
X48900D01*
X44900D02*
X46700D01*
X42500D02*
X44300D01*
X40300D02*
X42100D01*
X37900D02*
X39700D01*
X64900Y11665D02*
X68100D01*
X55700D02*
X63700D01*
X49500D02*
X51300D01*
X47100D02*
X48900D01*
X44900D02*
X46700D01*
X42500D02*
X44300D01*
X40300D02*
X42100D01*
X37900D02*
X39700D01*
X64900Y11465D02*
X68100D01*
X61900D02*
X63700D01*
X49500D02*
X51300D01*
X47100D02*
X48900D01*
X44900D02*
X46700D01*
X42700D02*
X44300D01*
X40300D02*
X42100D01*
X38100D02*
X39700D01*
X64900Y11265D02*
X68100D01*
X61900D02*
X63700D01*
X49900D02*
X51300D01*
X47100D02*
X48900D01*
X45300D02*
X46700D01*
X42900D02*
X44300D01*
X40300D02*
X42100D01*
X38300D02*
X39700D01*
X64900Y11065D02*
X66700D01*
X61900D02*
X63700D01*
X50100D02*
X51300D01*
X47100D02*
X48900D01*
X45500D02*
X46700D01*
X43300D02*
X44300D01*
X40300D02*
X42100D01*
X38700D02*
X39700D01*
X64900Y10865D02*
X66700D01*
X61900D02*
X63700D01*
X50500D02*
X51300D01*
X47100D02*
X48900D01*
X45900D02*
X46700D01*
X43500D02*
X44300D01*
X40300D02*
X42100D01*
X38900D02*
X39700D01*
X64900Y10665D02*
X66700D01*
X61900D02*
X63700D01*
X50700D02*
X51300D01*
X47100D02*
X48900D01*
X46100D02*
X46700D01*
X43900D02*
X44300D01*
X40300D02*
X42100D01*
X39300D02*
X39700D01*
X64900Y10465D02*
X66700D01*
X61900D02*
X63700D01*
X51100D02*
X51300D01*
X46500D02*
X46700D01*
X44100D02*
X44300D01*
X39500D02*
X39700D01*
X64900Y10265D02*
X66700D01*
X54100D02*
X63700D01*
X48700D02*
X50700D01*
X64900Y10065D02*
X66700D01*
X54100D02*
X63700D01*
X48700D02*
X50700D01*
X64900Y9865D02*
X66700D01*
X54100D02*
X63700D01*
X48700D02*
X50700D01*
X64900Y9665D02*
X66700D01*
X54100D02*
X63700D01*
X38300D02*
X50700D01*
X64900Y9465D02*
X66700D01*
X54100D02*
X63700D01*
X38300D02*
X50700D01*
X64900Y9265D02*
X66700D01*
X54100D02*
X63700D01*
X38300D02*
X50700D01*
X64900Y9065D02*
X66700D01*
X54100D02*
X63700D01*
X38300D02*
X50700D01*
X64900Y8865D02*
X66700D01*
X54100D02*
X63700D01*
X38300D02*
X50700D01*
X64900Y8665D02*
X66700D01*
X61900D02*
X63700D01*
X54100D02*
X55900D01*
X38300D02*
X50700D01*
X64900Y8465D02*
X66700D01*
X61900D02*
X63700D01*
X54100D02*
X55900D01*
X38300D02*
X50700D01*
X64900Y8265D02*
X66700D01*
X61900D02*
X63700D01*
X54100D02*
X55900D01*
X38300D02*
X50700D01*
X64900Y8065D02*
X66700D01*
X61900D02*
X63700D01*
X54100D02*
X55900D01*
X48700D02*
X50700D01*
X38300D02*
X40100D01*
X64900Y7865D02*
X66700D01*
X61900D02*
X63700D01*
X54100D02*
X55900D01*
X48700D02*
X50700D01*
X43700D02*
X45700D01*
X38300D02*
X40100D01*
X64900Y7665D02*
X66700D01*
X61900D02*
X63700D01*
X54100D02*
X55900D01*
X48700D02*
X50700D01*
X43700D02*
X45700D01*
X38300D02*
X40100D01*
X64900Y7465D02*
X66700D01*
X61900D02*
X63700D01*
X54100D02*
X55900D01*
X48700D02*
X50700D01*
X43700D02*
X45700D01*
X38300D02*
X40100D01*
X64900Y7265D02*
X66700D01*
X61900D02*
X63700D01*
X54100D02*
X55900D01*
X48700D02*
X50700D01*
X43700D02*
X45700D01*
X38300D02*
X40100D01*
X64900Y7065D02*
X66700D01*
X54100D02*
X63700D01*
X48700D02*
X50700D01*
X43700D02*
X45700D01*
X38300D02*
X40100D01*
X64900Y6865D02*
X66700D01*
X54300D02*
X63700D01*
X49300D02*
X50700D01*
X43700D02*
X45700D01*
X38300D02*
X41100D01*
X64900Y6665D02*
X66700D01*
X54500D02*
X63700D01*
X49700D02*
X50700D01*
X43700D02*
X45700D01*
X38300D02*
X42300D01*
X64900Y6465D02*
X66700D01*
X54700D02*
X63700D01*
X50300D02*
X50700D01*
X44700D02*
X45700D01*
X38300D02*
X43300D01*
X64900Y6265D02*
X66700D01*
X54900D02*
X63700D01*
X38300D02*
X44500D01*
X64900Y6065D02*
X66700D01*
X55100D02*
X63700D01*
X38300D02*
X45700D01*
X64900Y5865D02*
X66700D01*
X55300D02*
X63700D01*
X38300D02*
X46700D01*
X64900Y5665D02*
X66700D01*
X55500D02*
X63700D01*
X38300D02*
X47900D01*
X64900Y5465D02*
X66700D01*
X39100D02*
X48900D01*
X64900Y5265D02*
X66700D01*
X40100D02*
X50100D01*
X64900Y5065D02*
X66900D01*
X41300D02*
X50900D01*
X64900Y4865D02*
X66900D01*
X42300D02*
X50900D01*
X53500Y4665D02*
X67100D01*
X43500D02*
X50900D01*
X53700Y4465D02*
X67300D01*
X44500D02*
X50900D01*
X53900Y4265D02*
X67300D01*
X45700D02*
X50900D01*
X53900Y4065D02*
X67500D01*
X46700D02*
X50900D01*
X54100Y3865D02*
X67500D01*
X47900D02*
X50900D01*
X54300Y3665D02*
X67700D01*
X48900D02*
X50900D01*
X54300Y3465D02*
X67700D01*
X50100D02*
X50900D01*
X54500Y3265D02*
X67700D01*
X55300Y12065D02*
X63700D01*
M02*
