G04*
G04 #@! TF.GenerationSoftware,Altium Limited,Altium Designer,22.3.1 (43)*
G04*
G04 Layer_Physical_Order=1*
G04 Layer_Color=204*
%FSLAX25Y25*%
%MOIN*%
G70*
G04*
G04 #@! TF.SameCoordinates,ABD1A1CB-370B-4326-B327-FACD84D75C70*
G04*
G04*
G04 #@! TF.FilePolarity,Positive*
G04*
G01*
G75*
%ADD10C,0.01000*%
%ADD17C,0.00600*%
G04:AMPARAMS|DCode=21|XSize=17.72mil|YSize=39.37mil|CornerRadius=4.43mil|HoleSize=0mil|Usage=FLASHONLY|Rotation=90.000|XOffset=0mil|YOffset=0mil|HoleType=Round|Shape=RoundedRectangle|*
%AMROUNDEDRECTD21*
21,1,0.01772,0.03051,0,0,90.0*
21,1,0.00886,0.03937,0,0,90.0*
1,1,0.00886,0.01526,0.00443*
1,1,0.00886,0.01526,-0.00443*
1,1,0.00886,-0.01526,-0.00443*
1,1,0.00886,-0.01526,0.00443*
%
%ADD21ROUNDEDRECTD21*%
G04:AMPARAMS|DCode=22|XSize=35mil|YSize=35mil|CornerRadius=8.75mil|HoleSize=0mil|Usage=FLASHONLY|Rotation=180.000|XOffset=0mil|YOffset=0mil|HoleType=Round|Shape=RoundedRectangle|*
%AMROUNDEDRECTD22*
21,1,0.03500,0.01750,0,0,180.0*
21,1,0.01750,0.03500,0,0,180.0*
1,1,0.01750,-0.00875,0.00875*
1,1,0.01750,0.00875,0.00875*
1,1,0.01750,0.00875,-0.00875*
1,1,0.01750,-0.00875,-0.00875*
%
%ADD22ROUNDEDRECTD22*%
G04:AMPARAMS|DCode=23|XSize=30mil|YSize=22mil|CornerRadius=5.5mil|HoleSize=0mil|Usage=FLASHONLY|Rotation=90.000|XOffset=0mil|YOffset=0mil|HoleType=Round|Shape=RoundedRectangle|*
%AMROUNDEDRECTD23*
21,1,0.03000,0.01100,0,0,90.0*
21,1,0.01900,0.02200,0,0,90.0*
1,1,0.01100,0.00550,0.00950*
1,1,0.01100,0.00550,-0.00950*
1,1,0.01100,-0.00550,-0.00950*
1,1,0.01100,-0.00550,0.00950*
%
%ADD23ROUNDEDRECTD23*%
G04:AMPARAMS|DCode=24|XSize=25.59mil|YSize=51.18mil|CornerRadius=6.4mil|HoleSize=0mil|Usage=FLASHONLY|Rotation=180.000|XOffset=0mil|YOffset=0mil|HoleType=Round|Shape=RoundedRectangle|*
%AMROUNDEDRECTD24*
21,1,0.02559,0.03839,0,0,180.0*
21,1,0.01280,0.05118,0,0,180.0*
1,1,0.01280,-0.00640,0.01919*
1,1,0.01280,0.00640,0.01919*
1,1,0.01280,0.00640,-0.01919*
1,1,0.01280,-0.00640,-0.01919*
%
%ADD24ROUNDEDRECTD24*%
G04:AMPARAMS|DCode=25|XSize=15.75mil|YSize=25.59mil|CornerRadius=3.94mil|HoleSize=0mil|Usage=FLASHONLY|Rotation=180.000|XOffset=0mil|YOffset=0mil|HoleType=Round|Shape=RoundedRectangle|*
%AMROUNDEDRECTD25*
21,1,0.01575,0.01772,0,0,180.0*
21,1,0.00787,0.02559,0,0,180.0*
1,1,0.00787,-0.00394,0.00886*
1,1,0.00787,0.00394,0.00886*
1,1,0.00787,0.00394,-0.00886*
1,1,0.00787,-0.00394,-0.00886*
%
%ADD25ROUNDEDRECTD25*%
G04:AMPARAMS|DCode=26|XSize=23.62mil|YSize=47.24mil|CornerRadius=5.91mil|HoleSize=0mil|Usage=FLASHONLY|Rotation=180.000|XOffset=0mil|YOffset=0mil|HoleType=Round|Shape=RoundedRectangle|*
%AMROUNDEDRECTD26*
21,1,0.02362,0.03543,0,0,180.0*
21,1,0.01181,0.04724,0,0,180.0*
1,1,0.01181,-0.00591,0.01772*
1,1,0.01181,0.00591,0.01772*
1,1,0.01181,0.00591,-0.01772*
1,1,0.01181,-0.00591,-0.01772*
%
%ADD26ROUNDEDRECTD26*%
G04:AMPARAMS|DCode=27|XSize=19.68mil|YSize=23.62mil|CornerRadius=4.92mil|HoleSize=0mil|Usage=FLASHONLY|Rotation=90.000|XOffset=0mil|YOffset=0mil|HoleType=Round|Shape=RoundedRectangle|*
%AMROUNDEDRECTD27*
21,1,0.01968,0.01378,0,0,90.0*
21,1,0.00984,0.02362,0,0,90.0*
1,1,0.00984,0.00689,0.00492*
1,1,0.00984,0.00689,-0.00492*
1,1,0.00984,-0.00689,-0.00492*
1,1,0.00984,-0.00689,0.00492*
%
%ADD27ROUNDEDRECTD27*%
G04:AMPARAMS|DCode=28|XSize=30mil|YSize=22mil|CornerRadius=5.5mil|HoleSize=0mil|Usage=FLASHONLY|Rotation=180.000|XOffset=0mil|YOffset=0mil|HoleType=Round|Shape=RoundedRectangle|*
%AMROUNDEDRECTD28*
21,1,0.03000,0.01100,0,0,180.0*
21,1,0.01900,0.02200,0,0,180.0*
1,1,0.01100,-0.00950,0.00550*
1,1,0.01100,0.00950,0.00550*
1,1,0.01100,0.00950,-0.00550*
1,1,0.01100,-0.00950,-0.00550*
%
%ADD28ROUNDEDRECTD28*%
G04:AMPARAMS|DCode=29|XSize=62.99mil|YSize=106.3mil|CornerRadius=15.75mil|HoleSize=0mil|Usage=FLASHONLY|Rotation=270.000|XOffset=0mil|YOffset=0mil|HoleType=Round|Shape=RoundedRectangle|*
%AMROUNDEDRECTD29*
21,1,0.06299,0.07480,0,0,270.0*
21,1,0.03150,0.10630,0,0,270.0*
1,1,0.03150,-0.03740,-0.01575*
1,1,0.03150,-0.03740,0.01575*
1,1,0.03150,0.03740,0.01575*
1,1,0.03150,0.03740,-0.01575*
%
%ADD29ROUNDEDRECTD29*%
G04:AMPARAMS|DCode=30|XSize=17.72mil|YSize=39.37mil|CornerRadius=4.43mil|HoleSize=0mil|Usage=FLASHONLY|Rotation=0.000|XOffset=0mil|YOffset=0mil|HoleType=Round|Shape=RoundedRectangle|*
%AMROUNDEDRECTD30*
21,1,0.01772,0.03051,0,0,0.0*
21,1,0.00886,0.03937,0,0,0.0*
1,1,0.00886,0.00443,-0.01526*
1,1,0.00886,-0.00443,-0.01526*
1,1,0.00886,-0.00443,0.01526*
1,1,0.00886,0.00443,0.01526*
%
%ADD30ROUNDEDRECTD30*%
G04:AMPARAMS|DCode=31|XSize=59.06mil|YSize=11.81mil|CornerRadius=2.95mil|HoleSize=0mil|Usage=FLASHONLY|Rotation=0.000|XOffset=0mil|YOffset=0mil|HoleType=Round|Shape=RoundedRectangle|*
%AMROUNDEDRECTD31*
21,1,0.05906,0.00591,0,0,0.0*
21,1,0.05315,0.01181,0,0,0.0*
1,1,0.00591,0.02657,-0.00295*
1,1,0.00591,-0.02657,-0.00295*
1,1,0.00591,-0.02657,0.00295*
1,1,0.00591,0.02657,0.00295*
%
%ADD31ROUNDEDRECTD31*%
%ADD32O,0.02165X0.07087*%
%ADD33P,0.03247X8X22.5*%
G04:AMPARAMS|DCode=34|XSize=30mil|YSize=30mil|CornerRadius=7.5mil|HoleSize=0mil|Usage=FLASHONLY|Rotation=0.000|XOffset=0mil|YOffset=0mil|HoleType=Round|Shape=RoundedRectangle|*
%AMROUNDEDRECTD34*
21,1,0.03000,0.01500,0,0,0.0*
21,1,0.01500,0.03000,0,0,0.0*
1,1,0.01500,0.00750,-0.00750*
1,1,0.01500,-0.00750,-0.00750*
1,1,0.01500,-0.00750,0.00750*
1,1,0.01500,0.00750,0.00750*
%
%ADD34ROUNDEDRECTD34*%
%ADD52C,0.04000*%
%ADD53C,0.02000*%
%ADD54C,0.02200*%
%ADD55C,0.02500*%
%ADD56C,0.01500*%
%ADD57C,0.03000*%
%ADD58C,0.05000*%
%ADD59C,0.02559*%
%ADD60O,0.06299X0.03937*%
%ADD61O,0.08268X0.03937*%
%ADD62C,0.04000*%
%ADD63C,0.02400*%
%ADD64C,0.05000*%
G36*
X120572Y53619D02*
X120506Y53544D01*
X120446Y53462D01*
X120394Y53372D01*
X120349Y53273D01*
X120311Y53167D01*
X120299Y53122D01*
X120390Y53024D01*
X120348Y53060D01*
X120299Y53082D01*
X120289Y53084D01*
X120281Y53052D01*
X120257Y52929D01*
X120241Y52798D01*
X120231Y52659D01*
X120229Y52512D01*
X119853Y52889D01*
X119808Y52851D01*
X119716Y52763D01*
X119292Y53187D01*
X119383Y53282D01*
X119417Y53324D01*
X119041Y53700D01*
X119189Y53702D01*
X119459Y53728D01*
X119581Y53751D01*
X119638Y53766D01*
X119635Y53794D01*
X119616Y53845D01*
X119583Y53890D01*
X119686Y53779D01*
X119696Y53782D01*
X119803Y53820D01*
X119901Y53865D01*
X119992Y53917D01*
X120074Y53976D01*
X120148Y54043D01*
X120572Y53619D01*
D02*
G37*
G36*
X113659Y53218D02*
X113578Y53319D01*
X113476Y53410D01*
X113355Y53489D01*
X113213Y53559D01*
X113051Y53617D01*
X112869Y53665D01*
X112667Y53702D01*
X112444Y53729D01*
X112201Y53745D01*
X111939Y53750D01*
Y55250D01*
X112201Y55256D01*
X112667Y55298D01*
X112869Y55335D01*
X113051Y55383D01*
X113213Y55442D01*
X113355Y55511D01*
X113476Y55591D01*
X113578Y55681D01*
X113659Y55782D01*
Y53218D01*
D02*
G37*
G36*
X108225Y55726D02*
X108330Y55626D01*
X108452Y55538D01*
X108592Y55462D01*
X108749Y55397D01*
X108924Y55344D01*
X109116Y55303D01*
X109326Y55274D01*
X109554Y55256D01*
X109799Y55250D01*
Y53750D01*
X109554Y53744D01*
X109326Y53727D01*
X109117Y53697D01*
X108924Y53656D01*
X108749Y53603D01*
X108592Y53538D01*
X108452Y53462D01*
X108330Y53374D01*
X108225Y53274D01*
X108138Y53162D01*
Y55838D01*
X108225Y55726D01*
D02*
G37*
G36*
X31465Y55984D02*
X31633Y55883D01*
X31807Y55793D01*
X31988Y55715D01*
X32174Y55649D01*
X32367Y55596D01*
X32566Y55554D01*
X32771Y55524D01*
X32982Y55506D01*
X33200Y55500D01*
Y53500D01*
X32982Y53494D01*
X32771Y53476D01*
X32566Y53446D01*
X32367Y53404D01*
X32174Y53351D01*
X31988Y53285D01*
X31807Y53207D01*
X31633Y53118D01*
X31465Y53016D01*
X31303Y52902D01*
Y56098D01*
X31465Y55984D01*
D02*
G37*
G36*
X101662Y53102D02*
X101594Y53030D01*
X101534Y52946D01*
X101483Y52849D01*
X101439Y52739D01*
X101403Y52616D01*
X101375Y52481D01*
X101355Y52334D01*
X101343Y52174D01*
X101339Y52001D01*
X100339D01*
X100334Y52165D01*
X100320Y52317D01*
X100296Y52460D01*
X100263Y52591D01*
X100220Y52713D01*
X100167Y52824D01*
X100105Y52924D01*
X100034Y53014D01*
X99953Y53093D01*
X99862Y53162D01*
X101738D01*
X101662Y53102D01*
D02*
G37*
G36*
X5000Y58980D02*
X122500D01*
X122511Y58983D01*
X123531Y58848D01*
X124492Y58450D01*
X125317Y57817D01*
X125950Y56992D01*
X126348Y56031D01*
X126483Y55011D01*
X126480Y55000D01*
Y51020D01*
X120889D01*
X120680Y51520D01*
X120929Y52122D01*
Y52300D01*
X122159D01*
X123259Y53400D01*
Y55600D01*
X122159Y56700D01*
X119959D01*
X118859Y55600D01*
Y54400D01*
X118651D01*
X117953Y54111D01*
X117669Y53827D01*
X117169Y54034D01*
Y55250D01*
X117057Y55816D01*
X116736Y56296D01*
X116257Y56616D01*
X115691Y56729D01*
X114191D01*
X113625Y56616D01*
X113146Y56296D01*
X113095Y56220D01*
X113058Y56174D01*
X113040Y56158D01*
X113001Y56132D01*
X112934Y56100D01*
X112839Y56065D01*
X112713Y56032D01*
X112569Y56006D01*
X112270Y55979D01*
X109468D01*
X109404Y55983D01*
X109241Y56006D01*
X109103Y56036D01*
X108989Y56070D01*
X108900Y56107D01*
X108834Y56143D01*
X108787Y56177D01*
X108755Y56207D01*
X108702Y56275D01*
X108651Y56351D01*
X108238Y56628D01*
X107750Y56725D01*
X106650D01*
X106162Y56628D01*
X105749Y56351D01*
X105473Y55938D01*
X105376Y55450D01*
Y53550D01*
X105473Y53062D01*
X105749Y52649D01*
X106162Y52372D01*
X106650Y52276D01*
X107750D01*
X108238Y52372D01*
X108651Y52649D01*
X108702Y52725D01*
X108756Y52793D01*
X108787Y52824D01*
X108834Y52857D01*
X108900Y52893D01*
X108989Y52930D01*
X109103Y52964D01*
X109241Y52994D01*
X109404Y53017D01*
X109468Y53022D01*
X112322D01*
X112378Y53018D01*
X112559Y52996D01*
X112713Y52968D01*
X112839Y52935D01*
X112934Y52900D01*
X113001Y52868D01*
X113040Y52842D01*
X113058Y52826D01*
X113095Y52780D01*
X113146Y52705D01*
X113625Y52384D01*
X114191Y52272D01*
X115691D01*
X116257Y52384D01*
X116629Y52633D01*
X117006Y52504D01*
X117129Y52412D01*
Y52122D01*
X117385Y51506D01*
X117280Y51152D01*
X117180Y50956D01*
X117110Y50942D01*
X116779Y50721D01*
X116558Y50390D01*
X116516Y50178D01*
X104700D01*
Y51761D01*
X102609D01*
X102586Y51773D01*
X102541Y51802D01*
X102496Y51834D01*
X102215Y52115D01*
X102207Y52212D01*
X102251Y52649D01*
X102527Y53062D01*
X102624Y53550D01*
Y55450D01*
X102527Y55938D01*
X102251Y56351D01*
X101838Y56628D01*
X101350Y56725D01*
X100250D01*
X99762Y56628D01*
X99349Y56351D01*
X99072Y55938D01*
X98975Y55450D01*
Y53550D01*
X99072Y53062D01*
X99245Y52804D01*
X99245Y52803D01*
X99247Y52801D01*
X99349Y52649D01*
X99429Y52595D01*
X99430Y52594D01*
X99485Y52552D01*
X99503Y52535D01*
X99520Y52513D01*
X99539Y52482D01*
X99559Y52440D01*
X99579Y52384D01*
X99597Y52313D01*
X99606Y52261D01*
X99601Y52198D01*
X99423Y51761D01*
X91658D01*
X91287Y52009D01*
X90784Y52109D01*
X89602D01*
X89099Y52009D01*
X88728Y51761D01*
X88635Y51761D01*
X88429Y51967D01*
X88438Y51386D01*
X88422Y51349D01*
X88433Y51371D01*
X88422Y51349D01*
X88387Y51297D01*
X88287Y50793D01*
Y47250D01*
X88387Y46747D01*
X88515Y46554D01*
X88533Y45436D01*
X88430Y45333D01*
X76473Y45114D01*
Y44444D01*
X71842D01*
X71793Y44944D01*
X71938Y44973D01*
X72351Y45249D01*
X72628Y45662D01*
X72724Y46150D01*
Y47250D01*
X72628Y47738D01*
X72351Y48151D01*
X71938Y48428D01*
X71450Y48524D01*
X71279D01*
X71261Y48537D01*
X70500Y48688D01*
X70172D01*
Y54250D01*
X70025Y54990D01*
Y55450D01*
X69928Y55938D01*
X69651Y56351D01*
X69238Y56628D01*
X68750Y56725D01*
X67650D01*
X67162Y56628D01*
X66749Y56351D01*
X66473Y55938D01*
X66375Y55450D01*
Y55054D01*
X66347Y55011D01*
X66195Y54250D01*
Y48688D01*
X62991D01*
X62425Y49066D01*
X61664Y49218D01*
X48715D01*
X48659Y49273D01*
X48505Y49505D01*
X45714Y52296D01*
Y57000D01*
X45659Y57273D01*
X45505Y57505D01*
X45273Y57659D01*
X45000Y57714D01*
X41000D01*
X40727Y57659D01*
X40495Y57505D01*
X40341Y57273D01*
X40286Y57000D01*
X31170D01*
X31142Y57016D01*
X30970Y57062D01*
X30805Y57130D01*
X30628Y57154D01*
X30455Y57200D01*
X30277D01*
X30100Y57223D01*
X26500D01*
X25795Y57130D01*
X25257Y56908D01*
X25010Y56859D01*
X24600Y56584D01*
X24214Y56719D01*
X24100Y56806D01*
Y57214D01*
X14500D01*
X14227Y57159D01*
X13995Y57005D01*
X13841Y56773D01*
X13786Y56500D01*
Y33076D01*
X13841Y32803D01*
X13995Y32572D01*
X14227Y32417D01*
X14500Y32362D01*
X20664D01*
X20856Y31901D01*
X15279Y26324D01*
X15058Y25993D01*
X14980Y25603D01*
Y10609D01*
X12676Y8305D01*
X12590Y8225D01*
X12589Y8224D01*
X11650D01*
X11162Y8128D01*
X10749Y7851D01*
X10473Y7438D01*
X10375Y6950D01*
Y5050D01*
X10473Y4562D01*
X10749Y4149D01*
X11162Y3872D01*
X11650Y3776D01*
X12750D01*
X13238Y3872D01*
X13651Y4149D01*
X13927Y4562D01*
X14025Y5050D01*
Y6758D01*
X14091Y6836D01*
X16721Y9466D01*
X16942Y9797D01*
X17020Y10187D01*
Y25181D01*
X24382Y32543D01*
X24841Y32346D01*
X24784Y30020D01*
X24000D01*
X23610Y29942D01*
X23279Y29721D01*
X18857Y25299D01*
X18636Y24968D01*
X18558Y24578D01*
Y4084D01*
X18636Y3693D01*
X18857Y3363D01*
X20738Y1481D01*
X20547Y1020D01*
X5000D01*
X4989Y1017D01*
X3969Y1152D01*
X3008Y1550D01*
X2183Y2183D01*
X1550Y3008D01*
X1152Y3969D01*
X1017Y4989D01*
X1020Y5000D01*
Y55000D01*
X1017Y55011D01*
X1152Y56031D01*
X1550Y56992D01*
X2183Y57817D01*
X3008Y58450D01*
X3969Y58848D01*
X4989Y58983D01*
X5000Y58980D01*
D02*
G37*
G36*
X101961Y51351D02*
X102050Y51276D01*
X102140Y51211D01*
X102230Y51154D01*
X102321Y51106D01*
X102413Y51067D01*
X102506Y51037D01*
X102599Y51016D01*
X102693Y51003D01*
X102788Y51000D01*
X101600Y49812D01*
X101597Y49907D01*
X101584Y50001D01*
X101563Y50094D01*
X101533Y50187D01*
X101494Y50279D01*
X101446Y50370D01*
X101389Y50460D01*
X101324Y50550D01*
X101249Y50639D01*
X101166Y50727D01*
X101873Y51434D01*
X101961Y51351D01*
D02*
G37*
G36*
X91092Y46826D02*
X91009Y46791D01*
X90935Y46732D01*
X90870Y46649D01*
X90816Y46543D01*
X90772Y46414D01*
X90737Y46261D01*
X90713Y46084D01*
X90698Y45884D01*
X90693Y45660D01*
X89693D01*
X89688Y45884D01*
X89648Y46261D01*
X89614Y46414D01*
X89570Y46543D01*
X89515Y46649D01*
X89451Y46732D01*
X89377Y46791D01*
X89293Y46826D01*
X89200Y46838D01*
X91186D01*
X91092Y46826D01*
D02*
G37*
G36*
X45000Y52000D02*
X47500Y49500D01*
X48000Y49000D01*
Y47918D01*
X48015Y47911D01*
X48134Y47866D01*
X48258Y47827D01*
X48386Y47796D01*
X48518Y47771D01*
X48655Y47754D01*
X48796Y47744D01*
X48942Y47740D01*
Y46740D01*
X48796Y46737D01*
X48518Y46709D01*
X48386Y46684D01*
X48258Y46653D01*
X48134Y46615D01*
X48015Y46569D01*
X48000Y46563D01*
Y46000D01*
X40000D01*
X39500Y45500D01*
X37500D01*
X37000Y46000D01*
Y47500D01*
X41000Y51500D01*
Y53500D01*
Y57000D01*
X45000D01*
Y52000D01*
D02*
G37*
G36*
X88506Y42972D02*
X88308Y42766D01*
X87996Y42399D01*
X87882Y42236D01*
X87796Y42088D01*
X87738Y41954D01*
X87708Y41833D01*
X87706Y41727D01*
X87732Y41635D01*
X87787Y41557D01*
X86411Y42987D01*
X86487Y42930D01*
X86577Y42902D01*
X86682Y42902D01*
X86801Y42932D01*
X86935Y42989D01*
X87084Y43075D01*
X87248Y43190D01*
X87426Y43333D01*
X87826Y43706D01*
X88506Y42972D01*
D02*
G37*
G36*
X105472Y42060D02*
X105204Y42239D01*
X104891Y42399D01*
X104532Y42539D01*
X104127Y42662D01*
X103677Y42765D01*
X103182Y42850D01*
X102054Y42962D01*
X101422Y42991D01*
X100744Y43000D01*
Y47000D01*
X101422Y47009D01*
X103182Y47150D01*
X103677Y47235D01*
X104127Y47338D01*
X104532Y47461D01*
X104891Y47602D01*
X105204Y47761D01*
X105472Y47940D01*
Y42060D01*
D02*
G37*
G36*
X51770Y44530D02*
X51800Y44360D01*
X51850Y44210D01*
X51920Y44080D01*
X52010Y43970D01*
X52120Y43880D01*
X52250Y43810D01*
X52400Y43760D01*
X52570Y43730D01*
X52760Y43720D01*
Y42720D01*
X52570Y42710D01*
X52400Y42680D01*
X52250Y42630D01*
X52120Y42560D01*
X52010Y42470D01*
X51920Y42360D01*
X51850Y42230D01*
X51800Y42080D01*
X51770Y41910D01*
X51760Y41720D01*
X50760Y43220D01*
X51760Y44720D01*
X51770Y44530D01*
D02*
G37*
G36*
X79132Y43382D02*
X79483Y43087D01*
X79635Y42983D01*
X79771Y42910D01*
X79891Y42866D01*
X79996Y42852D01*
X80085Y42867D01*
X80158Y42912D01*
X80216Y42987D01*
X79214Y41184D01*
X79248Y41282D01*
X79253Y41395D01*
X79229Y41523D01*
X79175Y41668D01*
X79091Y41828D01*
X78977Y42004D01*
X78834Y42196D01*
X78661Y42404D01*
X78226Y42867D01*
X78933Y43574D01*
X79132Y43382D01*
D02*
G37*
G36*
X87555Y40098D02*
X87480Y40022D01*
X87414Y39935D01*
X87358Y39836D01*
X87309Y39726D01*
X87270Y39604D01*
X87239Y39470D01*
X87217Y39326D01*
X87204Y39169D01*
X87200Y39001D01*
X86200D01*
X86196Y39169D01*
X86182Y39326D01*
X86161Y39470D01*
X86130Y39604D01*
X86090Y39726D01*
X86042Y39836D01*
X85985Y39935D01*
X85920Y40022D01*
X85845Y40098D01*
X85762Y40162D01*
X87638D01*
X87555Y40098D01*
D02*
G37*
G36*
X47789Y40542D02*
X47899Y40483D01*
X48015Y40431D01*
X48134Y40385D01*
X48258Y40347D01*
X48386Y40316D01*
X48518Y40291D01*
X48655Y40274D01*
X48796Y40263D01*
X48942Y40260D01*
Y39260D01*
X48796Y39256D01*
X48518Y39228D01*
X48386Y39204D01*
X48258Y39173D01*
X48134Y39134D01*
X48015Y39089D01*
X47899Y39037D01*
X47789Y38977D01*
X47682Y38911D01*
Y40609D01*
X47789Y40542D01*
D02*
G37*
G36*
X80143Y34801D02*
X80178Y34800D01*
Y34200D01*
X80143Y34199D01*
Y33660D01*
X80037Y33763D01*
X79829Y33935D01*
X79725Y34006D01*
X79622Y34065D01*
X79617Y34067D01*
X79602Y34054D01*
X79571Y34010D01*
X79552Y33959D01*
X79545Y33902D01*
Y34102D01*
X79520Y34114D01*
X79418Y34151D01*
X79318Y34178D01*
X79218Y34195D01*
X79118Y34200D01*
Y34800D01*
X79218Y34805D01*
X79318Y34822D01*
X79418Y34849D01*
X79520Y34886D01*
X79545Y34898D01*
Y35098D01*
X79552Y35041D01*
X79571Y34991D01*
X79602Y34946D01*
X79617Y34933D01*
X79622Y34935D01*
X79725Y34994D01*
X79829Y35065D01*
X79933Y35146D01*
X80037Y35237D01*
X80143Y35340D01*
Y34801D01*
D02*
G37*
G36*
X27560Y34422D02*
X27529Y34460D01*
X27490Y34494D01*
X27442Y34523D01*
X27386Y34549D01*
X27322Y34571D01*
X27250Y34589D01*
X27169Y34603D01*
X27079Y34613D01*
X26876Y34621D01*
Y35221D01*
X26982Y35223D01*
X27169Y35239D01*
X27250Y35253D01*
X27322Y35271D01*
X27386Y35293D01*
X27442Y35319D01*
X27490Y35349D01*
X27529Y35383D01*
X27560Y35421D01*
Y34422D01*
D02*
G37*
G36*
X25010Y52141D02*
X25257Y52092D01*
X25795Y51869D01*
X26500Y51777D01*
X29790D01*
X30245Y51374D01*
X30271Y51300D01*
X39137D01*
X39329Y50838D01*
X36495Y48005D01*
X36341Y47773D01*
X36286Y47500D01*
Y47304D01*
X36276Y47250D01*
Y46150D01*
X36286Y46096D01*
Y46000D01*
X36341Y45727D01*
X36368Y45686D01*
X36373Y45662D01*
X36649Y45249D01*
X36929Y45061D01*
X36995Y44995D01*
X36995Y44995D01*
X37227Y44841D01*
X37500Y44786D01*
X39500D01*
X39773Y44841D01*
X40005Y44995D01*
X40071Y45061D01*
X40351Y45249D01*
X40376Y45286D01*
X48000D01*
X48158Y45318D01*
X48524Y45116D01*
X48658Y44997D01*
X48658Y41500D01*
X48656Y41495D01*
X48615Y41404D01*
X48572Y41345D01*
X48512Y41290D01*
X48417Y41237D01*
X48157Y41154D01*
X48146Y41161D01*
X48059Y41215D01*
X48053Y41217D01*
X47960Y41279D01*
X47806Y41310D01*
X47798Y41313D01*
X47792Y41313D01*
X47514Y41368D01*
X44463D01*
X44017Y41279D01*
X43639Y41027D01*
X43386Y40649D01*
X43297Y40203D01*
Y39317D01*
X43386Y38871D01*
X43639Y38493D01*
X44017Y38240D01*
X44463Y38152D01*
X47514D01*
X47792Y38207D01*
X47798Y38207D01*
X47806Y38210D01*
X47960Y38240D01*
X48053Y38303D01*
X48059Y38305D01*
X48146Y38359D01*
X48157Y38365D01*
X48220Y38345D01*
X48657Y38174D01*
X48657Y38174D01*
X48657Y38174D01*
X55374D01*
X55486Y38152D01*
X56931D01*
X57381Y38119D01*
X57400Y38100D01*
X57416Y38116D01*
X57901Y38152D01*
X58537D01*
X58983Y38240D01*
X59361Y38493D01*
X59614Y38871D01*
X59703Y39317D01*
Y40203D01*
X59614Y40649D01*
X59361Y41027D01*
X58983Y41279D01*
X58537Y41368D01*
X57416D01*
Y41997D01*
X76473D01*
Y34438D01*
X76233Y34156D01*
X75750Y33674D01*
X75330Y33749D01*
X75211Y33824D01*
X75179Y33983D01*
X74785Y34573D01*
X74196Y34967D01*
X73500Y35105D01*
X72804Y34967D01*
X72215Y34573D01*
X71821Y33983D01*
X71682Y33287D01*
Y28366D01*
X71821Y27671D01*
X72215Y27081D01*
X72804Y26687D01*
X73500Y26549D01*
X74196Y26687D01*
X74403Y26825D01*
X74969Y26602D01*
X74997Y26482D01*
X70938Y22423D01*
X52700D01*
X52232Y22330D01*
X51835Y22065D01*
X42778Y13008D01*
X42513Y12611D01*
X42420Y12143D01*
Y12094D01*
X42414Y12082D01*
X42405Y12067D01*
X42390Y12047D01*
X42369Y12023D01*
X42365Y12019D01*
X42215Y11919D01*
X41821Y11329D01*
X41682Y10634D01*
Y5713D01*
X41821Y5017D01*
X42153Y4520D01*
X42046Y4185D01*
X41932Y4020D01*
X25383D01*
X25116Y4520D01*
X25144Y4562D01*
X25227Y4980D01*
X27500D01*
X27890Y5058D01*
X28221Y5279D01*
X35721Y12779D01*
X35942Y13110D01*
X36020Y13500D01*
Y22100D01*
X37200D01*
Y25835D01*
X37662Y26026D01*
X39000Y24688D01*
X39645Y24257D01*
X40406Y24106D01*
X41167Y24257D01*
X41812Y24688D01*
X42243Y25333D01*
X42394Y26094D01*
X42333Y26401D01*
X42783Y26701D01*
X42804Y26687D01*
X43500Y26549D01*
X44196Y26687D01*
X44785Y27081D01*
X45179Y27671D01*
X45318Y28366D01*
Y33287D01*
X45179Y33983D01*
X44785Y34573D01*
X44196Y34967D01*
X43500Y35105D01*
X42804Y34967D01*
X42215Y34573D01*
X41821Y33983D01*
X41682Y33287D01*
Y28366D01*
X41690Y28329D01*
X41285Y28081D01*
X41228Y28087D01*
X41024Y28319D01*
X40732Y28691D01*
X40503Y29029D01*
X40488Y29055D01*
Y30827D01*
X40439Y31077D01*
X40488Y31327D01*
Y35600D01*
X40337Y36361D01*
X39906Y37006D01*
X39261Y37437D01*
X38500Y37588D01*
X37739Y37437D01*
X37094Y37006D01*
X36663Y36361D01*
X36564Y35863D01*
X34389D01*
X34288Y35956D01*
X34047Y36363D01*
X34093Y36595D01*
Y37185D01*
X34016Y37573D01*
X33815Y37874D01*
X34016Y38175D01*
X34093Y38563D01*
Y39154D01*
X34035Y39449D01*
X34093Y39744D01*
Y40335D01*
X34016Y40723D01*
X33796Y41052D01*
X33467Y41272D01*
X33079Y41349D01*
X27764D01*
X27375Y41272D01*
X27288Y41214D01*
X26338D01*
Y41772D01*
X26036Y42499D01*
X25480Y43056D01*
X24752Y43358D01*
X23965D01*
X23237Y43056D01*
X22714Y42533D01*
X22554Y42548D01*
X22214Y42680D01*
Y46799D01*
X22205Y46845D01*
X22208Y46892D01*
X22190Y47028D01*
X22208Y47163D01*
X22205Y47210D01*
X22214Y47256D01*
Y52050D01*
X24100D01*
Y52194D01*
X24214Y52281D01*
X24600Y52416D01*
X25010Y52141D01*
D02*
G37*
G36*
X78740Y33530D02*
X78658Y33581D01*
X78564Y33605D01*
X78456Y33601D01*
X78334Y33570D01*
X78199Y33511D01*
X78051Y33426D01*
X77890Y33313D01*
X77715Y33173D01*
X77325Y32811D01*
X76514Y33414D01*
X76718Y33625D01*
X77038Y34001D01*
X77154Y34165D01*
X77240Y34314D01*
X77298Y34448D01*
X77326Y34566D01*
X77324Y34669D01*
X77293Y34756D01*
X77233Y34829D01*
X78740Y33530D01*
D02*
G37*
G36*
X21500Y52050D02*
Y51000D01*
Y47256D01*
X21470Y47028D01*
X21500Y46799D01*
Y40500D01*
X22579D01*
X22680Y40257D01*
X23237Y39700D01*
X23965Y39398D01*
X24752D01*
X25480Y39700D01*
X26036Y40257D01*
X26137Y40500D01*
X32500D01*
X33000Y40000D01*
Y38200D01*
X27764D01*
X27375Y38123D01*
X27046Y37903D01*
X26826Y37573D01*
X26749Y37185D01*
Y36595D01*
X26780Y36441D01*
X26477Y35985D01*
X26408Y35941D01*
X25318D01*
X24928Y35863D01*
X24597Y35642D01*
X21962Y33007D01*
X21500Y33198D01*
Y33076D01*
X14500D01*
Y56500D01*
X21500D01*
Y52050D01*
D02*
G37*
G36*
X104997Y32523D02*
X104961Y32712D01*
X104881Y32880D01*
X104758Y33029D01*
X104591Y33158D01*
X104381Y33268D01*
X104128Y33357D01*
X103832Y33426D01*
X103492Y33476D01*
X103110Y33506D01*
X102683Y33516D01*
Y35516D01*
X103079Y35526D01*
X103432Y35556D01*
X103741Y35606D01*
X104007Y35676D01*
X104230Y35766D01*
X104410Y35876D01*
X104546Y36006D01*
X104639Y36156D01*
X104689Y36326D01*
X104696Y36516D01*
X104997Y32523D01*
D02*
G37*
G36*
X27560Y32453D02*
X27529Y32491D01*
X27490Y32525D01*
X27442Y32555D01*
X27386Y32581D01*
X27322Y32603D01*
X27250Y32621D01*
X27169Y32635D01*
X27079Y32645D01*
X26876Y32653D01*
Y33253D01*
X26982Y33255D01*
X27169Y33271D01*
X27250Y33285D01*
X27322Y33303D01*
X27386Y33325D01*
X27442Y33351D01*
X27490Y33380D01*
X27529Y33414D01*
X27560Y33452D01*
Y32453D01*
D02*
G37*
G36*
X33314Y31446D02*
X33353Y31412D01*
X33400Y31382D01*
X33456Y31356D01*
X33520Y31334D01*
X33593Y31316D01*
X33674Y31302D01*
X33763Y31292D01*
X33967Y31284D01*
Y30684D01*
X33861Y30682D01*
X33674Y30666D01*
X33593Y30652D01*
X33520Y30634D01*
X33456Y30612D01*
X33400Y30586D01*
X33353Y30557D01*
X33314Y30523D01*
X33283Y30485D01*
Y31484D01*
X33314Y31446D01*
D02*
G37*
G36*
X26610Y29786D02*
X26628Y29684D01*
X26658Y29594D01*
X26700Y29516D01*
X26754Y29450D01*
X26820Y29396D01*
X26898Y29354D01*
X26988Y29324D01*
X27066Y29310D01*
X27164Y29319D01*
X27244Y29334D01*
X27316Y29354D01*
X27381Y29377D01*
X27437Y29406D01*
X27486Y29438D01*
X27527Y29474D01*
X27560Y29515D01*
Y28516D01*
X27531Y28551D01*
X27493Y28582D01*
X27447Y28610D01*
X27392Y28634D01*
X27328Y28654D01*
X27256Y28671D01*
X27174Y28684D01*
X27085Y28693D01*
X26879Y28700D01*
X26876Y29081D01*
X26304Y28700D01*
X25404Y29300D01*
X25518Y29306D01*
X25620Y29324D01*
X25710Y29354D01*
X25788Y29396D01*
X25854Y29450D01*
X25908Y29516D01*
X25950Y29594D01*
X25980Y29684D01*
X25998Y29786D01*
X26004Y29900D01*
X26604D01*
X26610Y29786D01*
D02*
G37*
G36*
X39475Y30215D02*
X39442Y29950D01*
X39467Y29661D01*
X39551Y29349D01*
X39694Y29013D01*
X39895Y28653D01*
X40156Y28270D01*
X40475Y27863D01*
X40853Y27432D01*
X41290Y26978D01*
X39522Y25210D01*
X39023Y25716D01*
X37788Y27109D01*
X37670Y27299D01*
X37628Y27427D01*
X37663Y27491D01*
X37773Y27492D01*
X37960Y27431D01*
X39568Y30456D01*
X39475Y30215D01*
D02*
G37*
G36*
X33314Y27509D02*
X33353Y27475D01*
X33400Y27445D01*
X33456Y27419D01*
X33520Y27397D01*
X33593Y27379D01*
X33674Y27365D01*
X33763Y27355D01*
X33967Y27347D01*
Y26747D01*
X33861Y26745D01*
X33674Y26729D01*
X33593Y26715D01*
X33520Y26697D01*
X33456Y26675D01*
X33400Y26649D01*
X33353Y26620D01*
X33314Y26586D01*
X33283Y26548D01*
Y27547D01*
X33314Y27509D01*
D02*
G37*
G36*
X27560Y26548D02*
X27529Y26586D01*
X27490Y26620D01*
X27442Y26649D01*
X27386Y26675D01*
X27322Y26697D01*
X27250Y26715D01*
X27169Y26729D01*
X27079Y26739D01*
X26876Y26747D01*
Y27347D01*
X26982Y27349D01*
X27169Y27365D01*
X27250Y27379D01*
X27322Y27397D01*
X27386Y27419D01*
X27442Y27445D01*
X27490Y27475D01*
X27529Y27509D01*
X27560Y27547D01*
Y26548D01*
D02*
G37*
G36*
X87606Y28870D02*
X87772Y28792D01*
X87957Y28724D01*
X88161Y28664D01*
X88384Y28614D01*
X88626Y28573D01*
X89169Y28518D01*
X89469Y28505D01*
X89789Y28500D01*
Y26500D01*
X89469Y26495D01*
X88626Y26427D01*
X88384Y26386D01*
X88161Y26336D01*
X87957Y26276D01*
X87772Y26208D01*
X87606Y26130D01*
X87460Y26043D01*
Y28957D01*
X87606Y28870D01*
D02*
G37*
G36*
X80216Y26013D02*
X80157Y26087D01*
X80081Y26129D01*
X79988Y26140D01*
X79877Y26119D01*
X79748Y26067D01*
X79602Y25983D01*
X79438Y25868D01*
X79257Y25722D01*
X78842Y25334D01*
X78494Y26401D01*
X78676Y26590D01*
X78965Y26935D01*
X79074Y27092D01*
X79158Y27239D01*
X79218Y27375D01*
X79253Y27501D01*
X79264Y27616D01*
X79251Y27721D01*
X79214Y27816D01*
X80216Y26013D01*
D02*
G37*
G36*
X103717Y28496D02*
X105862Y28355D01*
X106003Y28303D01*
X106049Y28242D01*
X105998Y28174D01*
X105852Y28097D01*
X104696Y25500D01*
X104756Y25690D01*
X104757Y25860D01*
X104701Y26010D01*
X104587Y26140D01*
X104415Y26250D01*
X104185Y26340D01*
X103897Y26410D01*
X103550Y26460D01*
X103146Y26490D01*
X102683Y26500D01*
X103000Y28500D01*
X103717Y28496D01*
D02*
G37*
G36*
X33314Y23572D02*
X33353Y23538D01*
X33400Y23508D01*
X33456Y23482D01*
X33520Y23460D01*
X33593Y23442D01*
X33674Y23428D01*
X33763Y23418D01*
X33967Y23410D01*
Y22810D01*
X33861Y22808D01*
X33674Y22792D01*
X33593Y22778D01*
X33520Y22760D01*
X33456Y22738D01*
X33400Y22713D01*
X33353Y22683D01*
X33314Y22649D01*
X33283Y22611D01*
Y23610D01*
X33314Y23572D01*
D02*
G37*
G36*
X86567Y23470D02*
X86941Y23151D01*
X87107Y23034D01*
X87258Y22946D01*
X87394Y22886D01*
X87515Y22854D01*
X87622Y22851D01*
X87714Y22877D01*
X87792Y22931D01*
X86370Y21551D01*
X86426Y21626D01*
X86454Y21717D01*
X86453Y21822D01*
X86424Y21941D01*
X86366Y22075D01*
X86280Y22224D01*
X86166Y22388D01*
X86023Y22565D01*
X85651Y22965D01*
X86358Y23672D01*
X86567Y23470D01*
D02*
G37*
G36*
X24674Y25525D02*
X24672Y25482D01*
X26749Y23405D01*
Y22815D01*
X26826Y22427D01*
X27046Y22097D01*
X27375Y21877D01*
X27764Y21800D01*
X33000D01*
Y19302D01*
X27764D01*
X27375Y19225D01*
X27046Y19005D01*
X27043Y19000D01*
X26338D01*
Y19016D01*
X26036Y19743D01*
X25480Y20300D01*
X24752Y20602D01*
X23965D01*
X23237Y20300D01*
X22822Y19885D01*
X22496Y19839D01*
X22044Y20241D01*
Y23603D01*
X24179Y25737D01*
X24674Y25525D01*
D02*
G37*
G36*
X104557Y21446D02*
X104542Y18462D01*
X101054Y18228D01*
X92287D01*
X91452Y18118D01*
X90674Y17795D01*
X90005Y17282D01*
X88021Y15299D01*
X83500D01*
X82665Y15189D01*
X81886Y14866D01*
X81218Y14353D01*
X80705Y13685D01*
X80382Y12906D01*
X80272Y12071D01*
X80382Y11236D01*
X80705Y10457D01*
X81218Y9789D01*
X81886Y9276D01*
X82665Y8953D01*
X83500Y8843D01*
X85476D01*
Y8296D01*
X85473Y8258D01*
X85459Y8163D01*
X85441Y8086D01*
X85422Y8028D01*
X85404Y7986D01*
X85389Y7959D01*
X85378Y7945D01*
X85370Y7937D01*
X85326Y7903D01*
X85326Y7903D01*
X85249Y7851D01*
X85143Y7693D01*
X85143Y7693D01*
X85143Y7693D01*
X84973Y7438D01*
X84876Y6950D01*
Y5050D01*
X84973Y4562D01*
X85249Y4149D01*
X85662Y3872D01*
X86150Y3776D01*
X87250D01*
X87738Y3872D01*
X88151Y4149D01*
X88428Y4562D01*
X88525Y5050D01*
Y6950D01*
X88428Y7438D01*
X88257Y7693D01*
X88257Y7693D01*
X88257Y7693D01*
X88151Y7851D01*
X88074Y7903D01*
X88074Y7903D01*
X88030Y7937D01*
X88022Y7944D01*
X88011Y7959D01*
X87996Y7986D01*
X87978Y8028D01*
X87959Y8086D01*
X87941Y8163D01*
X87927Y8258D01*
X87924Y8296D01*
Y8843D01*
X89358D01*
X90194Y8953D01*
X90972Y9276D01*
X91641Y9789D01*
X93624Y11772D01*
X100629D01*
X103190Y11716D01*
X104244Y11632D01*
X104508Y11596D01*
X104500Y10000D01*
X108908D01*
X109150Y9500D01*
X108923Y8952D01*
Y8197D01*
X109043Y7907D01*
X109040Y7836D01*
X108728Y7361D01*
X108651Y7351D01*
X108238Y7627D01*
X107750Y7724D01*
X106650D01*
X106162Y7627D01*
X105749Y7351D01*
X105473Y6938D01*
X105376Y6450D01*
Y4550D01*
X105473Y4062D01*
X105749Y3649D01*
X106162Y3373D01*
X106650Y3275D01*
X107750D01*
X108238Y3373D01*
X108651Y3649D01*
X108702Y3725D01*
X108756Y3793D01*
X108787Y3824D01*
X108834Y3857D01*
X108900Y3893D01*
X108989Y3930D01*
X109103Y3964D01*
X109241Y3994D01*
X109404Y4017D01*
X109468Y4022D01*
X112322D01*
X112378Y4018D01*
X112559Y3996D01*
X112713Y3968D01*
X112839Y3935D01*
X112934Y3900D01*
X113001Y3868D01*
X113040Y3842D01*
X113058Y3826D01*
X113095Y3780D01*
X113146Y3705D01*
X113625Y3384D01*
X114191Y3272D01*
X115691D01*
X116257Y3384D01*
X116736Y3705D01*
X117057Y4184D01*
X117169Y4750D01*
Y6250D01*
X117101Y6594D01*
X117562Y6840D01*
X118819Y5583D01*
X118859Y5556D01*
Y4400D01*
X119959Y3300D01*
X122159D01*
X123259Y4400D01*
Y6600D01*
X122159Y7700D01*
X119959D01*
X119772Y7513D01*
X118767Y8518D01*
X118959Y8980D01*
X126480D01*
Y5000D01*
X126483Y4989D01*
X126348Y3969D01*
X125950Y3008D01*
X125317Y2183D01*
X124492Y1550D01*
X123531Y1152D01*
X122511Y1017D01*
X122500Y1020D01*
X61115D01*
X60923Y1481D01*
X63332Y3890D01*
X63364Y3918D01*
X63368Y3921D01*
X63500Y3895D01*
X64196Y4033D01*
X64785Y4427D01*
X65179Y5017D01*
X65318Y5713D01*
Y10634D01*
X65179Y11329D01*
X64785Y11919D01*
X64196Y12313D01*
X63500Y12451D01*
X58500D01*
X57804Y12313D01*
X57215Y11919D01*
X56821Y11329D01*
X56682Y10634D01*
Y5713D01*
X56821Y5017D01*
X57003Y4745D01*
X56278Y4020D01*
X55068D01*
X54954Y4185D01*
X54847Y4520D01*
X55179Y5017D01*
X55318Y5713D01*
Y8084D01*
X55335Y8173D01*
Y12466D01*
X55400Y12622D01*
Y13378D01*
X55111Y14076D01*
X54576Y14611D01*
X53878Y14900D01*
X53122D01*
X52424Y14611D01*
X51889Y14076D01*
X51600Y13378D01*
Y12622D01*
X51665Y12466D01*
Y8173D01*
X51682Y8084D01*
Y5713D01*
X51821Y5017D01*
X52153Y4520D01*
X52046Y4185D01*
X51932Y4020D01*
X50068D01*
X49954Y4185D01*
X49847Y4520D01*
X50179Y5017D01*
X50318Y5713D01*
Y10634D01*
X50179Y11329D01*
X50037Y11542D01*
X50017Y11588D01*
X49949Y11683D01*
X49902Y11761D01*
X49860Y11842D01*
X49823Y11929D01*
X49791Y12021D01*
X49764Y12120D01*
X49743Y12225D01*
X49727Y12337D01*
X49724Y12381D01*
Y13993D01*
X54007Y18277D01*
X69817D01*
X69856Y18261D01*
X69912Y18231D01*
X69938Y18213D01*
X69941Y18198D01*
X70021Y17708D01*
X69889Y17576D01*
X69600Y16878D01*
Y16122D01*
X69889Y15424D01*
X70424Y14889D01*
X71122Y14600D01*
X71878D01*
X72576Y14889D01*
X73111Y15424D01*
X73400Y16122D01*
Y16878D01*
X73111Y17576D01*
X72893Y17794D01*
X72863Y17843D01*
X72821Y17888D01*
X72802Y18065D01*
X72791Y18385D01*
X73165Y18635D01*
X76083Y21553D01*
X76473Y21800D01*
Y21800D01*
X76473Y21800D01*
X85632D01*
Y19474D01*
X85721Y19028D01*
X85973Y18650D01*
X86351Y18398D01*
X86797Y18309D01*
X87683D01*
X88129Y18398D01*
X88507Y18650D01*
X88760Y19028D01*
X88848Y19474D01*
Y21800D01*
X104204D01*
X104557Y21446D01*
D02*
G37*
G36*
X72300Y19000D02*
X72243Y18990D01*
X72192Y18960D01*
X72147Y18910D01*
X72108Y18840D01*
X72075Y18750D01*
X72048Y18640D01*
X72027Y18510D01*
X72003Y18194D01*
X72003Y18190D01*
X72014Y18074D01*
X72031Y17964D01*
X72054Y17860D01*
X72085Y17762D01*
X72122Y17670D01*
X72167Y17583D01*
X72218Y17502D01*
X72275Y17426D01*
X72340Y17357D01*
X70660D01*
X70725Y17426D01*
X70782Y17502D01*
X70833Y17583D01*
X70878Y17670D01*
X70915Y17762D01*
X70946Y17860D01*
X70969Y17964D01*
X70986Y18074D01*
X70992Y18143D01*
X70990Y18190D01*
X70960Y18360D01*
X70910Y18510D01*
X70840Y18640D01*
X70750Y18750D01*
X70640Y18840D01*
X70510Y18910D01*
X70360Y18960D01*
X70190Y18990D01*
X70000Y19000D01*
X71500Y20000D01*
X72300Y19000D01*
D02*
G37*
G36*
X33980Y18470D02*
Y13922D01*
X27078Y7020D01*
X25227D01*
X25144Y7438D01*
X24868Y7851D01*
X24454Y8128D01*
X23967Y8224D01*
X22867D01*
X22544Y8160D01*
X22044Y8460D01*
Y17729D01*
X22544Y17828D01*
X22680Y17501D01*
X23237Y16944D01*
X23965Y16643D01*
X24752D01*
X25480Y16944D01*
X26036Y17501D01*
X26338Y18228D01*
Y18286D01*
X27043D01*
X27112Y18300D01*
X27182Y18300D01*
X27247Y18327D01*
X27316Y18341D01*
X27375Y18380D01*
X27439Y18407D01*
X27448Y18415D01*
X27654Y18553D01*
X27834Y18588D01*
X33000D01*
X33273Y18643D01*
X33372Y18709D01*
X33467Y18728D01*
X33480Y18737D01*
X33980Y18470D01*
D02*
G37*
G36*
X105472Y12060D02*
X105314Y12144D01*
X105069Y12218D01*
X104738Y12284D01*
X104321Y12342D01*
X103227Y12430D01*
X100000Y12500D01*
Y17500D01*
X100936Y17504D01*
X105069Y17782D01*
X105314Y17856D01*
X105472Y17940D01*
Y12060D01*
D02*
G37*
G36*
X44144Y12018D02*
X44173Y11630D01*
X44186Y11561D01*
X44202Y11503D01*
X44220Y11457D01*
X44241Y11422D01*
X44264Y11398D01*
X42736D01*
X42814Y11461D01*
X42883Y11527D01*
X42944Y11596D01*
X42997Y11667D01*
X43042Y11740D01*
X43078Y11816D01*
X43106Y11894D01*
X43127Y11975D01*
X43139Y12058D01*
X43143Y12143D01*
X44143D01*
X44144Y12018D01*
D02*
G37*
G36*
X49004Y12420D02*
X49017Y12259D01*
X49039Y12104D01*
X49070Y11954D01*
X49109Y11810D01*
X49157Y11672D01*
X49213Y11539D01*
X49279Y11412D01*
X49352Y11290D01*
X49435Y11174D01*
X47565D01*
X47648Y11290D01*
X47721Y11412D01*
X47787Y11539D01*
X47843Y11672D01*
X47891Y11810D01*
X47930Y11954D01*
X47961Y12104D01*
X47983Y12259D01*
X47996Y12420D01*
X48000Y12586D01*
X49000D01*
X49004Y12420D01*
D02*
G37*
G36*
X111785Y9312D02*
X111995Y9139D01*
X112098Y9069D01*
X112201Y9010D01*
X112303Y8961D01*
X112405Y8923D01*
X112505Y8896D01*
X112606Y8880D01*
X112705Y8875D01*
Y8275D01*
X112606Y8269D01*
X112505Y8253D01*
X112405Y8226D01*
X112303Y8188D01*
X112201Y8140D01*
X112098Y8080D01*
X111995Y8010D01*
X111890Y7929D01*
X111785Y7837D01*
X111680Y7735D01*
Y9415D01*
X111785Y9312D01*
D02*
G37*
G36*
X13704Y7467D02*
X13588Y7347D01*
X13406Y7132D01*
X13340Y7036D01*
X13289Y6949D01*
X13256Y6870D01*
X13239Y6800D01*
X13238Y6737D01*
X13254Y6683D01*
X13286Y6637D01*
X12463Y7486D01*
X12508Y7453D01*
X12561Y7436D01*
X12622Y7436D01*
X12693Y7452D01*
X12771Y7485D01*
X12858Y7535D01*
X12953Y7601D01*
X13056Y7684D01*
X13289Y7900D01*
X13704Y7467D01*
D02*
G37*
G36*
X87204Y8331D02*
X87217Y8174D01*
X87239Y8029D01*
X87270Y7896D01*
X87309Y7774D01*
X87358Y7664D01*
X87414Y7565D01*
X87480Y7478D01*
X87555Y7402D01*
X87638Y7338D01*
X85762D01*
X85845Y7402D01*
X85920Y7478D01*
X85985Y7565D01*
X86042Y7664D01*
X86090Y7774D01*
X86130Y7896D01*
X86161Y8029D01*
X86182Y8174D01*
X86196Y8331D01*
X86200Y8499D01*
X87200D01*
X87204Y8331D01*
D02*
G37*
G36*
X119583Y5704D02*
X119612Y5761D01*
X119634Y5812D01*
X119649Y5857D01*
X119656Y5896D01*
X119655Y5929D01*
X119647Y5956D01*
X119631Y5977D01*
X119608Y5992D01*
X119578Y6001D01*
X119540Y6004D01*
Y6604D01*
X119644Y6607D01*
X119740Y6616D01*
X119829Y6630D01*
X119910Y6650D01*
X119984Y6677D01*
X120050Y6709D01*
X120109Y6747D01*
X120160Y6790D01*
X120203Y6840D01*
X120239Y6895D01*
X119583Y5704D01*
D02*
G37*
G36*
X24509Y6543D02*
X24528Y6492D01*
X24558Y6447D01*
X24601Y6408D01*
X24656Y6375D01*
X24724Y6348D01*
X24803Y6327D01*
X24895Y6312D01*
X24999Y6303D01*
X25115Y6300D01*
Y5700D01*
X24999Y5697D01*
X24895Y5688D01*
X24803Y5673D01*
X24724Y5652D01*
X24656Y5625D01*
X24601Y5592D01*
X24558Y5553D01*
X24528Y5508D01*
X24509Y5457D01*
X24503Y5400D01*
Y6600D01*
X24509Y6543D01*
D02*
G37*
G36*
X63485Y4647D02*
X63434Y4674D01*
X63377Y4687D01*
X63314Y4687D01*
X63245Y4671D01*
X63170Y4642D01*
X63089Y4598D01*
X63002Y4541D01*
X62910Y4469D01*
X62811Y4383D01*
X62707Y4282D01*
X62220Y4645D01*
X62318Y4747D01*
X62468Y4930D01*
X62520Y5011D01*
X62556Y5085D01*
X62577Y5151D01*
X62582Y5211D01*
X62572Y5263D01*
X62546Y5309D01*
X62505Y5347D01*
X63485Y4647D01*
D02*
G37*
G36*
X113659Y4218D02*
X113578Y4319D01*
X113476Y4410D01*
X113355Y4490D01*
X113213Y4559D01*
X113051Y4617D01*
X112869Y4665D01*
X112667Y4702D01*
X112444Y4729D01*
X112201Y4745D01*
X111939Y4750D01*
Y6250D01*
X112201Y6256D01*
X112667Y6298D01*
X112869Y6335D01*
X113051Y6383D01*
X113213Y6442D01*
X113355Y6511D01*
X113476Y6591D01*
X113578Y6681D01*
X113659Y6782D01*
Y4218D01*
D02*
G37*
G36*
X108225Y6726D02*
X108330Y6626D01*
X108452Y6538D01*
X108592Y6462D01*
X108749Y6397D01*
X108924Y6344D01*
X109116Y6303D01*
X109326Y6274D01*
X109554Y6256D01*
X109799Y6250D01*
Y4750D01*
X109554Y4744D01*
X109326Y4727D01*
X109117Y4697D01*
X108924Y4656D01*
X108749Y4603D01*
X108592Y4538D01*
X108452Y4462D01*
X108330Y4374D01*
X108225Y4274D01*
X108138Y4162D01*
Y6838D01*
X108225Y6726D01*
D02*
G37*
G36*
X59040Y4777D02*
X58988Y4752D01*
X58928Y4716D01*
X58860Y4668D01*
X58697Y4538D01*
X58500Y4363D01*
X58140Y4016D01*
X57602Y4326D01*
X57704Y4432D01*
X57852Y4615D01*
X57898Y4691D01*
X57925Y4756D01*
X57934Y4812D01*
X57924Y4857D01*
X57894Y4892D01*
X57847Y4916D01*
X57780Y4931D01*
X59040Y4777D01*
D02*
G37*
%LPC*%
G36*
X87240Y56513D02*
X86453D01*
X85725Y56212D01*
X85168Y55655D01*
X84867Y54927D01*
Y54140D01*
X85168Y53412D01*
X85725Y52855D01*
X86453Y52554D01*
X87240D01*
X87968Y52855D01*
X88525Y53412D01*
X88826Y54140D01*
Y54927D01*
X88525Y55655D01*
X87968Y56212D01*
X87240Y56513D01*
D02*
G37*
G36*
X80547D02*
X79760D01*
X79032Y56212D01*
X78475Y55655D01*
X78174Y54927D01*
Y54140D01*
X78475Y53412D01*
X79032Y52855D01*
X79760Y52554D01*
X80547D01*
X81275Y52855D01*
X81832Y53412D01*
X82133Y54140D01*
Y54927D01*
X81832Y55655D01*
X81275Y56212D01*
X80547Y56513D01*
D02*
G37*
G36*
X57309Y56728D02*
X55809D01*
X55243Y56616D01*
X54764Y56295D01*
X54443Y55816D01*
X54331Y55250D01*
Y53750D01*
X54443Y53184D01*
X54764Y52704D01*
X55243Y52384D01*
X55809Y52271D01*
X57309D01*
X57875Y52384D01*
X57925Y52417D01*
X59528Y52512D01*
X59640D01*
X60386Y52465D01*
X60554Y52443D01*
X60670Y52422D01*
X60702Y52413D01*
X60762Y52372D01*
X61250Y52276D01*
X62350D01*
X62838Y52372D01*
X63251Y52649D01*
X63528Y53062D01*
X63625Y53550D01*
Y53721D01*
X63637Y53739D01*
X63788Y54500D01*
X63637Y55261D01*
X63625Y55279D01*
Y55450D01*
X63528Y55938D01*
X63251Y56351D01*
X62838Y56628D01*
X62350Y56725D01*
X61250D01*
X60762Y56628D01*
X60705Y56590D01*
X59100Y56488D01*
X58978D01*
X58243Y56531D01*
X58073Y56552D01*
X57955Y56572D01*
X57929Y56579D01*
X57875Y56616D01*
X57309Y56728D01*
D02*
G37*
G36*
X88422Y51349D02*
X88422Y51349D01*
X88422Y51349D01*
X88422Y51349D01*
D02*
G37*
%LPD*%
G36*
X61040Y53043D02*
X60957Y53083D01*
X60832Y53118D01*
X60664Y53149D01*
X60454Y53175D01*
X59588Y53230D01*
X57801Y53125D01*
X57677Y53092D01*
X57597Y53055D01*
Y55945D01*
X57677Y55908D01*
X57801Y55875D01*
X57968Y55845D01*
X58180Y55820D01*
X59043Y55769D01*
X60831Y55882D01*
X60957Y55918D01*
X61040Y55957D01*
Y53043D01*
D02*
G37*
%LPC*%
G36*
X68500Y35105D02*
X67804Y34967D01*
X67215Y34573D01*
X66821Y33983D01*
X66682Y33287D01*
Y28366D01*
X66821Y27671D01*
X67215Y27081D01*
X67804Y26687D01*
X68500Y26549D01*
X69196Y26687D01*
X69785Y27081D01*
X70179Y27671D01*
X70318Y28366D01*
Y33287D01*
X70179Y33983D01*
X69785Y34573D01*
X69196Y34967D01*
X68500Y35105D01*
D02*
G37*
G36*
X63500D02*
X62804Y34967D01*
X62215Y34573D01*
X61821Y33983D01*
X61682Y33287D01*
Y28366D01*
X61821Y27671D01*
X62215Y27081D01*
X62804Y26687D01*
X63500Y26549D01*
X64196Y26687D01*
X64785Y27081D01*
X65179Y27671D01*
X65318Y28366D01*
Y33287D01*
X65179Y33983D01*
X64785Y34573D01*
X64196Y34967D01*
X63500Y35105D01*
D02*
G37*
G36*
X58500D02*
X57804Y34967D01*
X57215Y34573D01*
X56821Y33983D01*
X56682Y33287D01*
Y28366D01*
X56821Y27671D01*
X57215Y27081D01*
X57804Y26687D01*
X58500Y26549D01*
X59196Y26687D01*
X59785Y27081D01*
X60179Y27671D01*
X60318Y28366D01*
Y33287D01*
X60179Y33983D01*
X59785Y34573D01*
X59196Y34967D01*
X58500Y35105D01*
D02*
G37*
G36*
X53500D02*
X52804Y34967D01*
X52215Y34573D01*
X51821Y33983D01*
X51682Y33287D01*
Y28366D01*
X51767Y27942D01*
Y26780D01*
X51600Y26378D01*
Y25622D01*
X51889Y24924D01*
X52424Y24389D01*
X53122Y24100D01*
X53878D01*
X54576Y24389D01*
X55111Y24924D01*
X55400Y25622D01*
Y26378D01*
X55233Y26780D01*
Y27942D01*
X55318Y28366D01*
Y33287D01*
X55179Y33983D01*
X54785Y34573D01*
X54196Y34967D01*
X53500Y35105D01*
D02*
G37*
G36*
X48500D02*
X47804Y34967D01*
X47215Y34573D01*
X46821Y33983D01*
X46682Y33287D01*
Y28366D01*
X46767Y27942D01*
Y26780D01*
X46600Y26378D01*
Y25622D01*
X46889Y24924D01*
X47424Y24389D01*
X48122Y24100D01*
X48878D01*
X49576Y24389D01*
X50111Y24924D01*
X50400Y25622D01*
Y26378D01*
X50233Y26780D01*
Y27942D01*
X50318Y28366D01*
Y33287D01*
X50179Y33983D01*
X49785Y34573D01*
X49196Y34967D01*
X48500Y35105D01*
D02*
G37*
G36*
X101350Y7724D02*
X100250D01*
X99762Y7627D01*
X99349Y7351D01*
X99072Y6938D01*
X99033Y6737D01*
X98981Y6729D01*
X98921Y6724D01*
X97154D01*
X97099Y6732D01*
X97046Y6744D01*
X97002Y6758D01*
X96966Y6773D01*
X96936Y6788D01*
X96910Y6804D01*
X96888Y6821D01*
X96843Y6863D01*
X96794Y6893D01*
X96576Y7111D01*
X95878Y7400D01*
X95122D01*
X94424Y7111D01*
X93889Y6576D01*
X93600Y5878D01*
Y5122D01*
X93889Y4424D01*
X94424Y3889D01*
X95122Y3600D01*
X95878D01*
X96576Y3889D01*
X96794Y4107D01*
X96843Y4137D01*
X96888Y4179D01*
X96910Y4196D01*
X96936Y4212D01*
X96966Y4228D01*
X97002Y4242D01*
X97046Y4256D01*
X97099Y4268D01*
X97154Y4276D01*
X98921D01*
X98981Y4271D01*
X99033Y4263D01*
X99072Y4062D01*
X99349Y3649D01*
X99762Y3373D01*
X100250Y3275D01*
X101350D01*
X101838Y3373D01*
X102251Y3649D01*
X102527Y4062D01*
X102624Y4550D01*
Y6450D01*
X102527Y6938D01*
X102251Y7351D01*
X101838Y7627D01*
X101350Y7724D01*
D02*
G37*
G36*
X68500Y12451D02*
X67804Y12313D01*
X67215Y11919D01*
X66821Y11329D01*
X66682Y10634D01*
Y5713D01*
X66821Y5017D01*
X67215Y4427D01*
X67804Y4033D01*
X68500Y3895D01*
X69196Y4033D01*
X69785Y4427D01*
X70179Y5017D01*
X70318Y5713D01*
Y10634D01*
X70179Y11329D01*
X69785Y11919D01*
X69196Y12313D01*
X68500Y12451D01*
D02*
G37*
G36*
X73500D02*
X72804Y12313D01*
X72215Y11919D01*
X71821Y11329D01*
X71682Y10634D01*
Y5713D01*
X71821Y5017D01*
X72215Y4427D01*
X72804Y4033D01*
X73500Y3895D01*
X74196Y4033D01*
X74785Y4427D01*
X75013Y4768D01*
X75129Y4806D01*
X75608Y4805D01*
X76024Y4389D01*
X76722Y4100D01*
X77478D01*
X78176Y4389D01*
X78755Y4283D01*
X78770Y4266D01*
X78849Y4149D01*
X79262Y3872D01*
X79750Y3776D01*
X80850D01*
X81338Y3872D01*
X81751Y4149D01*
X82028Y4562D01*
X82125Y5050D01*
Y6950D01*
X82028Y7438D01*
X81751Y7851D01*
X81338Y8128D01*
X80850Y8224D01*
X79750D01*
X79262Y8128D01*
X78849Y7851D01*
X78770Y7734D01*
X78755Y7717D01*
X78176Y7611D01*
X77478Y7900D01*
X76722D01*
X76024Y7611D01*
X75818Y7405D01*
X75318Y7612D01*
Y10634D01*
X75179Y11329D01*
X74785Y11919D01*
X74196Y12313D01*
X73500Y12451D01*
D02*
G37*
%LPD*%
G36*
X96426Y6275D02*
X96502Y6218D01*
X96583Y6167D01*
X96670Y6122D01*
X96762Y6085D01*
X96860Y6054D01*
X96964Y6031D01*
X97074Y6014D01*
X97190Y6003D01*
X97311Y6000D01*
Y5000D01*
X97190Y4997D01*
X97074Y4986D01*
X96964Y4969D01*
X96860Y4946D01*
X96762Y4915D01*
X96670Y4878D01*
X96583Y4833D01*
X96502Y4782D01*
X96426Y4725D01*
X96357Y4660D01*
Y6340D01*
X96426Y6275D01*
D02*
G37*
G36*
X99723Y4502D02*
X99713Y4597D01*
X99682Y4682D01*
X99631Y4756D01*
X99560Y4821D01*
X99468Y4876D01*
X99355Y4920D01*
X99222Y4955D01*
X99069Y4980D01*
X98896Y4995D01*
X98701Y5000D01*
Y6000D01*
X98896Y6005D01*
X99069Y6020D01*
X99222Y6045D01*
X99355Y6080D01*
X99468Y6124D01*
X99560Y6179D01*
X99631Y6244D01*
X99682Y6318D01*
X99713Y6403D01*
X99723Y6498D01*
X99723Y4502D01*
D02*
G37*
G36*
X79223Y5002D02*
X79213Y5097D01*
X79182Y5181D01*
X79131Y5256D01*
X79060Y5321D01*
X78968Y5376D01*
X78855Y5420D01*
X78723Y5455D01*
X78601Y5475D01*
X78564Y5469D01*
X78460Y5446D01*
X78362Y5415D01*
X78270Y5378D01*
X78183Y5333D01*
X78102Y5282D01*
X78026Y5225D01*
X77957Y5160D01*
Y6840D01*
X78026Y6775D01*
X78102Y6718D01*
X78183Y6667D01*
X78270Y6622D01*
X78362Y6585D01*
X78460Y6554D01*
X78564Y6531D01*
X78601Y6525D01*
X78723Y6545D01*
X78855Y6580D01*
X78968Y6624D01*
X79060Y6679D01*
X79131Y6744D01*
X79182Y6819D01*
X79213Y6903D01*
X79223Y6998D01*
X79223Y5002D01*
D02*
G37*
D10*
X71500Y19500D02*
X72300D01*
X53500D02*
X71500D01*
Y16500D02*
Y19500D01*
X100839Y51761D02*
X102800Y49800D01*
X77719Y34016D02*
X78400Y34697D01*
X84221Y35321D02*
X86700Y37800D01*
Y41500D01*
X84221Y25102D02*
Y35321D01*
X100839Y51761D02*
Y54461D01*
X100800Y54500D02*
X100839Y54461D01*
X80300Y6000D02*
X80300Y6000D01*
X77100Y6000D02*
X80300D01*
X51260Y40346D02*
Y43220D01*
X50674Y39760D02*
X51260Y40346D01*
X47095Y39760D02*
X50674D01*
X86700Y41873D02*
X90193Y45366D01*
Y49022D01*
X48500Y14500D02*
X53500Y19500D01*
X48500Y8173D02*
Y14500D01*
X43500Y8173D02*
X43643Y8316D01*
X52700Y21200D02*
X71445D01*
X43643Y8316D02*
Y12143D01*
X52700Y21200D01*
X84221Y25102D02*
X87240Y22083D01*
X78580Y43220D02*
X79331Y42469D01*
X51260Y43220D02*
Y46654D01*
Y43220D02*
X78580D01*
X79331Y42469D02*
X79704D01*
X80300Y41500D02*
Y41873D01*
X79704Y42469D02*
X80300Y41873D01*
X95500Y5500D02*
X100800D01*
X100800Y5500D01*
X72300Y19500D02*
X80300Y27500D01*
X71445Y21200D02*
X76500Y26255D01*
X86429Y12071D02*
X86700Y11800D01*
Y6000D02*
Y11800D01*
X83500Y10988D02*
Y12071D01*
X76500Y26255D02*
Y32693D01*
X77719Y33912D01*
Y34016D01*
X87240Y21000D02*
Y22083D01*
X50674Y47240D02*
X51260Y46654D01*
X47095Y47240D02*
X50674D01*
D17*
X26304Y29000D02*
X30406D01*
X30421Y29016D01*
X24000Y29000D02*
X26304D01*
Y32601D01*
X34016Y30984D02*
X34500Y30500D01*
X24047Y27047D02*
X34148D01*
X34500Y27399D02*
Y30500D01*
X34148Y27047D02*
X34500Y27399D01*
X30421Y30984D02*
X34016D01*
X21025Y23000D02*
Y24025D01*
Y4475D02*
Y23000D01*
X19578Y24578D02*
X24000Y29000D01*
X19578Y4084D02*
Y24578D01*
X21025Y24025D02*
X24047Y27047D01*
X119029Y52500D02*
X121030Y54500D01*
X121059D01*
X78400Y34500D02*
X81000D01*
X19578Y4084D02*
X22162Y1500D01*
X59500D02*
X63500Y5500D01*
X22162Y1500D02*
X59500D01*
X23417Y6000D02*
X27500D01*
X21025Y4475D02*
X22500Y3000D01*
X35000Y13500D02*
Y22500D01*
X56700Y3000D02*
X58500Y4800D01*
X22500Y3000D02*
X56700D01*
X27500Y6000D02*
X35000Y13500D01*
X26656Y32953D02*
X30421D01*
X26304Y32601D02*
X26656Y32953D01*
X120485Y5500D02*
X121059D01*
X119540Y6304D02*
X119681D01*
X110823Y8575D02*
X117269D01*
X119681Y6304D02*
X120485Y5500D01*
X117269Y8575D02*
X119540Y6304D01*
X12200Y6000D02*
Y6387D01*
X16000Y10187D02*
Y25603D01*
X12200Y6387D02*
X16000Y10187D01*
Y25603D02*
X25318Y34921D01*
X30421D01*
X34390Y23110D02*
X35000Y22500D01*
X30421Y23110D02*
X34390D01*
X58500Y4800D02*
Y7673D01*
X63500Y5500D02*
Y7673D01*
D21*
X57012Y39760D02*
D03*
Y47240D02*
D03*
X45988Y43500D02*
D03*
Y47240D02*
D03*
Y39760D02*
D03*
D22*
X26500Y54500D02*
D03*
X19500D02*
D03*
D23*
X5800Y6000D02*
D03*
X12200D02*
D03*
X23417D02*
D03*
X17017D02*
D03*
X61800Y54500D02*
D03*
X68200D02*
D03*
X107200Y5500D02*
D03*
X100800D02*
D03*
X107200Y54500D02*
D03*
X100800D02*
D03*
X86700Y6000D02*
D03*
X80300D02*
D03*
X86700Y41500D02*
D03*
X80300D02*
D03*
X86700Y27500D02*
D03*
X80300D02*
D03*
D24*
X74347Y56699D02*
D03*
X92654D02*
D03*
D25*
X76413Y57978D02*
D03*
X90587D02*
D03*
D26*
X76807Y49022D02*
D03*
X90193D02*
D03*
D27*
X33200Y54500D02*
D03*
X43100D02*
D03*
X78400Y34500D02*
D03*
X88300D02*
D03*
D28*
X38500Y40300D02*
D03*
Y46700D02*
D03*
X64500Y40300D02*
D03*
Y46700D02*
D03*
X70500Y40300D02*
D03*
Y46700D02*
D03*
D29*
X110000Y45000D02*
D03*
Y35000D02*
D03*
Y25000D02*
D03*
Y15000D02*
D03*
D30*
X87240Y21000D02*
D03*
X79760D02*
D03*
X83500Y12071D02*
D03*
D31*
X30421Y16811D02*
D03*
Y17992D02*
D03*
Y19961D02*
D03*
Y21142D02*
D03*
Y23110D02*
D03*
Y25079D02*
D03*
Y27047D02*
D03*
Y29016D02*
D03*
Y30984D02*
D03*
Y32953D02*
D03*
Y34921D02*
D03*
Y36890D02*
D03*
Y38858D02*
D03*
Y40039D02*
D03*
Y42008D02*
D03*
Y43189D02*
D03*
D32*
X38500Y8173D02*
D03*
X43500D02*
D03*
X48500D02*
D03*
X53500D02*
D03*
X58500D02*
D03*
X63500D02*
D03*
X68500D02*
D03*
X73500D02*
D03*
X38500Y30827D02*
D03*
X43500D02*
D03*
X48500D02*
D03*
X53500D02*
D03*
X58500D02*
D03*
X63500D02*
D03*
X68500D02*
D03*
X73500D02*
D03*
D33*
X121059Y54500D02*
D03*
X50441Y54500D02*
D03*
X121059Y5500D02*
D03*
D34*
X114941Y54500D02*
D03*
X56559Y54500D02*
D03*
X114941Y5500D02*
D03*
D52*
X109779Y45000D02*
X109889Y45110D01*
X26500Y54500D02*
X30100D01*
X91500Y40000D02*
X91771D01*
X96771Y45000D01*
X109779D01*
D53*
X30100Y54500D02*
X33200D01*
X53500Y26000D02*
Y30827D01*
X48500Y26000D02*
Y30827D01*
X86700Y27500D02*
X105024D01*
X107524Y25000D02*
X110000D01*
X105024Y27500D02*
X107524Y25000D01*
X109516Y34516D02*
X110000Y35000D01*
X88316Y34516D02*
X109516D01*
X88300Y34500D02*
X88316Y34516D01*
D54*
X53500Y8173D02*
Y13000D01*
D55*
X38500Y28000D02*
Y30827D01*
Y28000D02*
X40406Y26094D01*
X38500Y31327D02*
Y35600D01*
X67500Y46700D02*
X70500D01*
X64500D02*
X67500D01*
X56100Y47230D02*
X61664D01*
X62194Y46700D02*
X64500D01*
X61664Y47230D02*
X62194Y46700D01*
X68183Y46822D02*
Y54250D01*
X56559Y54500D02*
X61800D01*
X56559Y54500D02*
X56559Y54500D01*
X61800D02*
X61800Y54500D01*
D56*
X107200Y54500D02*
X114941D01*
X114941Y54500D01*
X107200Y54500D02*
X107200Y54500D01*
X107200Y5000D02*
X107200Y5000D01*
Y5500D02*
X114441D01*
X107200Y5500D02*
X107200Y5500D01*
X114441D02*
X114941Y5000D01*
D57*
X109889Y45110D02*
X110000Y45000D01*
D58*
X86429Y12071D02*
X89358D01*
X83500D02*
X86429D01*
X92287Y15000D02*
X110000D01*
X89358Y12071D02*
X92287Y15000D01*
D59*
X80154Y54533D02*
D03*
X86847D02*
D03*
X24358Y41378D02*
D03*
Y18622D02*
D03*
D60*
X10579Y12972D02*
D03*
Y47028D02*
D03*
D61*
X26327Y12972D02*
D03*
Y47028D02*
D03*
D62*
X30100Y54500D02*
D03*
D63*
X53500Y26000D02*
D03*
X48500D02*
D03*
X83100Y16700D02*
D03*
X53500Y13000D02*
D03*
X62500Y15400D02*
D03*
X67500D02*
D03*
X57500D02*
D03*
X40406Y26094D02*
D03*
X38500Y35600D02*
D03*
X41900Y47200D02*
D03*
X20000Y44000D02*
D03*
X25800Y21600D02*
D03*
X23800Y23500D02*
D03*
X102800Y49800D02*
D03*
X119029Y52500D02*
D03*
X81000Y34500D02*
D03*
X30000Y5200D02*
D03*
X118000Y57500D02*
D03*
X104000D02*
D03*
X77100Y6000D02*
D03*
X97500Y20000D02*
D03*
X7500Y35000D02*
D03*
Y27500D02*
D03*
X20000Y36000D02*
D03*
X62500Y37500D02*
D03*
X52500D02*
D03*
X33000Y47000D02*
D03*
X65000Y57500D02*
D03*
X47500D02*
D03*
X37500D02*
D03*
X82500Y47500D02*
D03*
X86000D02*
D03*
X75000Y40000D02*
D03*
Y36500D02*
D03*
X102500Y20000D02*
D03*
X92500Y2500D02*
D03*
X82500D02*
D03*
X35000Y7500D02*
D03*
X42500Y17500D02*
D03*
X40000Y20000D02*
D03*
X7500D02*
D03*
Y55000D02*
D03*
X16000Y40000D02*
D03*
Y48000D02*
D03*
Y54500D02*
D03*
X95500Y5500D02*
D03*
X67500Y46700D02*
D03*
X110823Y8575D02*
D03*
X71500Y16500D02*
D03*
X61664Y47230D02*
D03*
D64*
X91500Y40000D02*
D03*
M02*
