M48
;Layer_Color=9474304
;FILE_FORMAT=2:5
INCH,LZ
;TYPE=PLATED
T1F00S00C0.01200
T3F00S00C0.02559
T4F00S00C0.02800
%
T01
X00075Y002
Y00275
Y0035
X0016Y0032
X002Y0036
X0016Y004
Y0048
Y0056
X00075Y0055
X00325Y00475
X00255Y00225
X003Y0005
X0035Y00075
X00425Y00175
X004Y002
X0039Y00275
Y0035
X00395Y0048
X00425
X0061664Y004723
X00675Y00467
X00625Y00375
X00525
X00535Y0028
X00485
X00575Y0015
X00625
X00675
X00715Y00165
X00775Y0015
X0077Y00022
X00825Y00025
X00925
X00955Y00055
X00975Y002
X01025
X0110823Y0008575
X0098036Y0051622
X00825Y00475
X0085Y0045
X0081155Y0036706
X0075Y00375
Y004
X00535Y00055
X00475Y00575
X00375
X0065
X0111Y00578
T03
X0024358Y0018622
Y0041378
X0080154Y0054533
X0086847
T04
X002985Y00545
X00915Y004
M30
