G04*
G04 #@! TF.GenerationSoftware,Altium Limited,Altium Designer,22.3.1 (43)*
G04*
G04 Layer_Physical_Order=1*
G04 Layer_Color=204*
%FSLAX25Y25*%
%MOIN*%
G70*
G04*
G04 #@! TF.SameCoordinates,9C32C5B8-EF8F-45BB-929C-AB9431649599*
G04*
G04*
G04 #@! TF.FilePolarity,Positive*
G04*
G01*
G75*
%ADD10C,0.01000*%
%ADD17C,0.00600*%
%ADD21R,0.03937X0.01772*%
%ADD22R,0.03500X0.03500*%
G04:AMPARAMS|DCode=23|XSize=30mil|YSize=22mil|CornerRadius=5.5mil|HoleSize=0mil|Usage=FLASHONLY|Rotation=90.000|XOffset=0mil|YOffset=0mil|HoleType=Round|Shape=RoundedRectangle|*
%AMROUNDEDRECTD23*
21,1,0.03000,0.01100,0,0,90.0*
21,1,0.01900,0.02200,0,0,90.0*
1,1,0.01100,0.00550,0.00950*
1,1,0.01100,0.00550,-0.00950*
1,1,0.01100,-0.00550,-0.00950*
1,1,0.01100,-0.00550,0.00950*
%
%ADD23ROUNDEDRECTD23*%
%ADD24R,0.02559X0.05118*%
%ADD25R,0.01575X0.02559*%
%ADD26R,0.02362X0.04724*%
G04:AMPARAMS|DCode=27|XSize=19.68mil|YSize=23.62mil|CornerRadius=4.92mil|HoleSize=0mil|Usage=FLASHONLY|Rotation=90.000|XOffset=0mil|YOffset=0mil|HoleType=Round|Shape=RoundedRectangle|*
%AMROUNDEDRECTD27*
21,1,0.01968,0.01378,0,0,90.0*
21,1,0.00984,0.02362,0,0,90.0*
1,1,0.00984,0.00689,0.00492*
1,1,0.00984,0.00689,-0.00492*
1,1,0.00984,-0.00689,-0.00492*
1,1,0.00984,-0.00689,0.00492*
%
%ADD27ROUNDEDRECTD27*%
G04:AMPARAMS|DCode=28|XSize=30mil|YSize=22mil|CornerRadius=5.5mil|HoleSize=0mil|Usage=FLASHONLY|Rotation=180.000|XOffset=0mil|YOffset=0mil|HoleType=Round|Shape=RoundedRectangle|*
%AMROUNDEDRECTD28*
21,1,0.03000,0.01100,0,0,180.0*
21,1,0.01900,0.02200,0,0,180.0*
1,1,0.01100,-0.00950,0.00550*
1,1,0.01100,0.00950,0.00550*
1,1,0.01100,0.00950,-0.00550*
1,1,0.01100,-0.00950,-0.00550*
%
%ADD28ROUNDEDRECTD28*%
G04:AMPARAMS|DCode=29|XSize=62.99mil|YSize=106.3mil|CornerRadius=15.75mil|HoleSize=0mil|Usage=FLASHONLY|Rotation=270.000|XOffset=0mil|YOffset=0mil|HoleType=Round|Shape=RoundedRectangle|*
%AMROUNDEDRECTD29*
21,1,0.06299,0.07480,0,0,270.0*
21,1,0.03150,0.10630,0,0,270.0*
1,1,0.03150,-0.03740,-0.01575*
1,1,0.03150,-0.03740,0.01575*
1,1,0.03150,0.03740,0.01575*
1,1,0.03150,0.03740,-0.01575*
%
%ADD29ROUNDEDRECTD29*%
G04:AMPARAMS|DCode=30|XSize=17.72mil|YSize=39.37mil|CornerRadius=4.43mil|HoleSize=0mil|Usage=FLASHONLY|Rotation=0.000|XOffset=0mil|YOffset=0mil|HoleType=Round|Shape=RoundedRectangle|*
%AMROUNDEDRECTD30*
21,1,0.01772,0.03051,0,0,0.0*
21,1,0.00886,0.03937,0,0,0.0*
1,1,0.00886,0.00443,-0.01526*
1,1,0.00886,-0.00443,-0.01526*
1,1,0.00886,-0.00443,0.01526*
1,1,0.00886,0.00443,0.01526*
%
%ADD30ROUNDEDRECTD30*%
G04:AMPARAMS|DCode=31|XSize=59.06mil|YSize=11.81mil|CornerRadius=2.95mil|HoleSize=0mil|Usage=FLASHONLY|Rotation=0.000|XOffset=0mil|YOffset=0mil|HoleType=Round|Shape=RoundedRectangle|*
%AMROUNDEDRECTD31*
21,1,0.05906,0.00591,0,0,0.0*
21,1,0.05315,0.01181,0,0,0.0*
1,1,0.00591,0.02657,-0.00295*
1,1,0.00591,-0.02657,-0.00295*
1,1,0.00591,-0.02657,0.00295*
1,1,0.00591,0.02657,0.00295*
%
%ADD31ROUNDEDRECTD31*%
%ADD32O,0.02165X0.07087*%
%ADD33P,0.03247X8X22.5*%
G04:AMPARAMS|DCode=34|XSize=30mil|YSize=30mil|CornerRadius=7.5mil|HoleSize=0mil|Usage=FLASHONLY|Rotation=0.000|XOffset=0mil|YOffset=0mil|HoleType=Round|Shape=RoundedRectangle|*
%AMROUNDEDRECTD34*
21,1,0.03000,0.01500,0,0,0.0*
21,1,0.01500,0.03000,0,0,0.0*
1,1,0.01500,0.00750,-0.00750*
1,1,0.01500,-0.00750,-0.00750*
1,1,0.01500,-0.00750,0.00750*
1,1,0.01500,0.00750,0.00750*
%
%ADD34ROUNDEDRECTD34*%
%ADD52C,0.04000*%
%ADD53C,0.02500*%
%ADD54C,0.02000*%
%ADD55C,0.03000*%
%ADD56C,0.01500*%
%ADD57C,0.05000*%
%ADD58C,0.02559*%
%ADD59O,0.06299X0.03937*%
%ADD60O,0.08268X0.03937*%
%ADD61C,0.02400*%
%ADD62C,0.05000*%
G36*
X111962Y58537D02*
X112171Y58365D01*
X112275Y58294D01*
X112378Y58235D01*
X112480Y58186D01*
X112582Y58149D01*
X112682Y58122D01*
X112782Y58105D01*
X112882Y58100D01*
Y57500D01*
X112782Y57495D01*
X112682Y57478D01*
X112582Y57451D01*
X112480Y57414D01*
X112378Y57365D01*
X112275Y57306D01*
X112171Y57235D01*
X112067Y57154D01*
X111962Y57063D01*
X111857Y56960D01*
Y58640D01*
X111962Y58537D01*
D02*
G37*
G36*
X119825Y56163D02*
X119913Y56087D01*
X119996Y56025D01*
X120073Y55977D01*
X120144Y55942D01*
X120211Y55921D01*
X120271Y55914D01*
X120326Y55921D01*
X120376Y55942D01*
X120420Y55976D01*
X119583Y55140D01*
X119617Y55184D01*
X119638Y55233D01*
X119645Y55288D01*
X119638Y55349D01*
X119617Y55415D01*
X119582Y55487D01*
X119534Y55564D01*
X119472Y55646D01*
X119396Y55735D01*
X119307Y55828D01*
X119731Y56253D01*
X119825Y56163D01*
D02*
G37*
G36*
X113659Y53218D02*
X113578Y53319D01*
X113476Y53410D01*
X113355Y53489D01*
X113213Y53559D01*
X113051Y53617D01*
X112869Y53665D01*
X112667Y53702D01*
X112444Y53729D01*
X112201Y53745D01*
X111939Y53750D01*
Y55250D01*
X112201Y55256D01*
X112667Y55298D01*
X112869Y55335D01*
X113051Y55383D01*
X113213Y55442D01*
X113355Y55511D01*
X113476Y55591D01*
X113578Y55681D01*
X113659Y55782D01*
Y53218D01*
D02*
G37*
G36*
X108225Y55726D02*
X108330Y55626D01*
X108452Y55538D01*
X108592Y55462D01*
X108749Y55397D01*
X108924Y55344D01*
X109116Y55303D01*
X109326Y55274D01*
X109554Y55256D01*
X109799Y55250D01*
Y53750D01*
X109554Y53744D01*
X109326Y53727D01*
X109117Y53697D01*
X108924Y53656D01*
X108749Y53603D01*
X108592Y53538D01*
X108452Y53462D01*
X108330Y53374D01*
X108225Y53274D01*
X108138Y53162D01*
Y55838D01*
X108225Y55726D01*
D02*
G37*
G36*
X123531Y58848D02*
X124492Y58450D01*
X125317Y57817D01*
X125950Y56992D01*
X126348Y56031D01*
X126483Y55011D01*
X126480Y55000D01*
Y51020D01*
X117500D01*
X117110Y50942D01*
X116779Y50721D01*
X116558Y50390D01*
X116480Y50000D01*
Y47022D01*
X115980Y46973D01*
X115883Y47462D01*
X115380Y48215D01*
X114628Y48718D01*
X113740Y48894D01*
X106260D01*
X105372Y48718D01*
X104620Y48215D01*
X104291Y47723D01*
X96771D01*
X96066Y47631D01*
X95409Y47358D01*
X94845Y46926D01*
X91119Y43200D01*
X91079D01*
X90265Y42982D01*
X90221Y42957D01*
X89914Y43357D01*
X91058Y44501D01*
X91323Y44898D01*
X91416Y45366D01*
Y45888D01*
X91422Y45947D01*
X91424Y45959D01*
X92074D01*
Y52084D01*
X88312D01*
Y45959D01*
X88349D01*
X88556Y45459D01*
X87131Y44034D01*
X86958Y43873D01*
X86818Y43761D01*
X86767Y43725D01*
X86150D01*
X85662Y43628D01*
X85249Y43351D01*
X84973Y42938D01*
X84876Y42450D01*
Y40550D01*
X84973Y40062D01*
X85143Y39807D01*
X85143Y39807D01*
X85143Y39807D01*
X85249Y39649D01*
X85326Y39597D01*
X85326Y39597D01*
X85370Y39563D01*
X85378Y39555D01*
X85389Y39540D01*
X85404Y39514D01*
X85422Y39472D01*
X85441Y39414D01*
X85459Y39337D01*
X85473Y39242D01*
X85476Y39204D01*
Y37787D01*
X83356Y35666D01*
X83267Y35533D01*
X82824Y35770D01*
X83055Y36328D01*
Y37084D01*
X82766Y37782D01*
X82231Y38317D01*
X81533Y38606D01*
X80777D01*
X80079Y38317D01*
X79544Y37782D01*
X79255Y37084D01*
Y36941D01*
X79241Y36848D01*
X79190Y36616D01*
X79166Y36534D01*
X79138Y36457D01*
X79111Y36393D01*
X79085Y36342D01*
X79061Y36304D01*
X79057Y36298D01*
X79039Y36280D01*
X78961Y36208D01*
X77711D01*
X77246Y36115D01*
X76851Y35852D01*
X76588Y35457D01*
X76495Y34992D01*
Y34470D01*
X76473Y34438D01*
X76233Y34156D01*
X75750Y33674D01*
X75330Y33749D01*
X75211Y33824D01*
X75179Y33983D01*
X74785Y34573D01*
X74196Y34967D01*
X73500Y35105D01*
X72804Y34967D01*
X72215Y34573D01*
X71821Y33983D01*
X71682Y33287D01*
Y28366D01*
X71821Y27671D01*
X72215Y27081D01*
X72804Y26687D01*
X73500Y26549D01*
X74196Y26687D01*
X74403Y26825D01*
X74969Y26602D01*
X74997Y26482D01*
X70938Y22423D01*
X52700D01*
X52232Y22330D01*
X51835Y22065D01*
X42778Y13008D01*
X42513Y12611D01*
X42420Y12143D01*
Y12056D01*
X42215Y11919D01*
X41821Y11329D01*
X41682Y10634D01*
Y5713D01*
X41821Y5017D01*
X42215Y4427D01*
X42675Y4120D01*
X42524Y3620D01*
X24976D01*
X24824Y4120D01*
X24868Y4149D01*
X25144Y4562D01*
X25227Y4980D01*
X27500D01*
X27890Y5058D01*
X28221Y5279D01*
X35721Y12779D01*
X35942Y13110D01*
X36020Y13500D01*
Y22500D01*
X35942Y22890D01*
X35721Y23221D01*
X35111Y23831D01*
X34780Y24052D01*
X34433Y24121D01*
X34367Y24164D01*
X34063Y24630D01*
X34093Y24783D01*
Y25374D01*
X34055Y25566D01*
X34246Y26114D01*
X34577Y26335D01*
X35095Y26853D01*
X35316Y27184D01*
X35394Y27574D01*
Y30426D01*
X35316Y30816D01*
X35095Y31147D01*
X34561Y31681D01*
X34230Y31902D01*
X34052Y32447D01*
X34093Y32658D01*
Y33248D01*
X34016Y33636D01*
X33815Y33937D01*
X34016Y34238D01*
X34093Y34626D01*
Y35217D01*
X34016Y35605D01*
X33815Y35906D01*
X34016Y36206D01*
X34093Y36595D01*
Y37185D01*
X34016Y37573D01*
X33815Y37874D01*
X34016Y38175D01*
X34093Y38563D01*
Y39154D01*
X34035Y39449D01*
X34093Y39744D01*
Y40335D01*
X34016Y40723D01*
X33796Y41052D01*
X33467Y41272D01*
X33079Y41349D01*
X27764D01*
X27375Y41272D01*
X27288Y41214D01*
X26338D01*
Y41772D01*
X26036Y42499D01*
X25480Y43056D01*
X24752Y43358D01*
X23965D01*
X23237Y43056D01*
X22680Y42499D01*
X22379Y41772D01*
Y41214D01*
X20714D01*
Y49204D01*
X22005Y50495D01*
X22159Y50727D01*
X22214Y51000D01*
Y58000D01*
X22159Y58273D01*
X22021Y58480D01*
X22049Y58617D01*
X22193Y58980D01*
X108891D01*
X109225Y58480D01*
X109100Y58178D01*
Y57422D01*
X109389Y56724D01*
X109634Y56479D01*
X109493Y56053D01*
X109424Y55982D01*
X109404Y55983D01*
X109241Y56006D01*
X109103Y56036D01*
X108989Y56070D01*
X108900Y56107D01*
X108834Y56143D01*
X108787Y56177D01*
X108755Y56207D01*
X108702Y56275D01*
X108651Y56351D01*
X108238Y56628D01*
X107750Y56725D01*
X106650D01*
X106162Y56628D01*
X105749Y56351D01*
X105473Y55938D01*
X105376Y55450D01*
Y53550D01*
X105473Y53062D01*
X105749Y52649D01*
X106162Y52372D01*
X106650Y52276D01*
X107750D01*
X108238Y52372D01*
X108651Y52649D01*
X108702Y52725D01*
X108756Y52793D01*
X108787Y52824D01*
X108834Y52857D01*
X108900Y52893D01*
X108989Y52930D01*
X109103Y52964D01*
X109241Y52994D01*
X109404Y53017D01*
X109468Y53022D01*
X112322D01*
X112378Y53018D01*
X112559Y52996D01*
X112713Y52968D01*
X112839Y52935D01*
X112934Y52900D01*
X113001Y52868D01*
X113040Y52842D01*
X113058Y52826D01*
X113095Y52780D01*
X113146Y52705D01*
X113625Y52384D01*
X114191Y52272D01*
X115691D01*
X116257Y52384D01*
X116736Y52705D01*
X117057Y53184D01*
X117169Y53750D01*
Y55250D01*
X117057Y55816D01*
X116778Y56233D01*
X116958Y56695D01*
X117375Y56742D01*
X118859Y55258D01*
Y53400D01*
X119959Y52300D01*
X122159D01*
X123259Y53400D01*
Y55600D01*
X122159Y56700D01*
X120301D01*
X118521Y58480D01*
X118540Y58651D01*
X118693Y58980D01*
X122500D01*
X122511Y58983D01*
X123531Y58848D01*
D02*
G37*
G36*
X91098Y46673D02*
X91013Y46643D01*
X90938Y46592D01*
X90873Y46521D01*
X90818Y46431D01*
X90773Y46319D01*
X90738Y46188D01*
X90713Y46036D01*
X90698Y45864D01*
X90693Y45671D01*
X89693D01*
X89688Y45864D01*
X89673Y46036D01*
X89648Y46188D01*
X89613Y46319D01*
X89568Y46431D01*
X89513Y46521D01*
X89448Y46592D01*
X89373Y46643D01*
X89288Y46673D01*
X89193Y46683D01*
X91193D01*
X91098Y46673D01*
D02*
G37*
G36*
X88506Y42972D02*
X88308Y42766D01*
X87996Y42399D01*
X87882Y42236D01*
X87796Y42088D01*
X87738Y41954D01*
X87708Y41833D01*
X87706Y41727D01*
X87732Y41635D01*
X87787Y41557D01*
X86411Y42987D01*
X86487Y42930D01*
X86577Y42902D01*
X86682Y42902D01*
X86801Y42932D01*
X86935Y42989D01*
X87084Y43075D01*
X87248Y43190D01*
X87426Y43333D01*
X87826Y43706D01*
X88506Y42972D01*
D02*
G37*
G36*
X87555Y40098D02*
X87480Y40022D01*
X87414Y39935D01*
X87358Y39836D01*
X87309Y39726D01*
X87270Y39604D01*
X87239Y39470D01*
X87217Y39326D01*
X87204Y39169D01*
X87200Y39001D01*
X86200D01*
X86196Y39169D01*
X86182Y39326D01*
X86161Y39470D01*
X86130Y39604D01*
X86090Y39726D01*
X86042Y39836D01*
X85985Y39935D01*
X85920Y40022D01*
X85845Y40098D01*
X85762Y40162D01*
X87638D01*
X87555Y40098D01*
D02*
G37*
G36*
X80968Y35521D02*
X80829Y35539D01*
X80698Y35546D01*
X80573Y35545D01*
X80455Y35534D01*
X80344Y35513D01*
X80239Y35483D01*
X80142Y35443D01*
X80051Y35393D01*
X79967Y35334D01*
X79918Y35290D01*
X79887Y35258D01*
X79704Y35042D01*
X79637Y34946D01*
X79585Y34857D01*
X79550Y34776D01*
X79530Y34703D01*
X79526Y34637D01*
X79538Y34579D01*
X79567Y34529D01*
X78834Y35470D01*
X78875Y35432D01*
X78925Y35412D01*
X78984Y35409D01*
X79052Y35424D01*
X79129Y35456D01*
X79216Y35505D01*
X79312Y35572D01*
X79417Y35657D01*
X79579Y35808D01*
X79594Y35824D01*
X79653Y35903D01*
X79707Y35992D01*
X79757Y36090D01*
X79803Y36197D01*
X79844Y36313D01*
X79882Y36438D01*
X79942Y36717D01*
X79966Y36870D01*
X80968Y35521D01*
D02*
G37*
G36*
X27560Y34422D02*
X27529Y34460D01*
X27490Y34494D01*
X27442Y34523D01*
X27386Y34549D01*
X27322Y34571D01*
X27250Y34589D01*
X27169Y34603D01*
X27079Y34613D01*
X26876Y34621D01*
Y35221D01*
X26982Y35223D01*
X27169Y35239D01*
X27250Y35253D01*
X27322Y35271D01*
X27386Y35293D01*
X27442Y35319D01*
X27490Y35349D01*
X27529Y35383D01*
X27560Y35421D01*
Y34422D01*
D02*
G37*
G36*
X78740Y33530D02*
X78658Y33581D01*
X78564Y33605D01*
X78456Y33601D01*
X78334Y33570D01*
X78199Y33511D01*
X78051Y33426D01*
X77890Y33313D01*
X77715Y33173D01*
X77325Y32811D01*
X76514Y33414D01*
X76718Y33625D01*
X77038Y34001D01*
X77154Y34165D01*
X77240Y34314D01*
X77298Y34448D01*
X77326Y34566D01*
X77324Y34669D01*
X77293Y34756D01*
X77233Y34829D01*
X78740Y33530D01*
D02*
G37*
G36*
X104997Y32523D02*
X104961Y32712D01*
X104881Y32880D01*
X104758Y33029D01*
X104591Y33158D01*
X104381Y33268D01*
X104128Y33357D01*
X103832Y33426D01*
X103492Y33476D01*
X103110Y33506D01*
X102683Y33516D01*
Y35516D01*
X103079Y35526D01*
X103432Y35556D01*
X103741Y35606D01*
X104007Y35676D01*
X104230Y35766D01*
X104410Y35876D01*
X104546Y36006D01*
X104639Y36156D01*
X104689Y36326D01*
X104696Y36516D01*
X104997Y32523D01*
D02*
G37*
G36*
X27560Y32453D02*
X27529Y32491D01*
X27490Y32525D01*
X27442Y32555D01*
X27386Y32581D01*
X27322Y32603D01*
X27250Y32621D01*
X27169Y32635D01*
X27079Y32645D01*
X26876Y32653D01*
Y33253D01*
X26982Y33255D01*
X27169Y33271D01*
X27250Y33285D01*
X27322Y33303D01*
X27386Y33325D01*
X27442Y33351D01*
X27490Y33380D01*
X27529Y33414D01*
X27560Y33452D01*
Y32453D01*
D02*
G37*
G36*
X21500Y51000D02*
X20000Y49500D01*
Y40500D01*
X22579D01*
X22680Y40257D01*
X23237Y39700D01*
X23965Y39398D01*
X24752D01*
X25480Y39700D01*
X26036Y40257D01*
X26137Y40500D01*
X32500D01*
X33000Y40000D01*
Y38200D01*
X27764D01*
X27375Y38123D01*
X27046Y37903D01*
X26826Y37573D01*
X26749Y37185D01*
Y36595D01*
X26780Y36441D01*
X26477Y35985D01*
X26408Y35941D01*
X25318D01*
X24928Y35863D01*
X24597Y35642D01*
X20462Y31507D01*
X20000Y31698D01*
Y31045D01*
X15477Y26522D01*
X14500Y27500D01*
Y57000D01*
X15500Y58000D01*
X21500D01*
Y51000D01*
D02*
G37*
G36*
X33312Y31394D02*
X33327Y31366D01*
X33353Y31341D01*
X33390Y31320D01*
X33438Y31301D01*
X33496Y31286D01*
X33566Y31275D01*
X33646Y31267D01*
X33840Y31260D01*
Y30660D01*
X33734Y30658D01*
X33554Y30645D01*
X33481Y30633D01*
X33419Y30619D01*
X33368Y30600D01*
X33328Y30579D01*
X33299Y30554D01*
X33281Y30526D01*
X33275Y30494D01*
X33307Y31426D01*
X33312Y31394D01*
D02*
G37*
G36*
X26610Y29786D02*
X26628Y29684D01*
X26658Y29594D01*
X26700Y29516D01*
X26754Y29450D01*
X26820Y29396D01*
X26898Y29354D01*
X26988Y29324D01*
X27066Y29310D01*
X27164Y29319D01*
X27244Y29334D01*
X27316Y29354D01*
X27381Y29377D01*
X27437Y29406D01*
X27486Y29438D01*
X27527Y29474D01*
X27560Y29515D01*
Y28516D01*
X27531Y28551D01*
X27493Y28582D01*
X27447Y28610D01*
X27392Y28634D01*
X27328Y28654D01*
X27256Y28671D01*
X27174Y28684D01*
X27085Y28693D01*
X26954Y28697D01*
X26910Y28696D01*
X26796Y28683D01*
X26684Y28662D01*
X26577Y28632D01*
X26472Y28594D01*
X26372Y28547D01*
X26275Y28492D01*
X26181Y28429D01*
X26091Y28356D01*
X26004Y28276D01*
X25580Y28700D01*
X25661Y28787D01*
X25733Y28877D01*
X25796Y28970D01*
X25852Y29068D01*
X25898Y29168D01*
X25936Y29272D01*
X25966Y29380D01*
X25987Y29491D01*
X26000Y29606D01*
X26004Y29724D01*
X26604Y29900D01*
X26610Y29786D01*
D02*
G37*
G36*
X33281Y27503D02*
X33299Y27472D01*
X33328Y27445D01*
X33369Y27421D01*
X33421Y27401D01*
X33485Y27385D01*
X33560Y27372D01*
X33647Y27363D01*
X33856Y27356D01*
Y26756D01*
X33747Y26754D01*
X33564Y26739D01*
X33490Y26727D01*
X33428Y26710D01*
X33376Y26690D01*
X33337Y26667D01*
X33308Y26640D01*
X33292Y26609D01*
X33286Y26574D01*
X33275Y27537D01*
X33281Y27503D01*
D02*
G37*
G36*
X27560Y26548D02*
X27529Y26586D01*
X27490Y26620D01*
X27442Y26649D01*
X27386Y26675D01*
X27322Y26697D01*
X27250Y26715D01*
X27169Y26729D01*
X27079Y26739D01*
X26876Y26747D01*
Y27347D01*
X26982Y27349D01*
X27169Y27365D01*
X27250Y27379D01*
X27322Y27397D01*
X27386Y27419D01*
X27442Y27445D01*
X27490Y27475D01*
X27529Y27509D01*
X27560Y27547D01*
Y26548D01*
D02*
G37*
G36*
X87606Y28870D02*
X87772Y28792D01*
X87957Y28724D01*
X88161Y28664D01*
X88384Y28614D01*
X88626Y28573D01*
X89169Y28518D01*
X89469Y28505D01*
X89789Y28500D01*
Y26500D01*
X89469Y26495D01*
X88626Y26427D01*
X88384Y26386D01*
X88161Y26336D01*
X87957Y26276D01*
X87772Y26208D01*
X87606Y26130D01*
X87460Y26043D01*
Y28957D01*
X87606Y28870D01*
D02*
G37*
G36*
X80216Y26013D02*
X80157Y26087D01*
X80081Y26129D01*
X79988Y26140D01*
X79877Y26119D01*
X79748Y26067D01*
X79602Y25983D01*
X79438Y25868D01*
X79257Y25722D01*
X78842Y25334D01*
X78494Y26401D01*
X78676Y26590D01*
X78965Y26935D01*
X79074Y27092D01*
X79158Y27239D01*
X79218Y27375D01*
X79253Y27501D01*
X79264Y27616D01*
X79251Y27721D01*
X79214Y27816D01*
X80216Y26013D01*
D02*
G37*
G36*
X99274Y23774D02*
X99837Y23399D01*
X100500Y23267D01*
X103161D01*
X103343Y23251D01*
X103594Y23211D01*
X103789Y23161D01*
X103924Y23107D01*
X104002Y23062D01*
X104015Y23050D01*
X104117Y22538D01*
X104620Y21785D01*
X105372Y21282D01*
X106260Y21106D01*
X113740D01*
X114628Y21282D01*
X115380Y21785D01*
X115883Y22538D01*
X115980Y23027D01*
X116480Y22978D01*
Y17022D01*
X115980Y16973D01*
X115883Y17462D01*
X115380Y18215D01*
X114628Y18718D01*
X113740Y18894D01*
X106260D01*
X105372Y18718D01*
X105164Y18579D01*
X105138Y18571D01*
X105040Y18519D01*
X104939Y18488D01*
X101054Y18228D01*
X92287D01*
X91452Y18118D01*
X90674Y17795D01*
X90005Y17282D01*
X88021Y15299D01*
X83500D01*
X82665Y15189D01*
X81886Y14866D01*
X81218Y14353D01*
X80705Y13685D01*
X80382Y12906D01*
X80272Y12071D01*
X80382Y11236D01*
X80705Y10457D01*
X81218Y9789D01*
X81886Y9276D01*
X82665Y8953D01*
X83500Y8843D01*
X85476D01*
Y8296D01*
X85473Y8258D01*
X85459Y8163D01*
X85441Y8086D01*
X85422Y8028D01*
X85404Y7986D01*
X85389Y7959D01*
X85378Y7945D01*
X85370Y7937D01*
X85326Y7903D01*
X85326Y7903D01*
X85249Y7851D01*
X85143Y7693D01*
X85143Y7693D01*
X85143Y7693D01*
X84973Y7438D01*
X84876Y6950D01*
Y5050D01*
X84973Y4562D01*
X85249Y4149D01*
X85662Y3872D01*
X86150Y3776D01*
X87250D01*
X87738Y3872D01*
X88151Y4149D01*
X88428Y4562D01*
X88525Y5050D01*
Y6950D01*
X88428Y7438D01*
X88257Y7693D01*
X88257Y7693D01*
X88257Y7693D01*
X88151Y7851D01*
X88074Y7903D01*
X88074Y7903D01*
X88030Y7937D01*
X88022Y7944D01*
X88011Y7959D01*
X87996Y7986D01*
X87978Y8028D01*
X87959Y8086D01*
X87941Y8163D01*
X87927Y8258D01*
X87924Y8296D01*
Y8843D01*
X89358D01*
X90194Y8953D01*
X90972Y9276D01*
X91641Y9789D01*
X93624Y11772D01*
X100629D01*
X103190Y11716D01*
X104244Y11632D01*
X104620Y11580D01*
X104895Y11525D01*
X105040Y11481D01*
X105138Y11429D01*
X105164Y11421D01*
X105372Y11282D01*
X106260Y11106D01*
X113740D01*
X114628Y11282D01*
X115380Y11785D01*
X115883Y12538D01*
X115980Y13027D01*
X116480Y12978D01*
Y10000D01*
X116051Y9594D01*
X112660D01*
X112655Y9595D01*
X112622Y9604D01*
X112582Y9619D01*
X112533Y9642D01*
X112477Y9674D01*
X112423Y9711D01*
X112262Y9844D01*
X112178Y9926D01*
X112123Y9962D01*
X111899Y10185D01*
X111201Y10475D01*
X110445D01*
X109747Y10185D01*
X109212Y9651D01*
X108923Y8952D01*
Y8197D01*
X109043Y7907D01*
X109040Y7836D01*
X108728Y7361D01*
X108651Y7351D01*
X108238Y7627D01*
X107750Y7724D01*
X106650D01*
X106162Y7627D01*
X105749Y7351D01*
X105473Y6938D01*
X105376Y6450D01*
Y4550D01*
X105473Y4062D01*
X105749Y3649D01*
X106162Y3373D01*
X106650Y3275D01*
X107750D01*
X108238Y3373D01*
X108651Y3649D01*
X108702Y3725D01*
X108756Y3793D01*
X108787Y3824D01*
X108834Y3857D01*
X108900Y3893D01*
X108989Y3930D01*
X109103Y3964D01*
X109241Y3994D01*
X109404Y4017D01*
X109468Y4022D01*
X112322D01*
X112378Y4018D01*
X112559Y3996D01*
X112713Y3968D01*
X112839Y3935D01*
X112934Y3900D01*
X113001Y3868D01*
X113040Y3842D01*
X113058Y3826D01*
X113095Y3780D01*
X113146Y3705D01*
X113625Y3384D01*
X114191Y3272D01*
X115691D01*
X116257Y3384D01*
X116736Y3705D01*
X117057Y4184D01*
X117169Y4750D01*
Y6250D01*
X117101Y6594D01*
X117562Y6840D01*
X118819Y5583D01*
X118859Y5556D01*
Y4400D01*
X119959Y3300D01*
X122159D01*
X123259Y4400D01*
Y6600D01*
X122159Y7700D01*
X119959D01*
X119772Y7513D01*
X118767Y8518D01*
X118959Y8980D01*
X126480D01*
Y5000D01*
X126483Y4989D01*
X126348Y3969D01*
X125950Y3008D01*
X125317Y2183D01*
X124492Y1550D01*
X123531Y1152D01*
X122511Y1017D01*
X122500Y1020D01*
X79109D01*
X78775Y1520D01*
X78900Y1822D01*
Y2205D01*
X78912Y2266D01*
X78912Y2326D01*
X78914Y2350D01*
X78919Y2375D01*
X78927Y2403D01*
X78940Y2436D01*
X78959Y2473D01*
X78986Y2516D01*
X79017Y2560D01*
X79921Y3464D01*
X80091Y3622D01*
X80230Y3733D01*
X80290Y3776D01*
X80850D01*
X81338Y3872D01*
X81751Y4149D01*
X82028Y4562D01*
X82125Y5050D01*
Y6950D01*
X82028Y7438D01*
X81751Y7851D01*
X81338Y8128D01*
X80850Y8224D01*
X79750D01*
X79262Y8128D01*
X78849Y7851D01*
X78572Y7438D01*
X78475Y6950D01*
Y5533D01*
X78445Y5490D01*
X78209Y5212D01*
X77246Y4249D01*
X77200Y4215D01*
X77152Y4184D01*
X77108Y4160D01*
X77069Y4143D01*
X77033Y4130D01*
X76999Y4121D01*
X76968Y4116D01*
X76905Y4111D01*
X76866Y4100D01*
X76622D01*
X75924Y3811D01*
X75389Y3276D01*
X75100Y2578D01*
Y1822D01*
X75225Y1520D01*
X74891Y1020D01*
X61115D01*
X60923Y1481D01*
X63332Y3890D01*
X63364Y3918D01*
X63368Y3921D01*
X63500Y3895D01*
X64196Y4033D01*
X64785Y4427D01*
X65179Y5017D01*
X65318Y5713D01*
Y10634D01*
X65179Y11329D01*
X64785Y11919D01*
X64196Y12313D01*
X63500Y12451D01*
X62804Y12313D01*
X62215Y11919D01*
X61821Y11329D01*
X61682Y10634D01*
Y5713D01*
X61780Y5222D01*
X58878Y2320D01*
X58115D01*
X57924Y2781D01*
X58881Y3739D01*
X58985Y3839D01*
X59156Y3992D01*
X59278Y4089D01*
X59338Y4129D01*
X59354Y4136D01*
X59383Y4158D01*
X59431Y4191D01*
X59480Y4215D01*
X59496Y4234D01*
X59785Y4427D01*
X60179Y5017D01*
X60318Y5713D01*
Y10634D01*
X60179Y11329D01*
X59785Y11919D01*
X59196Y12313D01*
X58500Y12451D01*
X57804Y12313D01*
X57215Y11919D01*
X56821Y11329D01*
X56682Y10634D01*
Y5713D01*
X56821Y5017D01*
X57003Y4745D01*
X55878Y3620D01*
X55014D01*
X54807Y4120D01*
X55111Y4424D01*
X55400Y5122D01*
Y5878D01*
X55318Y6077D01*
Y10634D01*
X55179Y11329D01*
X54785Y11919D01*
X54196Y12313D01*
X53500Y12451D01*
X52804Y12313D01*
X52215Y11919D01*
X51821Y11329D01*
X51682Y10634D01*
Y6077D01*
X51600Y5878D01*
Y5122D01*
X51889Y4424D01*
X52193Y4120D01*
X51986Y3620D01*
X49476D01*
X49325Y4120D01*
X49785Y4427D01*
X50179Y5017D01*
X50318Y5713D01*
Y10634D01*
X50179Y11329D01*
X50037Y11542D01*
X50017Y11588D01*
X49949Y11683D01*
X49902Y11761D01*
X49860Y11842D01*
X49823Y11929D01*
X49791Y12021D01*
X49764Y12120D01*
X49743Y12225D01*
X49727Y12337D01*
X49724Y12381D01*
Y13993D01*
X54007Y18277D01*
X69811D01*
X69872Y18253D01*
X69912Y18231D01*
X69937Y18214D01*
X69943Y18190D01*
X70021Y17708D01*
X69889Y17576D01*
X69600Y16878D01*
Y16122D01*
X69889Y15424D01*
X70424Y14889D01*
X71122Y14600D01*
X71878D01*
X72576Y14889D01*
X73111Y15424D01*
X73400Y16122D01*
Y16878D01*
X73111Y17576D01*
X72893Y17794D01*
X72863Y17843D01*
X72821Y17888D01*
X72802Y18065D01*
X72791Y18385D01*
X73165Y18635D01*
X78030Y23500D01*
X84000D01*
X84046Y23546D01*
X85322Y22270D01*
X85483Y22098D01*
X85595Y21958D01*
X85632Y21906D01*
Y19474D01*
X85721Y19028D01*
X85973Y18650D01*
X86351Y18398D01*
X86797Y18309D01*
X87683D01*
X88129Y18398D01*
X88507Y18650D01*
X88760Y19028D01*
X88848Y19474D01*
Y22526D01*
X88760Y22972D01*
X88507Y23350D01*
X88129Y23602D01*
X87683Y23691D01*
X87414D01*
X87380Y23715D01*
X87098Y23955D01*
X86278Y24776D01*
X86485Y25275D01*
X87250D01*
X87559Y25337D01*
X87561Y25337D01*
X87566Y25338D01*
X87738Y25372D01*
X87821Y25428D01*
X87824Y25429D01*
X87941Y25499D01*
X88048Y25549D01*
X88181Y25598D01*
X88339Y25644D01*
X88522Y25685D01*
X88715Y25718D01*
X89313Y25767D01*
X97282D01*
X99274Y23774D01*
D02*
G37*
G36*
X104755Y23005D02*
X104735Y23194D01*
X104673Y23363D01*
X104569Y23512D01*
X104424Y23642D01*
X104237Y23751D01*
X104010Y23841D01*
X103740Y23910D01*
X103429Y23960D01*
X103077Y23990D01*
X102683Y24000D01*
Y26000D01*
X103077Y26010D01*
X103429Y26040D01*
X103740Y26090D01*
X104010Y26159D01*
X104237Y26249D01*
X104424Y26358D01*
X104569Y26488D01*
X104673Y26637D01*
X104735Y26806D01*
X104755Y26995D01*
Y23005D01*
D02*
G37*
G36*
X33314Y23572D02*
X33353Y23538D01*
X33400Y23508D01*
X33456Y23482D01*
X33520Y23460D01*
X33593Y23442D01*
X33674Y23428D01*
X33763Y23418D01*
X33967Y23410D01*
Y22810D01*
X33861Y22808D01*
X33674Y22792D01*
X33593Y22778D01*
X33520Y22760D01*
X33456Y22738D01*
X33400Y22713D01*
X33353Y22683D01*
X33314Y22649D01*
X33283Y22611D01*
Y23610D01*
X33314Y23572D01*
D02*
G37*
G36*
X86567Y23470D02*
X86941Y23151D01*
X87107Y23034D01*
X87258Y22946D01*
X87394Y22886D01*
X87515Y22854D01*
X87622Y22851D01*
X87714Y22877D01*
X87792Y22931D01*
X86370Y21551D01*
X86426Y21626D01*
X86454Y21717D01*
X86453Y21822D01*
X86424Y21941D01*
X86366Y22075D01*
X86280Y22224D01*
X86166Y22388D01*
X86023Y22565D01*
X85651Y22965D01*
X86358Y23672D01*
X86567Y23470D01*
D02*
G37*
G36*
X26770Y25478D02*
X26749Y25374D01*
Y24783D01*
X26826Y24395D01*
X27027Y24094D01*
X26826Y23794D01*
X26749Y23405D01*
Y22815D01*
X26826Y22427D01*
X27046Y22097D01*
X27375Y21877D01*
X27764Y21800D01*
X33000D01*
Y19302D01*
X27764D01*
X27375Y19225D01*
X27046Y19005D01*
X27043Y19000D01*
X26338D01*
Y19016D01*
X26036Y19743D01*
X25480Y20300D01*
X24752Y20602D01*
X23965D01*
X23237Y20300D01*
X22822Y19885D01*
X22276Y19808D01*
X21898Y20154D01*
Y21313D01*
X26309Y25724D01*
X26770Y25478D01*
D02*
G37*
G36*
X72003Y18190D02*
X72014Y18074D01*
X72031Y17964D01*
X72054Y17860D01*
X72085Y17762D01*
X72122Y17670D01*
X72167Y17583D01*
X72218Y17502D01*
X72275Y17426D01*
X72340Y17357D01*
X70660D01*
X70725Y17426D01*
X70782Y17502D01*
X70833Y17583D01*
X70878Y17670D01*
X70915Y17762D01*
X70946Y17860D01*
X70969Y17964D01*
X70986Y18074D01*
X70997Y18190D01*
X71000Y18311D01*
X72000D01*
X72003Y18190D01*
D02*
G37*
G36*
X33980Y18470D02*
Y13922D01*
X27078Y7020D01*
X25227D01*
X25144Y7438D01*
X24868Y7851D01*
X24454Y8128D01*
X23967Y8224D01*
X22867D01*
X22445Y8140D01*
X22284Y8195D01*
X21945Y8439D01*
Y15462D01*
X21898Y15698D01*
Y18183D01*
X22379Y18228D01*
X22680Y17501D01*
X23237Y16944D01*
X23965Y16643D01*
X24752D01*
X25480Y16944D01*
X26036Y17501D01*
X26338Y18228D01*
Y18286D01*
X27043D01*
X27112Y18300D01*
X27182Y18300D01*
X27247Y18327D01*
X27316Y18341D01*
X27375Y18380D01*
X27439Y18407D01*
X27448Y18415D01*
X27654Y18553D01*
X27834Y18588D01*
X33000D01*
X33273Y18643D01*
X33372Y18709D01*
X33467Y18728D01*
X33480Y18737D01*
X33980Y18470D01*
D02*
G37*
G36*
X105472Y12060D02*
X105314Y12144D01*
X105069Y12218D01*
X104738Y12284D01*
X104321Y12342D01*
X103227Y12430D01*
X100000Y12500D01*
Y17500D01*
X100936Y17504D01*
X105069Y17782D01*
X105314Y17856D01*
X105472Y17940D01*
Y12060D01*
D02*
G37*
G36*
X49004Y12420D02*
X49017Y12259D01*
X49039Y12104D01*
X49070Y11954D01*
X49109Y11810D01*
X49157Y11672D01*
X49213Y11539D01*
X49279Y11412D01*
X49352Y11290D01*
X49435Y11174D01*
X47565D01*
X47648Y11290D01*
X47721Y11412D01*
X47787Y11539D01*
X47843Y11672D01*
X47891Y11810D01*
X47930Y11954D01*
X47961Y12104D01*
X47983Y12259D01*
X47996Y12420D01*
X48000Y12586D01*
X49000D01*
X49004Y12420D01*
D02*
G37*
G36*
X111785Y9312D02*
X111995Y9139D01*
X112098Y9069D01*
X112201Y9010D01*
X112303Y8961D01*
X112405Y8923D01*
X112505Y8896D01*
X112606Y8880D01*
X112705Y8875D01*
Y8275D01*
X112606Y8269D01*
X112505Y8253D01*
X112405Y8226D01*
X112303Y8188D01*
X112201Y8140D01*
X112098Y8080D01*
X111995Y8010D01*
X111890Y7929D01*
X111785Y7837D01*
X111680Y7735D01*
Y9415D01*
X111785Y9312D01*
D02*
G37*
G36*
X13704Y7467D02*
X13588Y7347D01*
X13406Y7132D01*
X13340Y7036D01*
X13289Y6949D01*
X13256Y6870D01*
X13239Y6800D01*
X13238Y6737D01*
X13254Y6683D01*
X13286Y6637D01*
X12463Y7486D01*
X12508Y7453D01*
X12561Y7436D01*
X12622Y7436D01*
X12693Y7452D01*
X12771Y7485D01*
X12858Y7535D01*
X12953Y7601D01*
X13056Y7684D01*
X13289Y7900D01*
X13704Y7467D01*
D02*
G37*
G36*
X87204Y8331D02*
X87217Y8174D01*
X87239Y8029D01*
X87270Y7896D01*
X87309Y7774D01*
X87358Y7664D01*
X87414Y7565D01*
X87480Y7478D01*
X87555Y7402D01*
X87638Y7338D01*
X85762D01*
X85845Y7402D01*
X85920Y7478D01*
X85985Y7565D01*
X86042Y7664D01*
X86090Y7774D01*
X86130Y7896D01*
X86161Y8029D01*
X86182Y8174D01*
X86196Y8331D01*
X86200Y8499D01*
X87200D01*
X87204Y8331D01*
D02*
G37*
G36*
X24509Y6543D02*
X24528Y6492D01*
X24558Y6447D01*
X24601Y6408D01*
X24656Y6375D01*
X24724Y6348D01*
X24803Y6327D01*
X24895Y6312D01*
X24999Y6303D01*
X25115Y6300D01*
Y5700D01*
X24999Y5697D01*
X24895Y5688D01*
X24803Y5673D01*
X24724Y5652D01*
X24656Y5625D01*
X24601Y5592D01*
X24558Y5553D01*
X24528Y5508D01*
X24509Y5457D01*
X24503Y5400D01*
Y6600D01*
X24509Y6543D01*
D02*
G37*
G36*
X63485Y4647D02*
X63434Y4674D01*
X63377Y4687D01*
X63314Y4687D01*
X63245Y4671D01*
X63170Y4642D01*
X63089Y4598D01*
X63002Y4541D01*
X62910Y4469D01*
X62811Y4383D01*
X62707Y4282D01*
X62220Y4645D01*
X62318Y4747D01*
X62468Y4930D01*
X62520Y5011D01*
X62556Y5085D01*
X62577Y5151D01*
X62582Y5211D01*
X62572Y5263D01*
X62546Y5309D01*
X62505Y5347D01*
X63485Y4647D01*
D02*
G37*
G36*
X80643Y4513D02*
X80565Y4568D01*
X80473Y4594D01*
X80367Y4592D01*
X80246Y4562D01*
X80112Y4504D01*
X79964Y4418D01*
X79801Y4304D01*
X79624Y4162D01*
X79229Y3794D01*
X78494Y4474D01*
X78695Y4682D01*
X79010Y5052D01*
X79125Y5216D01*
X79211Y5365D01*
X79268Y5499D01*
X79298Y5618D01*
X79298Y5723D01*
X79270Y5813D01*
X79214Y5889D01*
X80643Y4513D01*
D02*
G37*
G36*
X113659Y4218D02*
X113578Y4319D01*
X113476Y4410D01*
X113355Y4490D01*
X113213Y4559D01*
X113051Y4617D01*
X112869Y4665D01*
X112667Y4702D01*
X112444Y4729D01*
X112201Y4745D01*
X111939Y4750D01*
Y6250D01*
X112201Y6256D01*
X112667Y6298D01*
X112869Y6335D01*
X113051Y6383D01*
X113213Y6442D01*
X113355Y6511D01*
X113476Y6591D01*
X113578Y6681D01*
X113659Y6782D01*
Y4218D01*
D02*
G37*
G36*
X108225Y6726D02*
X108330Y6626D01*
X108452Y6538D01*
X108592Y6462D01*
X108749Y6397D01*
X108924Y6344D01*
X109116Y6303D01*
X109326Y6274D01*
X109554Y6256D01*
X109799Y6250D01*
Y4750D01*
X109554Y4744D01*
X109326Y4727D01*
X109117Y4697D01*
X108924Y4656D01*
X108749Y4603D01*
X108592Y4538D01*
X108452Y4462D01*
X108330Y4374D01*
X108225Y4274D01*
X108138Y4162D01*
Y6838D01*
X108225Y6726D01*
D02*
G37*
G36*
X59040Y4777D02*
X58988Y4752D01*
X58928Y4716D01*
X58860Y4668D01*
X58697Y4538D01*
X58500Y4363D01*
X58140Y4016D01*
X57602Y4326D01*
X57704Y4432D01*
X57852Y4615D01*
X57898Y4691D01*
X57925Y4756D01*
X57934Y4812D01*
X57924Y4857D01*
X57894Y4892D01*
X57847Y4916D01*
X57780Y4931D01*
X59040Y4777D01*
D02*
G37*
G36*
X78613Y3179D02*
X78530Y3091D01*
X78456Y3002D01*
X78391Y2912D01*
X78336Y2821D01*
X78289Y2730D01*
X78253Y2638D01*
X78225Y2546D01*
X78207Y2452D01*
X78198Y2358D01*
X78198Y2264D01*
X76960Y3399D01*
X77055Y3407D01*
X77149Y3422D01*
X77242Y3447D01*
X77334Y3479D01*
X77426Y3520D01*
X77517Y3570D01*
X77607Y3628D01*
X77696Y3695D01*
X77785Y3769D01*
X77873Y3853D01*
X78613Y3179D01*
D02*
G37*
G36*
X5000Y58980D02*
X14807D01*
X14964Y58584D01*
X14971Y58480D01*
X13995Y57505D01*
X13841Y57273D01*
X13786Y57000D01*
Y27500D01*
X13841Y27227D01*
X13995Y26995D01*
X14973Y26018D01*
X15052Y25965D01*
X14980Y25603D01*
Y10609D01*
X12676Y8305D01*
X12590Y8225D01*
X12589Y8224D01*
X11650D01*
X11162Y8128D01*
X10749Y7851D01*
X10473Y7438D01*
X10375Y6950D01*
Y5050D01*
X10473Y4562D01*
X10749Y4149D01*
X11162Y3872D01*
X11650Y3776D01*
X12750D01*
X13238Y3872D01*
X13651Y4149D01*
X13927Y4562D01*
X14025Y5050D01*
Y6758D01*
X14091Y6836D01*
X16721Y9466D01*
X16942Y9797D01*
X17020Y10187D01*
Y25181D01*
X24858Y33019D01*
X25319Y32773D01*
X25285Y32601D01*
Y29631D01*
X25281Y29598D01*
X25270Y29542D01*
X25256Y29490D01*
X25238Y29442D01*
X25216Y29394D01*
X25190Y29348D01*
X25158Y29301D01*
X25137Y29275D01*
X18857Y22995D01*
X18636Y22664D01*
X18558Y22274D01*
Y4084D01*
X18636Y3693D01*
X18857Y3363D01*
X20738Y1481D01*
X20547Y1020D01*
X5000D01*
X4989Y1017D01*
X3969Y1152D01*
X3008Y1550D01*
X2183Y2183D01*
X1550Y3008D01*
X1152Y3969D01*
X1017Y4989D01*
X1020Y5000D01*
Y55000D01*
X1017Y55011D01*
X1152Y56031D01*
X1550Y56992D01*
X2183Y57817D01*
X3008Y58450D01*
X3969Y58848D01*
X4989Y58983D01*
X5000Y58980D01*
D02*
G37*
%LPC*%
G36*
X87240Y56513D02*
X86453D01*
X85725Y56212D01*
X85168Y55655D01*
X84867Y54927D01*
Y54140D01*
X85168Y53412D01*
X85725Y52855D01*
X86453Y52554D01*
X87240D01*
X87968Y52855D01*
X88525Y53412D01*
X88826Y54140D01*
Y54927D01*
X88525Y55655D01*
X87968Y56212D01*
X87240Y56513D01*
D02*
G37*
G36*
X80547D02*
X79760D01*
X79032Y56212D01*
X78475Y55655D01*
X78174Y54927D01*
Y54140D01*
X78475Y53412D01*
X79032Y52855D01*
X79760Y52554D01*
X80547D01*
X81275Y52855D01*
X81832Y53412D01*
X82133Y54140D01*
Y54927D01*
X81832Y55655D01*
X81275Y56212D01*
X80547Y56513D01*
D02*
G37*
G36*
X57309Y56728D02*
X55809D01*
X55243Y56616D01*
X54764Y56295D01*
X54443Y55816D01*
X54331Y55250D01*
Y53750D01*
X54443Y53184D01*
X54764Y52704D01*
X55243Y52384D01*
X55809Y52271D01*
X57309D01*
X57875Y52384D01*
X57925Y52417D01*
X59528Y52512D01*
X59640D01*
X60386Y52465D01*
X60554Y52443D01*
X60670Y52422D01*
X60702Y52413D01*
X60762Y52372D01*
X61250Y52276D01*
X62350D01*
X62838Y52372D01*
X63251Y52649D01*
X63528Y53062D01*
X63625Y53550D01*
Y53721D01*
X63637Y53739D01*
X63788Y54500D01*
X63637Y55261D01*
X63625Y55279D01*
Y55450D01*
X63528Y55938D01*
X63251Y56351D01*
X62838Y56628D01*
X62350Y56725D01*
X61250D01*
X60762Y56628D01*
X60705Y56590D01*
X59100Y56488D01*
X58978D01*
X58243Y56531D01*
X58073Y56552D01*
X57955Y56572D01*
X57929Y56579D01*
X57875Y56616D01*
X57309Y56728D01*
D02*
G37*
G36*
X30271Y57700D02*
X29429D01*
X28615Y57482D01*
X27885Y57061D01*
X27775Y56950D01*
X24050D01*
Y52050D01*
X27775D01*
X27885Y51939D01*
X28615Y51518D01*
X29429Y51300D01*
X30271D01*
X31085Y51518D01*
X31815Y51939D01*
X32411Y52535D01*
X32559Y52792D01*
X33889D01*
X34354Y52885D01*
X34749Y53148D01*
X35012Y53543D01*
X35105Y54008D01*
Y54992D01*
X35012Y55457D01*
X34749Y55852D01*
X34354Y56115D01*
X33889Y56208D01*
X32559D01*
X32411Y56465D01*
X31815Y57061D01*
X31085Y57482D01*
X30271Y57700D01*
D02*
G37*
G36*
X101350Y56725D02*
X100250D01*
X99762Y56628D01*
X99349Y56351D01*
X99149Y56052D01*
X99143Y56046D01*
X99140Y56039D01*
X99072Y55938D01*
X99055Y55848D01*
X99028Y55757D01*
X98988Y55665D01*
X98912Y55530D01*
X98801Y55360D01*
X98666Y55175D01*
X97947Y54359D01*
X96630Y53042D01*
X96199Y52397D01*
X96048Y51636D01*
Y51622D01*
X96199Y50861D01*
X96630Y50216D01*
X97275Y49785D01*
X98036Y49633D01*
X98797Y49785D01*
X99442Y50216D01*
X99472Y50260D01*
X100730Y51518D01*
X101048Y51816D01*
X101448Y52152D01*
X101592Y52258D01*
X101697Y52328D01*
X101742Y52351D01*
X101757Y52356D01*
X101838Y52372D01*
X101959Y52453D01*
X101967Y52457D01*
X101972Y52462D01*
X102251Y52649D01*
X102527Y53062D01*
X102624Y53550D01*
Y53621D01*
X102637Y53639D01*
X102788Y54400D01*
Y54500D01*
X102637Y55261D01*
X102624Y55279D01*
Y55450D01*
X102527Y55938D01*
X102251Y56351D01*
X101838Y56628D01*
X101350Y56725D01*
D02*
G37*
G36*
X45000Y57714D02*
X41000D01*
X40727Y57659D01*
X40495Y57505D01*
X40341Y57273D01*
X40286Y57000D01*
Y51796D01*
X36495Y48005D01*
X36341Y47773D01*
X36286Y47500D01*
Y47304D01*
X36276Y47250D01*
Y46150D01*
X36286Y46096D01*
Y46000D01*
X36341Y45727D01*
X36368Y45686D01*
X36373Y45662D01*
X36649Y45249D01*
X36929Y45061D01*
X36995Y44995D01*
X36995Y44995D01*
X37227Y44841D01*
X37500Y44786D01*
X39500D01*
X39773Y44841D01*
X40005Y44995D01*
X40071Y45061D01*
X40351Y45249D01*
X40376Y45286D01*
X48000D01*
X48273Y45341D01*
X48505Y45495D01*
X48547Y45559D01*
X48574Y45573D01*
X48612Y45581D01*
X48697Y45638D01*
X48788Y45685D01*
X48812Y45715D01*
X48843Y45735D01*
X48900Y45821D01*
X48966Y45900D01*
X48977Y45936D01*
X48998Y45967D01*
X49005Y46001D01*
X49068Y46012D01*
X49125Y46017D01*
X50036D01*
Y41566D01*
X47677D01*
X47209Y41473D01*
X47019Y41346D01*
X43320D01*
Y38174D01*
X48657D01*
Y38713D01*
X48697Y38740D01*
X48788Y38788D01*
X48812Y38817D01*
X48843Y38838D01*
X48900Y38923D01*
X48966Y39002D01*
X48977Y39038D01*
X48998Y39069D01*
X49005Y39103D01*
X49068Y39114D01*
X49125Y39119D01*
X50674D01*
X51142Y39212D01*
X51539Y39477D01*
X52125Y40063D01*
X52390Y40460D01*
X52483Y40928D01*
Y41847D01*
X52494Y41905D01*
X52507Y41946D01*
X52516Y41961D01*
X52517Y41963D01*
X52519Y41964D01*
X52534Y41973D01*
X52576Y41987D01*
X52634Y41997D01*
X78064D01*
X78263Y41772D01*
X78376Y41627D01*
X78460Y41504D01*
X78475Y41478D01*
Y40550D01*
X78572Y40062D01*
X78849Y39649D01*
X79262Y39373D01*
X79750Y39276D01*
X80850D01*
X81338Y39373D01*
X81751Y39649D01*
X82028Y40062D01*
X82125Y40550D01*
Y42450D01*
X82028Y42938D01*
X81751Y43351D01*
X81338Y43628D01*
X80850Y43725D01*
X79830D01*
X79661Y43869D01*
X79445Y44085D01*
X79048Y44351D01*
X78580Y44444D01*
X71842D01*
X71793Y44944D01*
X71938Y44973D01*
X72351Y45249D01*
X72628Y45662D01*
X72724Y46150D01*
Y47250D01*
X72628Y47738D01*
X72351Y48151D01*
X71938Y48428D01*
X71450Y48524D01*
X71340D01*
X71139Y48659D01*
X70378Y48810D01*
X70172D01*
Y54250D01*
X70025Y54990D01*
Y55450D01*
X69928Y55938D01*
X69651Y56351D01*
X69238Y56628D01*
X68750Y56725D01*
X67650D01*
X67162Y56628D01*
X66749Y56351D01*
X66473Y55938D01*
X66375Y55450D01*
Y55054D01*
X66347Y55011D01*
X66195Y54250D01*
Y48688D01*
X62991D01*
X62425Y49066D01*
X61664Y49218D01*
X57416D01*
X56655Y49066D01*
X56295Y48826D01*
X54343D01*
Y45654D01*
X56264D01*
X56655Y45393D01*
X57416Y45241D01*
X60867D01*
X61312Y44944D01*
X61173Y44444D01*
X52634D01*
X52576Y44454D01*
X52534Y44468D01*
X52519Y44476D01*
X52517Y44477D01*
X52516Y44479D01*
X52507Y44494D01*
X52494Y44536D01*
X52483Y44594D01*
Y46654D01*
X52390Y47123D01*
X52125Y47519D01*
X51539Y48105D01*
X51142Y48371D01*
X50674Y48464D01*
X49125D01*
X49068Y48469D01*
X49005Y48479D01*
X48998Y48513D01*
X48977Y48545D01*
X48966Y48581D01*
X48900Y48660D01*
X48843Y48745D01*
X48812Y48766D01*
X48788Y48795D01*
X48714Y48834D01*
Y49000D01*
X48659Y49273D01*
X48505Y49505D01*
X45714Y52296D01*
Y57000D01*
X45659Y57273D01*
X45505Y57505D01*
X45273Y57659D01*
X45000Y57714D01*
D02*
G37*
G36*
X59680Y41346D02*
X54343D01*
Y38174D01*
X59680D01*
Y41346D01*
D02*
G37*
G36*
X68500Y35105D02*
X67804Y34967D01*
X67215Y34573D01*
X66821Y33983D01*
X66682Y33287D01*
Y28366D01*
X66821Y27671D01*
X67215Y27081D01*
X67804Y26687D01*
X68500Y26549D01*
X69196Y26687D01*
X69785Y27081D01*
X70179Y27671D01*
X70318Y28366D01*
Y33287D01*
X70179Y33983D01*
X69785Y34573D01*
X69196Y34967D01*
X68500Y35105D01*
D02*
G37*
G36*
X63500D02*
X62804Y34967D01*
X62215Y34573D01*
X61821Y33983D01*
X61682Y33287D01*
Y28366D01*
X61821Y27671D01*
X62215Y27081D01*
X62804Y26687D01*
X63500Y26549D01*
X64196Y26687D01*
X64785Y27081D01*
X65179Y27671D01*
X65318Y28366D01*
Y33287D01*
X65179Y33983D01*
X64785Y34573D01*
X64196Y34967D01*
X63500Y35105D01*
D02*
G37*
G36*
X58500D02*
X57804Y34967D01*
X57215Y34573D01*
X56821Y33983D01*
X56682Y33287D01*
Y28366D01*
X56821Y27671D01*
X57215Y27081D01*
X57804Y26687D01*
X58500Y26549D01*
X59196Y26687D01*
X59785Y27081D01*
X60179Y27671D01*
X60318Y28366D01*
Y33287D01*
X60179Y33983D01*
X59785Y34573D01*
X59196Y34967D01*
X58500Y35105D01*
D02*
G37*
G36*
X43500D02*
X42804Y34967D01*
X42215Y34573D01*
X41821Y33983D01*
X41682Y33287D01*
Y28366D01*
X41821Y27671D01*
X42215Y27081D01*
X42804Y26687D01*
X43500Y26549D01*
X44196Y26687D01*
X44785Y27081D01*
X45179Y27671D01*
X45318Y28366D01*
Y33287D01*
X45179Y33983D01*
X44785Y34573D01*
X44196Y34967D01*
X43500Y35105D01*
D02*
G37*
G36*
X53500D02*
X52804Y34967D01*
X52215Y34573D01*
X51821Y33983D01*
X51682Y33287D01*
Y28577D01*
X51600Y28378D01*
Y27622D01*
X51889Y26924D01*
X52424Y26389D01*
X53122Y26100D01*
X53878D01*
X54576Y26389D01*
X55111Y26924D01*
X55400Y27622D01*
Y28378D01*
X55318Y28577D01*
Y33287D01*
X55179Y33983D01*
X54785Y34573D01*
X54196Y34967D01*
X53500Y35105D01*
D02*
G37*
G36*
X48500D02*
X47804Y34967D01*
X47215Y34573D01*
X46821Y33983D01*
X46682Y33287D01*
Y28577D01*
X46600Y28378D01*
Y27622D01*
X46889Y26924D01*
X47424Y26389D01*
X48122Y26100D01*
X48878D01*
X49576Y26389D01*
X50111Y26924D01*
X50400Y27622D01*
Y28378D01*
X50318Y28577D01*
Y33287D01*
X50179Y33983D01*
X49785Y34573D01*
X49196Y34967D01*
X48500Y35105D01*
D02*
G37*
G36*
X39000Y36988D02*
X38239Y36837D01*
X37594Y36406D01*
X37163Y35761D01*
X37012Y35000D01*
Y34269D01*
X36821Y33983D01*
X36682Y33287D01*
Y28366D01*
X36821Y27671D01*
X37045Y27336D01*
X37163Y26739D01*
X37594Y26094D01*
X38239Y25663D01*
X39000Y25512D01*
X39761Y25663D01*
X40406Y26094D01*
X40837Y26739D01*
X40988Y27500D01*
Y35000D01*
X40837Y35761D01*
X40406Y36406D01*
X39761Y36837D01*
X39000Y36988D01*
D02*
G37*
%LPD*%
G36*
X61040Y53043D02*
X60957Y53083D01*
X60832Y53118D01*
X60664Y53149D01*
X60454Y53175D01*
X59588Y53230D01*
X57801Y53125D01*
X57677Y53092D01*
X57597Y53055D01*
Y55945D01*
X57677Y55908D01*
X57801Y55875D01*
X57968Y55845D01*
X58180Y55820D01*
X59043Y55769D01*
X60831Y55882D01*
X60957Y55918D01*
X61040Y55957D01*
Y53043D01*
D02*
G37*
G36*
X101560Y53043D02*
X101460Y53009D01*
X101334Y52943D01*
X101183Y52844D01*
X101005Y52712D01*
X100574Y52350D01*
X99733Y51562D01*
X99401Y51234D01*
X97934Y53301D01*
X98253Y53626D01*
X99223Y54728D01*
X99388Y54954D01*
X99523Y55160D01*
X99627Y55346D01*
X99701Y55513D01*
X99743Y55660D01*
X101560Y53043D01*
D02*
G37*
G36*
X45000Y52000D02*
X47500Y49500D01*
X48000Y49000D01*
Y46000D01*
X40000D01*
X39500Y45500D01*
X37500D01*
X37000Y46000D01*
Y47500D01*
X41000Y51500D01*
Y53500D01*
Y57000D01*
X45000D01*
Y52000D01*
D02*
G37*
G36*
X51770Y44530D02*
X51800Y44360D01*
X51850Y44210D01*
X51920Y44080D01*
X52010Y43970D01*
X52120Y43880D01*
X52250Y43810D01*
X52400Y43760D01*
X52570Y43730D01*
X52760Y43720D01*
Y42720D01*
X52570Y42710D01*
X52400Y42680D01*
X52250Y42630D01*
X52120Y42560D01*
X52010Y42470D01*
X51920Y42360D01*
X51850Y42230D01*
X51800Y42080D01*
X51770Y41910D01*
X51760Y41720D01*
X50760Y43220D01*
X51760Y44720D01*
X51770Y44530D01*
D02*
G37*
G36*
X79118Y43395D02*
X79443Y43116D01*
X79582Y43017D01*
X79705Y42945D01*
X79814Y42900D01*
X79907Y42881D01*
X79985Y42890D01*
X80047Y42925D01*
X80094Y42987D01*
X79214Y41306D01*
X79239Y41389D01*
X79237Y41489D01*
X79207Y41604D01*
X79150Y41736D01*
X79065Y41884D01*
X78953Y42048D01*
X78812Y42229D01*
X78449Y42638D01*
X78226Y42867D01*
X78933Y43574D01*
X79118Y43395D01*
D02*
G37*
%LPC*%
G36*
X101350Y7724D02*
X100250D01*
X99762Y7627D01*
X99349Y7351D01*
X99072Y6938D01*
X99033Y6737D01*
X98981Y6729D01*
X98921Y6724D01*
X97154D01*
X97099Y6732D01*
X97046Y6744D01*
X97002Y6758D01*
X96966Y6773D01*
X96936Y6788D01*
X96910Y6804D01*
X96888Y6821D01*
X96843Y6863D01*
X96794Y6893D01*
X96576Y7111D01*
X95878Y7400D01*
X95122D01*
X94424Y7111D01*
X93889Y6576D01*
X93600Y5878D01*
Y5122D01*
X93889Y4424D01*
X94424Y3889D01*
X95122Y3600D01*
X95878D01*
X96576Y3889D01*
X96794Y4107D01*
X96843Y4137D01*
X96888Y4179D01*
X96910Y4196D01*
X96936Y4212D01*
X96966Y4228D01*
X97002Y4242D01*
X97046Y4256D01*
X97099Y4268D01*
X97154Y4276D01*
X98921D01*
X98981Y4271D01*
X99033Y4263D01*
X99072Y4062D01*
X99349Y3649D01*
X99762Y3373D01*
X100250Y3275D01*
X101350D01*
X101838Y3373D01*
X102251Y3649D01*
X102527Y4062D01*
X102624Y4550D01*
Y6450D01*
X102527Y6938D01*
X102251Y7351D01*
X101838Y7627D01*
X101350Y7724D01*
D02*
G37*
G36*
X73500Y12451D02*
X72804Y12313D01*
X72215Y11919D01*
X71821Y11329D01*
X71682Y10634D01*
Y5713D01*
X71821Y5017D01*
X72215Y4427D01*
X72804Y4033D01*
X73500Y3895D01*
X74196Y4033D01*
X74785Y4427D01*
X75179Y5017D01*
X75318Y5713D01*
Y10634D01*
X75179Y11329D01*
X74785Y11919D01*
X74196Y12313D01*
X73500Y12451D01*
D02*
G37*
G36*
X68500D02*
X67804Y12313D01*
X67215Y11919D01*
X66821Y11329D01*
X66682Y10634D01*
Y5713D01*
X66821Y5017D01*
X67215Y4427D01*
X67804Y4033D01*
X68500Y3895D01*
X69196Y4033D01*
X69785Y4427D01*
X70179Y5017D01*
X70318Y5713D01*
Y10634D01*
X70179Y11329D01*
X69785Y11919D01*
X69196Y12313D01*
X68500Y12451D01*
D02*
G37*
%LPD*%
G36*
X96426Y6275D02*
X96502Y6218D01*
X96583Y6167D01*
X96670Y6122D01*
X96762Y6085D01*
X96860Y6054D01*
X96964Y6031D01*
X97074Y6014D01*
X97190Y6003D01*
X97311Y6000D01*
Y5000D01*
X97190Y4997D01*
X97074Y4986D01*
X96964Y4969D01*
X96860Y4946D01*
X96762Y4915D01*
X96670Y4878D01*
X96583Y4833D01*
X96502Y4782D01*
X96426Y4725D01*
X96357Y4660D01*
Y6340D01*
X96426Y6275D01*
D02*
G37*
G36*
X99723Y4502D02*
X99713Y4597D01*
X99682Y4682D01*
X99631Y4756D01*
X99560Y4821D01*
X99468Y4876D01*
X99355Y4920D01*
X99222Y4955D01*
X99069Y4980D01*
X98896Y4995D01*
X98701Y5000D01*
Y6000D01*
X98896Y6005D01*
X99069Y6020D01*
X99222Y6045D01*
X99355Y6080D01*
X99468Y6124D01*
X99560Y6179D01*
X99631Y6244D01*
X99682Y6318D01*
X99713Y6403D01*
X99723Y6498D01*
X99723Y4502D01*
D02*
G37*
D10*
X86700Y41873D02*
X90193Y45366D01*
X86700Y41400D02*
Y41873D01*
X90193Y45366D02*
Y49022D01*
X77000Y2273D02*
X80300Y5573D01*
Y6000D01*
X77000Y2200D02*
Y2273D01*
X53500Y19500D02*
X71000D01*
X48500Y14500D02*
X53500Y19500D01*
X48500Y8173D02*
Y14500D01*
X43500Y8173D02*
X43643Y8316D01*
X52700Y21200D02*
X71445D01*
X43643Y8316D02*
Y12143D01*
X52700Y21200D01*
X71500Y16500D02*
Y19000D01*
Y19500D02*
X72300D01*
X71000D02*
X71500D01*
X71000D02*
X71500Y19000D01*
X84221Y25102D02*
X87240Y22083D01*
X84221Y25102D02*
Y34801D01*
X86700Y37280D01*
X51260Y40928D02*
Y43220D01*
X78580D02*
X79331Y42469D01*
X51260Y43220D02*
Y46654D01*
Y43220D02*
X78580D01*
X79331Y42469D02*
X79704D01*
X80300Y41500D02*
Y41873D01*
X79704Y42469D02*
X80300Y41873D01*
X77719Y34016D02*
X78400Y34697D01*
X86700Y37280D02*
Y41400D01*
X95500Y5500D02*
X100800D01*
X100800Y5500D01*
X72300Y19500D02*
X80300Y27500D01*
X71445Y21200D02*
X76500Y26255D01*
X86429Y12071D02*
X86700Y11800D01*
Y6000D02*
Y11800D01*
X83500Y10988D02*
Y12071D01*
X76500Y26255D02*
Y32693D01*
X77719Y33912D01*
Y34016D01*
X87240Y21000D02*
Y22083D01*
X50674Y40343D02*
X51260Y40928D01*
X47677Y40343D02*
X50674D01*
Y47240D02*
X51260Y46654D01*
X47095Y47240D02*
X50674D01*
X47095Y39760D02*
X47677Y40343D01*
D17*
X117759Y57800D02*
X121059Y54500D01*
X111000Y57800D02*
X117759D01*
X26304Y29000D02*
Y32601D01*
X26656Y32953D02*
X30421D01*
X26304Y32601D02*
X26656Y32953D01*
X78400Y34500D02*
X78701D01*
X80907Y36706D02*
X81155D01*
X78701Y34500D02*
X80907Y36706D01*
X120485Y5500D02*
X121059D01*
X119540Y6304D02*
X119681D01*
X110823Y8575D02*
X117269D01*
X119681Y6304D02*
X120485Y5500D01*
X117269Y8575D02*
X119540Y6304D01*
X12200Y6000D02*
Y6387D01*
X16000Y10187D02*
Y25603D01*
X12200Y6387D02*
X16000Y10187D01*
Y25603D02*
X25318Y34921D01*
X30421D01*
X19578Y4084D02*
X22362Y1300D01*
X20878Y15509D02*
Y21735D01*
X19578Y22274D02*
X26304Y29000D01*
X20878Y21735D02*
X26190Y27047D01*
X20878Y15509D02*
X20925Y15462D01*
Y4575D02*
Y15462D01*
X19578Y4084D02*
Y22274D01*
X20925Y4575D02*
X22900Y2600D01*
X34390Y23110D02*
X35000Y22500D01*
X27500Y6000D02*
X35000Y13500D01*
Y22500D01*
X23417Y6000D02*
X27500D01*
X30421Y23110D02*
X34390D01*
X86700Y41400D02*
Y41400D01*
Y41500D01*
X26190Y27047D02*
X30421D01*
X59300Y1300D02*
X63500Y5500D01*
X22900Y2600D02*
X56300D01*
X22362Y1300D02*
X59300D01*
X56300Y2600D02*
X58500Y4800D01*
X33840Y30960D02*
X34374Y30426D01*
Y27574D02*
Y30426D01*
X30421Y30984D02*
X30446Y30960D01*
X33840D01*
X30430Y27056D02*
X33856D01*
X30421Y27047D02*
X30430Y27056D01*
X33856D02*
X34374Y27574D01*
X58500Y4800D02*
Y7673D01*
X63500Y5500D02*
Y7673D01*
X26304Y29000D02*
X30406D01*
X30421Y29016D01*
D21*
X57012Y39760D02*
D03*
Y47240D02*
D03*
X45988Y43500D02*
D03*
Y47240D02*
D03*
Y39760D02*
D03*
D22*
X26500Y54500D02*
D03*
X19500D02*
D03*
D23*
X5800Y6000D02*
D03*
X12200D02*
D03*
X23417D02*
D03*
X17017D02*
D03*
X61800Y54500D02*
D03*
X68200D02*
D03*
X107200Y5500D02*
D03*
X100800D02*
D03*
X107200Y54500D02*
D03*
X100800D02*
D03*
X86700Y6000D02*
D03*
X80300D02*
D03*
X86700Y41500D02*
D03*
X80300D02*
D03*
X86700Y27500D02*
D03*
X80300D02*
D03*
D24*
X74347Y56699D02*
D03*
X92654D02*
D03*
D25*
X76413Y57978D02*
D03*
X90587D02*
D03*
D26*
X76807Y49022D02*
D03*
X90193D02*
D03*
D27*
X33200Y54500D02*
D03*
X43100D02*
D03*
X78400Y34500D02*
D03*
X88300D02*
D03*
D28*
X38500Y40300D02*
D03*
Y46700D02*
D03*
X64500Y40300D02*
D03*
Y46700D02*
D03*
X70500Y40300D02*
D03*
Y46700D02*
D03*
D29*
X110000Y45000D02*
D03*
Y35000D02*
D03*
Y25000D02*
D03*
Y15000D02*
D03*
D30*
X87240Y21000D02*
D03*
X79760D02*
D03*
X83500Y12071D02*
D03*
D31*
X30421Y16811D02*
D03*
Y17992D02*
D03*
Y19961D02*
D03*
Y21142D02*
D03*
Y23110D02*
D03*
Y25079D02*
D03*
Y27047D02*
D03*
Y29016D02*
D03*
Y30984D02*
D03*
Y32953D02*
D03*
Y34921D02*
D03*
Y36890D02*
D03*
Y38858D02*
D03*
Y40039D02*
D03*
Y42008D02*
D03*
Y43189D02*
D03*
D32*
X38500Y8173D02*
D03*
X43500D02*
D03*
X48500D02*
D03*
X53500D02*
D03*
X58500D02*
D03*
X63500D02*
D03*
X68500D02*
D03*
X73500D02*
D03*
X38500Y30827D02*
D03*
X43500D02*
D03*
X48500D02*
D03*
X53500D02*
D03*
X58500D02*
D03*
X63500D02*
D03*
X68500D02*
D03*
X73500D02*
D03*
D33*
X121059Y54500D02*
D03*
X50441Y54500D02*
D03*
X121059Y5500D02*
D03*
D34*
X114941Y54500D02*
D03*
X56559Y54500D02*
D03*
X114941Y5500D02*
D03*
D52*
X91500Y40000D02*
X91771D01*
X96771Y45000D01*
X109779D01*
X109889Y45110D01*
D53*
X39000Y27500D02*
Y35000D01*
X98036Y51622D02*
Y51636D01*
X100800Y54400D02*
Y54500D01*
X98036Y51636D02*
X100800Y54400D01*
X64500Y46700D02*
X70500D01*
X62194D02*
X64500D01*
X61664Y47230D02*
X62194Y46700D01*
X57416Y47230D02*
X61664D01*
X68183Y46822D02*
Y54250D01*
Y46822D02*
X70378D01*
X70500Y46700D01*
X56559Y54500D02*
X61800D01*
X56559Y54500D02*
X56559Y54500D01*
X61800D02*
X61800Y54500D01*
D54*
X109516Y34516D02*
X110000Y35000D01*
X88316Y34516D02*
X109516D01*
X88300Y34500D02*
X88316Y34516D01*
X98000Y27500D02*
X100500Y25000D01*
X110000D01*
X86700Y27500D02*
X98000D01*
D55*
X109889Y45110D02*
X110000Y45000D01*
D56*
X107200Y5000D02*
X107200Y5000D01*
Y5500D02*
X114441D01*
X107200Y5500D02*
X107200Y5500D01*
X114441D02*
X114941Y5000D01*
X114941Y54500D02*
X114941Y54500D01*
X107200Y54500D02*
X107200Y54500D01*
X114941D01*
D57*
X86429Y12071D02*
X89358D01*
X83500D02*
X86429D01*
X92287Y15000D02*
X110000D01*
X89358Y12071D02*
X92287Y15000D01*
D58*
X80154Y54533D02*
D03*
X86847D02*
D03*
X24358Y41378D02*
D03*
Y18622D02*
D03*
D59*
X10579Y12972D02*
D03*
Y47028D02*
D03*
D60*
X26327Y12972D02*
D03*
Y47028D02*
D03*
D61*
X7500Y35000D02*
D03*
Y27500D02*
D03*
X16000Y32000D02*
D03*
X20000Y36000D02*
D03*
X111000Y57800D02*
D03*
X77000Y2200D02*
D03*
X57500Y15000D02*
D03*
X30000Y5000D02*
D03*
X62500Y37500D02*
D03*
X52500D02*
D03*
X32500Y47500D02*
D03*
X65000Y57500D02*
D03*
X47500D02*
D03*
X37500D02*
D03*
X82500Y47500D02*
D03*
X85000Y45000D02*
D03*
X75000Y40000D02*
D03*
Y37500D02*
D03*
X97500Y20000D02*
D03*
X102500D02*
D03*
X77500Y15000D02*
D03*
X67500D02*
D03*
X62500D02*
D03*
X92500Y2500D02*
D03*
X82500D02*
D03*
X35000Y7500D02*
D03*
X42500Y17500D02*
D03*
X40000Y20000D02*
D03*
X7500D02*
D03*
Y55000D02*
D03*
X16000Y40000D02*
D03*
Y48000D02*
D03*
Y56000D02*
D03*
X25500Y22500D02*
D03*
X42500Y48000D02*
D03*
X39500D02*
D03*
X53500Y5500D02*
D03*
X39000Y35000D02*
D03*
X98036Y51622D02*
D03*
X81155Y36706D02*
D03*
X95500Y5500D02*
D03*
X67500Y46700D02*
D03*
X110823Y8575D02*
D03*
X53500Y28000D02*
D03*
X71500Y16500D02*
D03*
X39000Y27500D02*
D03*
X61664Y47230D02*
D03*
X48500Y28000D02*
D03*
D62*
X91500Y40000D02*
D03*
X29850Y54500D02*
D03*
M02*
