G04*
G04 #@! TF.GenerationSoftware,Altium Limited,Altium Designer,22.3.1 (43)*
G04*
G04 Layer_Color=65535*
%FSLAX25Y25*%
%MOIN*%
G70*
G04*
G04 #@! TF.SameCoordinates,ABD1A1CB-370B-4326-B327-FACD84D75C70*
G04*
G04*
G04 #@! TF.FilePolarity,Positive*
G04*
G01*
G75*
%ADD10C,0.01000*%
%ADD11C,0.00984*%
%ADD12C,0.01968*%
%ADD13C,0.00800*%
%ADD14C,0.00700*%
%ADD15C,0.00100*%
%ADD16C,0.00787*%
%ADD17C,0.00600*%
%ADD18C,0.00394*%
%ADD19C,0.00500*%
%ADD20C,0.00598*%
G36*
X66501Y55575D02*
X63501D01*
Y56075D01*
X66501D01*
Y55575D01*
D02*
G37*
G36*
X105500Y55575D02*
X102500Y55575D01*
Y56075D01*
X105500D01*
Y55575D01*
D02*
G37*
G36*
X38850Y54500D02*
X37300Y52950D01*
Y56050D01*
X38850Y54500D01*
D02*
G37*
G36*
X66500Y53425D02*
Y52925D01*
X63500D01*
Y53425D01*
X66500Y53425D01*
D02*
G37*
G36*
X105499Y52925D02*
X102499D01*
Y53425D01*
X105499D01*
Y52925D01*
D02*
G37*
G36*
X72000Y43950D02*
X69000D01*
Y44450D01*
X72000D01*
Y43950D01*
D02*
G37*
G36*
X66000D02*
X63000D01*
Y44450D01*
X66000D01*
Y43950D01*
D02*
G37*
G36*
X40000D02*
X37000D01*
Y44450D01*
X40000D01*
Y43950D01*
D02*
G37*
G36*
X85000Y42575D02*
X82000Y42575D01*
Y43075D01*
X85000D01*
Y42575D01*
D02*
G37*
G36*
X72000Y42550D02*
X69000Y42550D01*
Y43050D01*
X72000D01*
Y42550D01*
D02*
G37*
G36*
X66000D02*
X63000Y42550D01*
Y43050D01*
X66000D01*
Y42550D01*
D02*
G37*
G36*
X40000D02*
X37000Y42550D01*
Y43050D01*
X40000D01*
Y42550D01*
D02*
G37*
G36*
X84999Y39925D02*
X81999D01*
Y40425D01*
X84999D01*
Y39925D01*
D02*
G37*
G36*
X84200Y32950D02*
X82650Y34500D01*
X84200Y36050D01*
Y32950D01*
D02*
G37*
G36*
X85000Y28575D02*
X82000Y28575D01*
Y29075D01*
X85000D01*
Y28575D01*
D02*
G37*
G36*
X84999Y25925D02*
X81999D01*
Y26425D01*
X84999D01*
Y25925D01*
D02*
G37*
G36*
X21718Y7075D02*
X18718D01*
Y7575D01*
X21718D01*
Y7075D01*
D02*
G37*
G36*
X10501D02*
X7501D01*
Y7575D01*
X10501D01*
Y7075D01*
D02*
G37*
G36*
X85000Y7075D02*
X82000Y7075D01*
Y7575D01*
X85000D01*
Y7075D01*
D02*
G37*
G36*
X105500Y6575D02*
X102500Y6575D01*
Y7075D01*
X105500D01*
Y6575D01*
D02*
G37*
G36*
X21717Y4925D02*
Y4425D01*
X18717D01*
Y4925D01*
X21717Y4925D01*
D02*
G37*
G36*
X10500D02*
Y4425D01*
X7500D01*
Y4925D01*
X10500Y4925D01*
D02*
G37*
G36*
X84999Y4425D02*
X81999D01*
Y4925D01*
X84999D01*
Y4425D01*
D02*
G37*
G36*
X105499Y3925D02*
X102499D01*
Y4425D01*
X105499D01*
Y3925D01*
D02*
G37*
G36*
X93972Y16971D02*
X94025D01*
X94085Y16967D01*
X94152Y16960D01*
X94231Y16949D01*
X94314Y16938D01*
X94400Y16923D01*
X94494Y16900D01*
X94587Y16878D01*
X94678Y16848D01*
X94771Y16814D01*
X94861Y16772D01*
X94944Y16724D01*
X95022Y16671D01*
X95026Y16668D01*
X95041Y16656D01*
X95060Y16641D01*
X95086Y16615D01*
X95120Y16585D01*
X95157Y16547D01*
X95199Y16506D01*
X95240Y16454D01*
X95285Y16398D01*
X95326Y16338D01*
X95371Y16270D01*
X95412Y16195D01*
X95454Y16116D01*
X95487Y16030D01*
X95517Y15940D01*
X95544Y15843D01*
X94771Y15700D01*
Y15704D01*
X94767Y15711D01*
X94764Y15726D01*
X94756Y15745D01*
X94745Y15771D01*
X94734Y15798D01*
X94704Y15861D01*
X94659Y15933D01*
X94606Y16007D01*
X94542Y16079D01*
X94464Y16146D01*
X94460Y16150D01*
X94453Y16154D01*
X94441Y16161D01*
X94423Y16172D01*
X94400Y16184D01*
X94374Y16199D01*
X94344Y16214D01*
X94310Y16229D01*
X94273Y16244D01*
X94227Y16259D01*
X94134Y16285D01*
X94025Y16304D01*
X93965Y16311D01*
X93883D01*
X93856Y16308D01*
X93822D01*
X93778Y16300D01*
X93729Y16293D01*
X93673Y16285D01*
X93612Y16270D01*
X93549Y16255D01*
X93485Y16232D01*
X93418Y16206D01*
X93350Y16176D01*
X93283Y16139D01*
X93215Y16094D01*
X93155Y16045D01*
X93095Y15989D01*
X93091Y15985D01*
X93084Y15974D01*
X93069Y15955D01*
X93050Y15929D01*
X93028Y15895D01*
X93001Y15854D01*
X92975Y15805D01*
X92949Y15749D01*
X92919Y15685D01*
X92892Y15614D01*
X92866Y15535D01*
X92844Y15449D01*
X92825Y15355D01*
X92810Y15254D01*
X92803Y15145D01*
X92799Y15029D01*
Y15021D01*
Y14999D01*
X92803Y14965D01*
Y14916D01*
X92810Y14860D01*
X92814Y14796D01*
X92825Y14721D01*
X92836Y14646D01*
X92851Y14564D01*
X92874Y14478D01*
X92896Y14395D01*
X92926Y14309D01*
X92960Y14226D01*
X93001Y14148D01*
X93050Y14073D01*
X93103Y14005D01*
X93106Y14001D01*
X93117Y13990D01*
X93133Y13975D01*
X93159Y13952D01*
X93189Y13926D01*
X93226Y13896D01*
X93268Y13866D01*
X93316Y13836D01*
X93369Y13803D01*
X93429Y13772D01*
X93496Y13743D01*
X93568Y13716D01*
X93642Y13694D01*
X93721Y13679D01*
X93808Y13668D01*
X93897Y13664D01*
X93939D01*
X93961Y13668D01*
X93988D01*
X94051Y13675D01*
X94122Y13686D01*
X94205Y13705D01*
X94295Y13727D01*
X94385Y13758D01*
X94389D01*
X94396Y13761D01*
X94407Y13769D01*
X94426Y13776D01*
X94449Y13784D01*
X94471Y13795D01*
X94531Y13821D01*
X94599Y13855D01*
X94670Y13896D01*
X94741Y13941D01*
X94809Y13990D01*
Y14478D01*
X93920D01*
Y15126D01*
X95592D01*
Y13592D01*
X95589Y13589D01*
X95581Y13581D01*
X95566Y13570D01*
X95547Y13551D01*
X95521Y13532D01*
X95491Y13510D01*
X95454Y13480D01*
X95412Y13454D01*
X95364Y13420D01*
X95311Y13386D01*
X95255Y13352D01*
X95191Y13319D01*
X95124Y13281D01*
X95049Y13248D01*
X94970Y13210D01*
X94884Y13176D01*
X94880D01*
X94861Y13169D01*
X94839Y13161D01*
X94805Y13150D01*
X94764Y13135D01*
X94711Y13120D01*
X94655Y13105D01*
X94595Y13090D01*
X94524Y13071D01*
X94453Y13056D01*
X94374Y13041D01*
X94295Y13026D01*
X94122Y13007D01*
X94036Y13004D01*
X93946Y13000D01*
X93886D01*
X93845Y13004D01*
X93792Y13007D01*
X93733Y13015D01*
X93665Y13023D01*
X93590Y13030D01*
X93511Y13045D01*
X93425Y13060D01*
X93339Y13082D01*
X93249Y13105D01*
X93159Y13135D01*
X93072Y13169D01*
X92983Y13206D01*
X92896Y13251D01*
X92892Y13255D01*
X92878Y13262D01*
X92855Y13277D01*
X92825Y13296D01*
X92787Y13322D01*
X92743Y13356D01*
X92698Y13394D01*
X92645Y13435D01*
X92593Y13484D01*
X92536Y13536D01*
X92480Y13596D01*
X92424Y13660D01*
X92371Y13731D01*
X92319Y13806D01*
X92270Y13885D01*
X92225Y13971D01*
X92221Y13975D01*
X92214Y13994D01*
X92203Y14020D01*
X92191Y14054D01*
X92172Y14099D01*
X92154Y14151D01*
X92135Y14211D01*
X92112Y14279D01*
X92090Y14350D01*
X92071Y14429D01*
X92053Y14515D01*
X92034Y14605D01*
X92023Y14699D01*
X92011Y14796D01*
X92004Y14897D01*
X92000Y14999D01*
Y15006D01*
Y15025D01*
Y15059D01*
X92004Y15100D01*
X92007Y15153D01*
X92015Y15213D01*
X92023Y15280D01*
X92030Y15359D01*
X92045Y15438D01*
X92060Y15524D01*
X92083Y15610D01*
X92105Y15700D01*
X92135Y15794D01*
X92169Y15884D01*
X92206Y15974D01*
X92251Y16064D01*
X92255Y16068D01*
X92263Y16086D01*
X92277Y16109D01*
X92300Y16142D01*
X92326Y16180D01*
X92356Y16225D01*
X92394Y16274D01*
X92439Y16330D01*
X92488Y16386D01*
X92540Y16446D01*
X92600Y16502D01*
X92668Y16563D01*
X92739Y16623D01*
X92817Y16679D01*
X92900Y16731D01*
X92986Y16780D01*
X92990Y16784D01*
X93005Y16788D01*
X93024Y16799D01*
X93054Y16810D01*
X93088Y16825D01*
X93133Y16840D01*
X93185Y16859D01*
X93241Y16878D01*
X93305Y16896D01*
X93372Y16915D01*
X93451Y16930D01*
X93530Y16945D01*
X93616Y16956D01*
X93710Y16967D01*
X93804Y16971D01*
X93905Y16975D01*
X93935D01*
X93972Y16971D01*
D02*
G37*
G36*
X99365Y13064D02*
X98585D01*
X97032Y15580D01*
Y13064D01*
X96312D01*
Y16907D01*
X97066D01*
X98645Y14335D01*
Y16907D01*
X99365D01*
Y13064D01*
D02*
G37*
G36*
X101720Y16904D02*
X101765D01*
X101818Y16900D01*
X101870D01*
X101990Y16889D01*
X102110Y16878D01*
X102226Y16859D01*
X102283Y16848D01*
X102331Y16833D01*
X102335D01*
X102346Y16829D01*
X102365Y16821D01*
X102387Y16814D01*
X102418Y16803D01*
X102451Y16788D01*
X102489Y16769D01*
X102534Y16750D01*
X102624Y16701D01*
X102721Y16641D01*
X102819Y16566D01*
X102912Y16476D01*
X102916Y16473D01*
X102924Y16465D01*
X102935Y16450D01*
X102954Y16431D01*
X102972Y16405D01*
X102995Y16379D01*
X103021Y16341D01*
X103048Y16304D01*
X103077Y16262D01*
X103108Y16214D01*
X103138Y16161D01*
X103167Y16109D01*
X103227Y15989D01*
X103280Y15854D01*
Y15850D01*
X103284Y15839D01*
X103291Y15816D01*
X103299Y15786D01*
X103310Y15753D01*
X103321Y15708D01*
X103332Y15659D01*
X103344Y15603D01*
X103355Y15539D01*
X103366Y15471D01*
X103377Y15396D01*
X103389Y15317D01*
X103396Y15231D01*
X103404Y15141D01*
X103408Y15044D01*
Y14946D01*
Y14942D01*
Y14924D01*
Y14901D01*
Y14867D01*
X103404Y14826D01*
X103400Y14777D01*
X103396Y14725D01*
X103393Y14669D01*
X103385Y14605D01*
X103377Y14537D01*
X103359Y14402D01*
X103329Y14264D01*
X103287Y14129D01*
Y14125D01*
X103280Y14110D01*
X103272Y14087D01*
X103261Y14058D01*
X103246Y14024D01*
X103227Y13983D01*
X103209Y13938D01*
X103182Y13885D01*
X103122Y13780D01*
X103055Y13664D01*
X102969Y13555D01*
X102924Y13499D01*
X102875Y13450D01*
X102871Y13446D01*
X102867Y13442D01*
X102852Y13431D01*
X102838Y13416D01*
X102819Y13401D01*
X102793Y13383D01*
X102762Y13360D01*
X102733Y13338D01*
X102695Y13315D01*
X102654Y13289D01*
X102609Y13262D01*
X102560Y13240D01*
X102451Y13187D01*
X102331Y13142D01*
X102328D01*
X102320Y13139D01*
X102305Y13135D01*
X102283Y13131D01*
X102260Y13124D01*
X102226Y13116D01*
X102189Y13109D01*
X102147Y13105D01*
X102102Y13097D01*
X102050Y13090D01*
X101994Y13082D01*
X101930Y13075D01*
X101866Y13071D01*
X101795Y13068D01*
X101720Y13064D01*
X100182D01*
Y16907D01*
X101679D01*
X101720Y16904D01*
D02*
G37*
G36*
X101730Y25003D02*
X103054Y23000D01*
X102120D01*
X101269Y24301D01*
X100414Y23000D01*
X99484D01*
X100811Y24999D01*
X99607Y26844D01*
X100515D01*
X101272Y25696D01*
X102034Y26844D01*
X102937D01*
X101730Y25003D01*
D02*
G37*
G36*
X97781Y26840D02*
X97841D01*
X97905Y26836D01*
X97973Y26833D01*
X98119Y26818D01*
X98269Y26799D01*
X98340Y26787D01*
X98408Y26772D01*
X98467Y26757D01*
X98524Y26739D01*
X98527D01*
X98535Y26735D01*
X98550Y26728D01*
X98569Y26720D01*
X98595Y26705D01*
X98621Y26690D01*
X98685Y26653D01*
X98756Y26604D01*
X98831Y26536D01*
X98906Y26461D01*
X98940Y26416D01*
X98974Y26368D01*
X98978Y26364D01*
X98981Y26356D01*
X98989Y26341D01*
X99000Y26322D01*
X99011Y26296D01*
X99026Y26266D01*
X99041Y26232D01*
X99060Y26195D01*
X99075Y26150D01*
X99090Y26105D01*
X99116Y26004D01*
X99135Y25888D01*
X99142Y25828D01*
Y25764D01*
Y25760D01*
Y25745D01*
Y25723D01*
X99139Y25692D01*
X99135Y25655D01*
X99128Y25614D01*
X99120Y25565D01*
X99112Y25512D01*
X99079Y25400D01*
X99060Y25340D01*
X99034Y25280D01*
X99007Y25220D01*
X98970Y25164D01*
X98932Y25107D01*
X98887Y25051D01*
X98884Y25047D01*
X98876Y25040D01*
X98861Y25025D01*
X98839Y25006D01*
X98813Y24984D01*
X98779Y24958D01*
X98741Y24931D01*
X98696Y24901D01*
X98647Y24871D01*
X98591Y24841D01*
X98527Y24811D01*
X98460Y24781D01*
X98385Y24755D01*
X98306Y24733D01*
X98220Y24710D01*
X98126Y24695D01*
X98130D01*
X98137Y24688D01*
X98149Y24680D01*
X98168Y24669D01*
X98190Y24657D01*
X98212Y24639D01*
X98273Y24601D01*
X98336Y24553D01*
X98408Y24496D01*
X98475Y24436D01*
X98539Y24373D01*
X98542Y24369D01*
X98546Y24365D01*
X98558Y24354D01*
X98569Y24339D01*
X98584Y24316D01*
X98606Y24294D01*
X98629Y24264D01*
X98655Y24230D01*
X98685Y24189D01*
X98719Y24144D01*
X98756Y24091D01*
X98794Y24035D01*
X98839Y23975D01*
X98884Y23904D01*
X98932Y23832D01*
X98981Y23750D01*
X99454Y23000D01*
X98524D01*
X97965Y23836D01*
X97961Y23840D01*
X97954Y23855D01*
X97935Y23877D01*
X97916Y23908D01*
X97894Y23945D01*
X97864Y23982D01*
X97800Y24072D01*
X97733Y24170D01*
X97665Y24264D01*
X97635Y24305D01*
X97605Y24342D01*
X97579Y24373D01*
X97556Y24399D01*
X97553Y24403D01*
X97537Y24418D01*
X97515Y24436D01*
X97485Y24463D01*
X97451Y24489D01*
X97414Y24515D01*
X97369Y24541D01*
X97324Y24560D01*
X97316Y24564D01*
X97301Y24567D01*
X97271Y24575D01*
X97230Y24582D01*
X97174Y24590D01*
X97106Y24598D01*
X97024Y24605D01*
X96776D01*
Y23000D01*
X96000D01*
Y26844D01*
X97733D01*
X97781Y26840D01*
D02*
G37*
G36*
X101408Y35002D02*
X102731Y33000D01*
X101797D01*
X100946Y34301D01*
X100091Y33000D01*
X99161D01*
X100489Y34999D01*
X99285Y36844D01*
X100192D01*
X100950Y35696D01*
X101711Y36844D01*
X102615D01*
X101408Y35002D01*
D02*
G37*
G36*
X99053Y36195D02*
X97916D01*
Y33000D01*
X97140D01*
Y36195D01*
X96000D01*
Y36844D01*
X99053D01*
Y36195D01*
D02*
G37*
G36*
X100950Y43064D02*
X100114D01*
X98745Y46907D01*
X99585D01*
X100556Y44061D01*
X101501Y46907D01*
X102326D01*
X100950Y43064D01*
D02*
G37*
G36*
X98415Y46169D02*
X97024D01*
X96911Y45513D01*
X96915D01*
X96922Y45516D01*
X96934Y45524D01*
X96952Y45531D01*
X96975Y45542D01*
X97001Y45554D01*
X97065Y45576D01*
X97140Y45599D01*
X97226Y45621D01*
X97316Y45636D01*
X97414Y45640D01*
X97436D01*
X97462Y45636D01*
X97496D01*
X97537Y45629D01*
X97586Y45621D01*
X97642Y45610D01*
X97699Y45595D01*
X97763Y45576D01*
X97830Y45554D01*
X97897Y45524D01*
X97969Y45490D01*
X98040Y45449D01*
X98107Y45400D01*
X98179Y45344D01*
X98242Y45280D01*
X98246Y45276D01*
X98257Y45265D01*
X98273Y45243D01*
X98295Y45216D01*
X98321Y45179D01*
X98351Y45138D01*
X98381Y45089D01*
X98415Y45033D01*
X98445Y44969D01*
X98475Y44897D01*
X98505Y44822D01*
X98531Y44740D01*
X98554Y44650D01*
X98569Y44556D01*
X98580Y44459D01*
X98584Y44354D01*
Y44350D01*
Y44331D01*
Y44309D01*
X98580Y44275D01*
X98576Y44234D01*
X98569Y44185D01*
X98561Y44129D01*
X98550Y44072D01*
X98535Y44005D01*
X98516Y43938D01*
X98494Y43870D01*
X98467Y43799D01*
X98434Y43724D01*
X98396Y43649D01*
X98355Y43578D01*
X98306Y43506D01*
X98303Y43503D01*
X98287Y43484D01*
X98269Y43461D01*
X98239Y43428D01*
X98198Y43390D01*
X98153Y43345D01*
X98100Y43300D01*
X98036Y43255D01*
X97965Y43206D01*
X97886Y43161D01*
X97804Y43116D01*
X97710Y43079D01*
X97609Y43045D01*
X97504Y43023D01*
X97387Y43007D01*
X97268Y43000D01*
X97245D01*
X97215Y43004D01*
X97177D01*
X97132Y43007D01*
X97080Y43015D01*
X97024Y43023D01*
X96960Y43038D01*
X96892Y43053D01*
X96821Y43071D01*
X96750Y43094D01*
X96675Y43120D01*
X96604Y43154D01*
X96532Y43191D01*
X96461Y43236D01*
X96398Y43285D01*
X96394Y43289D01*
X96382Y43300D01*
X96368Y43315D01*
X96345Y43338D01*
X96319Y43367D01*
X96289Y43401D01*
X96255Y43442D01*
X96221Y43488D01*
X96188Y43540D01*
X96154Y43596D01*
X96120Y43660D01*
X96090Y43727D01*
X96060Y43802D01*
X96034Y43881D01*
X96015Y43964D01*
X96000Y44050D01*
X96735Y44129D01*
Y44125D01*
Y44118D01*
X96739Y44106D01*
X96742Y44087D01*
X96746Y44065D01*
X96754Y44043D01*
X96769Y43986D01*
X96795Y43922D01*
X96825Y43855D01*
X96866Y43791D01*
X96919Y43731D01*
X96926Y43724D01*
X96945Y43709D01*
X96979Y43686D01*
X97020Y43660D01*
X97072Y43634D01*
X97132Y43611D01*
X97200Y43596D01*
X97275Y43589D01*
X97298D01*
X97312Y43593D01*
X97357Y43600D01*
X97410Y43611D01*
X97470Y43634D01*
X97537Y43668D01*
X97567Y43690D01*
X97601Y43716D01*
X97635Y43742D01*
X97665Y43776D01*
X97669Y43780D01*
X97672Y43784D01*
X97680Y43795D01*
X97691Y43810D01*
X97702Y43832D01*
X97717Y43855D01*
X97733Y43885D01*
X97747Y43919D01*
X97763Y43953D01*
X97774Y43997D01*
X97789Y44043D01*
X97800Y44091D01*
X97811Y44148D01*
X97819Y44208D01*
X97826Y44271D01*
Y44339D01*
Y44342D01*
Y44354D01*
Y44372D01*
X97822Y44399D01*
Y44425D01*
X97819Y44462D01*
X97808Y44537D01*
X97789Y44624D01*
X97759Y44714D01*
X97717Y44796D01*
X97695Y44837D01*
X97665Y44871D01*
Y44875D01*
X97658Y44879D01*
X97635Y44901D01*
X97601Y44927D01*
X97556Y44961D01*
X97496Y44995D01*
X97425Y45025D01*
X97342Y45044D01*
X97298Y45048D01*
X97253Y45051D01*
X97223D01*
X97200Y45048D01*
X97174Y45044D01*
X97140Y45036D01*
X97102Y45029D01*
X97065Y45017D01*
X97020Y45002D01*
X96975Y44984D01*
X96930Y44961D01*
X96881Y44931D01*
X96833Y44901D01*
X96784Y44864D01*
X96735Y44819D01*
X96686Y44770D01*
X96090Y44856D01*
X96469Y46859D01*
X98415D01*
Y46169D01*
D02*
G37*
G36*
X165461Y39252D02*
X163706D01*
X163702D01*
X163695D01*
X163680D01*
X163661D01*
X163639D01*
X163609Y39249D01*
X163549Y39245D01*
X163485Y39241D01*
X163417Y39234D01*
X163354Y39219D01*
X163301Y39204D01*
X163294Y39200D01*
X163279Y39196D01*
X163256Y39185D01*
X163226Y39166D01*
X163196Y39144D01*
X163163Y39114D01*
X163129Y39080D01*
X163099Y39039D01*
X163095Y39035D01*
X163087Y39016D01*
X163073Y38994D01*
X163057Y38960D01*
X163046Y38919D01*
X163031Y38870D01*
X163024Y38818D01*
X163020Y38758D01*
Y38728D01*
X163024Y38709D01*
X163028Y38682D01*
X163031Y38653D01*
X163046Y38585D01*
X163069Y38506D01*
X163102Y38424D01*
X163125Y38383D01*
X163151Y38345D01*
X163185Y38304D01*
X163219Y38266D01*
X163223Y38263D01*
X163226Y38259D01*
X163241Y38247D01*
X163256Y38236D01*
X163279Y38221D01*
X163301Y38206D01*
X163335Y38188D01*
X163369Y38173D01*
X163410Y38154D01*
X163459Y38135D01*
X163507Y38120D01*
X163564Y38105D01*
X163628Y38094D01*
X163695Y38083D01*
X163766Y38079D01*
X163845Y38075D01*
X165461D01*
Y37602D01*
X163650D01*
X163646D01*
X163635D01*
X163620D01*
X163598D01*
X163571Y37599D01*
X163541Y37595D01*
X163474Y37587D01*
X163395Y37573D01*
X163316Y37554D01*
X163241Y37524D01*
X163178Y37486D01*
X163170Y37483D01*
X163151Y37464D01*
X163129Y37437D01*
X163099Y37396D01*
X163069Y37344D01*
X163046Y37280D01*
X163028Y37201D01*
X163020Y37111D01*
Y37078D01*
X163024Y37040D01*
X163031Y36991D01*
X163046Y36935D01*
X163065Y36871D01*
X163091Y36804D01*
X163125Y36740D01*
X163129Y36733D01*
X163144Y36714D01*
X163170Y36684D01*
X163204Y36646D01*
X163245Y36605D01*
X163297Y36568D01*
X163361Y36530D01*
X163433Y36496D01*
X163436D01*
X163440Y36492D01*
X163455Y36489D01*
X163470Y36485D01*
X163493Y36478D01*
X163515Y36474D01*
X163545Y36466D01*
X163583Y36459D01*
X163620Y36451D01*
X163665Y36444D01*
X163714Y36440D01*
X163766Y36432D01*
X163822Y36429D01*
X163883Y36425D01*
X163946Y36421D01*
X164017D01*
X165461D01*
Y35949D01*
X162675D01*
Y36373D01*
X163061D01*
X163057Y36380D01*
X163046Y36388D01*
X163031Y36395D01*
X162994Y36425D01*
X162949Y36466D01*
X162896Y36515D01*
X162840Y36575D01*
X162787Y36643D01*
X162739Y36721D01*
Y36725D01*
X162735Y36733D01*
X162727Y36744D01*
X162720Y36759D01*
X162709Y36781D01*
X162698Y36804D01*
X162675Y36864D01*
X162653Y36939D01*
X162630Y37021D01*
X162615Y37115D01*
X162611Y37216D01*
Y37246D01*
X162615Y37269D01*
Y37295D01*
X162619Y37325D01*
X162626Y37396D01*
X162645Y37475D01*
X162668Y37561D01*
X162698Y37644D01*
X162742Y37723D01*
Y37726D01*
X162750Y37730D01*
X162765Y37756D01*
X162795Y37790D01*
X162836Y37831D01*
X162885Y37876D01*
X162945Y37925D01*
X163016Y37966D01*
X163099Y38000D01*
X163095Y38004D01*
X163076Y38015D01*
X163054Y38034D01*
X163024Y38060D01*
X162986Y38094D01*
X162945Y38135D01*
X162900Y38180D01*
X162855Y38232D01*
X162810Y38293D01*
X162765Y38356D01*
X162724Y38427D01*
X162686Y38506D01*
X162656Y38585D01*
X162634Y38675D01*
X162615Y38765D01*
X162611Y38862D01*
Y38904D01*
X162615Y38930D01*
X162619Y38967D01*
X162622Y39005D01*
X162630Y39050D01*
X162641Y39099D01*
X162668Y39200D01*
X162686Y39252D01*
X162709Y39309D01*
X162735Y39358D01*
X162769Y39410D01*
X162803Y39455D01*
X162844Y39500D01*
X162847Y39504D01*
X162855Y39511D01*
X162866Y39522D01*
X162885Y39534D01*
X162911Y39553D01*
X162941Y39571D01*
X162975Y39590D01*
X163016Y39612D01*
X163065Y39635D01*
X163118Y39654D01*
X163174Y39672D01*
X163238Y39691D01*
X163305Y39702D01*
X163380Y39714D01*
X163462Y39721D01*
X163549Y39725D01*
X165461D01*
Y39252D01*
D02*
G37*
G36*
Y34779D02*
X163706D01*
X163702D01*
X163695D01*
X163680D01*
X163661D01*
X163639D01*
X163609Y34775D01*
X163549Y34771D01*
X163485Y34767D01*
X163417Y34760D01*
X163354Y34745D01*
X163301Y34730D01*
X163294Y34726D01*
X163279Y34723D01*
X163256Y34711D01*
X163226Y34692D01*
X163196Y34670D01*
X163163Y34640D01*
X163129Y34606D01*
X163099Y34565D01*
X163095Y34561D01*
X163087Y34543D01*
X163073Y34520D01*
X163057Y34486D01*
X163046Y34445D01*
X163031Y34396D01*
X163024Y34344D01*
X163020Y34284D01*
Y34254D01*
X163024Y34235D01*
X163028Y34209D01*
X163031Y34179D01*
X163046Y34111D01*
X163069Y34032D01*
X163102Y33950D01*
X163125Y33909D01*
X163151Y33871D01*
X163185Y33830D01*
X163219Y33792D01*
X163223Y33789D01*
X163226Y33785D01*
X163241Y33774D01*
X163256Y33762D01*
X163279Y33748D01*
X163301Y33733D01*
X163335Y33714D01*
X163369Y33699D01*
X163410Y33680D01*
X163459Y33661D01*
X163507Y33646D01*
X163564Y33631D01*
X163628Y33620D01*
X163695Y33609D01*
X163766Y33605D01*
X163845Y33601D01*
X165461D01*
Y33129D01*
X163650D01*
X163646D01*
X163635D01*
X163620D01*
X163598D01*
X163571Y33125D01*
X163541Y33121D01*
X163474Y33114D01*
X163395Y33099D01*
X163316Y33080D01*
X163241Y33050D01*
X163178Y33013D01*
X163170Y33009D01*
X163151Y32990D01*
X163129Y32964D01*
X163099Y32923D01*
X163069Y32870D01*
X163046Y32806D01*
X163028Y32728D01*
X163020Y32638D01*
Y32604D01*
X163024Y32566D01*
X163031Y32517D01*
X163046Y32461D01*
X163065Y32397D01*
X163091Y32330D01*
X163125Y32266D01*
X163129Y32259D01*
X163144Y32240D01*
X163170Y32210D01*
X163204Y32173D01*
X163245Y32131D01*
X163297Y32094D01*
X163361Y32056D01*
X163433Y32023D01*
X163436D01*
X163440Y32019D01*
X163455Y32015D01*
X163470Y32011D01*
X163493Y32004D01*
X163515Y32000D01*
X163545Y31993D01*
X163583Y31985D01*
X163620Y31977D01*
X163665Y31970D01*
X163714Y31966D01*
X163766Y31959D01*
X163822Y31955D01*
X163883Y31951D01*
X163946Y31947D01*
X164017D01*
X165461D01*
Y31475D01*
X162675D01*
Y31899D01*
X163061D01*
X163057Y31906D01*
X163046Y31914D01*
X163031Y31921D01*
X162994Y31951D01*
X162949Y31993D01*
X162896Y32041D01*
X162840Y32101D01*
X162787Y32169D01*
X162739Y32247D01*
Y32251D01*
X162735Y32259D01*
X162727Y32270D01*
X162720Y32285D01*
X162709Y32307D01*
X162698Y32330D01*
X162675Y32390D01*
X162653Y32465D01*
X162630Y32548D01*
X162615Y32641D01*
X162611Y32743D01*
Y32772D01*
X162615Y32795D01*
Y32821D01*
X162619Y32851D01*
X162626Y32923D01*
X162645Y33001D01*
X162668Y33088D01*
X162698Y33170D01*
X162742Y33249D01*
Y33253D01*
X162750Y33256D01*
X162765Y33283D01*
X162795Y33316D01*
X162836Y33358D01*
X162885Y33402D01*
X162945Y33451D01*
X163016Y33492D01*
X163099Y33526D01*
X163095Y33530D01*
X163076Y33541D01*
X163054Y33560D01*
X163024Y33586D01*
X162986Y33620D01*
X162945Y33661D01*
X162900Y33706D01*
X162855Y33759D01*
X162810Y33819D01*
X162765Y33882D01*
X162724Y33954D01*
X162686Y34032D01*
X162656Y34111D01*
X162634Y34201D01*
X162615Y34291D01*
X162611Y34389D01*
Y34430D01*
X162615Y34456D01*
X162619Y34494D01*
X162622Y34531D01*
X162630Y34576D01*
X162641Y34625D01*
X162668Y34726D01*
X162686Y34779D01*
X162709Y34835D01*
X162735Y34884D01*
X162769Y34936D01*
X162803Y34981D01*
X162844Y35026D01*
X162847Y35030D01*
X162855Y35037D01*
X162866Y35049D01*
X162885Y35060D01*
X162911Y35079D01*
X162941Y35098D01*
X162975Y35116D01*
X163016Y35139D01*
X163065Y35161D01*
X163118Y35180D01*
X163174Y35199D01*
X163238Y35217D01*
X163305Y35229D01*
X163380Y35240D01*
X163462Y35247D01*
X163549Y35251D01*
X165461D01*
Y34779D01*
D02*
G37*
G36*
X164542Y30346D02*
X165461D01*
Y29874D01*
X164542D01*
Y28205D01*
X164111D01*
X161618Y29960D01*
Y30346D01*
X164111D01*
Y30864D01*
X164542D01*
Y30346D01*
D02*
G37*
G36*
X165461Y25314D02*
X165457D01*
X165454D01*
X165431D01*
X165401D01*
X165356Y25317D01*
X165307Y25325D01*
X165251Y25332D01*
X165195Y25348D01*
X165135Y25366D01*
X165131D01*
X165124Y25370D01*
X165109Y25378D01*
X165090Y25385D01*
X165068Y25396D01*
X165041Y25407D01*
X164974Y25441D01*
X164895Y25486D01*
X164809Y25539D01*
X164719Y25602D01*
X164625Y25677D01*
X164621Y25681D01*
X164614Y25689D01*
X164599Y25700D01*
X164580Y25719D01*
X164558Y25741D01*
X164527Y25767D01*
X164494Y25798D01*
X164456Y25835D01*
X164419Y25876D01*
X164374Y25921D01*
X164325Y25974D01*
X164272Y26026D01*
X164220Y26086D01*
X164164Y26150D01*
X164104Y26221D01*
X164044Y26292D01*
X164036Y26300D01*
X164021Y26319D01*
X163995Y26353D01*
X163958Y26394D01*
X163916Y26446D01*
X163864Y26502D01*
X163807Y26566D01*
X163748Y26634D01*
X163616Y26776D01*
X163481Y26915D01*
X163414Y26979D01*
X163346Y27039D01*
X163286Y27095D01*
X163226Y27140D01*
X163223Y27144D01*
X163211Y27151D01*
X163196Y27163D01*
X163174Y27174D01*
X163147Y27193D01*
X163118Y27211D01*
X163080Y27230D01*
X163042Y27253D01*
X162956Y27294D01*
X162863Y27331D01*
X162810Y27343D01*
X162761Y27354D01*
X162709Y27361D01*
X162660Y27365D01*
X162656D01*
X162649D01*
X162634D01*
X162611Y27361D01*
X162589Y27358D01*
X162563Y27354D01*
X162495Y27339D01*
X162420Y27316D01*
X162341Y27279D01*
X162304Y27256D01*
X162262Y27230D01*
X162225Y27200D01*
X162188Y27163D01*
X162184Y27159D01*
X162180Y27155D01*
X162169Y27140D01*
X162157Y27125D01*
X162143Y27106D01*
X162127Y27080D01*
X162109Y27054D01*
X162090Y27020D01*
X162071Y26986D01*
X162053Y26945D01*
X162022Y26855D01*
X162000Y26754D01*
X161996Y26697D01*
X161993Y26638D01*
Y26604D01*
X161996Y26581D01*
X162000Y26551D01*
X162004Y26518D01*
X162011Y26480D01*
X162019Y26443D01*
X162041Y26353D01*
X162079Y26263D01*
X162101Y26217D01*
X162131Y26173D01*
X162161Y26131D01*
X162199Y26090D01*
X162203Y26086D01*
X162206Y26083D01*
X162221Y26071D01*
X162236Y26060D01*
X162255Y26045D01*
X162281Y26026D01*
X162311Y26008D01*
X162345Y25989D01*
X162382Y25970D01*
X162424Y25951D01*
X162472Y25936D01*
X162521Y25918D01*
X162574Y25906D01*
X162634Y25895D01*
X162694Y25891D01*
X162761Y25888D01*
X162713Y25404D01*
X162705D01*
X162690Y25407D01*
X162660Y25411D01*
X162622Y25415D01*
X162577Y25426D01*
X162525Y25438D01*
X162469Y25453D01*
X162405Y25468D01*
X162341Y25490D01*
X162274Y25516D01*
X162206Y25546D01*
X162135Y25580D01*
X162067Y25621D01*
X162004Y25666D01*
X161944Y25719D01*
X161888Y25775D01*
X161884Y25779D01*
X161876Y25790D01*
X161861Y25809D01*
X161843Y25835D01*
X161820Y25869D01*
X161797Y25906D01*
X161771Y25955D01*
X161745Y26008D01*
X161719Y26068D01*
X161693Y26131D01*
X161670Y26202D01*
X161647Y26281D01*
X161629Y26364D01*
X161614Y26454D01*
X161606Y26548D01*
X161602Y26649D01*
Y26675D01*
X161606Y26701D01*
Y26743D01*
X161610Y26787D01*
X161618Y26840D01*
X161629Y26900D01*
X161640Y26967D01*
X161659Y27035D01*
X161678Y27106D01*
X161704Y27181D01*
X161734Y27253D01*
X161767Y27327D01*
X161809Y27395D01*
X161857Y27463D01*
X161910Y27526D01*
X161914Y27530D01*
X161925Y27541D01*
X161940Y27556D01*
X161966Y27575D01*
X161996Y27601D01*
X162030Y27628D01*
X162071Y27657D01*
X162120Y27687D01*
X162172Y27718D01*
X162232Y27747D01*
X162293Y27774D01*
X162360Y27800D01*
X162431Y27819D01*
X162510Y27834D01*
X162589Y27845D01*
X162671Y27849D01*
X162675D01*
X162682D01*
X162694D01*
X162709D01*
X162731Y27845D01*
X162754D01*
X162814Y27837D01*
X162881Y27826D01*
X162960Y27808D01*
X163042Y27785D01*
X163125Y27751D01*
X163129D01*
X163136Y27747D01*
X163147Y27740D01*
X163163Y27733D01*
X163185Y27721D01*
X163207Y27710D01*
X163268Y27676D01*
X163335Y27635D01*
X163417Y27579D01*
X163504Y27515D01*
X163594Y27436D01*
X163598Y27433D01*
X163605Y27425D01*
X163620Y27414D01*
X163639Y27395D01*
X163665Y27369D01*
X163695Y27343D01*
X163729Y27305D01*
X163770Y27264D01*
X163815Y27219D01*
X163867Y27163D01*
X163924Y27106D01*
X163984Y27039D01*
X164048Y26967D01*
X164119Y26889D01*
X164190Y26803D01*
X164269Y26713D01*
X164272Y26709D01*
X164284Y26694D01*
X164303Y26671D01*
X164325Y26645D01*
X164355Y26611D01*
X164389Y26574D01*
X164464Y26484D01*
X164542Y26394D01*
X164621Y26304D01*
X164659Y26263D01*
X164696Y26225D01*
X164726Y26191D01*
X164752Y26165D01*
X164756Y26161D01*
X164775Y26146D01*
X164801Y26124D01*
X164831Y26094D01*
X164873Y26064D01*
X164914Y26030D01*
X164959Y25996D01*
X165007Y25966D01*
Y27852D01*
X165461D01*
Y25314D01*
D02*
G37*
G36*
Y24148D02*
X164925D01*
Y24684D01*
X165461D01*
Y24148D01*
D02*
G37*
G36*
X164209Y23442D02*
X164246D01*
X164291Y23439D01*
X164344Y23431D01*
X164404Y23420D01*
X164468Y23409D01*
X164535Y23390D01*
X164610Y23371D01*
X164685Y23345D01*
X164760Y23315D01*
X164835Y23281D01*
X164914Y23240D01*
X164989Y23191D01*
X165060Y23139D01*
X165064Y23135D01*
X165079Y23120D01*
X165101Y23101D01*
X165131Y23071D01*
X165169Y23034D01*
X165206Y22989D01*
X165247Y22936D01*
X165293Y22876D01*
X165338Y22805D01*
X165379Y22730D01*
X165416Y22648D01*
X165454Y22558D01*
X165484Y22460D01*
X165506Y22359D01*
X165521Y22246D01*
X165525Y22130D01*
Y22107D01*
X165521Y22081D01*
Y22044D01*
X165517Y21999D01*
X165510Y21946D01*
X165499Y21890D01*
X165488Y21826D01*
X165472Y21759D01*
X165454Y21691D01*
X165431Y21620D01*
X165401Y21545D01*
X165367Y21474D01*
X165330Y21403D01*
X165285Y21335D01*
X165233Y21271D01*
X165229Y21268D01*
X165217Y21256D01*
X165202Y21241D01*
X165180Y21219D01*
X165150Y21192D01*
X165112Y21166D01*
X165071Y21133D01*
X165026Y21102D01*
X164974Y21069D01*
X164914Y21035D01*
X164850Y21005D01*
X164779Y20975D01*
X164704Y20949D01*
X164625Y20926D01*
X164542Y20908D01*
X164453Y20896D01*
X164411Y21391D01*
X164415D01*
X164426Y21395D01*
X164445Y21399D01*
X164471Y21403D01*
X164501Y21410D01*
X164535Y21418D01*
X164618Y21444D01*
X164704Y21477D01*
X164794Y21519D01*
X164884Y21575D01*
X164921Y21609D01*
X164959Y21643D01*
X164962Y21646D01*
X164966Y21654D01*
X164974Y21665D01*
X164985Y21680D01*
X165000Y21699D01*
X165015Y21721D01*
X165049Y21781D01*
X165083Y21853D01*
X165109Y21935D01*
X165131Y22029D01*
X165135Y22077D01*
X165139Y22130D01*
Y22164D01*
X165135Y22186D01*
X165131Y22216D01*
X165124Y22250D01*
X165116Y22287D01*
X165105Y22329D01*
X165075Y22422D01*
X165056Y22467D01*
X165030Y22516D01*
X165000Y22565D01*
X164966Y22614D01*
X164929Y22662D01*
X164884Y22707D01*
X164880Y22711D01*
X164873Y22719D01*
X164857Y22730D01*
X164835Y22745D01*
X164813Y22764D01*
X164779Y22783D01*
X164741Y22805D01*
X164700Y22828D01*
X164655Y22846D01*
X164602Y22869D01*
X164546Y22887D01*
X164486Y22906D01*
X164423Y22921D01*
X164351Y22932D01*
X164280Y22940D01*
X164201Y22944D01*
X164198D01*
X164182D01*
X164164D01*
X164134Y22940D01*
X164100Y22936D01*
X164062Y22932D01*
X164017Y22925D01*
X163969Y22914D01*
X163867Y22887D01*
X163815Y22869D01*
X163762Y22846D01*
X163710Y22820D01*
X163657Y22790D01*
X163609Y22756D01*
X163564Y22715D01*
X163560Y22711D01*
X163552Y22704D01*
X163541Y22693D01*
X163526Y22674D01*
X163507Y22651D01*
X163489Y22625D01*
X163466Y22591D01*
X163444Y22558D01*
X163425Y22516D01*
X163402Y22471D01*
X163384Y22422D01*
X163365Y22370D01*
X163350Y22310D01*
X163339Y22250D01*
X163331Y22186D01*
X163328Y22119D01*
Y22081D01*
X163331Y22059D01*
Y22036D01*
X163339Y21980D01*
X163354Y21916D01*
X163373Y21849D01*
X163399Y21778D01*
X163433Y21706D01*
Y21702D01*
X163436Y21699D01*
X163451Y21676D01*
X163474Y21643D01*
X163504Y21605D01*
X163545Y21556D01*
X163590Y21511D01*
X163643Y21463D01*
X163699Y21421D01*
X163643Y20979D01*
X161666Y21350D01*
Y23266D01*
X162116D01*
Y21725D01*
X163155Y21519D01*
X163151Y21522D01*
X163144Y21534D01*
X163133Y21553D01*
X163118Y21579D01*
X163099Y21609D01*
X163076Y21650D01*
X163057Y21691D01*
X163031Y21740D01*
X163009Y21792D01*
X162990Y21849D01*
X162949Y21972D01*
X162934Y22036D01*
X162923Y22104D01*
X162915Y22175D01*
X162911Y22246D01*
Y22269D01*
X162915Y22295D01*
Y22332D01*
X162923Y22374D01*
X162930Y22426D01*
X162941Y22482D01*
X162956Y22543D01*
X162975Y22606D01*
X162997Y22678D01*
X163024Y22749D01*
X163057Y22820D01*
X163099Y22891D01*
X163144Y22963D01*
X163200Y23030D01*
X163260Y23098D01*
X163264Y23101D01*
X163275Y23112D01*
X163297Y23131D01*
X163324Y23154D01*
X163357Y23180D01*
X163399Y23206D01*
X163447Y23240D01*
X163504Y23274D01*
X163564Y23304D01*
X163631Y23337D01*
X163706Y23364D01*
X163785Y23394D01*
X163871Y23413D01*
X163961Y23431D01*
X164059Y23442D01*
X164160Y23446D01*
X164167D01*
X164182D01*
X164209Y23442D01*
D02*
G37*
G36*
X165461Y19216D02*
X162458D01*
Y19212D01*
X162465Y19209D01*
X162472Y19197D01*
X162484Y19186D01*
X162517Y19149D01*
X162559Y19096D01*
X162608Y19033D01*
X162664Y18954D01*
X162724Y18864D01*
X162784Y18766D01*
Y18763D01*
X162791Y18755D01*
X162799Y18740D01*
X162810Y18721D01*
X162825Y18695D01*
X162840Y18669D01*
X162874Y18601D01*
X162911Y18526D01*
X162952Y18444D01*
X162990Y18358D01*
X163024Y18275D01*
X162570D01*
X162566Y18279D01*
X162563Y18294D01*
X162551Y18313D01*
X162536Y18342D01*
X162517Y18376D01*
X162495Y18414D01*
X162472Y18459D01*
X162443Y18507D01*
X162379Y18616D01*
X162300Y18733D01*
X162214Y18849D01*
X162120Y18965D01*
X162116Y18969D01*
X162109Y18976D01*
X162094Y18995D01*
X162075Y19014D01*
X162049Y19036D01*
X162022Y19066D01*
X161989Y19096D01*
X161955Y19130D01*
X161876Y19197D01*
X161790Y19265D01*
X161696Y19329D01*
X161651Y19359D01*
X161602Y19381D01*
Y19689D01*
X165461D01*
Y19216D01*
D02*
G37*
G36*
X72860Y-16615D02*
X72897Y-16619D01*
X72935Y-16623D01*
X72980Y-16630D01*
X73029Y-16641D01*
X73130Y-16668D01*
X73182Y-16686D01*
X73239Y-16709D01*
X73287Y-16735D01*
X73340Y-16769D01*
X73385Y-16803D01*
X73430Y-16844D01*
X73434Y-16848D01*
X73441Y-16855D01*
X73453Y-16866D01*
X73464Y-16885D01*
X73483Y-16911D01*
X73501Y-16941D01*
X73520Y-16975D01*
X73542Y-17016D01*
X73565Y-17065D01*
X73584Y-17118D01*
X73602Y-17174D01*
X73621Y-17237D01*
X73633Y-17305D01*
X73644Y-17380D01*
X73651Y-17462D01*
X73655Y-17549D01*
Y-19461D01*
X73182D01*
Y-17706D01*
Y-17703D01*
Y-17695D01*
Y-17680D01*
Y-17661D01*
Y-17639D01*
X73179Y-17609D01*
X73175Y-17549D01*
X73171Y-17485D01*
X73164Y-17417D01*
X73149Y-17354D01*
X73134Y-17301D01*
X73130Y-17294D01*
X73126Y-17279D01*
X73115Y-17256D01*
X73096Y-17226D01*
X73074Y-17196D01*
X73044Y-17163D01*
X73010Y-17129D01*
X72969Y-17099D01*
X72965Y-17095D01*
X72946Y-17087D01*
X72924Y-17073D01*
X72890Y-17057D01*
X72849Y-17046D01*
X72800Y-17031D01*
X72747Y-17024D01*
X72688Y-17020D01*
X72658D01*
X72639Y-17024D01*
X72613Y-17028D01*
X72583Y-17031D01*
X72515Y-17046D01*
X72436Y-17069D01*
X72354Y-17102D01*
X72312Y-17125D01*
X72275Y-17151D01*
X72234Y-17185D01*
X72196Y-17219D01*
X72193Y-17222D01*
X72189Y-17226D01*
X72177Y-17241D01*
X72166Y-17256D01*
X72151Y-17279D01*
X72136Y-17301D01*
X72118Y-17335D01*
X72102Y-17369D01*
X72084Y-17410D01*
X72065Y-17459D01*
X72050Y-17507D01*
X72035Y-17564D01*
X72024Y-17627D01*
X72013Y-17695D01*
X72009Y-17766D01*
X72005Y-17845D01*
Y-19461D01*
X71532D01*
Y-17650D01*
Y-17646D01*
Y-17635D01*
Y-17620D01*
Y-17597D01*
X71529Y-17571D01*
X71525Y-17541D01*
X71517Y-17474D01*
X71503Y-17395D01*
X71484Y-17316D01*
X71454Y-17241D01*
X71416Y-17177D01*
X71412Y-17170D01*
X71394Y-17151D01*
X71368Y-17129D01*
X71326Y-17099D01*
X71274Y-17069D01*
X71210Y-17046D01*
X71131Y-17028D01*
X71041Y-17020D01*
X71008D01*
X70970Y-17024D01*
X70921Y-17031D01*
X70865Y-17046D01*
X70801Y-17065D01*
X70734Y-17091D01*
X70670Y-17125D01*
X70662Y-17129D01*
X70644Y-17144D01*
X70614Y-17170D01*
X70576Y-17204D01*
X70535Y-17245D01*
X70498Y-17298D01*
X70460Y-17361D01*
X70426Y-17433D01*
Y-17436D01*
X70423Y-17440D01*
X70419Y-17455D01*
X70415Y-17470D01*
X70407Y-17492D01*
X70404Y-17515D01*
X70396Y-17545D01*
X70389Y-17582D01*
X70381Y-17620D01*
X70374Y-17665D01*
X70370Y-17714D01*
X70363Y-17766D01*
X70359Y-17822D01*
X70355Y-17883D01*
X70351Y-17946D01*
Y-18018D01*
Y-19461D01*
X69879D01*
Y-16675D01*
X70302D01*
Y-17061D01*
X70310Y-17057D01*
X70318Y-17046D01*
X70325Y-17031D01*
X70355Y-16994D01*
X70396Y-16949D01*
X70445Y-16896D01*
X70505Y-16840D01*
X70573Y-16788D01*
X70651Y-16739D01*
X70655D01*
X70662Y-16735D01*
X70674Y-16727D01*
X70689Y-16720D01*
X70711Y-16709D01*
X70734Y-16698D01*
X70794Y-16675D01*
X70869Y-16653D01*
X70951Y-16630D01*
X71045Y-16615D01*
X71146Y-16611D01*
X71176D01*
X71199Y-16615D01*
X71225D01*
X71255Y-16619D01*
X71326Y-16626D01*
X71405Y-16645D01*
X71491Y-16668D01*
X71574Y-16698D01*
X71653Y-16743D01*
X71656D01*
X71660Y-16750D01*
X71686Y-16765D01*
X71720Y-16795D01*
X71761Y-16836D01*
X71806Y-16885D01*
X71855Y-16945D01*
X71896Y-17016D01*
X71930Y-17099D01*
X71934Y-17095D01*
X71945Y-17076D01*
X71964Y-17054D01*
X71990Y-17024D01*
X72024Y-16986D01*
X72065Y-16945D01*
X72110Y-16900D01*
X72162Y-16855D01*
X72223Y-16810D01*
X72286Y-16765D01*
X72357Y-16724D01*
X72436Y-16686D01*
X72515Y-16656D01*
X72605Y-16634D01*
X72695Y-16615D01*
X72793Y-16611D01*
X72834D01*
X72860Y-16615D01*
D02*
G37*
G36*
X68386D02*
X68424Y-16619D01*
X68461Y-16623D01*
X68506Y-16630D01*
X68555Y-16641D01*
X68656Y-16668D01*
X68709Y-16686D01*
X68765Y-16709D01*
X68814Y-16735D01*
X68866Y-16769D01*
X68911Y-16803D01*
X68956Y-16844D01*
X68960Y-16848D01*
X68967Y-16855D01*
X68979Y-16866D01*
X68990Y-16885D01*
X69009Y-16911D01*
X69028Y-16941D01*
X69046Y-16975D01*
X69069Y-17016D01*
X69091Y-17065D01*
X69110Y-17118D01*
X69129Y-17174D01*
X69147Y-17237D01*
X69159Y-17305D01*
X69170Y-17380D01*
X69178Y-17462D01*
X69181Y-17549D01*
Y-19461D01*
X68709D01*
Y-17706D01*
Y-17703D01*
Y-17695D01*
Y-17680D01*
Y-17661D01*
Y-17639D01*
X68705Y-17609D01*
X68701Y-17549D01*
X68698Y-17485D01*
X68690Y-17417D01*
X68675Y-17354D01*
X68660Y-17301D01*
X68656Y-17294D01*
X68652Y-17279D01*
X68641Y-17256D01*
X68622Y-17226D01*
X68600Y-17196D01*
X68570Y-17163D01*
X68536Y-17129D01*
X68495Y-17099D01*
X68491Y-17095D01*
X68472Y-17087D01*
X68450Y-17073D01*
X68416Y-17057D01*
X68375Y-17046D01*
X68326Y-17031D01*
X68274Y-17024D01*
X68214Y-17020D01*
X68184D01*
X68165Y-17024D01*
X68139Y-17028D01*
X68109Y-17031D01*
X68041Y-17046D01*
X67962Y-17069D01*
X67880Y-17102D01*
X67839Y-17125D01*
X67801Y-17151D01*
X67760Y-17185D01*
X67722Y-17219D01*
X67719Y-17222D01*
X67715Y-17226D01*
X67704Y-17241D01*
X67693Y-17256D01*
X67677Y-17279D01*
X67663Y-17301D01*
X67644Y-17335D01*
X67629Y-17369D01*
X67610Y-17410D01*
X67591Y-17459D01*
X67576Y-17507D01*
X67561Y-17564D01*
X67550Y-17627D01*
X67539Y-17695D01*
X67535Y-17766D01*
X67531Y-17845D01*
Y-19461D01*
X67059D01*
Y-17650D01*
Y-17646D01*
Y-17635D01*
Y-17620D01*
Y-17597D01*
X67055Y-17571D01*
X67051Y-17541D01*
X67044Y-17474D01*
X67029Y-17395D01*
X67010Y-17316D01*
X66980Y-17241D01*
X66943Y-17177D01*
X66939Y-17170D01*
X66920Y-17151D01*
X66894Y-17129D01*
X66852Y-17099D01*
X66800Y-17069D01*
X66736Y-17046D01*
X66658Y-17028D01*
X66567Y-17020D01*
X66534D01*
X66496Y-17024D01*
X66448Y-17031D01*
X66391Y-17046D01*
X66328Y-17065D01*
X66260Y-17091D01*
X66196Y-17125D01*
X66189Y-17129D01*
X66170Y-17144D01*
X66140Y-17170D01*
X66102Y-17204D01*
X66061Y-17245D01*
X66024Y-17298D01*
X65986Y-17361D01*
X65952Y-17433D01*
Y-17436D01*
X65949Y-17440D01*
X65945Y-17455D01*
X65941Y-17470D01*
X65934Y-17492D01*
X65930Y-17515D01*
X65922Y-17545D01*
X65915Y-17582D01*
X65908Y-17620D01*
X65900Y-17665D01*
X65896Y-17714D01*
X65889Y-17766D01*
X65885Y-17822D01*
X65881Y-17883D01*
X65877Y-17946D01*
Y-18018D01*
Y-19461D01*
X65405D01*
Y-16675D01*
X65829D01*
Y-17061D01*
X65836Y-17057D01*
X65844Y-17046D01*
X65851Y-17031D01*
X65881Y-16994D01*
X65922Y-16949D01*
X65971Y-16896D01*
X66031Y-16840D01*
X66099Y-16788D01*
X66177Y-16739D01*
X66181D01*
X66189Y-16735D01*
X66200Y-16727D01*
X66215Y-16720D01*
X66237Y-16709D01*
X66260Y-16698D01*
X66320Y-16675D01*
X66395Y-16653D01*
X66478Y-16630D01*
X66571Y-16615D01*
X66672Y-16611D01*
X66703D01*
X66725Y-16615D01*
X66751D01*
X66781Y-16619D01*
X66852Y-16626D01*
X66931Y-16645D01*
X67018Y-16668D01*
X67100Y-16698D01*
X67179Y-16743D01*
X67182D01*
X67186Y-16750D01*
X67212Y-16765D01*
X67246Y-16795D01*
X67287Y-16836D01*
X67333Y-16885D01*
X67381Y-16945D01*
X67422Y-17016D01*
X67456Y-17099D01*
X67460Y-17095D01*
X67471Y-17076D01*
X67490Y-17054D01*
X67516Y-17024D01*
X67550Y-16986D01*
X67591Y-16945D01*
X67636Y-16900D01*
X67689Y-16855D01*
X67749Y-16810D01*
X67813Y-16765D01*
X67884Y-16724D01*
X67962Y-16686D01*
X68041Y-16656D01*
X68131Y-16634D01*
X68221Y-16615D01*
X68319Y-16611D01*
X68360D01*
X68386Y-16615D01*
D02*
G37*
G36*
X60564Y-15606D02*
X60594D01*
X60624Y-15610D01*
X60661Y-15614D01*
X60703Y-15618D01*
X60792Y-15636D01*
X60886Y-15659D01*
X60988Y-15692D01*
X61089Y-15737D01*
X61093D01*
X61100Y-15745D01*
X61115Y-15753D01*
X61134Y-15764D01*
X61156Y-15775D01*
X61179Y-15794D01*
X61239Y-15835D01*
X61306Y-15888D01*
X61374Y-15951D01*
X61437Y-16026D01*
X61494Y-16109D01*
Y-16113D01*
X61501Y-16120D01*
X61509Y-16131D01*
X61516Y-16150D01*
X61528Y-16169D01*
X61539Y-16195D01*
X61565Y-16259D01*
X61591Y-16330D01*
X61614Y-16416D01*
X61629Y-16506D01*
X61636Y-16604D01*
Y-16608D01*
Y-16615D01*
Y-16626D01*
X61633Y-16645D01*
Y-16668D01*
X61629Y-16694D01*
X61621Y-16754D01*
X61602Y-16825D01*
X61580Y-16900D01*
X61546Y-16979D01*
X61501Y-17057D01*
Y-17061D01*
X61494Y-17065D01*
X61486Y-17076D01*
X61475Y-17091D01*
X61445Y-17129D01*
X61400Y-17174D01*
X61344Y-17226D01*
X61276Y-17279D01*
X61198Y-17331D01*
X61104Y-17380D01*
X61107D01*
X61119Y-17384D01*
X61137Y-17388D01*
X61160Y-17395D01*
X61190Y-17406D01*
X61220Y-17417D01*
X61299Y-17451D01*
X61381Y-17492D01*
X61471Y-17552D01*
X61558Y-17620D01*
X61595Y-17661D01*
X61633Y-17706D01*
X61636Y-17710D01*
X61640Y-17718D01*
X61651Y-17732D01*
X61663Y-17751D01*
X61677Y-17774D01*
X61693Y-17804D01*
X61711Y-17838D01*
X61730Y-17875D01*
X61745Y-17920D01*
X61764Y-17965D01*
X61779Y-18018D01*
X61794Y-18070D01*
X61816Y-18190D01*
X61820Y-18258D01*
X61824Y-18325D01*
Y-18329D01*
Y-18348D01*
X61820Y-18374D01*
Y-18407D01*
X61813Y-18452D01*
X61805Y-18501D01*
X61794Y-18557D01*
X61779Y-18621D01*
X61760Y-18685D01*
X61734Y-18753D01*
X61704Y-18824D01*
X61670Y-18895D01*
X61625Y-18966D01*
X61576Y-19041D01*
X61520Y-19109D01*
X61456Y-19176D01*
X61453Y-19180D01*
X61441Y-19191D01*
X61419Y-19210D01*
X61389Y-19229D01*
X61355Y-19259D01*
X61310Y-19285D01*
X61261Y-19319D01*
X61201Y-19349D01*
X61137Y-19383D01*
X61066Y-19416D01*
X60991Y-19443D01*
X60909Y-19469D01*
X60822Y-19491D01*
X60729Y-19510D01*
X60631Y-19521D01*
X60526Y-19525D01*
X60504D01*
X60478Y-19521D01*
X60444D01*
X60399Y-19518D01*
X60350Y-19510D01*
X60294Y-19499D01*
X60230Y-19488D01*
X60166Y-19473D01*
X60099Y-19450D01*
X60027Y-19428D01*
X59960Y-19398D01*
X59889Y-19364D01*
X59817Y-19322D01*
X59750Y-19277D01*
X59686Y-19225D01*
X59683Y-19221D01*
X59671Y-19210D01*
X59656Y-19195D01*
X59634Y-19169D01*
X59607Y-19139D01*
X59578Y-19105D01*
X59548Y-19064D01*
X59514Y-19015D01*
X59480Y-18962D01*
X59446Y-18902D01*
X59416Y-18839D01*
X59386Y-18767D01*
X59360Y-18692D01*
X59338Y-18614D01*
X59319Y-18531D01*
X59307Y-18441D01*
X59780Y-18377D01*
Y-18381D01*
X59784Y-18396D01*
X59787Y-18415D01*
X59795Y-18445D01*
X59803Y-18475D01*
X59814Y-18516D01*
X59829Y-18557D01*
X59844Y-18602D01*
X59881Y-18696D01*
X59930Y-18794D01*
X59986Y-18884D01*
X60020Y-18921D01*
X60054Y-18959D01*
X60057D01*
X60061Y-18966D01*
X60072Y-18974D01*
X60088Y-18985D01*
X60106Y-19000D01*
X60129Y-19015D01*
X60185Y-19045D01*
X60256Y-19079D01*
X60339Y-19109D01*
X60429Y-19128D01*
X60478Y-19131D01*
X60530Y-19135D01*
X60564D01*
X60586Y-19131D01*
X60616Y-19128D01*
X60646Y-19124D01*
X60684Y-19116D01*
X60725Y-19105D01*
X60815Y-19079D01*
X60860Y-19060D01*
X60909Y-19038D01*
X60957Y-19011D01*
X61002Y-18981D01*
X61048Y-18947D01*
X61093Y-18906D01*
X61096Y-18902D01*
X61104Y-18895D01*
X61115Y-18884D01*
X61130Y-18865D01*
X61145Y-18843D01*
X61164Y-18816D01*
X61186Y-18786D01*
X61209Y-18749D01*
X61228Y-18711D01*
X61250Y-18666D01*
X61287Y-18569D01*
X61299Y-18516D01*
X61310Y-18460D01*
X61317Y-18400D01*
X61321Y-18336D01*
Y-18332D01*
Y-18321D01*
Y-18306D01*
X61317Y-18280D01*
X61314Y-18254D01*
X61310Y-18220D01*
X61303Y-18186D01*
X61295Y-18145D01*
X61269Y-18063D01*
X61254Y-18018D01*
X61231Y-17973D01*
X61205Y-17928D01*
X61179Y-17883D01*
X61145Y-17841D01*
X61107Y-17800D01*
X61104Y-17796D01*
X61096Y-17793D01*
X61085Y-17781D01*
X61070Y-17766D01*
X61048Y-17751D01*
X61021Y-17732D01*
X60995Y-17714D01*
X60961Y-17695D01*
X60924Y-17676D01*
X60883Y-17658D01*
X60789Y-17624D01*
X60684Y-17597D01*
X60628Y-17594D01*
X60567Y-17590D01*
X60545D01*
X60515Y-17594D01*
X60478Y-17597D01*
X60429Y-17601D01*
X60373Y-17609D01*
X60309Y-17624D01*
X60237Y-17639D01*
X60290Y-17226D01*
X60298D01*
X60316Y-17230D01*
X60343Y-17234D01*
X60395D01*
X60417Y-17230D01*
X60444D01*
X60474Y-17226D01*
X60508Y-17219D01*
X60545Y-17215D01*
X60631Y-17196D01*
X60721Y-17166D01*
X60815Y-17129D01*
X60909Y-17076D01*
X60913Y-17073D01*
X60920Y-17069D01*
X60931Y-17061D01*
X60946Y-17046D01*
X60965Y-17031D01*
X60988Y-17009D01*
X61006Y-16986D01*
X61032Y-16956D01*
X61055Y-16926D01*
X61074Y-16889D01*
X61096Y-16848D01*
X61115Y-16806D01*
X61130Y-16758D01*
X61141Y-16705D01*
X61149Y-16653D01*
X61152Y-16592D01*
Y-16589D01*
Y-16581D01*
Y-16566D01*
X61149Y-16547D01*
Y-16525D01*
X61145Y-16499D01*
X61130Y-16439D01*
X61111Y-16371D01*
X61077Y-16300D01*
X61036Y-16229D01*
X61006Y-16195D01*
X60976Y-16161D01*
X60972Y-16158D01*
X60969Y-16154D01*
X60957Y-16146D01*
X60946Y-16135D01*
X60905Y-16105D01*
X60852Y-16075D01*
X60789Y-16045D01*
X60710Y-16015D01*
X60620Y-15996D01*
X60575Y-15989D01*
X60496D01*
X60478Y-15992D01*
X60451D01*
X60425Y-15996D01*
X60361Y-16011D01*
X60286Y-16030D01*
X60211Y-16064D01*
X60132Y-16105D01*
X60095Y-16135D01*
X60061Y-16165D01*
X60057Y-16169D01*
X60054Y-16172D01*
X60043Y-16184D01*
X60031Y-16199D01*
X60016Y-16214D01*
X60001Y-16236D01*
X59983Y-16262D01*
X59964Y-16293D01*
X59945Y-16330D01*
X59922Y-16367D01*
X59904Y-16409D01*
X59885Y-16457D01*
X59870Y-16506D01*
X59851Y-16563D01*
X59840Y-16619D01*
X59829Y-16682D01*
X59356Y-16600D01*
Y-16596D01*
X59360Y-16578D01*
X59368Y-16555D01*
X59375Y-16521D01*
X59386Y-16484D01*
X59401Y-16435D01*
X59416Y-16386D01*
X59439Y-16330D01*
X59461Y-16274D01*
X59491Y-16214D01*
X59521Y-16150D01*
X59559Y-16090D01*
X59596Y-16030D01*
X59641Y-15970D01*
X59694Y-15917D01*
X59746Y-15865D01*
X59750Y-15861D01*
X59761Y-15854D01*
X59776Y-15843D01*
X59803Y-15824D01*
X59833Y-15805D01*
X59866Y-15782D01*
X59911Y-15756D01*
X59956Y-15734D01*
X60009Y-15708D01*
X60069Y-15685D01*
X60132Y-15663D01*
X60200Y-15644D01*
X60271Y-15625D01*
X60346Y-15614D01*
X60429Y-15606D01*
X60511Y-15603D01*
X60541D01*
X60564Y-15606D01*
D02*
G37*
G36*
X53101D02*
X53131D01*
X53161Y-15610D01*
X53199Y-15614D01*
X53240Y-15618D01*
X53330Y-15636D01*
X53424Y-15659D01*
X53525Y-15692D01*
X53626Y-15737D01*
X53630D01*
X53637Y-15745D01*
X53653Y-15753D01*
X53671Y-15764D01*
X53694Y-15775D01*
X53716Y-15794D01*
X53776Y-15835D01*
X53844Y-15888D01*
X53911Y-15951D01*
X53975Y-16026D01*
X54031Y-16109D01*
Y-16113D01*
X54039Y-16120D01*
X54046Y-16131D01*
X54054Y-16150D01*
X54065Y-16169D01*
X54076Y-16195D01*
X54102Y-16259D01*
X54129Y-16330D01*
X54151Y-16416D01*
X54166Y-16506D01*
X54174Y-16604D01*
Y-16608D01*
Y-16615D01*
Y-16626D01*
X54170Y-16645D01*
Y-16668D01*
X54166Y-16694D01*
X54159Y-16754D01*
X54140Y-16825D01*
X54118Y-16900D01*
X54084Y-16979D01*
X54039Y-17057D01*
Y-17061D01*
X54031Y-17065D01*
X54024Y-17076D01*
X54013Y-17091D01*
X53983Y-17129D01*
X53938Y-17174D01*
X53881Y-17226D01*
X53814Y-17279D01*
X53735Y-17331D01*
X53641Y-17380D01*
X53645D01*
X53656Y-17384D01*
X53675Y-17388D01*
X53698Y-17395D01*
X53728Y-17406D01*
X53758Y-17417D01*
X53836Y-17451D01*
X53919Y-17492D01*
X54009Y-17552D01*
X54095Y-17620D01*
X54132Y-17661D01*
X54170Y-17706D01*
X54174Y-17710D01*
X54177Y-17718D01*
X54189Y-17732D01*
X54200Y-17751D01*
X54215Y-17774D01*
X54230Y-17804D01*
X54249Y-17838D01*
X54268Y-17875D01*
X54282Y-17920D01*
X54301Y-17965D01*
X54316Y-18018D01*
X54331Y-18070D01*
X54354Y-18190D01*
X54357Y-18258D01*
X54361Y-18325D01*
Y-18329D01*
Y-18348D01*
X54357Y-18374D01*
Y-18407D01*
X54350Y-18452D01*
X54343Y-18501D01*
X54331Y-18557D01*
X54316Y-18621D01*
X54298Y-18685D01*
X54271Y-18753D01*
X54241Y-18824D01*
X54207Y-18895D01*
X54163Y-18966D01*
X54114Y-19041D01*
X54058Y-19109D01*
X53994Y-19176D01*
X53990Y-19180D01*
X53979Y-19191D01*
X53956Y-19210D01*
X53926Y-19229D01*
X53892Y-19259D01*
X53847Y-19285D01*
X53799Y-19319D01*
X53739Y-19349D01*
X53675Y-19383D01*
X53604Y-19416D01*
X53529Y-19443D01*
X53446Y-19469D01*
X53360Y-19491D01*
X53266Y-19510D01*
X53169Y-19521D01*
X53064Y-19525D01*
X53041D01*
X53015Y-19521D01*
X52981D01*
X52936Y-19518D01*
X52887Y-19510D01*
X52831Y-19499D01*
X52767Y-19488D01*
X52704Y-19473D01*
X52636Y-19450D01*
X52565Y-19428D01*
X52498Y-19398D01*
X52426Y-19364D01*
X52355Y-19322D01*
X52288Y-19277D01*
X52224Y-19225D01*
X52220Y-19221D01*
X52209Y-19210D01*
X52194Y-19195D01*
X52171Y-19169D01*
X52145Y-19139D01*
X52115Y-19105D01*
X52085Y-19064D01*
X52051Y-19015D01*
X52017Y-18962D01*
X51984Y-18902D01*
X51954Y-18839D01*
X51924Y-18767D01*
X51898Y-18692D01*
X51875Y-18614D01*
X51856Y-18531D01*
X51845Y-18441D01*
X52318Y-18377D01*
Y-18381D01*
X52321Y-18396D01*
X52325Y-18415D01*
X52333Y-18445D01*
X52340Y-18475D01*
X52351Y-18516D01*
X52366Y-18557D01*
X52381Y-18602D01*
X52419Y-18696D01*
X52468Y-18794D01*
X52524Y-18884D01*
X52557Y-18921D01*
X52591Y-18959D01*
X52595D01*
X52599Y-18966D01*
X52610Y-18974D01*
X52625Y-18985D01*
X52644Y-19000D01*
X52666Y-19015D01*
X52723Y-19045D01*
X52794Y-19079D01*
X52876Y-19109D01*
X52966Y-19128D01*
X53015Y-19131D01*
X53067Y-19135D01*
X53101D01*
X53124Y-19131D01*
X53154Y-19128D01*
X53184Y-19124D01*
X53221Y-19116D01*
X53263Y-19105D01*
X53352Y-19079D01*
X53398Y-19060D01*
X53446Y-19038D01*
X53495Y-19011D01*
X53540Y-18981D01*
X53585Y-18947D01*
X53630Y-18906D01*
X53634Y-18902D01*
X53641Y-18895D01*
X53653Y-18884D01*
X53667Y-18865D01*
X53683Y-18843D01*
X53701Y-18816D01*
X53724Y-18786D01*
X53746Y-18749D01*
X53765Y-18711D01*
X53787Y-18666D01*
X53825Y-18569D01*
X53836Y-18516D01*
X53847Y-18460D01*
X53855Y-18400D01*
X53859Y-18336D01*
Y-18332D01*
Y-18321D01*
Y-18306D01*
X53855Y-18280D01*
X53851Y-18254D01*
X53847Y-18220D01*
X53840Y-18186D01*
X53833Y-18145D01*
X53806Y-18063D01*
X53791Y-18018D01*
X53769Y-17973D01*
X53742Y-17928D01*
X53716Y-17883D01*
X53683Y-17841D01*
X53645Y-17800D01*
X53641Y-17796D01*
X53634Y-17793D01*
X53623Y-17781D01*
X53607Y-17766D01*
X53585Y-17751D01*
X53559Y-17732D01*
X53532Y-17714D01*
X53499Y-17695D01*
X53461Y-17676D01*
X53420Y-17658D01*
X53326Y-17624D01*
X53221Y-17597D01*
X53165Y-17594D01*
X53105Y-17590D01*
X53083D01*
X53053Y-17594D01*
X53015Y-17597D01*
X52966Y-17601D01*
X52910Y-17609D01*
X52846Y-17624D01*
X52775Y-17639D01*
X52828Y-17226D01*
X52835D01*
X52854Y-17230D01*
X52880Y-17234D01*
X52933D01*
X52955Y-17230D01*
X52981D01*
X53011Y-17226D01*
X53045Y-17219D01*
X53083Y-17215D01*
X53169Y-17196D01*
X53259Y-17166D01*
X53352Y-17129D01*
X53446Y-17076D01*
X53450Y-17073D01*
X53457Y-17069D01*
X53469Y-17061D01*
X53484Y-17046D01*
X53503Y-17031D01*
X53525Y-17009D01*
X53544Y-16986D01*
X53570Y-16956D01*
X53592Y-16926D01*
X53611Y-16889D01*
X53634Y-16848D01*
X53653Y-16806D01*
X53667Y-16758D01*
X53679Y-16705D01*
X53686Y-16653D01*
X53690Y-16592D01*
Y-16589D01*
Y-16581D01*
Y-16566D01*
X53686Y-16547D01*
Y-16525D01*
X53683Y-16499D01*
X53667Y-16439D01*
X53649Y-16371D01*
X53615Y-16300D01*
X53574Y-16229D01*
X53544Y-16195D01*
X53514Y-16161D01*
X53510Y-16158D01*
X53506Y-16154D01*
X53495Y-16146D01*
X53484Y-16135D01*
X53443Y-16105D01*
X53390Y-16075D01*
X53326Y-16045D01*
X53247Y-16015D01*
X53158Y-15996D01*
X53113Y-15989D01*
X53034D01*
X53015Y-15992D01*
X52989D01*
X52962Y-15996D01*
X52899Y-16011D01*
X52824Y-16030D01*
X52749Y-16064D01*
X52670Y-16105D01*
X52632Y-16135D01*
X52599Y-16165D01*
X52595Y-16169D01*
X52591Y-16172D01*
X52580Y-16184D01*
X52569Y-16199D01*
X52554Y-16214D01*
X52539Y-16236D01*
X52520Y-16262D01*
X52501Y-16293D01*
X52482Y-16330D01*
X52460Y-16367D01*
X52441Y-16409D01*
X52422Y-16457D01*
X52407Y-16506D01*
X52389Y-16563D01*
X52377Y-16619D01*
X52366Y-16682D01*
X51894Y-16600D01*
Y-16596D01*
X51898Y-16578D01*
X51905Y-16555D01*
X51912Y-16521D01*
X51924Y-16484D01*
X51939Y-16435D01*
X51954Y-16386D01*
X51976Y-16330D01*
X51999Y-16274D01*
X52029Y-16214D01*
X52059Y-16150D01*
X52096Y-16090D01*
X52134Y-16030D01*
X52179Y-15970D01*
X52231Y-15917D01*
X52284Y-15865D01*
X52288Y-15861D01*
X52299Y-15854D01*
X52314Y-15843D01*
X52340Y-15824D01*
X52370Y-15805D01*
X52404Y-15782D01*
X52449Y-15756D01*
X52494Y-15734D01*
X52546Y-15708D01*
X52606Y-15685D01*
X52670Y-15663D01*
X52737Y-15644D01*
X52809Y-15625D01*
X52884Y-15614D01*
X52966Y-15606D01*
X53049Y-15603D01*
X53079D01*
X53101Y-15606D01*
D02*
G37*
G36*
X63560D02*
X63594Y-15610D01*
X63631Y-15614D01*
X63676Y-15618D01*
X63721Y-15629D01*
X63830Y-15651D01*
X63942Y-15689D01*
X64003Y-15711D01*
X64062Y-15737D01*
X64122Y-15767D01*
X64183Y-15805D01*
X64186Y-15809D01*
X64197Y-15812D01*
X64213Y-15827D01*
X64235Y-15843D01*
X64261Y-15865D01*
X64291Y-15888D01*
X64321Y-15917D01*
X64359Y-15951D01*
X64396Y-15992D01*
X64434Y-16034D01*
X64475Y-16082D01*
X64512Y-16135D01*
X64550Y-16191D01*
X64587Y-16251D01*
X64625Y-16315D01*
X64655Y-16383D01*
X64659Y-16386D01*
X64662Y-16401D01*
X64670Y-16420D01*
X64681Y-16450D01*
X64692Y-16491D01*
X64707Y-16536D01*
X64723Y-16592D01*
X64737Y-16656D01*
X64753Y-16727D01*
X64764Y-16810D01*
X64779Y-16896D01*
X64790Y-16994D01*
X64801Y-17099D01*
X64809Y-17211D01*
X64816Y-17335D01*
Y-17462D01*
Y-17466D01*
Y-17470D01*
Y-17481D01*
Y-17496D01*
Y-17534D01*
X64812Y-17582D01*
Y-17646D01*
X64809Y-17718D01*
X64801Y-17796D01*
X64798Y-17886D01*
X64786Y-17976D01*
X64779Y-18074D01*
X64749Y-18269D01*
X64730Y-18366D01*
X64707Y-18460D01*
X64685Y-18550D01*
X64655Y-18636D01*
Y-18640D01*
X64648Y-18655D01*
X64640Y-18677D01*
X64625Y-18708D01*
X64606Y-18745D01*
X64587Y-18786D01*
X64565Y-18831D01*
X64535Y-18884D01*
X64468Y-18989D01*
X64385Y-19101D01*
X64291Y-19206D01*
X64235Y-19255D01*
X64179Y-19300D01*
X64175Y-19304D01*
X64164Y-19311D01*
X64149Y-19322D01*
X64122Y-19334D01*
X64092Y-19353D01*
X64055Y-19371D01*
X64014Y-19390D01*
X63969Y-19412D01*
X63916Y-19435D01*
X63860Y-19454D01*
X63800Y-19473D01*
X63732Y-19491D01*
X63665Y-19502D01*
X63594Y-19514D01*
X63519Y-19521D01*
X63440Y-19525D01*
X63395D01*
X63365Y-19521D01*
X63327Y-19518D01*
X63283Y-19510D01*
X63230Y-19502D01*
X63178Y-19495D01*
X63061Y-19465D01*
X62998Y-19446D01*
X62937Y-19420D01*
X62874Y-19394D01*
X62814Y-19360D01*
X62757Y-19322D01*
X62701Y-19277D01*
X62697Y-19274D01*
X62690Y-19266D01*
X62675Y-19251D01*
X62656Y-19232D01*
X62634Y-19206D01*
X62608Y-19173D01*
X62581Y-19139D01*
X62551Y-19094D01*
X62521Y-19049D01*
X62491Y-18993D01*
X62465Y-18936D01*
X62439Y-18872D01*
X62413Y-18805D01*
X62390Y-18730D01*
X62375Y-18651D01*
X62360Y-18569D01*
X62814Y-18528D01*
Y-18531D01*
X62818Y-18542D01*
X62821Y-18557D01*
X62825Y-18580D01*
X62832Y-18606D01*
X62840Y-18636D01*
X62862Y-18708D01*
X62893Y-18782D01*
X62930Y-18861D01*
X62975Y-18933D01*
X63001Y-18966D01*
X63031Y-18996D01*
X63035D01*
X63039Y-19004D01*
X63061Y-19019D01*
X63095Y-19041D01*
X63144Y-19068D01*
X63204Y-19094D01*
X63275Y-19116D01*
X63358Y-19131D01*
X63447Y-19139D01*
X63485D01*
X63526Y-19135D01*
X63579Y-19128D01*
X63635Y-19116D01*
X63702Y-19097D01*
X63766Y-19075D01*
X63830Y-19041D01*
X63834D01*
X63837Y-19038D01*
X63856Y-19023D01*
X63886Y-19000D01*
X63924Y-18970D01*
X63969Y-18933D01*
X64014Y-18888D01*
X64055Y-18835D01*
X64096Y-18775D01*
Y-18771D01*
X64100Y-18767D01*
X64108Y-18756D01*
X64115Y-18745D01*
X64134Y-18708D01*
X64156Y-18655D01*
X64186Y-18591D01*
X64216Y-18512D01*
X64246Y-18426D01*
X64272Y-18325D01*
Y-18321D01*
X64276Y-18314D01*
X64280Y-18295D01*
X64284Y-18276D01*
X64288Y-18250D01*
X64295Y-18220D01*
X64302Y-18186D01*
X64310Y-18145D01*
X64321Y-18059D01*
X64332Y-17961D01*
X64340Y-17856D01*
X64344Y-17748D01*
Y-17740D01*
Y-17721D01*
Y-17695D01*
Y-17658D01*
X64336Y-17665D01*
X64329Y-17676D01*
X64318Y-17691D01*
X64288Y-17732D01*
X64243Y-17785D01*
X64186Y-17841D01*
X64119Y-17901D01*
X64040Y-17961D01*
X63954Y-18018D01*
X63950D01*
X63942Y-18025D01*
X63931Y-18029D01*
X63912Y-18040D01*
X63890Y-18051D01*
X63860Y-18063D01*
X63830Y-18074D01*
X63796Y-18085D01*
X63718Y-18111D01*
X63627Y-18134D01*
X63530Y-18149D01*
X63425Y-18156D01*
X63402D01*
X63380Y-18153D01*
X63346D01*
X63305Y-18145D01*
X63256Y-18137D01*
X63204Y-18126D01*
X63147Y-18111D01*
X63084Y-18096D01*
X63020Y-18074D01*
X62953Y-18044D01*
X62885Y-18010D01*
X62818Y-17973D01*
X62750Y-17924D01*
X62682Y-17871D01*
X62619Y-17811D01*
X62615Y-17808D01*
X62604Y-17796D01*
X62589Y-17774D01*
X62566Y-17748D01*
X62544Y-17714D01*
X62514Y-17673D01*
X62484Y-17624D01*
X62454Y-17568D01*
X62424Y-17507D01*
X62394Y-17436D01*
X62364Y-17361D01*
X62341Y-17282D01*
X62319Y-17192D01*
X62304Y-17102D01*
X62292Y-17005D01*
X62289Y-16900D01*
Y-16893D01*
Y-16874D01*
X62292Y-16844D01*
Y-16803D01*
X62300Y-16754D01*
X62308Y-16698D01*
X62319Y-16634D01*
X62330Y-16563D01*
X62349Y-16491D01*
X62371Y-16412D01*
X62401Y-16334D01*
X62431Y-16255D01*
X62472Y-16176D01*
X62517Y-16101D01*
X62570Y-16026D01*
X62630Y-15959D01*
X62634Y-15955D01*
X62645Y-15944D01*
X62664Y-15925D01*
X62694Y-15902D01*
X62727Y-15876D01*
X62765Y-15846D01*
X62814Y-15812D01*
X62866Y-15779D01*
X62926Y-15749D01*
X62994Y-15715D01*
X63065Y-15685D01*
X63140Y-15659D01*
X63222Y-15636D01*
X63309Y-15618D01*
X63402Y-15606D01*
X63496Y-15603D01*
X63534D01*
X63560Y-15606D01*
D02*
G37*
G36*
X58614Y-19461D02*
X58078D01*
Y-18925D01*
X58614D01*
Y-19461D01*
D02*
G37*
G36*
X56154Y-15606D02*
X56195D01*
X56240Y-15610D01*
X56292Y-15618D01*
X56353Y-15629D01*
X56420Y-15640D01*
X56488Y-15659D01*
X56559Y-15677D01*
X56634Y-15704D01*
X56705Y-15734D01*
X56780Y-15767D01*
X56848Y-15809D01*
X56915Y-15857D01*
X56979Y-15910D01*
X56982Y-15914D01*
X56994Y-15925D01*
X57009Y-15940D01*
X57028Y-15966D01*
X57054Y-15996D01*
X57080Y-16030D01*
X57110Y-16071D01*
X57140Y-16120D01*
X57170Y-16172D01*
X57200Y-16232D01*
X57226Y-16293D01*
X57253Y-16360D01*
X57271Y-16431D01*
X57286Y-16510D01*
X57297Y-16589D01*
X57301Y-16671D01*
Y-16675D01*
Y-16682D01*
Y-16694D01*
Y-16709D01*
X57297Y-16731D01*
Y-16754D01*
X57290Y-16814D01*
X57279Y-16881D01*
X57260Y-16960D01*
X57237Y-17042D01*
X57204Y-17125D01*
Y-17129D01*
X57200Y-17136D01*
X57192Y-17147D01*
X57185Y-17163D01*
X57174Y-17185D01*
X57162Y-17208D01*
X57129Y-17267D01*
X57087Y-17335D01*
X57031Y-17417D01*
X56968Y-17504D01*
X56889Y-17594D01*
X56885Y-17597D01*
X56877Y-17605D01*
X56866Y-17620D01*
X56848Y-17639D01*
X56821Y-17665D01*
X56795Y-17695D01*
X56757Y-17729D01*
X56716Y-17770D01*
X56671Y-17815D01*
X56615Y-17867D01*
X56559Y-17924D01*
X56491Y-17984D01*
X56420Y-18047D01*
X56341Y-18119D01*
X56255Y-18190D01*
X56165Y-18269D01*
X56161Y-18272D01*
X56146Y-18284D01*
X56124Y-18303D01*
X56098Y-18325D01*
X56064Y-18355D01*
X56026Y-18389D01*
X55936Y-18464D01*
X55846Y-18542D01*
X55756Y-18621D01*
X55715Y-18659D01*
X55677Y-18696D01*
X55644Y-18726D01*
X55617Y-18753D01*
X55614Y-18756D01*
X55599Y-18775D01*
X55576Y-18801D01*
X55546Y-18831D01*
X55516Y-18872D01*
X55483Y-18914D01*
X55449Y-18959D01*
X55419Y-19007D01*
X57305D01*
Y-19461D01*
X54766D01*
Y-19457D01*
Y-19454D01*
Y-19431D01*
Y-19401D01*
X54770Y-19356D01*
X54777Y-19308D01*
X54785Y-19251D01*
X54800Y-19195D01*
X54819Y-19135D01*
Y-19131D01*
X54822Y-19124D01*
X54830Y-19109D01*
X54838Y-19090D01*
X54849Y-19068D01*
X54860Y-19041D01*
X54894Y-18974D01*
X54939Y-18895D01*
X54991Y-18809D01*
X55055Y-18719D01*
X55130Y-18625D01*
X55134Y-18621D01*
X55141Y-18614D01*
X55152Y-18599D01*
X55171Y-18580D01*
X55194Y-18557D01*
X55220Y-18528D01*
X55250Y-18494D01*
X55287Y-18456D01*
X55329Y-18419D01*
X55374Y-18374D01*
X55426Y-18325D01*
X55479Y-18272D01*
X55539Y-18220D01*
X55603Y-18164D01*
X55674Y-18104D01*
X55745Y-18044D01*
X55752Y-18036D01*
X55771Y-18021D01*
X55805Y-17995D01*
X55846Y-17957D01*
X55899Y-17916D01*
X55955Y-17864D01*
X56019Y-17808D01*
X56086Y-17748D01*
X56229Y-17616D01*
X56367Y-17481D01*
X56431Y-17414D01*
X56491Y-17346D01*
X56547Y-17286D01*
X56593Y-17226D01*
X56596Y-17222D01*
X56604Y-17211D01*
X56615Y-17196D01*
X56626Y-17174D01*
X56645Y-17147D01*
X56664Y-17118D01*
X56682Y-17080D01*
X56705Y-17042D01*
X56746Y-16956D01*
X56784Y-16862D01*
X56795Y-16810D01*
X56806Y-16761D01*
X56814Y-16709D01*
X56818Y-16660D01*
Y-16656D01*
Y-16649D01*
Y-16634D01*
X56814Y-16611D01*
X56810Y-16589D01*
X56806Y-16563D01*
X56791Y-16495D01*
X56769Y-16420D01*
X56731Y-16341D01*
X56709Y-16304D01*
X56682Y-16262D01*
X56652Y-16225D01*
X56615Y-16187D01*
X56611Y-16184D01*
X56608Y-16180D01*
X56593Y-16169D01*
X56577Y-16158D01*
X56559Y-16142D01*
X56533Y-16127D01*
X56506Y-16109D01*
X56472Y-16090D01*
X56439Y-16071D01*
X56397Y-16052D01*
X56308Y-16023D01*
X56206Y-16000D01*
X56150Y-15996D01*
X56090Y-15992D01*
X56056D01*
X56034Y-15996D01*
X56004Y-16000D01*
X55970Y-16004D01*
X55932Y-16011D01*
X55895Y-16019D01*
X55805Y-16041D01*
X55715Y-16079D01*
X55670Y-16101D01*
X55625Y-16131D01*
X55584Y-16161D01*
X55542Y-16199D01*
X55539Y-16203D01*
X55535Y-16206D01*
X55524Y-16221D01*
X55512Y-16236D01*
X55497Y-16255D01*
X55479Y-16281D01*
X55460Y-16311D01*
X55441Y-16345D01*
X55423Y-16383D01*
X55404Y-16424D01*
X55389Y-16473D01*
X55370Y-16521D01*
X55359Y-16574D01*
X55348Y-16634D01*
X55344Y-16694D01*
X55340Y-16761D01*
X54856Y-16713D01*
Y-16705D01*
X54860Y-16690D01*
X54864Y-16660D01*
X54868Y-16623D01*
X54879Y-16578D01*
X54890Y-16525D01*
X54905Y-16469D01*
X54920Y-16405D01*
X54943Y-16341D01*
X54969Y-16274D01*
X54999Y-16206D01*
X55032Y-16135D01*
X55074Y-16068D01*
X55119Y-16004D01*
X55171Y-15944D01*
X55228Y-15888D01*
X55231Y-15884D01*
X55243Y-15876D01*
X55261Y-15861D01*
X55287Y-15843D01*
X55321Y-15820D01*
X55359Y-15798D01*
X55408Y-15771D01*
X55460Y-15745D01*
X55520Y-15719D01*
X55584Y-15692D01*
X55655Y-15670D01*
X55734Y-15647D01*
X55816Y-15629D01*
X55906Y-15614D01*
X56000Y-15606D01*
X56101Y-15603D01*
X56128D01*
X56154Y-15606D01*
D02*
G37*
%LPC*%
G36*
X101472Y16259D02*
X100959D01*
Y13713D01*
X101619D01*
X101653Y13716D01*
X101720D01*
X101799Y13720D01*
X101874Y13727D01*
X101949Y13735D01*
X101979Y13739D01*
X102009Y13746D01*
X102013D01*
X102016Y13750D01*
X102042Y13758D01*
X102076Y13769D01*
X102121Y13784D01*
X102170Y13806D01*
X102223Y13836D01*
X102275Y13870D01*
X102324Y13907D01*
X102328Y13911D01*
X102346Y13930D01*
X102369Y13956D01*
X102395Y13997D01*
X102429Y14046D01*
X102462Y14110D01*
X102496Y14189D01*
X102526Y14279D01*
Y14283D01*
X102530Y14290D01*
X102534Y14305D01*
X102538Y14327D01*
X102545Y14354D01*
X102552Y14384D01*
X102560Y14421D01*
X102568Y14462D01*
X102575Y14511D01*
X102583Y14564D01*
X102590Y14624D01*
X102597Y14684D01*
X102601Y14751D01*
X102605Y14826D01*
X102609Y14901D01*
Y14984D01*
Y14988D01*
Y15002D01*
Y15025D01*
Y15059D01*
X102605Y15096D01*
Y15137D01*
X102601Y15186D01*
X102597Y15235D01*
X102590Y15348D01*
X102575Y15460D01*
X102552Y15569D01*
X102541Y15621D01*
X102526Y15666D01*
Y15670D01*
X102523Y15677D01*
X102519Y15689D01*
X102511Y15708D01*
X102492Y15749D01*
X102470Y15801D01*
X102436Y15861D01*
X102399Y15925D01*
X102354Y15985D01*
X102305Y16037D01*
X102297Y16045D01*
X102279Y16060D01*
X102249Y16082D01*
X102208Y16113D01*
X102155Y16142D01*
X102095Y16172D01*
X102024Y16199D01*
X101945Y16221D01*
X101937D01*
X101926Y16225D01*
X101911Y16229D01*
X101892D01*
X101870Y16232D01*
X101840Y16236D01*
X101806Y16240D01*
X101765Y16244D01*
X101720Y16248D01*
X101667Y16251D01*
X101608D01*
X101544Y16255D01*
X101472Y16259D01*
D02*
G37*
G36*
X97609Y26195D02*
X96776D01*
Y25220D01*
X97481D01*
X97534Y25224D01*
X97586D01*
X97646Y25227D01*
X97763Y25231D01*
X97822Y25235D01*
X97879Y25239D01*
X97927Y25242D01*
X97973Y25250D01*
X98014Y25258D01*
X98044Y25265D01*
X98051Y25269D01*
X98066Y25276D01*
X98093Y25288D01*
X98126Y25302D01*
X98160Y25325D01*
X98198Y25355D01*
X98231Y25389D01*
X98265Y25426D01*
X98269Y25430D01*
X98276Y25449D01*
X98291Y25471D01*
X98306Y25505D01*
X98317Y25546D01*
X98333Y25599D01*
X98340Y25655D01*
X98344Y25715D01*
Y25719D01*
Y25723D01*
Y25734D01*
Y25749D01*
X98340Y25782D01*
X98333Y25828D01*
X98317Y25876D01*
X98299Y25929D01*
X98273Y25981D01*
X98239Y26030D01*
X98235Y26034D01*
X98220Y26049D01*
X98198Y26071D01*
X98164Y26094D01*
X98123Y26120D01*
X98070Y26142D01*
X98014Y26165D01*
X97946Y26180D01*
X97935D01*
X97924Y26184D01*
X97890D01*
X97868Y26188D01*
X97808D01*
X97766Y26191D01*
X97669D01*
X97609Y26195D01*
D02*
G37*
G36*
X164111Y29874D02*
X162375D01*
X164111Y28666D01*
Y29874D01*
D02*
G37*
G36*
X63552Y-15992D02*
X63522D01*
X63500Y-15996D01*
X63474Y-16000D01*
X63440Y-16007D01*
X63406Y-16015D01*
X63365Y-16026D01*
X63324Y-16037D01*
X63279Y-16056D01*
X63234Y-16075D01*
X63189Y-16101D01*
X63144Y-16131D01*
X63095Y-16165D01*
X63050Y-16206D01*
X63005Y-16251D01*
X63001Y-16255D01*
X62994Y-16262D01*
X62982Y-16277D01*
X62967Y-16296D01*
X62953Y-16322D01*
X62930Y-16353D01*
X62911Y-16390D01*
X62889Y-16431D01*
X62866Y-16476D01*
X62848Y-16525D01*
X62825Y-16581D01*
X62810Y-16637D01*
X62795Y-16701D01*
X62784Y-16769D01*
X62776Y-16840D01*
X62773Y-16915D01*
Y-16919D01*
Y-16930D01*
Y-16949D01*
X62776Y-16975D01*
X62780Y-17009D01*
X62784Y-17042D01*
X62791Y-17084D01*
X62799Y-17129D01*
X62825Y-17222D01*
X62844Y-17271D01*
X62866Y-17320D01*
X62889Y-17372D01*
X62919Y-17421D01*
X62953Y-17466D01*
X62990Y-17511D01*
X62994Y-17515D01*
X63001Y-17523D01*
X63012Y-17534D01*
X63031Y-17545D01*
X63050Y-17564D01*
X63076Y-17582D01*
X63106Y-17605D01*
X63140Y-17624D01*
X63181Y-17646D01*
X63222Y-17669D01*
X63316Y-17703D01*
X63365Y-17718D01*
X63421Y-17729D01*
X63477Y-17736D01*
X63538Y-17740D01*
X63571D01*
X63594Y-17736D01*
X63620Y-17732D01*
X63654Y-17729D01*
X63691Y-17721D01*
X63729Y-17710D01*
X63815Y-17684D01*
X63860Y-17665D01*
X63905Y-17642D01*
X63950Y-17616D01*
X63995Y-17586D01*
X64036Y-17552D01*
X64078Y-17511D01*
X64081Y-17507D01*
X64085Y-17500D01*
X64096Y-17489D01*
X64111Y-17470D01*
X64126Y-17447D01*
X64145Y-17417D01*
X64164Y-17384D01*
X64186Y-17346D01*
X64205Y-17305D01*
X64224Y-17256D01*
X64243Y-17204D01*
X64258Y-17147D01*
X64272Y-17087D01*
X64284Y-17020D01*
X64288Y-16952D01*
X64291Y-16878D01*
Y-16874D01*
Y-16859D01*
Y-16840D01*
X64288Y-16810D01*
X64284Y-16776D01*
X64280Y-16735D01*
X64272Y-16694D01*
X64265Y-16645D01*
X64239Y-16544D01*
X64220Y-16488D01*
X64201Y-16435D01*
X64175Y-16383D01*
X64145Y-16330D01*
X64111Y-16277D01*
X64074Y-16232D01*
X64070Y-16229D01*
X64062Y-16221D01*
X64051Y-16210D01*
X64036Y-16195D01*
X64014Y-16176D01*
X63991Y-16158D01*
X63961Y-16135D01*
X63928Y-16113D01*
X63853Y-16068D01*
X63762Y-16030D01*
X63714Y-16015D01*
X63665Y-16004D01*
X63609Y-15996D01*
X63552Y-15992D01*
D02*
G37*
%LPD*%
D10*
X45300Y49500D02*
G03*
X45300Y49500I-300J0D01*
G01*
X50500Y47440D02*
G03*
X50500Y47440I-100J0D01*
G01*
X161500Y6000D02*
X163500Y0D01*
X165500Y6000D01*
X163500Y60000D02*
X165500Y54000D01*
X161500D02*
X163500Y60000D01*
Y0D02*
Y17275D01*
Y40725D02*
Y60000D01*
X123800Y0D02*
X164500D01*
X123800Y60000D02*
X164500D01*
X0Y-17500D02*
X6000Y-15500D01*
X0Y-17500D02*
X6000Y-19500D01*
X121500D02*
X127500Y-17500D01*
X121500Y-15500D02*
X127500Y-17500D01*
X0D02*
X50845D01*
X74655D02*
X127500D01*
X0Y-18500D02*
Y3700D01*
X127500Y-18500D02*
Y3700D01*
D11*
X90291Y22500D02*
G03*
X90291Y22500I-492J0D01*
G01*
D12*
X35608Y10000D02*
G03*
X35608Y10000I-608J0D01*
G01*
D13*
X36315Y17500D02*
G03*
X38315Y19500I0J2000D01*
G01*
X38315D02*
G03*
X36315Y21500I-2000J0D01*
G01*
X23000Y52000D02*
X27000D01*
X19000Y57000D02*
X23000D01*
X27000Y52000D02*
X29500D01*
Y57000D01*
X26500D02*
X29500D01*
X16500Y52000D02*
X19500D01*
X16500D02*
Y57000D01*
X19000D01*
X14360Y13000D02*
X21360D01*
X343Y12972D02*
X6360D01*
X14360Y47000D02*
X21360D01*
X343Y47028D02*
X6360D01*
X343Y12972D02*
Y47028D01*
X36315Y13500D02*
Y17500D01*
Y21500D02*
Y25500D01*
X119500Y52138D02*
X124500D01*
X119500Y56862D02*
X124500D01*
Y52138D02*
Y56862D01*
X112587Y52138D02*
Y56862D01*
Y52138D02*
X116500D01*
X112587Y56862D02*
X116500D01*
X123413Y52138D02*
Y56862D01*
X47000Y56862D02*
X52000D01*
X47000Y52138D02*
X52000D01*
X47000D02*
Y56862D01*
X58913Y52138D02*
Y56862D01*
X55000D02*
X58913D01*
X55000Y52138D02*
X58913D01*
X48087D02*
Y56862D01*
X119500Y3138D02*
X124500D01*
X119500Y7862D02*
X124500D01*
Y3138D02*
Y7862D01*
X112587Y3138D02*
Y7862D01*
Y3138D02*
X116500D01*
X112587Y7862D02*
X116500D01*
X123413Y3138D02*
Y7862D01*
D14*
X48900Y49406D02*
X54100D01*
X48900Y37595D02*
X54100D01*
Y49406D01*
X48900Y37595D02*
Y49406D01*
D15*
X7500Y4425D02*
X10500Y4425D01*
Y4925D01*
X7501Y7575D02*
X10501D01*
Y7075D02*
Y7575D01*
X7501Y7075D02*
Y7575D01*
Y7075D02*
X10501D01*
X7500Y4925D02*
X10500Y4925D01*
X7500Y4425D02*
Y4925D01*
X18717Y4425D02*
Y4925D01*
X21717Y4925D01*
X18718Y7075D02*
X21718D01*
X18718D02*
Y7575D01*
X21718Y7075D02*
Y7575D01*
X18718D02*
X21718D01*
X21717Y4425D02*
Y4925D01*
X18717Y4425D02*
X21717Y4425D01*
X37000Y43950D02*
X40000D01*
X37000D02*
Y44450D01*
X40000D01*
Y43950D02*
Y44450D01*
X37000Y42550D02*
Y43050D01*
Y42550D02*
X40000Y42550D01*
X37000Y43050D02*
X40000D01*
Y42550D02*
Y43050D01*
X63000Y43950D02*
X66000D01*
X63000D02*
Y44450D01*
X66000D01*
Y43950D02*
Y44450D01*
X63000Y42550D02*
Y43050D01*
Y42550D02*
X66000Y42550D01*
X63000Y43050D02*
X66000D01*
Y42550D02*
Y43050D01*
X69000Y43950D02*
X72000D01*
X69000D02*
Y44450D01*
X72000D01*
Y43950D02*
Y44450D01*
X69000Y42550D02*
Y43050D01*
Y42550D02*
X72000Y42550D01*
X69000Y43050D02*
X72000D01*
Y42550D02*
Y43050D01*
X63500Y52925D02*
X66500Y52925D01*
Y53425D01*
X63501Y56075D02*
X66501D01*
Y55575D02*
Y56075D01*
X63501Y55575D02*
Y56075D01*
Y55575D02*
X66501D01*
X63500Y53425D02*
X66500Y53425D01*
X63500Y52925D02*
Y53425D01*
X102500Y7075D02*
X105500Y7075D01*
X102500Y6575D02*
Y7075D01*
X102499Y3925D02*
X105499D01*
X102499D02*
Y4425D01*
X105499Y3925D02*
Y4425D01*
X102499D02*
X105499D01*
X102500Y6575D02*
X105500Y6575D01*
Y7075D01*
X102500Y56075D02*
X105500Y56075D01*
X102500Y55575D02*
Y56075D01*
X102499Y52925D02*
X105499D01*
X102499D02*
Y53425D01*
X105499Y52925D02*
Y53425D01*
X102499D02*
X105499D01*
X102500Y55575D02*
X105500Y55575D01*
Y56075D01*
X82000Y7575D02*
X85000Y7575D01*
X82000Y7075D02*
Y7575D01*
X81999Y4425D02*
X84999D01*
X81999D02*
Y4925D01*
X84999Y4425D02*
Y4925D01*
X81999D02*
X84999D01*
X82000Y7075D02*
X85000Y7075D01*
Y7575D01*
X82000Y43075D02*
X85000Y43075D01*
X82000Y42575D02*
Y43075D01*
X81999Y39925D02*
X84999D01*
X81999D02*
Y40425D01*
X84999Y39925D02*
Y40425D01*
X81999D02*
X84999D01*
X82000Y42575D02*
X85000Y42575D01*
Y43075D01*
X82000Y29075D02*
X85000Y29075D01*
X82000Y28575D02*
Y29075D01*
X81999Y25925D02*
X84999D01*
X81999D02*
Y26425D01*
X84999Y25925D02*
Y26425D01*
X81999D02*
X84999D01*
X82000Y28575D02*
X85000Y28575D01*
Y29075D01*
D16*
X77890Y59553D02*
X79563D01*
Y62309D01*
X87437Y59553D02*
X89209D01*
X87437D02*
Y62309D01*
X79563D02*
X87437D01*
X89406Y13744D02*
Y17681D01*
X86256Y13744D02*
X89406D01*
X77595D02*
Y17681D01*
Y13744D02*
X80744D01*
X36315Y13500D02*
X75685D01*
X36315Y25500D02*
X75685D01*
Y13500D02*
Y25500D01*
D17*
X94000Y40000D02*
X105500D01*
X94000Y30000D02*
X105500D01*
X94000Y20000D02*
X105500D01*
X90000Y10000D02*
X105500D01*
X90000D02*
Y16000D01*
X94000Y20000D01*
Y50000D01*
X105500D01*
X127500Y10000D02*
Y50000D01*
X105500Y20000D02*
X117500D01*
X105500Y30000D02*
X117500D01*
X105500Y10000D02*
X117500D01*
X105500Y40000D02*
X117500D01*
X105500Y50000D02*
X117500D01*
D18*
X39000Y52900D02*
Y56100D01*
X37300Y52950D02*
Y56050D01*
Y52950D02*
X39000Y54500D01*
X37300Y56050D02*
X39000Y54500D01*
X82500Y34500D02*
X84200Y32950D01*
X82500Y34500D02*
X84200Y36050D01*
Y32950D02*
Y36050D01*
X82500Y32900D02*
Y36100D01*
D19*
X41000Y52000D02*
Y57000D01*
X31300Y52000D02*
Y57000D01*
Y52000D02*
X45000D01*
Y57000D01*
X31300D02*
X45000D01*
X76500Y32000D02*
X90200D01*
X76500D02*
Y37000D01*
X90200D01*
Y32000D02*
Y37000D01*
X80500Y32000D02*
Y37000D01*
D20*
X127500Y13622D02*
X148083D01*
X149122Y23622D02*
X150500Y25000D01*
X148583Y23622D02*
X149122D01*
Y26378D02*
X150500Y25000D01*
X148583Y26378D02*
X149122D01*
X127500D02*
X148083D01*
X127500Y23622D02*
X148083D01*
X127500Y33622D02*
X148083D01*
X127500Y36378D02*
X148083D01*
X148583D02*
X149122D01*
X150500Y35000D01*
X148583Y33622D02*
X149122D01*
X150500Y35000D01*
X149122Y43622D02*
X150500Y45000D01*
X148583Y43622D02*
X149122D01*
Y46378D02*
X150500Y45000D01*
X148583Y46378D02*
X149122D01*
X117000Y50000D02*
X127500D01*
Y46378D02*
X148083D01*
X127500Y43622D02*
X148083D01*
X127500Y16378D02*
X148083D01*
X117000Y10000D02*
X127500D01*
X148583Y16378D02*
X149122D01*
X150500Y15000D01*
X148583Y13622D02*
X149122D01*
X150500Y15000D01*
X117500Y10000D02*
Y12000D01*
Y48000D02*
Y50000D01*
Y40000D02*
Y42000D01*
Y38000D02*
Y40000D01*
Y20000D02*
Y22000D01*
Y18000D02*
Y20000D01*
Y28000D02*
Y30000D01*
Y32000D01*
M02*
