G04*
G04 #@! TF.GenerationSoftware,Altium Limited,Altium Designer,22.3.1 (43)*
G04*
G04 Layer_Physical_Order=2*
G04 Layer_Color=15428901*
%FSLAX25Y25*%
%MOIN*%
G70*
G04*
G04 #@! TF.SameCoordinates,ABD1A1CB-370B-4326-B327-FACD84D75C70*
G04*
G04*
G04 #@! TF.FilePolarity,Positive*
G04*
G01*
G75*
%ADD10C,0.01000*%
%ADD17C,0.00600*%
G04:AMPARAMS|DCode=29|XSize=62.99mil|YSize=106.3mil|CornerRadius=15.75mil|HoleSize=0mil|Usage=FLASHONLY|Rotation=270.000|XOffset=0mil|YOffset=0mil|HoleType=Round|Shape=RoundedRectangle|*
%AMROUNDEDRECTD29*
21,1,0.06299,0.07480,0,0,270.0*
21,1,0.03150,0.10630,0,0,270.0*
1,1,0.03150,-0.03740,-0.01575*
1,1,0.03150,-0.03740,0.01575*
1,1,0.03150,0.03740,0.01575*
1,1,0.03150,0.03740,-0.01575*
%
%ADD29ROUNDEDRECTD29*%
%ADD52C,0.04000*%
%ADD53C,0.02000*%
%ADD55C,0.02500*%
%ADD59C,0.02559*%
%ADD60O,0.06299X0.03937*%
%ADD61O,0.08268X0.03937*%
%ADD62C,0.04000*%
%ADD63C,0.02400*%
%ADD64C,0.05000*%
G36*
X118173Y51660D02*
X118067Y51763D01*
X117858Y51935D01*
X117754Y52006D01*
X117652Y52065D01*
X117549Y52114D01*
X117448Y52151D01*
X117347Y52178D01*
X117247Y52195D01*
X117148Y52200D01*
Y52800D01*
X117247Y52805D01*
X117347Y52822D01*
X117448Y52849D01*
X117549Y52886D01*
X117652Y52935D01*
X117754Y52994D01*
X117858Y53065D01*
X117962Y53146D01*
X118067Y53237D01*
X118173Y53340D01*
Y51660D01*
D02*
G37*
G36*
X5000Y58980D02*
X122500D01*
X122511Y58983D01*
X123531Y58848D01*
X124492Y58450D01*
X125317Y57817D01*
X125950Y56992D01*
X126348Y56031D01*
X126483Y55011D01*
X126480Y55000D01*
Y51020D01*
X120889D01*
X120680Y51520D01*
X120929Y52122D01*
Y52878D01*
X120640Y53576D01*
X120106Y54111D01*
X119407Y54400D01*
X118651D01*
X117953Y54111D01*
X117729Y53887D01*
X117675Y53852D01*
X117583Y53762D01*
X117508Y53696D01*
X117438Y53642D01*
X117375Y53600D01*
X117319Y53567D01*
X117271Y53544D01*
X117230Y53529D01*
X117198Y53520D01*
X117193Y53520D01*
X103600D01*
Y53531D01*
X102365Y53409D01*
X101177Y53049D01*
X100083Y52464D01*
X99124Y51676D01*
X98336Y50717D01*
X97751Y49623D01*
X97391Y48435D01*
X97269Y47200D01*
X97280D01*
Y41826D01*
X97280D01*
X97159Y40595D01*
X96800Y39413D01*
X96218Y38322D01*
X95433Y37367D01*
X94478Y36582D01*
X93388Y36000D01*
X92204Y35641D01*
X90974Y35520D01*
X90974Y35520D01*
Y35520D01*
X90475Y35520D01*
X82837D01*
X82832Y35520D01*
X82799Y35529D01*
X82758Y35544D01*
X82710Y35567D01*
X82654Y35599D01*
X82600Y35636D01*
X82440Y35769D01*
X82354Y35852D01*
X82300Y35887D01*
X82076Y36111D01*
X81378Y36400D01*
X80622D01*
X79924Y36111D01*
X79389Y35576D01*
X79100Y34878D01*
Y34122D01*
X79389Y33424D01*
X79924Y32889D01*
X80348Y32714D01*
X80248Y32214D01*
X75296D01*
X71714Y35796D01*
Y44582D01*
X72176Y44773D01*
X78874Y38074D01*
X79438Y37642D01*
X80095Y37369D01*
X80800Y37277D01*
X89817D01*
X90265Y37018D01*
X91079Y36800D01*
X91921D01*
X92735Y37018D01*
X93465Y37439D01*
X94061Y38035D01*
X94482Y38765D01*
X94700Y39579D01*
Y40421D01*
X94482Y41235D01*
X94061Y41965D01*
X93465Y42561D01*
X92735Y42982D01*
X91921Y43200D01*
X91079D01*
X90265Y42982D01*
X89817Y42723D01*
X81928D01*
X70226Y54426D01*
X69662Y54858D01*
X69005Y55130D01*
X68300Y55223D01*
X33228D01*
X32026Y56426D01*
X31884Y56534D01*
X31758Y56660D01*
X31603Y56750D01*
X31462Y56858D01*
X31297Y56927D01*
X31142Y57016D01*
X30970Y57062D01*
X30805Y57130D01*
X30628Y57154D01*
X30455Y57200D01*
X30277D01*
X30100Y57223D01*
X29923Y57200D01*
X29744D01*
X29572Y57154D01*
X29395Y57130D01*
X29230Y57062D01*
X29058Y57016D01*
X28903Y56927D01*
X28738Y56858D01*
X28597Y56750D01*
X28442Y56660D01*
X28316Y56534D01*
X28174Y56426D01*
X28066Y56284D01*
X27940Y56158D01*
X27850Y56003D01*
X27742Y55862D01*
X27673Y55697D01*
X27584Y55542D01*
X27538Y55370D01*
X27470Y55205D01*
X27446Y55028D01*
X27400Y54856D01*
Y54677D01*
X27377Y54500D01*
X27400Y54323D01*
Y54145D01*
X27446Y53972D01*
X27470Y53795D01*
X27538Y53630D01*
X27584Y53458D01*
X27673Y53303D01*
X27742Y53138D01*
X27850Y52997D01*
X27940Y52842D01*
X28066Y52716D01*
X28174Y52574D01*
X30174Y50574D01*
X30738Y50142D01*
X31395Y49869D01*
X32100Y49777D01*
X39486D01*
X39900Y49570D01*
Y47678D01*
X40000Y47578D01*
Y46822D01*
X40180Y46387D01*
X40677Y43107D01*
X33635Y36065D01*
X33370Y35668D01*
X33277Y35200D01*
Y20179D01*
X33370Y19711D01*
X33635Y19314D01*
X47814Y5135D01*
X48211Y4870D01*
X48679Y4777D01*
X75446D01*
X75501Y4768D01*
X75554Y4756D01*
X75598Y4742D01*
X75634Y4727D01*
X75664Y4712D01*
X75690Y4696D01*
X75712Y4679D01*
X75757Y4637D01*
X75806Y4607D01*
X76024Y4389D01*
X76722Y4100D01*
X77478D01*
X78176Y4389D01*
X78711Y4924D01*
X79000Y5622D01*
Y6378D01*
X78711Y7076D01*
X78176Y7611D01*
X77478Y7900D01*
X76722D01*
X76024Y7611D01*
X75806Y7393D01*
X75757Y7363D01*
X75712Y7321D01*
X75690Y7304D01*
X75664Y7288D01*
X75634Y7272D01*
X75598Y7258D01*
X75554Y7244D01*
X75501Y7232D01*
X75446Y7224D01*
X49186D01*
X35724Y20686D01*
Y26560D01*
X36224Y26767D01*
X50786Y12204D01*
Y9500D01*
X50841Y9227D01*
X50995Y8995D01*
X51227Y8841D01*
X51500Y8786D01*
X56000D01*
X56273Y8841D01*
X56505Y8995D01*
X56659Y9227D01*
X56709Y9477D01*
X89793D01*
X93466Y5804D01*
X93498Y5759D01*
X93527Y5714D01*
X93548Y5673D01*
X93564Y5637D01*
X93574Y5604D01*
X93581Y5575D01*
X93585Y5547D01*
X93587Y5486D01*
X93600Y5430D01*
Y5122D01*
X93889Y4424D01*
X94424Y3889D01*
X95122Y3600D01*
X95878D01*
X96576Y3889D01*
X97111Y4424D01*
X97400Y5122D01*
Y5878D01*
X97111Y6576D01*
X96582Y7105D01*
X96582Y7136D01*
X96689Y7605D01*
X108973D01*
X108977Y7605D01*
X109007Y7597D01*
X109043Y7582D01*
X109087Y7561D01*
X109137Y7530D01*
X109195Y7489D01*
X109259Y7436D01*
X109328Y7371D01*
X109414Y7280D01*
X109471Y7240D01*
X109747Y6964D01*
X110445Y6675D01*
X111201D01*
X111899Y6964D01*
X112434Y7498D01*
X112723Y8197D01*
Y8952D01*
X112434Y9651D01*
X111899Y10185D01*
X111201Y10475D01*
X110445D01*
X109747Y10185D01*
X109567Y10006D01*
X109526Y9981D01*
X109427Y9893D01*
X109346Y9827D01*
X109271Y9772D01*
X109202Y9728D01*
X109141Y9695D01*
X109088Y9671D01*
X109044Y9655D01*
X109007Y9646D01*
X109002Y9645D01*
X95297D01*
X91621Y13321D01*
X91290Y13542D01*
X90900Y13620D01*
X75822D01*
X73520Y15922D01*
X73517Y15926D01*
X73500Y15956D01*
X73482Y15995D01*
X73464Y16045D01*
X73447Y16108D01*
X73435Y16172D01*
X73415Y16380D01*
X73414Y16498D01*
X73400Y16562D01*
Y16878D01*
X73111Y17576D01*
X72920Y17767D01*
X73127Y18267D01*
X92500D01*
X93163Y18399D01*
X93726Y18774D01*
X98218Y23267D01*
X103161D01*
X103343Y23251D01*
X103594Y23211D01*
X103789Y23161D01*
X103924Y23107D01*
X104002Y23062D01*
X104015Y23050D01*
X104117Y22538D01*
X104620Y21785D01*
X105372Y21282D01*
X106260Y21106D01*
X113740D01*
X114628Y21282D01*
X115380Y21785D01*
X115883Y22538D01*
X115980Y23027D01*
X116480Y22978D01*
Y10000D01*
X116558Y9610D01*
X116779Y9279D01*
X117110Y9058D01*
X117500Y8980D01*
X126480D01*
Y5000D01*
X126483Y4989D01*
X126348Y3969D01*
X125950Y3008D01*
X125317Y2183D01*
X124492Y1550D01*
X123531Y1152D01*
X122511Y1017D01*
X122500Y1020D01*
X5000D01*
X4989Y1017D01*
X3969Y1152D01*
X3008Y1550D01*
X2183Y2183D01*
X1550Y3008D01*
X1152Y3969D01*
X1017Y4989D01*
X1020Y5000D01*
Y55000D01*
X1017Y55011D01*
X1152Y56031D01*
X1550Y56992D01*
X2183Y57817D01*
X3008Y58450D01*
X3969Y58848D01*
X4989Y58983D01*
X5000Y58980D01*
D02*
G37*
G36*
X116000Y48500D02*
Y41500D01*
X114500Y40000D01*
X108000Y40000D01*
X106894Y38894D01*
X106260D01*
X105372Y38718D01*
X104620Y38215D01*
X104117Y37462D01*
X103940Y36575D01*
Y35941D01*
X97933Y29933D01*
X96200D01*
X95537Y29801D01*
X94974Y29426D01*
X90282Y24733D01*
X72267D01*
X64500Y32500D01*
Y42500D01*
X63000Y44000D01*
X53500D01*
X42500Y33000D01*
Y29000D01*
X55636Y15864D01*
X55600Y15778D01*
Y15022D01*
X55889Y14324D01*
X56000Y14213D01*
Y9500D01*
X51500D01*
Y12500D01*
X36500Y27500D01*
Y35470D01*
X42765Y41735D01*
X42826Y41826D01*
X50000Y49000D01*
X67949D01*
X71000Y45949D01*
Y35500D01*
X75000Y31500D01*
X86500D01*
X88480Y33480D01*
X90967D01*
X90972Y33480D01*
X90974Y33460D01*
X92606Y33621D01*
X94176Y34097D01*
X95622Y34870D01*
X96890Y35910D01*
X97930Y37178D01*
X98703Y38624D01*
X99180Y40194D01*
X99340Y41826D01*
X99320D01*
Y44320D01*
X102944Y47944D01*
X102916Y47975D01*
X104508Y49919D01*
X104717Y49717D01*
X105000Y50000D01*
X114500D01*
X116000Y48500D01*
D02*
G37*
G36*
X42675Y46273D02*
X42618Y46198D01*
X42567Y46117D01*
X42522Y46030D01*
X42485Y45938D01*
X42454Y45840D01*
X42431Y45736D01*
X42414Y45626D01*
X42403Y45510D01*
X42400Y45389D01*
X41400D01*
X41397Y45510D01*
X41386Y45626D01*
X41369Y45736D01*
X41346Y45840D01*
X41315Y45938D01*
X41278Y46030D01*
X41233Y46117D01*
X41182Y46198D01*
X41125Y46273D01*
X41060Y46343D01*
X42740D01*
X42675Y46273D01*
D02*
G37*
G36*
X81963Y35237D02*
X82171Y35065D01*
X82275Y34994D01*
X82378Y34935D01*
X82480Y34886D01*
X82582Y34849D01*
X82682Y34822D01*
X82782Y34805D01*
X82882Y34800D01*
Y34200D01*
X82782Y34195D01*
X82682Y34178D01*
X82582Y34151D01*
X82480Y34114D01*
X82378Y34065D01*
X82275Y34006D01*
X82171Y33935D01*
X82067Y33854D01*
X81963Y33763D01*
X81857Y33660D01*
Y35340D01*
X81963Y35237D01*
D02*
G37*
G36*
X107823Y31861D02*
X107655Y31959D01*
X107461Y32003D01*
X107241Y31995D01*
X106997Y31932D01*
X106727Y31816D01*
X106431Y31647D01*
X106110Y31424D01*
X105764Y31148D01*
X104995Y30435D01*
X103326Y31595D01*
X103727Y32009D01*
X104352Y32746D01*
X104576Y33069D01*
X104743Y33362D01*
X104850Y33623D01*
X104899Y33855D01*
X104890Y34056D01*
X104822Y34226D01*
X104696Y34366D01*
X107823Y31861D01*
D02*
G37*
G36*
X63786Y42204D02*
Y32500D01*
X63841Y32227D01*
X63995Y31995D01*
X70795Y25195D01*
X70604Y24733D01*
X57218D01*
X55277Y26674D01*
X55111Y27076D01*
X54576Y27611D01*
X53878Y27900D01*
X53122D01*
X52424Y27611D01*
X51889Y27076D01*
X51600Y26378D01*
Y26058D01*
X51100Y25851D01*
X50277Y26674D01*
X50111Y27076D01*
X49576Y27611D01*
X48878Y27900D01*
X48122D01*
X47424Y27611D01*
X46889Y27076D01*
X46670Y26547D01*
X46138Y26371D01*
X43214Y29296D01*
Y32704D01*
X53796Y43286D01*
X62704D01*
X63786Y42204D01*
D02*
G37*
G36*
X104755Y23005D02*
X104735Y23194D01*
X104673Y23363D01*
X104569Y23512D01*
X104424Y23642D01*
X104237Y23751D01*
X104010Y23841D01*
X103740Y23910D01*
X103429Y23960D01*
X103077Y23990D01*
X102683Y24000D01*
Y26000D01*
X103077Y26010D01*
X103429Y26040D01*
X103740Y26090D01*
X104010Y26159D01*
X104237Y26249D01*
X104424Y26358D01*
X104569Y26488D01*
X104673Y26637D01*
X104735Y26806D01*
X104755Y26995D01*
Y23005D01*
D02*
G37*
G36*
X72702Y16341D02*
X72728Y16071D01*
X72751Y15948D01*
X72782Y15833D01*
X72820Y15727D01*
X72865Y15628D01*
X72917Y15538D01*
X72976Y15456D01*
X73043Y15381D01*
X72619Y14957D01*
X72544Y15024D01*
X72462Y15083D01*
X72372Y15135D01*
X72273Y15180D01*
X72167Y15218D01*
X72052Y15249D01*
X71929Y15272D01*
X71798Y15289D01*
X71659Y15298D01*
X71512Y15300D01*
X72700Y16488D01*
X72702Y16341D01*
D02*
G37*
G36*
X70080Y17767D02*
X69889Y17576D01*
X69600Y16878D01*
Y16122D01*
X69889Y15424D01*
X70424Y14889D01*
X71122Y14600D01*
X71438D01*
X71502Y14586D01*
X71631Y14585D01*
X71730Y14578D01*
X71818Y14567D01*
X71892Y14553D01*
X71955Y14536D01*
X72005Y14518D01*
X72044Y14500D01*
X72074Y14483D01*
X72078Y14480D01*
X74173Y12386D01*
X73981Y11924D01*
X56714D01*
Y14213D01*
X56659Y14486D01*
X56505Y14718D01*
X56494Y14728D01*
X56314Y15164D01*
Y15685D01*
X56349Y15864D01*
Y15864D01*
X56295Y16137D01*
X56218Y16253D01*
X56140Y16369D01*
X54743Y17767D01*
X54950Y18267D01*
X69873D01*
X70080Y17767D01*
D02*
G37*
G36*
X109932Y7771D02*
X109832Y7876D01*
X109732Y7971D01*
X109632Y8054D01*
X109532Y8126D01*
X109432Y8186D01*
X109331Y8236D01*
X109231Y8275D01*
X109131Y8303D01*
X109030Y8319D01*
X108929Y8325D01*
X108955Y8925D01*
X109054Y8930D01*
X109153Y8946D01*
X109254Y8972D01*
X109357Y9009D01*
X109461Y9056D01*
X109566Y9114D01*
X109673Y9182D01*
X109781Y9261D01*
X109891Y9350D01*
X110002Y9450D01*
X109932Y7771D01*
D02*
G37*
G36*
X94661Y7051D02*
X94750Y6976D01*
X94840Y6911D01*
X94930Y6854D01*
X95021Y6806D01*
X95113Y6767D01*
X95206Y6737D01*
X95299Y6716D01*
X95393Y6703D01*
X95488Y6700D01*
X94300Y5512D01*
X94297Y5607D01*
X94284Y5701D01*
X94263Y5794D01*
X94233Y5887D01*
X94194Y5979D01*
X94146Y6070D01*
X94089Y6160D01*
X94024Y6250D01*
X93949Y6339D01*
X93866Y6427D01*
X94573Y7134D01*
X94661Y7051D01*
D02*
G37*
G36*
X76243Y5160D02*
X76174Y5225D01*
X76098Y5282D01*
X76017Y5333D01*
X75930Y5378D01*
X75838Y5415D01*
X75740Y5446D01*
X75636Y5469D01*
X75526Y5486D01*
X75410Y5497D01*
X75289Y5500D01*
Y6500D01*
X75410Y6503D01*
X75526Y6514D01*
X75636Y6531D01*
X75740Y6554D01*
X75838Y6585D01*
X75930Y6622D01*
X76017Y6667D01*
X76098Y6718D01*
X76174Y6775D01*
X76243Y6840D01*
Y5160D01*
D02*
G37*
%LPC*%
G36*
X87240Y56513D02*
X86453D01*
X85725Y56212D01*
X85168Y55655D01*
X84867Y54927D01*
Y54140D01*
X85168Y53412D01*
X85725Y52855D01*
X86453Y52554D01*
X87240D01*
X87968Y52855D01*
X88525Y53412D01*
X88826Y54140D01*
Y54927D01*
X88525Y55655D01*
X87968Y56212D01*
X87240Y56513D01*
D02*
G37*
G36*
X80547D02*
X79760D01*
X79032Y56212D01*
X78475Y55655D01*
X78174Y54927D01*
Y54140D01*
X78475Y53412D01*
X79032Y52855D01*
X79760Y52554D01*
X80547D01*
X81275Y52855D01*
X81832Y53412D01*
X82133Y54140D01*
Y54927D01*
X81832Y55655D01*
X81275Y56212D01*
X80547Y56513D01*
D02*
G37*
G36*
X24000Y56714D02*
X13900D01*
X13627Y56659D01*
X13395Y56505D01*
X13241Y56273D01*
X13186Y56000D01*
Y48622D01*
X13205Y48530D01*
X13211Y48437D01*
X13231Y48395D01*
X13241Y48349D01*
X13293Y48271D01*
X13334Y48188D01*
X13467Y48013D01*
X13664Y47538D01*
X13732Y47028D01*
X13664Y46517D01*
X13467Y46042D01*
X13334Y45868D01*
X13293Y45784D01*
X13241Y45706D01*
X13231Y45660D01*
X13211Y45618D01*
X13205Y45525D01*
X13186Y45433D01*
Y20000D01*
X13241Y19727D01*
X13395Y19495D01*
X13627Y19341D01*
X13900Y19286D01*
X22198D01*
X22379Y19016D01*
Y18228D01*
X22680Y17501D01*
X23237Y16944D01*
X23965Y16643D01*
X24752D01*
X25480Y16944D01*
X26036Y17501D01*
X26338Y18228D01*
Y19016D01*
X26518Y19286D01*
X28000D01*
X28273Y19341D01*
X28505Y19495D01*
X28659Y19727D01*
X28714Y20000D01*
Y22200D01*
X28659Y22473D01*
X28505Y22705D01*
X24714Y26496D01*
Y39398D01*
X24752D01*
X25480Y39700D01*
X26036Y40257D01*
X26338Y40984D01*
Y41772D01*
X26036Y42499D01*
X25480Y43056D01*
X24752Y43358D01*
X24714D01*
Y44357D01*
X24696Y44449D01*
X24689Y44542D01*
X24669Y44584D01*
X24659Y44630D01*
X24608Y44708D01*
X24566Y44792D01*
X24531Y44823D01*
X24505Y44862D01*
X24427Y44914D01*
X24357Y44975D01*
X24312Y44991D01*
X24273Y45017D01*
X24182Y45035D01*
X24093Y45065D01*
X23651Y45123D01*
X23176Y45320D01*
X22767Y45633D01*
X22454Y46042D01*
X22257Y46517D01*
X22190Y47028D01*
X22257Y47538D01*
X22454Y48013D01*
X22767Y48422D01*
X23176Y48735D01*
X23651Y48932D01*
X24093Y48990D01*
X24182Y49020D01*
X24273Y49038D01*
X24312Y49065D01*
X24357Y49080D01*
X24427Y49141D01*
X24505Y49193D01*
X24531Y49232D01*
X24566Y49263D01*
X24608Y49347D01*
X24659Y49425D01*
X24669Y49471D01*
X24689Y49513D01*
X24696Y49606D01*
X24714Y49698D01*
Y56000D01*
X24659Y56273D01*
X24505Y56505D01*
X24273Y56659D01*
X24000Y56714D01*
D02*
G37*
%LPD*%
G36*
Y49698D02*
X23465Y49627D01*
X22816Y49358D01*
X22258Y48931D01*
X21831Y48373D01*
X21562Y47724D01*
X21470Y47028D01*
X21562Y46331D01*
X21831Y45682D01*
X22258Y45124D01*
X22816Y44697D01*
X23465Y44428D01*
X24000Y44357D01*
Y43358D01*
X23965D01*
X23237Y43056D01*
X22680Y42499D01*
X22379Y41772D01*
Y40984D01*
X22680Y40257D01*
X23237Y39700D01*
X23965Y39398D01*
X24000D01*
Y26200D01*
X28000Y22200D01*
Y20000D01*
X25780D01*
X25480Y20300D01*
X24752Y20602D01*
X23965D01*
X23237Y20300D01*
X22937Y20000D01*
X13900D01*
Y45433D01*
X14091Y45682D01*
X14360Y46331D01*
X14451Y47028D01*
X14360Y47724D01*
X14091Y48373D01*
X13900Y48622D01*
Y56000D01*
X24000D01*
Y49698D01*
D02*
G37*
D10*
X53500Y13000D02*
X55800Y10700D01*
X90300D01*
X95500Y5500D01*
X34500Y20179D02*
X48679Y6000D01*
X77100D01*
X41900Y42600D02*
Y47200D01*
X34500Y35200D02*
X41900Y42600D01*
X34500Y20179D02*
Y35200D01*
D17*
X90974Y34500D02*
G03*
X98300Y41826I-0J7326D01*
G01*
X103600Y52500D02*
G03*
X98300Y47200I0J-5300D01*
G01*
X71500Y16500D02*
X75400Y12600D01*
X90900D01*
X94875Y8625D01*
X98300Y41826D02*
Y47200D01*
X81000Y34500D02*
X90969D01*
X90974Y34500D01*
X103600Y52500D02*
X119029D01*
X94875Y8625D02*
X110773D01*
X110823Y8575D01*
D29*
X110000Y45000D02*
D03*
Y35000D02*
D03*
Y25000D02*
D03*
Y15000D02*
D03*
D52*
X80800Y40000D02*
X91500D01*
X68300Y52500D02*
X80800Y40000D01*
X32100Y52500D02*
X68300D01*
X30100Y54500D02*
X32100Y52500D01*
D53*
X53500Y26000D02*
X56500Y23000D01*
X91000D01*
X54500Y20000D02*
X92500D01*
X48500Y26000D02*
X54500Y20000D01*
X91000Y23000D02*
X96200Y28200D01*
X101346D02*
X108146Y35000D01*
X96200Y28200D02*
X101346D01*
X97500Y25000D02*
X110000D01*
X92500Y20000D02*
X97500Y25000D01*
X108146Y35000D02*
X110000D01*
D55*
X102800Y49800D02*
X102859D01*
X107577Y45082D02*
X109918D01*
X102859Y49800D02*
X107577Y45082D01*
D59*
X80154Y54533D02*
D03*
X86847D02*
D03*
X24358Y41378D02*
D03*
Y18622D02*
D03*
D60*
X10579Y12972D02*
D03*
Y47028D02*
D03*
D61*
X26327Y12972D02*
D03*
Y47028D02*
D03*
D62*
X30100Y54500D02*
D03*
D63*
X53500Y26000D02*
D03*
X48500D02*
D03*
X83100Y16700D02*
D03*
X53500Y13000D02*
D03*
X62500Y15400D02*
D03*
X67500D02*
D03*
X57500D02*
D03*
X40406Y26094D02*
D03*
X38500Y35600D02*
D03*
X41900Y47200D02*
D03*
X20000Y44000D02*
D03*
X25800Y21600D02*
D03*
X23800Y23500D02*
D03*
X102800Y49800D02*
D03*
X119029Y52500D02*
D03*
X81000Y34500D02*
D03*
X30000Y5200D02*
D03*
X118000Y57500D02*
D03*
X104000D02*
D03*
X77100Y6000D02*
D03*
X97500Y20000D02*
D03*
X7500Y35000D02*
D03*
Y27500D02*
D03*
X20000Y36000D02*
D03*
X62500Y37500D02*
D03*
X52500D02*
D03*
X33000Y47000D02*
D03*
X65000Y57500D02*
D03*
X47500D02*
D03*
X37500D02*
D03*
X82500Y47500D02*
D03*
X86000D02*
D03*
X75000Y40000D02*
D03*
Y36500D02*
D03*
X102500Y20000D02*
D03*
X92500Y2500D02*
D03*
X82500D02*
D03*
X35000Y7500D02*
D03*
X42500Y17500D02*
D03*
X40000Y20000D02*
D03*
X7500D02*
D03*
Y55000D02*
D03*
X16000Y40000D02*
D03*
Y48000D02*
D03*
Y54500D02*
D03*
X95500Y5500D02*
D03*
X67500Y46700D02*
D03*
X110823Y8575D02*
D03*
X71500Y16500D02*
D03*
X61664Y47230D02*
D03*
D64*
X91500Y40000D02*
D03*
M02*
