G04*
G04 #@! TF.GenerationSoftware,Altium Limited,Altium Designer,22.3.1 (43)*
G04*
G04 Layer_Physical_Order=2*
G04 Layer_Color=15428901*
%FSLAX25Y25*%
%MOIN*%
G70*
G04*
G04 #@! TF.SameCoordinates,9C32C5B8-EF8F-45BB-929C-AB9431649599*
G04*
G04*
G04 #@! TF.FilePolarity,Positive*
G04*
G01*
G75*
%ADD10C,0.01000*%
%ADD17C,0.00600*%
G04:AMPARAMS|DCode=29|XSize=62.99mil|YSize=106.3mil|CornerRadius=15.75mil|HoleSize=0mil|Usage=FLASHONLY|Rotation=270.000|XOffset=0mil|YOffset=0mil|HoleType=Round|Shape=RoundedRectangle|*
%AMROUNDEDRECTD29*
21,1,0.06299,0.07480,0,0,270.0*
21,1,0.03150,0.10630,0,0,270.0*
1,1,0.03150,-0.03740,-0.01575*
1,1,0.03150,-0.03740,0.01575*
1,1,0.03150,0.03740,0.01575*
1,1,0.03150,0.03740,-0.01575*
%
%ADD29ROUNDEDRECTD29*%
%ADD52C,0.04000*%
%ADD53C,0.02500*%
%ADD54C,0.02000*%
%ADD58C,0.02559*%
%ADD59O,0.06299X0.03937*%
%ADD60O,0.08268X0.03937*%
%ADD61C,0.02400*%
%ADD62C,0.05000*%
G36*
X110143Y56960D02*
X110038Y57063D01*
X109828Y57235D01*
X109725Y57306D01*
X109622Y57365D01*
X109520Y57414D01*
X109418Y57451D01*
X109318Y57478D01*
X109218Y57495D01*
X109118Y57500D01*
Y58100D01*
X109218Y58105D01*
X109318Y58122D01*
X109418Y58149D01*
X109520Y58186D01*
X109622Y58235D01*
X109725Y58294D01*
X109828Y58365D01*
X109933Y58446D01*
X110038Y58537D01*
X110143Y58640D01*
Y56960D01*
D02*
G37*
G36*
X41643Y47160D02*
X41574Y47225D01*
X41498Y47282D01*
X41417Y47333D01*
X41330Y47378D01*
X41238Y47415D01*
X41140Y47446D01*
X41036Y47469D01*
X41000Y47475D01*
X40964Y47469D01*
X40860Y47446D01*
X40762Y47415D01*
X40670Y47378D01*
X40583Y47333D01*
X40502Y47282D01*
X40426Y47225D01*
X40357Y47160D01*
Y48840D01*
X40426Y48775D01*
X40502Y48718D01*
X40583Y48667D01*
X40670Y48622D01*
X40762Y48585D01*
X40860Y48554D01*
X40964Y48531D01*
X41000Y48525D01*
X41036Y48531D01*
X41140Y48554D01*
X41238Y48585D01*
X41330Y48622D01*
X41417Y48667D01*
X41498Y48718D01*
X41574Y48775D01*
X41643Y48840D01*
Y47160D01*
D02*
G37*
G36*
X39488Y46800D02*
X39393Y46797D01*
X39299Y46784D01*
X39206Y46763D01*
X39113Y46733D01*
X39021Y46694D01*
X38930Y46646D01*
X38840Y46589D01*
X38750Y46524D01*
X38661Y46449D01*
X38573Y46366D01*
X37866Y47073D01*
X37949Y47161D01*
X38024Y47250D01*
X38089Y47340D01*
X38146Y47430D01*
X38194Y47521D01*
X38233Y47613D01*
X38263Y47706D01*
X38284Y47799D01*
X38297Y47893D01*
X38300Y47988D01*
X39488Y46800D01*
D02*
G37*
G36*
X5000Y58980D02*
X13307D01*
X13451Y58617D01*
X13479Y58480D01*
X13341Y58273D01*
X13286Y58000D01*
Y48492D01*
X13305Y48400D01*
X13311Y48307D01*
X13331Y48265D01*
X13341Y48219D01*
X13393Y48141D01*
X13434Y48057D01*
X13467Y48013D01*
X13664Y47538D01*
X13732Y47028D01*
X13664Y46517D01*
X13467Y46042D01*
X13434Y45998D01*
X13393Y45914D01*
X13341Y45837D01*
X13331Y45790D01*
X13311Y45748D01*
X13305Y45655D01*
X13286Y45564D01*
Y20000D01*
X13341Y19727D01*
X13495Y19495D01*
X13727Y19341D01*
X14000Y19286D01*
X22198D01*
X22379Y19016D01*
Y18228D01*
X22680Y17501D01*
X23237Y16944D01*
X23965Y16643D01*
X24752D01*
X25480Y16944D01*
X26036Y17501D01*
X26338Y18228D01*
Y19016D01*
X26518Y19286D01*
X28000D01*
X28273Y19341D01*
X28505Y19495D01*
X28659Y19727D01*
X28714Y20000D01*
Y40000D01*
X28659Y40273D01*
X28505Y40505D01*
X27304Y41705D01*
X27073Y41860D01*
X26800Y41914D01*
X26527Y41860D01*
X26255Y41972D01*
X26036Y42499D01*
X25480Y43056D01*
X24953Y43274D01*
X24840Y43546D01*
X24894Y43819D01*
X24840Y44093D01*
X24714Y44282D01*
Y44357D01*
X24696Y44449D01*
X24689Y44542D01*
X24669Y44584D01*
X24659Y44630D01*
X24608Y44708D01*
X24566Y44792D01*
X24531Y44823D01*
X24505Y44862D01*
X24427Y44914D01*
X24357Y44975D01*
X24312Y44991D01*
X24273Y45017D01*
X24182Y45035D01*
X24093Y45065D01*
X23651Y45123D01*
X23176Y45320D01*
X22767Y45633D01*
X22454Y46042D01*
X22257Y46517D01*
X22190Y47028D01*
X22257Y47538D01*
X22454Y48013D01*
X22767Y48422D01*
X23176Y48735D01*
X23651Y48932D01*
X24093Y48990D01*
X24182Y49020D01*
X24273Y49038D01*
X24312Y49065D01*
X24357Y49080D01*
X24427Y49141D01*
X24505Y49193D01*
X24531Y49232D01*
X24566Y49263D01*
X24608Y49347D01*
X24659Y49425D01*
X24669Y49471D01*
X24689Y49513D01*
X24696Y49606D01*
X24714Y49698D01*
Y58000D01*
X24659Y58273D01*
X24521Y58480D01*
X24549Y58617D01*
X24693Y58980D01*
X98367D01*
X98519Y58651D01*
X98539Y58480D01*
X94279Y54221D01*
X94058Y53890D01*
X93980Y53500D01*
Y42698D01*
X93519Y42507D01*
X93465Y42561D01*
X92735Y42982D01*
X91921Y43200D01*
X91079D01*
X90265Y42982D01*
X89777Y42700D01*
X86736Y42660D01*
X84569D01*
X83023Y44205D01*
X83023Y44205D01*
X72802Y54426D01*
X72238Y54858D01*
X71582Y55130D01*
X70877Y55223D01*
X33628D01*
X32926Y55926D01*
X32560Y56206D01*
X32411Y56465D01*
X31815Y57061D01*
X31085Y57482D01*
X30271Y57700D01*
X29429D01*
X28615Y57482D01*
X27885Y57061D01*
X27289Y56465D01*
X26868Y55735D01*
X26650Y54921D01*
Y54079D01*
X26868Y53265D01*
X27289Y52535D01*
X27885Y51939D01*
X28615Y51518D01*
X29429Y51300D01*
X29849D01*
X30574Y50574D01*
X31138Y50142D01*
X31795Y49869D01*
X32500Y49777D01*
X37883D01*
X38090Y49277D01*
X37889Y49076D01*
X37600Y48378D01*
Y48070D01*
X37587Y48014D01*
X37585Y47953D01*
X37581Y47925D01*
X37574Y47896D01*
X37564Y47863D01*
X37548Y47827D01*
X37527Y47786D01*
X37498Y47741D01*
X37466Y47696D01*
X33635Y43865D01*
X33370Y43468D01*
X33277Y43000D01*
Y20179D01*
X33370Y19711D01*
X33635Y19314D01*
X51429Y1520D01*
X51222Y1020D01*
X5000D01*
X4989Y1017D01*
X3969Y1152D01*
X3008Y1550D01*
X2183Y2183D01*
X1550Y3008D01*
X1152Y3969D01*
X1017Y4989D01*
X1020Y5000D01*
Y55000D01*
X1017Y55011D01*
X1152Y56031D01*
X1550Y56992D01*
X2183Y57817D01*
X3008Y58450D01*
X3969Y58848D01*
X4989Y58983D01*
X5000Y58980D01*
D02*
G37*
G36*
X79172Y40354D02*
X80495Y39031D01*
X80378Y38441D01*
X80079Y38317D01*
X79544Y37782D01*
X79255Y37084D01*
Y36328D01*
X79544Y35630D01*
X80079Y35095D01*
X80777Y34806D01*
X81533D01*
X82231Y35095D01*
X82766Y35630D01*
X82789Y35687D01*
X85871D01*
X86779Y34779D01*
X87110Y34558D01*
X87500Y34480D01*
X87818D01*
X88009Y34018D01*
X86204Y32214D01*
X75296D01*
X71714Y35796D01*
Y46000D01*
X71659Y46273D01*
X71505Y46505D01*
X68733Y49277D01*
X68940Y49777D01*
X69749D01*
X79172Y40354D01*
D02*
G37*
G36*
X105472Y32060D02*
X105299Y32179D01*
X105107Y32285D01*
X104896Y32379D01*
X104665Y32460D01*
X104415Y32529D01*
X104146Y32585D01*
X103857Y32629D01*
X103222Y32679D01*
X102875Y32685D01*
X102683Y34685D01*
X103104Y34695D01*
X103476Y34725D01*
X103800Y34775D01*
X104074Y34845D01*
X104300Y34935D01*
X104476Y35045D01*
X104604Y35175D01*
X104684Y35325D01*
X104714Y35495D01*
X104696Y35685D01*
X105472Y32060D01*
D02*
G37*
G36*
X116000Y48500D02*
Y41500D01*
X114500Y40000D01*
X108000Y40000D01*
X106894Y38894D01*
X106260D01*
X105372Y38718D01*
X104620Y38215D01*
X104117Y37462D01*
X103940Y36575D01*
Y35941D01*
X103442Y35442D01*
X103393Y35434D01*
X103195Y35418D01*
X101685D01*
X101022Y35286D01*
X100459Y34911D01*
X90282Y24733D01*
X72267D01*
X64500Y32500D01*
Y42500D01*
X63000Y44000D01*
X53500D01*
X42500Y33000D01*
Y29000D01*
X55753Y15747D01*
X55600Y15378D01*
Y14622D01*
X55889Y13924D01*
X56000Y13813D01*
Y4000D01*
X52410D01*
X51500Y4910D01*
Y12500D01*
X36500Y27500D01*
Y35500D01*
X50000Y49000D01*
X68000D01*
X71000Y46000D01*
Y35500D01*
X75000Y31500D01*
X86500D01*
X89480Y34480D01*
X93058D01*
X93448Y34558D01*
X93779Y34779D01*
X95721Y36721D01*
X95942Y37052D01*
X96020Y37442D01*
Y41020D01*
X105000Y50000D01*
X114500D01*
X116000Y48500D01*
D02*
G37*
G36*
X63786Y42204D02*
Y32500D01*
X63841Y32227D01*
X63995Y31995D01*
X70795Y25195D01*
X70604Y24733D01*
X59218D01*
X55277Y28674D01*
X55111Y29076D01*
X54576Y29611D01*
X53878Y29900D01*
X53122D01*
X52424Y29611D01*
X51889Y29076D01*
X51600Y28378D01*
Y28058D01*
X51100Y27851D01*
X50277Y28674D01*
X50111Y29076D01*
X49576Y29611D01*
X48878Y29900D01*
X48122D01*
X47424Y29611D01*
X46889Y29076D01*
X46600Y28378D01*
Y27622D01*
X46889Y26924D01*
X47424Y26389D01*
X47826Y26223D01*
X55274Y18774D01*
X55837Y18399D01*
X56500Y18267D01*
X69873D01*
X70080Y17767D01*
X69889Y17576D01*
X69600Y16878D01*
Y16122D01*
X69889Y15424D01*
X70424Y14889D01*
X71122Y14600D01*
X71438D01*
X71502Y14586D01*
X71631Y14585D01*
X71730Y14578D01*
X71818Y14567D01*
X71892Y14553D01*
X71955Y14536D01*
X72005Y14518D01*
X72044Y14500D01*
X72074Y14483D01*
X72078Y14480D01*
X78654Y7904D01*
X78985Y7683D01*
X79375Y7605D01*
X94311D01*
X94418Y7136D01*
X94418Y7105D01*
X94206Y6893D01*
X94157Y6863D01*
X94112Y6821D01*
X94090Y6804D01*
X94064Y6788D01*
X94034Y6773D01*
X93998Y6758D01*
X93954Y6744D01*
X93901Y6732D01*
X93846Y6724D01*
X56714D01*
Y13813D01*
X56659Y14086D01*
X56505Y14318D01*
X56494Y14328D01*
X56314Y14764D01*
Y15236D01*
X56412Y15474D01*
X56467Y15747D01*
X56412Y16020D01*
X56258Y16252D01*
X43214Y29296D01*
Y32704D01*
X53796Y43286D01*
X62704D01*
X63786Y42204D01*
D02*
G37*
G36*
X104755Y23005D02*
X104735Y23194D01*
X104673Y23363D01*
X104569Y23512D01*
X104424Y23642D01*
X104237Y23751D01*
X104010Y23841D01*
X103740Y23910D01*
X103429Y23960D01*
X103077Y23990D01*
X102683Y24000D01*
Y26000D01*
X103077Y26010D01*
X103429Y26040D01*
X103740Y26090D01*
X104010Y26159D01*
X104237Y26249D01*
X104424Y26358D01*
X104569Y26488D01*
X104673Y26637D01*
X104735Y26806D01*
X104755Y26995D01*
Y23005D01*
D02*
G37*
G36*
X24000Y49698D02*
X23465Y49627D01*
X22816Y49358D01*
X22258Y48931D01*
X21831Y48373D01*
X21562Y47724D01*
X21470Y47028D01*
X21562Y46331D01*
X21831Y45682D01*
X22258Y45124D01*
X22816Y44697D01*
X23465Y44428D01*
X24000Y44357D01*
Y44000D01*
X24181Y43819D01*
X23989Y43358D01*
X23965D01*
X23237Y43056D01*
X22680Y42499D01*
X22379Y41772D01*
Y40984D01*
X22680Y40257D01*
X23237Y39700D01*
X23965Y39398D01*
X24752D01*
X25480Y39700D01*
X26036Y40257D01*
X26338Y40984D01*
Y41009D01*
X26800Y41200D01*
X28000Y40000D01*
Y20000D01*
X25780D01*
X25480Y20300D01*
X24752Y20602D01*
X23965D01*
X23237Y20300D01*
X22937Y20000D01*
X14000D01*
Y45564D01*
X14091Y45682D01*
X14360Y46331D01*
X14451Y47028D01*
X14360Y47724D01*
X14091Y48373D01*
X14000Y48492D01*
Y58000D01*
X24000D01*
Y49698D01*
D02*
G37*
G36*
X72702Y16341D02*
X72728Y16071D01*
X72751Y15948D01*
X72782Y15833D01*
X72820Y15727D01*
X72865Y15628D01*
X72917Y15538D01*
X72976Y15456D01*
X73043Y15381D01*
X72619Y14957D01*
X72544Y15024D01*
X72462Y15083D01*
X72372Y15135D01*
X72273Y15180D01*
X72167Y15218D01*
X72052Y15249D01*
X71929Y15272D01*
X71798Y15289D01*
X71659Y15298D01*
X71512Y15300D01*
X72700Y16488D01*
X72702Y16341D01*
D02*
G37*
G36*
X109932Y7771D02*
X109832Y7876D01*
X109732Y7971D01*
X109632Y8054D01*
X109532Y8126D01*
X109432Y8186D01*
X109331Y8236D01*
X109231Y8275D01*
X109131Y8303D01*
X109030Y8319D01*
X108929Y8325D01*
X108955Y8925D01*
X109054Y8930D01*
X109153Y8946D01*
X109254Y8972D01*
X109357Y9009D01*
X109461Y9056D01*
X109566Y9114D01*
X109673Y9182D01*
X109781Y9261D01*
X109891Y9350D01*
X110002Y9450D01*
X109932Y7771D01*
D02*
G37*
G36*
X103343Y23251D02*
X103594Y23211D01*
X103789Y23161D01*
X103924Y23107D01*
X104002Y23062D01*
X104015Y23050D01*
X104117Y22538D01*
X104620Y21785D01*
X105372Y21282D01*
X106260Y21106D01*
X113740D01*
X114628Y21282D01*
X115380Y21785D01*
X115883Y22538D01*
X115980Y23027D01*
X116480Y22978D01*
Y10000D01*
X116558Y9610D01*
X116779Y9279D01*
X117110Y9058D01*
X117500Y8980D01*
X126480D01*
Y5000D01*
X126483Y4989D01*
X126348Y3969D01*
X125950Y3008D01*
X125317Y2183D01*
X124492Y1550D01*
X123531Y1152D01*
X122511Y1017D01*
X122500Y1020D01*
X79109D01*
X78775Y1520D01*
X78900Y1822D01*
Y2578D01*
X78611Y3276D01*
X78110Y3777D01*
X78126Y3938D01*
X78258Y4276D01*
X93846D01*
X93901Y4268D01*
X93954Y4256D01*
X93998Y4242D01*
X94034Y4228D01*
X94064Y4212D01*
X94090Y4196D01*
X94112Y4179D01*
X94157Y4137D01*
X94206Y4107D01*
X94424Y3889D01*
X95122Y3600D01*
X95878D01*
X96576Y3889D01*
X97111Y4424D01*
X97400Y5122D01*
Y5878D01*
X97111Y6576D01*
X96582Y7105D01*
X96582Y7136D01*
X96689Y7605D01*
X108973D01*
X108977Y7605D01*
X109007Y7597D01*
X109043Y7582D01*
X109087Y7561D01*
X109137Y7530D01*
X109195Y7489D01*
X109259Y7436D01*
X109328Y7371D01*
X109414Y7280D01*
X109471Y7240D01*
X109747Y6964D01*
X110445Y6675D01*
X111201D01*
X111899Y6964D01*
X112434Y7498D01*
X112723Y8197D01*
Y8952D01*
X112434Y9651D01*
X111899Y10185D01*
X111201Y10475D01*
X110445D01*
X109747Y10185D01*
X109567Y10006D01*
X109526Y9981D01*
X109427Y9893D01*
X109346Y9827D01*
X109271Y9772D01*
X109202Y9728D01*
X109141Y9695D01*
X109088Y9671D01*
X109044Y9655D01*
X109007Y9646D01*
X109002Y9645D01*
X79797D01*
X73520Y15922D01*
X73517Y15926D01*
X73500Y15956D01*
X73482Y15995D01*
X73464Y16045D01*
X73447Y16108D01*
X73435Y16172D01*
X73415Y16380D01*
X73414Y16498D01*
X73400Y16562D01*
Y16878D01*
X73111Y17576D01*
X72920Y17767D01*
X73127Y18267D01*
X92500D01*
X93163Y18399D01*
X93726Y18774D01*
X98218Y23267D01*
X103161D01*
X103343Y23251D01*
D02*
G37*
G36*
X50786Y12204D02*
Y6277D01*
X50324Y6085D01*
X35724Y20686D01*
Y26560D01*
X36224Y26767D01*
X50786Y12204D01*
D02*
G37*
G36*
X94643Y4660D02*
X94573Y4725D01*
X94498Y4782D01*
X94417Y4833D01*
X94330Y4878D01*
X94238Y4915D01*
X94140Y4946D01*
X94036Y4969D01*
X93926Y4986D01*
X93810Y4997D01*
X93689Y5000D01*
Y6000D01*
X93810Y6003D01*
X93926Y6014D01*
X94036Y6031D01*
X94140Y6054D01*
X94238Y6085D01*
X94330Y6122D01*
X94417Y6167D01*
X94498Y6218D01*
X94573Y6275D01*
X94643Y6340D01*
Y4660D01*
D02*
G37*
G36*
X76143Y1360D02*
X76073Y1425D01*
X75998Y1482D01*
X75917Y1533D01*
X75830Y1578D01*
X75738Y1615D01*
X75640Y1646D01*
X75536Y1669D01*
X75426Y1686D01*
X75310Y1697D01*
X75189Y1700D01*
Y2700D01*
X75310Y2703D01*
X75426Y2714D01*
X75536Y2731D01*
X75640Y2754D01*
X75738Y2785D01*
X75830Y2822D01*
X75917Y2867D01*
X75998Y2918D01*
X76073Y2975D01*
X76143Y3040D01*
Y1360D01*
D02*
G37*
%LPC*%
G36*
X87240Y56513D02*
X86453D01*
X85725Y56212D01*
X85168Y55655D01*
X84867Y54927D01*
Y54140D01*
X85168Y53412D01*
X85725Y52855D01*
X86453Y52554D01*
X87240D01*
X87968Y52855D01*
X88525Y53412D01*
X88826Y54140D01*
Y54927D01*
X88525Y55655D01*
X87968Y56212D01*
X87240Y56513D01*
D02*
G37*
G36*
X80547D02*
X79760D01*
X79032Y56212D01*
X78475Y55655D01*
X78174Y54927D01*
Y54140D01*
X78475Y53412D01*
X79032Y52855D01*
X79760Y52554D01*
X80547D01*
X81275Y52855D01*
X81832Y53412D01*
X82133Y54140D01*
Y54927D01*
X81832Y55655D01*
X81275Y56212D01*
X80547Y56513D01*
D02*
G37*
%LPD*%
D10*
X52479Y2200D02*
X77000D01*
X34500Y20179D02*
X52479Y2200D01*
X53500Y5500D02*
X95500D01*
X34500Y43000D02*
X39500Y48000D01*
X34500Y20179D02*
Y43000D01*
X39500Y48000D02*
X42500D01*
D17*
X93058Y35500D02*
X95000Y37442D01*
X87500Y35500D02*
X93058D01*
X95000Y37442D02*
Y53500D01*
X86294Y36706D02*
X87500Y35500D01*
X81155Y36706D02*
X86294D01*
X99300Y57800D02*
X111000D01*
X95000Y53500D02*
X99300Y57800D01*
X79375Y8625D02*
X110773D01*
X71500Y16500D02*
X79375Y8625D01*
X110773D02*
X110823Y8575D01*
D29*
X110000Y45000D02*
D03*
Y35000D02*
D03*
Y25000D02*
D03*
Y15000D02*
D03*
D52*
X81097Y42279D02*
X83440Y39936D01*
X70877Y52500D02*
X81097Y42279D01*
X83440Y39936D02*
X86754D01*
X91500Y40000D01*
X30350Y54000D02*
X31000D01*
X32500Y52500D02*
X70877D01*
X29850Y54500D02*
X30350Y54000D01*
X31000D02*
X32500Y52500D01*
D53*
X108748Y46251D02*
X109918Y45082D01*
X98036Y51622D02*
X103406Y46251D01*
X108748D01*
D54*
X53500Y28000D02*
X58500Y23000D01*
X91000D01*
X48500Y28000D02*
X56500Y20000D01*
X92500D01*
X97500Y25000D02*
X110000D01*
X92500Y20000D02*
X97500Y25000D01*
X108685Y33685D02*
X110000Y35000D01*
X101685Y33685D02*
X108685D01*
X91000Y23000D02*
X101685Y33685D01*
D58*
X80154Y54533D02*
D03*
X86847D02*
D03*
X24358Y41378D02*
D03*
Y18622D02*
D03*
D59*
X10579Y12972D02*
D03*
Y47028D02*
D03*
D60*
X26327Y12972D02*
D03*
Y47028D02*
D03*
D61*
X7500Y35000D02*
D03*
Y27500D02*
D03*
X16000Y32000D02*
D03*
X20000Y36000D02*
D03*
X111000Y57800D02*
D03*
X77000Y2200D02*
D03*
X57500Y15000D02*
D03*
X30000Y5000D02*
D03*
X62500Y37500D02*
D03*
X52500D02*
D03*
X32500Y47500D02*
D03*
X65000Y57500D02*
D03*
X47500D02*
D03*
X37500D02*
D03*
X82500Y47500D02*
D03*
X85000Y45000D02*
D03*
X75000Y40000D02*
D03*
Y37500D02*
D03*
X97500Y20000D02*
D03*
X102500D02*
D03*
X77500Y15000D02*
D03*
X67500D02*
D03*
X62500D02*
D03*
X92500Y2500D02*
D03*
X82500D02*
D03*
X35000Y7500D02*
D03*
X42500Y17500D02*
D03*
X40000Y20000D02*
D03*
X7500D02*
D03*
Y55000D02*
D03*
X16000Y40000D02*
D03*
Y48000D02*
D03*
Y56000D02*
D03*
X25500Y22500D02*
D03*
X42500Y48000D02*
D03*
X39500D02*
D03*
X53500Y5500D02*
D03*
X39000Y35000D02*
D03*
X98036Y51622D02*
D03*
X81155Y36706D02*
D03*
X95500Y5500D02*
D03*
X67500Y46700D02*
D03*
X110823Y8575D02*
D03*
X53500Y28000D02*
D03*
X71500Y16500D02*
D03*
X39000Y27500D02*
D03*
X61664Y47230D02*
D03*
X48500Y28000D02*
D03*
D62*
X91500Y40000D02*
D03*
X29850Y54500D02*
D03*
M02*
